<?xml version="1.0" encoding="utf-8" standalone="no"?>
<!DOCTYPE svg PUBLIC "-//W3C//DTD SVG 1.1//EN"
  "http://www.w3.org/Graphics/SVG/1.1/DTD/svg11.dtd">
<svg height="284.220529pt" version="1.1" viewBox="0 0 399.630082 284.220529" width="399.630082pt" xmlns="http://www.w3.org/2000/svg" xmlns:xlink="http://www.w3.org/1999/xlink">
 <metadata>
  <rdf:RDF xmlns:cc="http://creativecommons.org/ns#" xmlns:dc="http://purl.org/dc/elements/1.1/" xmlns:rdf="http://www.w3.org/1999/02/22-rdf-syntax-ns#">
   <cc:Work>
    <dc:type rdf:resource="http://purl.org/dc/dcmitype/StillImage"/>
    <dc:date>2022-11-12T04:47:20.198379</dc:date>
    <dc:format>image/svg+xml</dc:format>
    <dc:creator>
     <cc:Agent>
      <dc:title>Matplotlib v3.4.2, https://matplotlib.org/</dc:title>
     </cc:Agent>
    </dc:creator>
   </cc:Work>
  </rdf:RDF>
 </metadata>
 <defs>
  <style type="text/css">*{stroke-linecap:butt;stroke-linejoin:round;}</style>
 </defs>
 <g id="figure_1">
  <g id="patch_1">
   <path d="M 0 284.220529 
L 399.630082 284.220529 
L 399.630082 0 
L 0 0 
z
" style="fill:none;"/>
  </g>
  <g id="axes_1">
   <g id="patch_2">
    <path d="M 50.317094 224.64 
L 385.117094 224.64 
L 385.117094 7.2 
L 50.317094 7.2 
z
" style="fill:#ffffff;"/>
   </g>
   <g id="matplotlib.axis_1">
    <g id="xtick_1">
     <g id="line2d_1">
      <path clip-path="url(#p72e2b4030c)" d="M 65.535276 224.64 
L 65.535276 7.2 
" style="fill:none;stroke:#b0b0b0;stroke-linecap:square;stroke-width:0.8;"/>
     </g>
     <g id="line2d_2">
      <defs>
       <path d="M 0 0 
L 0 3.5 
" id="m105f52f825" style="stroke:#000000;stroke-width:0.8;"/>
      </defs>
      <g>
       <use style="stroke:#000000;stroke-width:0.8;" x="65.535276" xlink:href="#m105f52f825" y="224.64"/>
      </g>
     </g>
     <g id="text_1">
      <!-- (1,3) -->
      <g transform="translate(43.004106 247.661903)scale(0.22 -0.22)">
       <defs>
        <path d="M 1510 4672 
C 870 3833 467 2668 467 1663 
C 467 652 870 -513 1510 -1351 
L 1862 -1351 
C 1299 -436 986 639 986 1663 
C 986 2681 1299 3763 1862 4672 
L 1510 4672 
z
" id="NimbusSanL-Regu-28" transform="scale(0.015625)"/>
        <path d="M 1658 3232 
L 1658 0 
L 2221 0 
L 2221 4537 
L 1850 4537 
C 1651 3840 1523 3744 653 3635 
L 653 3232 
L 1658 3232 
z
" id="NimbusSanL-Regu-31" transform="scale(0.015625)"/>
        <path d="M 557 665 
L 557 0 
L 941 0 
L 941 -116 
C 941 -557 858 -685 557 -698 
L 557 -941 
C 1005 -941 1229 -653 1229 -103 
L 1229 665 
L 557 665 
z
" id="NimbusSanL-Regu-2c" transform="scale(0.015625)"/>
        <path d="M 1414 2093 
L 1485 2093 
L 1722 2099 
C 2342 2099 2662 1819 2662 1276 
C 2662 709 2310 371 1722 371 
C 1107 371 806 677 768 1334 
L 205 1334 
C 230 970 294 734 403 530 
C 634 96 1082 -128 1702 -128 
C 2637 -128 3238 428 3238 1283 
C 3238 1857 3014 2176 2470 2361 
C 2893 2526 3104 2845 3104 3298 
C 3104 4076 2586 4544 1722 4544 
C 806 4544 320 4044 301 3081 
L 864 3081 
C 870 3356 896 3509 966 3649 
C 1094 3898 1376 4051 1728 4051 
C 2227 4051 2528 3757 2528 3279 
C 2528 2960 2413 2769 2163 2667 
C 2010 2603 1811 2577 1414 2571 
L 1414 2093 
z
" id="NimbusSanL-Regu-33" transform="scale(0.015625)"/>
        <path d="M 595 -1351 
C 1235 -513 1638 652 1638 1657 
C 1638 2668 1235 3833 595 4672 
L 243 4672 
C 806 3756 1120 2681 1120 1657 
C 1120 639 806 -442 243 -1351 
L 595 -1351 
z
" id="NimbusSanL-Regu-29" transform="scale(0.015625)"/>
       </defs>
       <use transform="scale(0.996264)" xlink:href="#NimbusSanL-Regu-28"/>
       <use transform="translate(33.17523 0)scale(0.996264)" xlink:href="#NimbusSanL-Regu-31"/>
       <use transform="translate(88.566907 0)scale(0.996264)" xlink:href="#NimbusSanL-Regu-2c"/>
       <use transform="translate(116.262076 0)scale(0.996264)" xlink:href="#NimbusSanL-Regu-33"/>
       <use transform="translate(171.653753 0)scale(0.996264)" xlink:href="#NimbusSanL-Regu-29"/>
      </g>
     </g>
    </g>
    <g id="xtick_2">
     <g id="line2d_3">
      <path clip-path="url(#p72e2b4030c)" d="M 126.408003 224.64 
L 126.408003 7.2 
" style="fill:none;stroke:#b0b0b0;stroke-linecap:square;stroke-width:0.8;"/>
     </g>
     <g id="line2d_4">
      <g>
       <use style="stroke:#000000;stroke-width:0.8;" x="126.408003" xlink:href="#m105f52f825" y="224.64"/>
      </g>
     </g>
     <g id="text_2">
      <!-- (3,5) -->
      <g transform="translate(103.876833 247.661903)scale(0.22 -0.22)">
       <defs>
        <path d="M 3046 4544 
L 704 4544 
L 365 2076 
L 883 2076 
C 1146 2387 1363 2496 1715 2496 
C 2323 2496 2707 2082 2707 1414 
C 2707 765 2330 371 1715 371 
C 1222 371 922 619 787 1128 
L 224 1128 
C 301 759 365 581 499 415 
C 755 70 1216 -128 1728 -128 
C 2643 -128 3283 536 3283 1490 
C 3283 2381 2688 2995 1818 2995 
C 1498 2995 1242 2912 979 2720 
L 1158 3987 
L 3046 3987 
L 3046 4544 
z
" id="NimbusSanL-Regu-35" transform="scale(0.015625)"/>
       </defs>
       <use transform="scale(0.996264)" xlink:href="#NimbusSanL-Regu-28"/>
       <use transform="translate(33.17523 0)scale(0.996264)" xlink:href="#NimbusSanL-Regu-33"/>
       <use transform="translate(88.566907 0)scale(0.996264)" xlink:href="#NimbusSanL-Regu-2c"/>
       <use transform="translate(116.262076 0)scale(0.996264)" xlink:href="#NimbusSanL-Regu-35"/>
       <use transform="translate(171.653753 0)scale(0.996264)" xlink:href="#NimbusSanL-Regu-29"/>
      </g>
     </g>
    </g>
    <g id="xtick_3">
     <g id="line2d_5">
      <path clip-path="url(#p72e2b4030c)" d="M 187.28073 224.64 
L 187.28073 7.2 
" style="fill:none;stroke:#b0b0b0;stroke-linecap:square;stroke-width:0.8;"/>
     </g>
     <g id="line2d_6">
      <g>
       <use style="stroke:#000000;stroke-width:0.8;" x="187.28073" xlink:href="#m105f52f825" y="224.64"/>
      </g>
     </g>
     <g id="text_3">
      <!-- (0,3) -->
      <g transform="translate(164.74956 247.661903)scale(0.22 -0.22)">
       <defs>
        <path d="M 1760 4544 
C 1338 4544 954 4358 717 4044 
C 422 3649 275 3043 275 2207 
C 275 683 787 -128 1760 -128 
C 2720 -128 3245 683 3245 2169 
C 3245 3049 3104 3636 2803 4044 
C 2566 4364 2189 4544 1760 4544 
z
M 1760 4044 
C 2368 4044 2669 3432 2669 2220 
C 2669 938 2374 339 1747 339 
C 1152 339 851 964 851 2201 
C 851 3438 1152 4044 1760 4044 
z
" id="NimbusSanL-Regu-30" transform="scale(0.015625)"/>
       </defs>
       <use transform="scale(0.996264)" xlink:href="#NimbusSanL-Regu-28"/>
       <use transform="translate(33.17523 0)scale(0.996264)" xlink:href="#NimbusSanL-Regu-30"/>
       <use transform="translate(88.566907 0)scale(0.996264)" xlink:href="#NimbusSanL-Regu-2c"/>
       <use transform="translate(116.262076 0)scale(0.996264)" xlink:href="#NimbusSanL-Regu-33"/>
       <use transform="translate(171.653753 0)scale(0.996264)" xlink:href="#NimbusSanL-Regu-29"/>
      </g>
     </g>
    </g>
    <g id="xtick_4">
     <g id="line2d_7">
      <path clip-path="url(#p72e2b4030c)" d="M 248.153457 224.64 
L 248.153457 7.2 
" style="fill:none;stroke:#b0b0b0;stroke-linecap:square;stroke-width:0.8;"/>
     </g>
     <g id="line2d_8">
      <g>
       <use style="stroke:#000000;stroke-width:0.8;" x="248.153457" xlink:href="#m105f52f825" y="224.64"/>
      </g>
     </g>
     <g id="text_4">
      <!-- (2,3) -->
      <g transform="translate(225.622288 247.661903)scale(0.22 -0.22)">
       <defs>
        <path d="M 3238 556 
L 851 556 
C 909 928 1114 1165 1670 1493 
L 2310 1839 
C 2944 2185 3270 2653 3270 3211 
C 3270 3589 3117 3942 2848 4185 
C 2579 4428 2246 4544 1818 4544 
C 1242 4544 813 4339 563 3955 
C 403 3711 333 3429 320 2967 
L 883 2967 
C 902 3275 941 3461 1018 3608 
C 1165 3884 1459 4051 1798 4051 
C 2310 4051 2694 3685 2694 3198 
C 2694 2839 2483 2531 2080 2300 
L 1491 1967 
C 544 1428 269 999 218 0 
L 3238 0 
L 3238 556 
z
" id="NimbusSanL-Regu-32" transform="scale(0.015625)"/>
       </defs>
       <use transform="scale(0.996264)" xlink:href="#NimbusSanL-Regu-28"/>
       <use transform="translate(33.17523 0)scale(0.996264)" xlink:href="#NimbusSanL-Regu-32"/>
       <use transform="translate(88.566907 0)scale(0.996264)" xlink:href="#NimbusSanL-Regu-2c"/>
       <use transform="translate(116.262076 0)scale(0.996264)" xlink:href="#NimbusSanL-Regu-33"/>
       <use transform="translate(171.653753 0)scale(0.996264)" xlink:href="#NimbusSanL-Regu-29"/>
      </g>
     </g>
    </g>
    <g id="xtick_5">
     <g id="line2d_9">
      <path clip-path="url(#p72e2b4030c)" d="M 309.026185 224.64 
L 309.026185 7.2 
" style="fill:none;stroke:#b0b0b0;stroke-linecap:square;stroke-width:0.8;"/>
     </g>
     <g id="line2d_10">
      <g>
       <use style="stroke:#000000;stroke-width:0.8;" x="309.026185" xlink:href="#m105f52f825" y="224.64"/>
      </g>
     </g>
     <g id="text_5">
      <!-- (3,4) -->
      <g transform="translate(286.495015 247.661903)scale(0.22 -0.22)">
       <defs>
        <path d="M 2093 1088 
L 2093 0 
L 2656 0 
L 2656 1088 
L 3328 1088 
L 3328 1593 
L 2656 1593 
L 2656 4537 
L 2240 4537 
L 179 1683 
L 179 1088 
L 2093 1088 
z
M 2093 1593 
L 672 1593 
L 2093 3577 
L 2093 1593 
z
" id="NimbusSanL-Regu-34" transform="scale(0.015625)"/>
       </defs>
       <use transform="scale(0.996264)" xlink:href="#NimbusSanL-Regu-28"/>
       <use transform="translate(33.17523 0)scale(0.996264)" xlink:href="#NimbusSanL-Regu-33"/>
       <use transform="translate(88.566907 0)scale(0.996264)" xlink:href="#NimbusSanL-Regu-2c"/>
       <use transform="translate(116.262076 0)scale(0.996264)" xlink:href="#NimbusSanL-Regu-34"/>
       <use transform="translate(171.653753 0)scale(0.996264)" xlink:href="#NimbusSanL-Regu-29"/>
      </g>
     </g>
    </g>
    <g id="xtick_6">
     <g id="line2d_11">
      <path clip-path="url(#p72e2b4030c)" d="M 369.898912 224.64 
L 369.898912 7.2 
" style="fill:none;stroke:#b0b0b0;stroke-linecap:square;stroke-width:0.8;"/>
     </g>
     <g id="line2d_12">
      <g>
       <use style="stroke:#000000;stroke-width:0.8;" x="369.898912" xlink:href="#m105f52f825" y="224.64"/>
      </g>
     </g>
     <g id="text_6">
      <!-- (3,6) -->
      <g transform="translate(347.367742 247.661903)scale(0.22 -0.22)">
       <defs>
        <path d="M 3187 3352 
C 3078 4102 2592 4544 1901 4544 
C 1402 4544 954 4300 685 3895 
C 403 3449 275 2887 275 2064 
C 275 1312 390 832 659 434 
C 902 70 1299 -128 1798 -128 
C 2662 -128 3283 510 3283 1388 
C 3283 2221 2707 2816 1894 2816 
C 1446 2816 1094 2643 851 2310 
C 858 3423 1216 4044 1862 4044 
C 2259 4044 2534 3792 2624 3352 
L 3187 3352 
z
M 1824 2316 
C 2368 2316 2707 1944 2707 1343 
C 2707 781 2323 371 1805 371 
C 1280 371 883 800 883 1375 
C 883 1931 1267 2316 1824 2316 
z
" id="NimbusSanL-Regu-36" transform="scale(0.015625)"/>
       </defs>
       <use transform="scale(0.996264)" xlink:href="#NimbusSanL-Regu-28"/>
       <use transform="translate(33.17523 0)scale(0.996264)" xlink:href="#NimbusSanL-Regu-33"/>
       <use transform="translate(88.566907 0)scale(0.996264)" xlink:href="#NimbusSanL-Regu-2c"/>
       <use transform="translate(116.262076 0)scale(0.996264)" xlink:href="#NimbusSanL-Regu-36"/>
       <use transform="translate(171.653753 0)scale(0.996264)" xlink:href="#NimbusSanL-Regu-29"/>
      </g>
     </g>
    </g>
    <g id="text_7">
     <!-- Pair of qubits -->
     <g transform="translate(154.200171 272.352168)scale(0.22 -0.22)">
      <defs>
       <path d="M 1178 1984 
L 2643 1984 
C 3008 1984 3296 2092 3546 2316 
C 3827 2572 3949 2873 3949 3302 
C 3949 4179 3430 4672 2509 4672 
L 582 4672 
L 582 0 
L 1178 0 
L 1178 1984 
z
M 1178 2508 
L 1178 4147 
L 2419 4147 
C 2989 4147 3328 3839 3328 3327 
C 3328 2816 2989 2508 2419 2508 
L 1178 2508 
z
" id="NimbusSanL-Regu-50" transform="scale(0.015625)"/>
       <path d="M 3424 332 
C 3366 320 3341 320 3309 320 
C 3123 320 3021 415 3021 581 
L 3021 2542 
C 3021 3135 2586 3456 1760 3456 
C 1274 3456 870 3315 646 3065 
C 493 2893 429 2702 416 2370 
L 954 2370 
C 998 2778 1242 2963 1741 2963 
C 2221 2963 2490 2784 2490 2466 
L 2490 2326 
C 2490 2103 2355 2007 1933 1956 
C 1178 1861 1062 1835 858 1753 
C 467 1593 269 1294 269 861 
C 269 256 691 -128 1370 -128 
C 1792 -128 2131 19 2509 364 
C 2547 25 2714 -128 3059 -128 
C 3168 -128 3251 -116 3424 -71 
L 3424 332 
z
M 2490 1071 
C 2490 893 2438 785 2278 638 
C 2061 441 1798 339 1485 339 
C 1069 339 826 536 826 874 
C 826 1224 1062 1402 1632 1485 
C 2195 1562 2310 1587 2490 1670 
L 2490 1071 
z
" id="NimbusSanL-Regu-61" transform="scale(0.015625)"/>
       <path d="M 960 3358 
L 429 3358 
L 429 0 
L 960 0 
L 960 3358 
z
M 960 4672 
L 422 4672 
L 422 3999 
L 960 3999 
L 960 4672 
z
" id="NimbusSanL-Regu-69" transform="scale(0.015625)"/>
       <path d="M 442 3328 
L 442 0 
L 979 0 
L 979 1727 
C 979 2203 1101 2514 1357 2698 
C 1523 2819 1683 2857 2054 2863 
L 2054 3404 
C 1965 3449 1920 3456 1850 3456 
C 1504 3456 1242 3251 934 2750 
L 934 3328 
L 442 3328 
z
" id="NimbusSanL-Regu-72" transform="scale(0.015625)"/>
       <path d="M 1741 3456 
C 800 3456 230 2784 230 1663 
C 230 543 794 -128 1747 -128 
C 2688 -128 3264 543 3264 1638 
C 3264 2791 2707 3456 1741 3456 
z
M 1747 2963 
C 2349 2963 2707 2472 2707 1644 
C 2707 861 2336 364 1747 364 
C 1152 364 787 855 787 1663 
C 787 2466 1152 2963 1747 2963 
z
" id="NimbusSanL-Regu-6f" transform="scale(0.015625)"/>
       <path d="M 1651 3328 
L 1094 3328 
L 1094 3860 
C 1094 4087 1222 4204 1466 4204 
C 1510 4204 1530 4204 1651 4198 
L 1651 4639 
C 1530 4665 1459 4672 1350 4672 
C 858 4672 563 4390 563 3905 
L 563 3328 
L 115 3328 
L 115 2892 
L 563 2892 
L 563 0 
L 1094 0 
L 1094 2892 
L 1651 2892 
L 1651 3328 
z
" id="NimbusSanL-Regu-66" transform="scale(0.015625)"/>
       <path d="M 3168 -1408 
L 3168 3359 
L 2694 3359 
L 2694 2912 
C 2445 3263 2067 3456 1626 3456 
C 742 3456 166 2733 166 1625 
C 166 543 717 -128 1600 -128 
C 2067 -128 2387 38 2637 403 
L 2637 -1408 
L 3168 -1408 
z
M 1702 2956 
C 2272 2956 2637 2447 2637 1644 
C 2637 880 2266 371 1702 371 
C 1114 371 723 887 723 1663 
C 723 2434 1114 2956 1702 2956 
z
" id="NimbusSanL-Regu-71" transform="scale(0.015625)"/>
       <path d="M 3085 19 
L 3085 3328 
L 2554 3328 
L 2554 1454 
C 2554 780 2195 339 1638 339 
C 1216 339 947 591 947 988 
L 947 3328 
L 416 3328 
L 416 780 
C 416 230 832 -128 1485 -128 
C 1978 -128 2291 44 2605 484 
L 2605 19 
L 3085 19 
z
" id="NimbusSanL-Regu-75" transform="scale(0.015625)"/>
       <path d="M 346 4672 
L 346 19 
L 826 19 
L 826 447 
C 1082 57 1421 -128 1888 -128 
C 2771 -128 3347 594 3347 1702 
C 3347 2784 2797 3456 1914 3456 
C 1453 3456 1126 3283 877 2905 
L 877 4672 
L 346 4672 
z
M 1811 2956 
C 2406 2956 2790 2440 2790 1644 
C 2790 887 2394 371 1811 371 
C 1248 371 877 880 877 1663 
C 877 2447 1248 2956 1811 2956 
z
" id="NimbusSanL-Regu-62" transform="scale(0.015625)"/>
       <path d="M 1626 3328 
L 1075 3328 
L 1075 4249 
L 544 4249 
L 544 3328 
L 90 3328 
L 90 2892 
L 544 2892 
L 544 402 
C 544 64 774 -128 1190 -128 
C 1318 -128 1446 -116 1626 -84 
L 1626 364 
C 1555 345 1472 339 1370 339 
C 1139 339 1075 402 1075 634 
L 1075 2892 
L 1626 2892 
L 1626 3328 
z
" id="NimbusSanL-Regu-74" transform="scale(0.015625)"/>
       <path d="M 2803 2428 
C 2797 3084 2362 3456 1587 3456 
C 806 3456 301 3052 301 2434 
C 301 1912 570 1663 1363 1472 
L 1862 1351 
C 2234 1262 2381 1129 2381 887 
C 2381 574 2067 364 1600 364 
C 1312 364 1069 447 934 587 
C 851 683 813 778 781 1014 
L 218 1014 
C 243 243 678 -128 1555 -128 
C 2400 -128 2938 288 2938 931 
C 2938 1428 2656 1702 1990 1861 
L 1478 1982 
C 1043 2084 858 2224 858 2459 
C 858 2765 1133 2963 1568 2963 
C 1997 2963 2227 2778 2240 2428 
L 2803 2428 
z
" id="NimbusSanL-Regu-73" transform="scale(0.015625)"/>
      </defs>
      <use transform="scale(0.996264)" xlink:href="#NimbusSanL-Regu-50"/>
      <use transform="translate(62.465918 0)scale(0.996264)" xlink:href="#NimbusSanL-Regu-61"/>
      <use transform="translate(117.857595 0)scale(0.996264)" xlink:href="#NimbusSanL-Regu-69"/>
      <use transform="translate(139.974379 0)scale(0.996264)" xlink:href="#NimbusSanL-Regu-72"/>
      <use transform="translate(200.844778 0)scale(0.996264)" xlink:href="#NimbusSanL-Regu-6f"/>
      <use transform="translate(256.236455 0)scale(0.996264)" xlink:href="#NimbusSanL-Regu-66"/>
      <use transform="translate(311.626794 0)scale(0.996264)" xlink:href="#NimbusSanL-Regu-71"/>
      <use transform="translate(367.018471 0)scale(0.996264)" xlink:href="#NimbusSanL-Regu-75"/>
      <use transform="translate(422.410148 0)scale(0.996264)" xlink:href="#NimbusSanL-Regu-62"/>
      <use transform="translate(477.801825 0)scale(0.996264)" xlink:href="#NimbusSanL-Regu-69"/>
      <use transform="translate(499.91861 0)scale(0.996264)" xlink:href="#NimbusSanL-Regu-74"/>
      <use transform="translate(527.613779 0)scale(0.996264)" xlink:href="#NimbusSanL-Regu-73"/>
     </g>
    </g>
   </g>
   <g id="matplotlib.axis_2">
    <g id="ytick_1">
     <g id="line2d_13">
      <path clip-path="url(#p72e2b4030c)" d="M 50.317094 165.162298 
L 385.117094 165.162298 
" style="fill:none;stroke:#b0b0b0;stroke-linecap:square;stroke-width:0.8;"/>
     </g>
     <g id="line2d_14">
      <defs>
       <path d="M 0 0 
L -3.5 0 
" id="m6c149294ca" style="stroke:#000000;stroke-width:0.8;"/>
      </defs>
      <g>
       <use style="stroke:#000000;stroke-width:0.8;" x="50.317094" xlink:href="#m6c149294ca" y="165.162298"/>
      </g>
     </g>
     <g id="text_8">
      <!-- $\mathdefault{0.02}$ -->
      <g transform="translate(7.2 172.97045)scale(0.22 -0.22)">
       <defs>
        <path d="M 2688 2038 
C 2688 2430 2682 3099 2413 3613 
C 2176 4063 1798 4224 1466 4224 
C 1158 4224 768 4082 525 3620 
C 269 3137 243 2539 243 2038 
C 243 1671 250 1112 448 623 
C 723 -39 1216 -128 1466 -128 
C 1760 -128 2208 -7 2470 604 
C 2662 1048 2688 1568 2688 2038 
z
M 1466 -26 
C 1056 -26 813 328 723 816 
C 653 1196 653 1749 653 2109 
C 653 2604 653 3015 736 3407 
C 858 3954 1216 4121 1466 4121 
C 1728 4121 2067 3947 2189 3420 
C 2272 3054 2278 2623 2278 2109 
C 2278 1691 2278 1176 2202 797 
C 2067 96 1690 -26 1466 -26 
z
" id="CMR17-30" transform="scale(0.015625)"/>
        <path d="M 1178 307 
C 1178 492 1024 620 870 620 
C 685 620 557 467 557 313 
C 557 128 710 0 864 0 
C 1050 0 1178 153 1178 307 
z
" id="CMMI12-3a" transform="scale(0.015625)"/>
        <path d="M 2669 990 
L 2554 990 
C 2490 537 2438 460 2413 422 
C 2381 371 1920 371 1830 371 
L 602 371 
C 832 620 1280 1073 1824 1596 
C 2214 1966 2669 2400 2669 3033 
C 2669 3788 2067 4224 1395 4224 
C 691 4224 262 3603 262 3027 
C 262 2777 448 2745 525 2745 
C 589 2745 781 2783 781 3007 
C 781 3206 614 3264 525 3264 
C 486 3264 448 3257 422 3244 
C 544 3788 915 4057 1306 4057 
C 1862 4057 2227 3616 2227 3033 
C 2227 2477 1901 1998 1536 1583 
L 262 147 
L 262 0 
L 2515 0 
L 2669 990 
z
" id="CMR17-32" transform="scale(0.015625)"/>
       </defs>
       <use transform="scale(0.996264)" xlink:href="#CMR17-30"/>
       <use transform="translate(45.690477 0)scale(0.996264)" xlink:href="#CMMI12-3a"/>
       <use transform="translate(72.787654 0)scale(0.996264)" xlink:href="#CMR17-30"/>
       <use transform="translate(118.478131 0)scale(0.996264)" xlink:href="#CMR17-32"/>
      </g>
     </g>
    </g>
    <g id="ytick_2">
     <g id="line2d_15">
      <path clip-path="url(#p72e2b4030c)" d="M 50.317094 77.040086 
L 385.117094 77.040086 
" style="fill:none;stroke:#b0b0b0;stroke-linecap:square;stroke-width:0.8;"/>
     </g>
     <g id="line2d_16">
      <g>
       <use style="stroke:#000000;stroke-width:0.8;" x="50.317094" xlink:href="#m6c149294ca" y="77.040086"/>
      </g>
     </g>
     <g id="text_9">
      <!-- $\mathdefault{0.04}$ -->
      <g transform="translate(7.2 84.848238)scale(0.22 -0.22)">
       <defs>
        <path d="M 2150 4147 
C 2150 4281 2144 4288 2029 4288 
L 128 1254 
L 128 1088 
L 1779 1088 
L 1779 460 
C 1779 230 1766 166 1318 166 
L 1197 166 
L 1197 0 
C 1402 12 1747 12 1965 12 
C 2182 12 2528 12 2733 0 
L 2733 166 
L 2611 166 
C 2163 166 2150 230 2150 460 
L 2150 1088 
L 2803 1088 
L 2803 1254 
L 2150 1254 
L 2150 4147 
z
M 1798 3723 
L 1798 1254 
L 256 1254 
L 1798 3723 
z
" id="CMR17-34" transform="scale(0.015625)"/>
       </defs>
       <use transform="scale(0.996264)" xlink:href="#CMR17-30"/>
       <use transform="translate(45.690477 0)scale(0.996264)" xlink:href="#CMMI12-3a"/>
       <use transform="translate(72.787654 0)scale(0.996264)" xlink:href="#CMR17-30"/>
       <use transform="translate(118.478131 0)scale(0.996264)" xlink:href="#CMR17-34"/>
      </g>
     </g>
    </g>
   </g>
   <g id="LineCollection_1">
    <path clip-path="url(#p72e2b4030c)" d="M 65.535276 205.951621 
L 65.535276 188.827826 
" style="fill:none;stroke:#2ca02c;stroke-width:1.5;"/>
    <path clip-path="url(#p72e2b4030c)" d="M 126.408003 206.023095 
L 126.408003 188.458581 
" style="fill:none;stroke:#2ca02c;stroke-width:1.5;"/>
    <path clip-path="url(#p72e2b4030c)" d="M 187.28073 197.9679 
L 187.28073 173.645862 
" style="fill:none;stroke:#2ca02c;stroke-width:1.5;"/>
    <path clip-path="url(#p72e2b4030c)" d="M 248.153457 203.797607 
L 248.153457 180.512641 
" style="fill:none;stroke:#2ca02c;stroke-width:1.5;"/>
    <path clip-path="url(#p72e2b4030c)" d="M 309.026185 214.756364 
L 309.026185 148.312671 
" style="fill:none;stroke:#2ca02c;stroke-width:1.5;"/>
    <path clip-path="url(#p72e2b4030c)" d="M 369.898912 157.140134 
L 369.898912 126.554441 
" style="fill:none;stroke:#2ca02c;stroke-width:1.5;"/>
   </g>
   <g id="LineCollection_2">
    <path clip-path="url(#p72e2b4030c)" d="M 65.535276 112.106814 
L 65.535276 73.274522 
" style="fill:none;stroke:#ff7f0e;stroke-width:1.5;"/>
    <path clip-path="url(#p72e2b4030c)" d="M 126.408003 181.09629 
L 126.408003 133.151196 
" style="fill:none;stroke:#ff7f0e;stroke-width:1.5;"/>
    <path clip-path="url(#p72e2b4030c)" d="M 187.28073 166.776608 
L 187.28073 148.993929 
" style="fill:none;stroke:#ff7f0e;stroke-width:1.5;"/>
    <path clip-path="url(#p72e2b4030c)" d="M 248.153457 96.738554 
L 248.153457 66.336727 
" style="fill:none;stroke:#ff7f0e;stroke-width:1.5;"/>
    <path clip-path="url(#p72e2b4030c)" d="M 309.026185 146.298278 
L 309.026185 95.222551 
" style="fill:none;stroke:#ff7f0e;stroke-width:1.5;"/>
    <path clip-path="url(#p72e2b4030c)" d="M 369.898912 56.656175 
L 369.898912 17.083636 
" style="fill:none;stroke:#ff7f0e;stroke-width:1.5;"/>
   </g>
   <g id="line2d_17">
    <defs>
     <path d="M 5 0 
L -5 -0 
" id="mf6c9559a89" style="stroke:#2ca02c;"/>
    </defs>
    <g clip-path="url(#p72e2b4030c)">
     <use style="fill:#2ca02c;stroke:#2ca02c;" x="65.535276" xlink:href="#mf6c9559a89" y="205.951621"/>
     <use style="fill:#2ca02c;stroke:#2ca02c;" x="126.408003" xlink:href="#mf6c9559a89" y="206.023095"/>
     <use style="fill:#2ca02c;stroke:#2ca02c;" x="187.28073" xlink:href="#mf6c9559a89" y="197.9679"/>
     <use style="fill:#2ca02c;stroke:#2ca02c;" x="248.153457" xlink:href="#mf6c9559a89" y="203.797607"/>
     <use style="fill:#2ca02c;stroke:#2ca02c;" x="309.026185" xlink:href="#mf6c9559a89" y="214.756364"/>
     <use style="fill:#2ca02c;stroke:#2ca02c;" x="369.898912" xlink:href="#mf6c9559a89" y="157.140134"/>
    </g>
   </g>
   <g id="line2d_18">
    <g clip-path="url(#p72e2b4030c)">
     <use style="fill:#2ca02c;stroke:#2ca02c;" x="65.535276" xlink:href="#mf6c9559a89" y="188.827826"/>
     <use style="fill:#2ca02c;stroke:#2ca02c;" x="126.408003" xlink:href="#mf6c9559a89" y="188.458581"/>
     <use style="fill:#2ca02c;stroke:#2ca02c;" x="187.28073" xlink:href="#mf6c9559a89" y="173.645862"/>
     <use style="fill:#2ca02c;stroke:#2ca02c;" x="248.153457" xlink:href="#mf6c9559a89" y="180.512641"/>
     <use style="fill:#2ca02c;stroke:#2ca02c;" x="309.026185" xlink:href="#mf6c9559a89" y="148.312671"/>
     <use style="fill:#2ca02c;stroke:#2ca02c;" x="369.898912" xlink:href="#mf6c9559a89" y="126.554441"/>
    </g>
   </g>
   <g id="line2d_19">
    <defs>
     <path d="M 5 0 
L -5 -0 
" id="m774edcf234" style="stroke:#ff7f0e;"/>
    </defs>
    <g clip-path="url(#p72e2b4030c)">
     <use style="fill:#ff7f0e;stroke:#ff7f0e;" x="65.535276" xlink:href="#m774edcf234" y="112.106814"/>
     <use style="fill:#ff7f0e;stroke:#ff7f0e;" x="126.408003" xlink:href="#m774edcf234" y="181.09629"/>
     <use style="fill:#ff7f0e;stroke:#ff7f0e;" x="187.28073" xlink:href="#m774edcf234" y="166.776608"/>
     <use style="fill:#ff7f0e;stroke:#ff7f0e;" x="248.153457" xlink:href="#m774edcf234" y="96.738554"/>
     <use style="fill:#ff7f0e;stroke:#ff7f0e;" x="309.026185" xlink:href="#m774edcf234" y="146.298278"/>
     <use style="fill:#ff7f0e;stroke:#ff7f0e;" x="369.898912" xlink:href="#m774edcf234" y="56.656175"/>
    </g>
   </g>
   <g id="line2d_20">
    <g clip-path="url(#p72e2b4030c)">
     <use style="fill:#ff7f0e;stroke:#ff7f0e;" x="65.535276" xlink:href="#m774edcf234" y="73.274522"/>
     <use style="fill:#ff7f0e;stroke:#ff7f0e;" x="126.408003" xlink:href="#m774edcf234" y="133.151196"/>
     <use style="fill:#ff7f0e;stroke:#ff7f0e;" x="187.28073" xlink:href="#m774edcf234" y="148.993929"/>
     <use style="fill:#ff7f0e;stroke:#ff7f0e;" x="248.153457" xlink:href="#m774edcf234" y="66.336727"/>
     <use style="fill:#ff7f0e;stroke:#ff7f0e;" x="309.026185" xlink:href="#m774edcf234" y="95.222551"/>
     <use style="fill:#ff7f0e;stroke:#ff7f0e;" x="369.898912" xlink:href="#m774edcf234" y="17.083636"/>
    </g>
   </g>
   <g id="line2d_21">
    <path clip-path="url(#p72e2b4030c)" d="M 65.535276 197.389723 
L 126.408003 197.240838 
L 187.28073 185.806881 
L 248.153457 192.155124 
L 309.026185 181.534517 
L 369.898912 141.847288 
" style="fill:none;stroke:#2ca02c;stroke-linecap:square;stroke-width:1.5;"/>
    <defs>
     <path d="M 0 3 
C 0.795609 3 1.55874 2.683901 2.12132 2.12132 
C 2.683901 1.55874 3 0.795609 3 0 
C 3 -0.795609 2.683901 -1.55874 2.12132 -2.12132 
C 1.55874 -2.683901 0.795609 -3 0 -3 
C -0.795609 -3 -1.55874 -2.683901 -2.12132 -2.12132 
C -2.683901 -1.55874 -3 -0.795609 -3 0 
C -3 0.795609 -2.683901 1.55874 -2.12132 2.12132 
C -1.55874 2.683901 -0.795609 3 0 3 
z
" id="m52bc0621e0" style="stroke:#2ca02c;"/>
    </defs>
    <g clip-path="url(#p72e2b4030c)">
     <use style="fill:#2ca02c;stroke:#2ca02c;" x="65.535276" xlink:href="#m52bc0621e0" y="197.389723"/>
     <use style="fill:#2ca02c;stroke:#2ca02c;" x="126.408003" xlink:href="#m52bc0621e0" y="197.240838"/>
     <use style="fill:#2ca02c;stroke:#2ca02c;" x="187.28073" xlink:href="#m52bc0621e0" y="185.806881"/>
     <use style="fill:#2ca02c;stroke:#2ca02c;" x="248.153457" xlink:href="#m52bc0621e0" y="192.155124"/>
     <use style="fill:#2ca02c;stroke:#2ca02c;" x="309.026185" xlink:href="#m52bc0621e0" y="181.534517"/>
     <use style="fill:#2ca02c;stroke:#2ca02c;" x="369.898912" xlink:href="#m52bc0621e0" y="141.847288"/>
    </g>
   </g>
   <g id="line2d_22">
    <path clip-path="url(#p72e2b4030c)" d="M 65.535276 92.690668 
L 126.408003 157.123743 
L 187.28073 157.885269 
L 248.153457 81.537641 
L 309.026185 120.760415 
L 369.898912 36.869906 
" style="fill:none;stroke:#ff7f0e;stroke-linecap:square;stroke-width:1.5;"/>
    <defs>
     <path d="M 0 3 
C 0.795609 3 1.55874 2.683901 2.12132 2.12132 
C 2.683901 1.55874 3 0.795609 3 0 
C 3 -0.795609 2.683901 -1.55874 2.12132 -2.12132 
C 1.55874 -2.683901 0.795609 -3 0 -3 
C -0.795609 -3 -1.55874 -2.683901 -2.12132 -2.12132 
C -2.683901 -1.55874 -3 -0.795609 -3 0 
C -3 0.795609 -2.683901 1.55874 -2.12132 2.12132 
C -1.55874 2.683901 -0.795609 3 0 3 
z
" id="m2bf091a12b" style="stroke:#ff7f0e;"/>
    </defs>
    <g clip-path="url(#p72e2b4030c)">
     <use style="fill:#ff7f0e;stroke:#ff7f0e;" x="65.535276" xlink:href="#m2bf091a12b" y="92.690668"/>
     <use style="fill:#ff7f0e;stroke:#ff7f0e;" x="126.408003" xlink:href="#m2bf091a12b" y="157.123743"/>
     <use style="fill:#ff7f0e;stroke:#ff7f0e;" x="187.28073" xlink:href="#m2bf091a12b" y="157.885269"/>
     <use style="fill:#ff7f0e;stroke:#ff7f0e;" x="248.153457" xlink:href="#m2bf091a12b" y="81.537641"/>
     <use style="fill:#ff7f0e;stroke:#ff7f0e;" x="309.026185" xlink:href="#m2bf091a12b" y="120.760415"/>
     <use style="fill:#ff7f0e;stroke:#ff7f0e;" x="369.898912" xlink:href="#m2bf091a12b" y="36.869906"/>
    </g>
   </g>
   <g id="patch_3">
    <path d="M 50.317094 224.64 
L 50.317094 7.2 
" style="fill:none;stroke:#000000;stroke-linecap:square;stroke-linejoin:miter;stroke-width:0.8;"/>
   </g>
   <g id="patch_4">
    <path d="M 385.117094 224.64 
L 385.117094 7.2 
" style="fill:none;stroke:#000000;stroke-linecap:square;stroke-linejoin:miter;stroke-width:0.8;"/>
   </g>
   <g id="patch_5">
    <path d="M 50.317094 224.64 
L 385.117094 224.64 
" style="fill:none;stroke:#000000;stroke-linecap:square;stroke-linejoin:miter;stroke-width:0.8;"/>
   </g>
   <g id="patch_6">
    <path d="M 50.317094 7.2 
L 385.117094 7.2 
" style="fill:none;stroke:#000000;stroke-linecap:square;stroke-linejoin:miter;stroke-width:0.8;"/>
   </g>
   <g id="legend_1">
    <g id="patch_7">
     <path d="M 65.717094 35.8 
L 74.517094 35.8 
Q 78.917094 35.8 78.917094 31.4 
L 78.917094 22.6 
Q 78.917094 18.2 74.517094 18.2 
L 65.717094 18.2 
Q 61.317094 18.2 61.317094 22.6 
L 61.317094 31.4 
Q 61.317094 35.8 65.717094 35.8 
z
" style="fill:#ffffff;opacity:0.8;stroke:#cccccc;stroke-linejoin:miter;"/>
    </g>
   </g>
  </g>
 </g>
 <defs>
  <clipPath id="p72e2b4030c">
   <rect height="217.44" width="334.8" x="50.317094" y="7.2"/>
  </clipPath>
 </defs>
</svg>
