<?xml version="1.0" encoding="utf-8" standalone="no"?>
<!DOCTYPE svg PUBLIC "-//W3C//DTD SVG 1.1//EN"
  "http://www.w3.org/Graphics/SVG/1.1/DTD/svg11.dtd">
<svg height="292.535575pt" version="1.1" viewBox="0 0 610.569892 292.535575" width="610.569892pt" xmlns="http://www.w3.org/2000/svg" xmlns:xlink="http://www.w3.org/1999/xlink">
 <metadata>
  <rdf:RDF xmlns:cc="http://creativecommons.org/ns#" xmlns:dc="http://purl.org/dc/elements/1.1/" xmlns:rdf="http://www.w3.org/1999/02/22-rdf-syntax-ns#">
   <cc:Work>
    <dc:type rdf:resource="http://purl.org/dc/dcmitype/StillImage"/>
    <dc:date>2022-04-19T23:54:10.830801</dc:date>
    <dc:format>image/svg+xml</dc:format>
    <dc:creator>
     <cc:Agent>
      <dc:title>Matplotlib v3.4.2, https://matplotlib.org/</dc:title>
     </cc:Agent>
    </dc:creator>
   </cc:Work>
  </rdf:RDF>
 </metadata>
 <defs>
  <style type="text/css">*{stroke-linecap:butt;stroke-linejoin:round;}</style>
 </defs>
 <g id="figure_1">
  <g id="patch_1">
   <path d="M 0 292.535575 
L 610.569892 292.535575 
L 610.569892 0 
L 0 0 
z
" style="fill:none;"/>
  </g>
  <g id="patch_2">
   <path d="M 7.2 260.836364 
L 260.836364 260.836364 
L 260.836364 7.2 
L 7.2 7.2 
z
" style="fill:#ffffff;"/>
  </g>
  <g id="pane3d_1">
   <g id="patch_3">
    <path d="M 26.351295 198.297765 
L 110.110305 128.089301 
L 108.945975 26.836146 
L 21.178664 90.884732 
" style="fill:#f2f2f2;opacity:0.5;stroke:#f2f2f2;stroke-linejoin:miter;"/>
   </g>
  </g>
  <g id="pane3d_2">
   <g id="patch_4">
    <path d="M 110.110305 128.089301 
L 244.513632 167.155042 
L 249.310013 62.414338 
L 108.945975 26.836146 
" style="fill:#e6e6e6;opacity:0.5;stroke:#e6e6e6;stroke-linejoin:miter;"/>
   </g>
  </g>
  <g id="pane3d_3">
   <g id="patch_5">
    <path d="M 26.351295 198.297765 
L 168.825385 244.829803 
L 244.513632 167.155042 
L 110.110305 128.089301 
" style="fill:#ececec;opacity:0.5;stroke:#ececec;stroke-linejoin:miter;"/>
   </g>
  </g>
  <g id="axis3d_1">
   <g id="line2d_1">
    <path d="M 26.351295 198.297765 
L 168.825385 244.829803 
" style="fill:none;stroke:#000000;stroke-linecap:square;stroke-width:0.8;"/>
   </g>
   <g id="Line3DCollection_1">
    <path d="M 47.537457 205.217165 
L 130.171564 133.920317 
L 129.85934 32.137074 
" style="fill:none;stroke:#b0b0b0;stroke-width:0.8;"/>
    <path d="M 79.459419 215.642878 
L 160.34882 142.691654 
L 161.343199 40.117315 
" style="fill:none;stroke:#b0b0b0;stroke-width:0.8;"/>
    <path d="M 112.159199 226.322626 
L 191.199507 151.658731 
L 193.560505 48.283463 
" style="fill:none;stroke:#b0b0b0;stroke-width:0.8;"/>
    <path d="M 145.665574 237.265808 
L 222.746419 160.828173 
L 226.53719 56.642091 
" style="fill:none;stroke:#b0b0b0;stroke-width:0.8;"/>
   </g>
   <g id="xtick_1">
    <g id="line2d_2">
     <path d="M 48.257308 204.596076 
L 46.094651 206.462021 
" style="fill:none;stroke:#000000;stroke-linecap:square;stroke-width:0.8;"/>
    </g>
    <g id="text_1">
     <!-- $|00\rangle$ -->
     <g transform="translate(31.352298 248.24498)rotate(-45)scale(0.22 -0.22)">
      <defs>
       <path d="M 1018 4569 
C 1018 4684 1018 4800 890 4800 
C 762 4800 762 4684 762 4569 
L 762 -1370 
C 762 -1485 762 -1600 890 -1600 
C 1018 -1600 1018 -1485 1018 -1370 
L 1018 4569 
z
" id="CMSY10-6a" transform="scale(0.015625)"/>
       <path d="M 2688 2038 
C 2688 2430 2682 3099 2413 3613 
C 2176 4063 1798 4224 1466 4224 
C 1158 4224 768 4082 525 3620 
C 269 3137 243 2539 243 2038 
C 243 1671 250 1112 448 623 
C 723 -39 1216 -128 1466 -128 
C 1760 -128 2208 -7 2470 604 
C 2662 1048 2688 1568 2688 2038 
z
M 1466 -26 
C 1056 -26 813 328 723 816 
C 653 1196 653 1749 653 2109 
C 653 2604 653 3015 736 3407 
C 858 3954 1216 4121 1466 4121 
C 1728 4121 2067 3947 2189 3420 
C 2272 3054 2278 2623 2278 2109 
C 2278 1691 2278 1176 2202 797 
C 2067 96 1690 -26 1466 -26 
z
" id="CMR17-30" transform="scale(0.015625)"/>
       <path d="M 1747 1491 
C 1779 1568 1779 1580 1779 1600 
C 1779 1619 1779 1632 1747 1709 
L 627 4653 
C 589 4761 550 4800 480 4800 
C 410 4800 352 4742 352 4672 
C 352 4653 352 4640 384 4569 
L 1517 1600 
L 384 -1357 
C 352 -1428 352 -1440 352 -1472 
C 352 -1543 410 -1600 480 -1600 
C 563 -1600 589 -1536 614 -1472 
L 1747 1491 
z
" id="CMSY10-69" transform="scale(0.015625)"/>
      </defs>
      <use transform="scale(0.996264)" xlink:href="#CMSY10-6a"/>
      <use transform="translate(27.674085 0)scale(0.996264)" xlink:href="#CMR17-30"/>
      <use transform="translate(73.364562 0)scale(0.996264)" xlink:href="#CMR17-30"/>
      <use transform="translate(119.055039 0)scale(0.996264)" xlink:href="#CMSY10-69"/>
     </g>
    </g>
   </g>
   <g id="xtick_2">
    <g id="line2d_3">
     <path d="M 80.164764 215.006753 
L 78.045652 216.917904 
" style="fill:none;stroke:#000000;stroke-linecap:square;stroke-width:0.8;"/>
    </g>
    <g id="text_2">
     <!-- $|01\rangle$ -->
     <g transform="translate(63.289874 258.771303)rotate(-45)scale(0.22 -0.22)">
      <defs>
       <path d="M 1702 4083 
C 1702 4217 1696 4224 1606 4224 
C 1357 3927 979 3833 621 3820 
C 602 3820 570 3820 563 3808 
C 557 3795 557 3782 557 3648 
C 755 3648 1088 3686 1344 3839 
L 1344 467 
C 1344 243 1331 166 781 166 
L 589 166 
L 589 0 
C 896 6 1216 12 1523 12 
C 1830 12 2150 6 2458 0 
L 2458 166 
L 2266 166 
C 1715 166 1702 236 1702 467 
L 1702 4083 
z
" id="CMR17-31" transform="scale(0.015625)"/>
      </defs>
      <use transform="scale(0.996264)" xlink:href="#CMSY10-6a"/>
      <use transform="translate(27.674085 0)scale(0.996264)" xlink:href="#CMR17-30"/>
      <use transform="translate(73.364562 0)scale(0.996264)" xlink:href="#CMR17-31"/>
      <use transform="translate(119.055039 0)scale(0.996264)" xlink:href="#CMSY10-69"/>
     </g>
    </g>
   </g>
   <g id="xtick_3">
    <g id="line2d_4">
     <path d="M 112.849112 225.670913 
L 110.776325 227.628931 
" style="fill:none;stroke:#000000;stroke-linecap:square;stroke-width:0.8;"/>
    </g>
    <g id="text_3">
     <!-- $|10\rangle$ -->
     <g transform="translate(96.007002 269.554559)rotate(-45)scale(0.22 -0.22)">
      <use transform="scale(0.996264)" xlink:href="#CMSY10-6a"/>
      <use transform="translate(27.674085 0)scale(0.996264)" xlink:href="#CMR17-31"/>
      <use transform="translate(73.364562 0)scale(0.996264)" xlink:href="#CMR17-30"/>
      <use transform="translate(119.055039 0)scale(0.996264)" xlink:href="#CMSY10-69"/>
     </g>
    </g>
   </g>
   <g id="xtick_4">
    <g id="line2d_5">
     <path d="M 146.339076 236.597926 
L 144.315558 238.604559 
" style="fill:none;stroke:#000000;stroke-linecap:square;stroke-width:0.8;"/>
    </g>
    <g id="text_4">
     <!-- $|11\rangle$ -->
     <g transform="translate(129.532577 280.604272)rotate(-45)scale(0.22 -0.22)">
      <use transform="scale(0.996264)" xlink:href="#CMSY10-6a"/>
      <use transform="translate(27.674085 0)scale(0.996264)" xlink:href="#CMR17-31"/>
      <use transform="translate(73.364562 0)scale(0.996264)" xlink:href="#CMR17-31"/>
      <use transform="translate(119.055039 0)scale(0.996264)" xlink:href="#CMSY10-69"/>
     </g>
    </g>
   </g>
  </g>
  <g id="axis3d_2">
   <g id="line2d_6">
    <path d="M 244.513632 167.155042 
L 168.825385 244.829803 
" style="fill:none;stroke:#000000;stroke-linecap:square;stroke-width:0.8;"/>
   </g>
   <g id="Line3DCollection_2">
    <path d="M 27.247991 86.455614 
L 32.122998 193.459808 
L 174.062426 239.45531 
" style="fill:none;stroke:#b0b0b0;stroke-width:0.8;"/>
    <path d="M 54.106724 66.855333 
L 57.701022 172.019802 
L 197.232652 215.676959 
" style="fill:none;stroke:#b0b0b0;stroke-width:0.8;"/>
    <path d="M 79.592766 48.256781 
L 82.026808 151.629446 
L 219.210597 193.122181 
" style="fill:none;stroke:#b0b0b0;stroke-width:0.8;"/>
    <path d="M 103.808727 30.585075 
L 105.190118 132.2135 
L 240.085979 171.698903 
" style="fill:none;stroke:#b0b0b0;stroke-width:0.8;"/>
   </g>
   <g id="xtick_5">
    <g id="line2d_7">
     <path d="M 172.866299 239.067705 
L 176.457775 240.231524 
" style="fill:none;stroke:#000000;stroke-linecap:square;stroke-width:0.8;"/>
    </g>
    <g id="text_5">
     <!-- $\langle 00|$ -->
     <g transform="translate(168.037206 256.913298)rotate(-315)scale(0.22 -0.22)">
      <defs>
       <path d="M 2099 4557 
C 2131 4627 2131 4640 2131 4672 
C 2131 4742 2074 4800 2003 4800 
C 1946 4800 1901 4768 1856 4653 
L 736 1715 
C 723 1677 704 1638 704 1600 
C 704 1580 704 1568 736 1491 
L 1856 -1447 
C 1882 -1517 1914 -1600 2003 -1600 
C 2074 -1600 2131 -1543 2131 -1472 
C 2131 -1453 2131 -1440 2099 -1370 
L 966 1600 
L 2099 4557 
z
" id="CMSY10-68" transform="scale(0.015625)"/>
      </defs>
      <use transform="scale(0.996264)" xlink:href="#CMSY10-68"/>
      <use transform="translate(38.743734 0)scale(0.996264)" xlink:href="#CMR17-30"/>
      <use transform="translate(84.434211 0)scale(0.996264)" xlink:href="#CMR17-30"/>
      <use transform="translate(130.124688 0)scale(0.996264)" xlink:href="#CMSY10-6a"/>
     </g>
    </g>
   </g>
   <g id="xtick_6">
    <g id="line2d_8">
     <path d="M 196.058388 215.309551 
L 199.584137 216.4127 
" style="fill:none;stroke:#000000;stroke-linecap:square;stroke-width:0.8;"/>
    </g>
    <g id="text_6">
     <!-- $\langle 01|$ -->
     <g transform="translate(191.065707 232.97451)rotate(-315)scale(0.22 -0.22)">
      <use transform="scale(0.996264)" xlink:href="#CMSY10-68"/>
      <use transform="translate(38.743734 0)scale(0.996264)" xlink:href="#CMR17-30"/>
      <use transform="translate(84.434211 0)scale(0.996264)" xlink:href="#CMR17-31"/>
      <use transform="translate(130.124688 0)scale(0.996264)" xlink:href="#CMSY10-6a"/>
     </g>
    </g>
   </g>
   <g id="xtick_7">
    <g id="line2d_9">
     <path d="M 218.057558 192.773432 
L 221.519502 193.820535 
" style="fill:none;stroke:#000000;stroke-linecap:square;stroke-width:0.8;"/>
    </g>
    <g id="text_7">
     <!-- $\langle 10|$ -->
     <g transform="translate(212.908913 210.267872)rotate(-315)scale(0.22 -0.22)">
      <use transform="scale(0.996264)" xlink:href="#CMSY10-68"/>
      <use transform="translate(38.743734 0)scale(0.996264)" xlink:href="#CMR17-31"/>
      <use transform="translate(84.434211 0)scale(0.996264)" xlink:href="#CMR17-30"/>
      <use transform="translate(130.124688 0)scale(0.996264)" xlink:href="#CMSY10-6a"/>
     </g>
    </g>
   </g>
   <g id="xtick_8">
    <g id="line2d_10">
     <path d="M 238.953541 171.367426 
L 242.353564 172.362648 
" style="fill:none;stroke:#000000;stroke-linecap:square;stroke-width:0.8;"/>
    </g>
    <g id="text_8">
     <!-- $\langle 11|$ -->
     <g transform="translate(233.656039 188.700638)rotate(-315)scale(0.22 -0.22)">
      <use transform="scale(0.996264)" xlink:href="#CMSY10-68"/>
      <use transform="translate(38.743734 0)scale(0.996264)" xlink:href="#CMR17-31"/>
      <use transform="translate(84.434211 0)scale(0.996264)" xlink:href="#CMR17-31"/>
      <use transform="translate(130.124688 0)scale(0.996264)" xlink:href="#CMSY10-6a"/>
     </g>
    </g>
   </g>
  </g>
  <g id="axis3d_3">
   <g id="line2d_11">
    <path d="M 244.513632 167.155042 
L 249.310013 62.414338 
" style="fill:none;stroke:#000000;stroke-linecap:square;stroke-width:0.8;"/>
   </g>
   <g id="Line3DCollection_3">
    <path d="M 244.605525 165.148326 
L 110.087952 126.145382 
L 26.252356 196.24325 
" style="fill:none;stroke:#b0b0b0;stroke-width:0.8;"/>
    <path d="M 246.859283 115.932023 
L 109.54028 78.51844 
L 23.82382 145.813109 
" style="fill:none;stroke:#b0b0b0;stroke-width:0.8;"/>
    <path d="M 249.209878 64.601035 
L 108.970233 28.945668 
L 21.286832 93.130925 
" style="fill:none;stroke:#b0b0b0;stroke-width:0.8;"/>
   </g>
   <g id="xtick_9">
    <g id="line2d_12">
     <path d="M 243.476507 164.820971 
L 246.866249 165.803816 
" style="fill:none;stroke:#000000;stroke-linecap:square;stroke-width:0.8;"/>
    </g>
    <g id="text_9">
     <!-- $\mathdefault{0.00}$ -->
     <g transform="translate(254.277632 176.169361)rotate(-345)scale(0.22 -0.22)">
      <defs>
       <path d="M 1178 307 
C 1178 492 1024 620 870 620 
C 685 620 557 467 557 313 
C 557 128 710 0 864 0 
C 1050 0 1178 153 1178 307 
z
" id="CMMI12-3a" transform="scale(0.015625)"/>
      </defs>
      <use transform="scale(0.996264)" xlink:href="#CMR17-30"/>
      <use transform="translate(45.690477 0)scale(0.996264)" xlink:href="#CMMI12-3a"/>
      <use transform="translate(72.787654 0)scale(0.996264)" xlink:href="#CMR17-30"/>
      <use transform="translate(118.478131 0)scale(0.996264)" xlink:href="#CMR17-30"/>
     </g>
    </g>
   </g>
   <g id="xtick_10">
    <g id="line2d_13">
     <path d="M 245.705617 115.617698 
L 249.169418 116.561436 
" style="fill:none;stroke:#000000;stroke-linecap:square;stroke-width:0.8;"/>
    </g>
    <g id="text_10">
     <!-- $\mathdefault{0.05}$ -->
     <g transform="translate(257.117138 127.115164)rotate(-345)scale(0.22 -0.22)">
      <defs>
       <path d="M 730 3750 
C 794 3724 1056 3641 1325 3641 
C 1920 3641 2246 3961 2432 4140 
C 2432 4191 2432 4224 2394 4224 
C 2387 4224 2374 4224 2323 4198 
C 2099 4102 1837 4032 1517 4032 
C 1325 4032 1037 4055 723 4191 
C 653 4224 640 4224 634 4224 
C 602 4224 595 4217 595 4090 
L 595 2231 
C 595 2113 595 2080 659 2080 
C 691 2080 704 2093 736 2139 
C 941 2435 1222 2560 1542 2560 
C 1766 2560 2246 2415 2246 1293 
C 2246 1087 2246 716 2054 422 
C 1894 159 1645 25 1370 25 
C 947 25 518 319 403 812 
C 429 806 480 793 506 793 
C 589 793 749 838 749 1036 
C 749 1209 627 1280 506 1280 
C 358 1280 262 1190 262 1011 
C 262 454 704 -128 1382 -128 
C 2042 -128 2669 441 2669 1267 
C 2669 2054 2170 2662 1549 2662 
C 1222 2662 947 2540 730 2304 
L 730 3750 
z
" id="CMR17-35" transform="scale(0.015625)"/>
      </defs>
      <use transform="scale(0.996264)" xlink:href="#CMR17-30"/>
      <use transform="translate(45.690477 0)scale(0.996264)" xlink:href="#CMMI12-3a"/>
      <use transform="translate(72.787654 0)scale(0.996264)" xlink:href="#CMR17-30"/>
      <use transform="translate(118.478131 0)scale(0.996264)" xlink:href="#CMR17-35"/>
     </g>
    </g>
   </g>
   <g id="xtick_11">
    <g id="line2d_14">
     <path d="M 248.030466 64.301175 
L 251.57163 65.201501 
" style="fill:none;stroke:#000000;stroke-linecap:square;stroke-width:0.8;"/>
    </g>
    <g id="text_11">
     <!-- $\mathdefault{0.10}$ -->
     <g transform="translate(260.078025 75.964058)rotate(-345)scale(0.22 -0.22)">
      <use transform="scale(0.996264)" xlink:href="#CMR17-30"/>
      <use transform="translate(45.690477 0)scale(0.996264)" xlink:href="#CMMI12-3a"/>
      <use transform="translate(72.787654 0)scale(0.996264)" xlink:href="#CMR17-31"/>
      <use transform="translate(118.478131 0)scale(0.996264)" xlink:href="#CMR17-30"/>
     </g>
    </g>
   </g>
  </g>
  <g id="axes_1">
   <g id="line2d_15">
    <path clip-path="url(#pcf6ecbad16)" style="fill:none;stroke:#ff0000;stroke-linecap:square;stroke-width:1.5;"/>
    <defs>
     <path d="M 3 0 
L -3 -0 
" id="m3c83294b00" style="stroke:#ff0000;"/>
    </defs>
    <g clip-path="url(#pcf6ecbad16)"/>
   </g>
   <g id="line2d_16">
    <path clip-path="url(#pcf6ecbad16)" d="M 84.770751 198.73338 
L 84.945902 206.402842 
" style="fill:none;stroke:#ff0000;stroke-linecap:square;stroke-width:1.5;"/>
    <g clip-path="url(#pcf6ecbad16)">
     <use style="fill:#ff0000;stroke:#ff0000;" x="84.770751" xlink:href="#m3c83294b00" y="198.73338"/>
     <use style="fill:#ff0000;stroke:#ff0000;" x="84.945902" xlink:href="#m3c83294b00" y="206.402842"/>
    </g>
   </g>
   <g id="line2d_17">
    <path clip-path="url(#pcf6ecbad16)" d="M 117.515404 209.200778 
L 117.582479 216.928078 
" style="fill:none;stroke:#ff0000;stroke-linecap:square;stroke-width:1.5;"/>
    <g clip-path="url(#pcf6ecbad16)">
     <use style="fill:#ff0000;stroke:#ff0000;" x="117.515404" xlink:href="#m3c83294b00" y="209.200778"/>
     <use style="fill:#ff0000;stroke:#ff0000;" x="117.582479" xlink:href="#m3c83294b00" y="216.928078"/>
    </g>
   </g>
   <g id="line2d_18">
    <path clip-path="url(#pcf6ecbad16)" d="M 151.238688 191.166298 
L 151.217659 194.694476 
" style="fill:none;stroke:#ff0000;stroke-linecap:square;stroke-width:1.5;"/>
    <g clip-path="url(#pcf6ecbad16)">
     <use style="fill:#ff0000;stroke:#ff0000;" x="151.238688" xlink:href="#m3c83294b00" y="191.166298"/>
     <use style="fill:#ff0000;stroke:#ff0000;" x="151.217659" xlink:href="#m3c83294b00" y="194.694476"/>
    </g>
   </g>
   <g id="line2d_19">
    <path clip-path="url(#pcf6ecbad16)" d="M 78.241151 169.140491 
L 78.504374 179.526811 
" style="fill:none;stroke:#0000ff;stroke-linecap:square;stroke-width:1.5;"/>
    <defs>
     <path d="M 3 0 
L -3 -0 
" id="m7590eeef8b" style="stroke:#0000ff;"/>
    </defs>
    <g clip-path="url(#pcf6ecbad16)">
     <use style="fill:#0000ff;stroke:#0000ff;" x="78.241151" xlink:href="#m7590eeef8b" y="169.140491"/>
     <use style="fill:#0000ff;stroke:#0000ff;" x="78.504374" xlink:href="#m7590eeef8b" y="179.526811"/>
    </g>
   </g>
   <g id="line2d_20">
    <path clip-path="url(#pcf6ecbad16)" d="M 109.553985 170.536273 
L 109.702519 182.969534 
" style="fill:none;stroke:#0000ff;stroke-linecap:square;stroke-width:1.5;"/>
    <g clip-path="url(#pcf6ecbad16)">
     <use style="fill:#0000ff;stroke:#0000ff;" x="109.553985" xlink:href="#m7590eeef8b" y="170.536273"/>
     <use style="fill:#0000ff;stroke:#0000ff;" x="109.702519" xlink:href="#m7590eeef8b" y="182.969534"/>
    </g>
   </g>
   <g id="line2d_21">
    <path clip-path="url(#pcf6ecbad16)" d="M 141.809157 189.260515 
L 141.785482 201.82626 
" style="fill:none;stroke:#0000ff;stroke-linecap:square;stroke-width:1.5;"/>
    <g clip-path="url(#pcf6ecbad16)">
     <use style="fill:#0000ff;stroke:#0000ff;" x="141.809157" xlink:href="#m7590eeef8b" y="189.260515"/>
     <use style="fill:#0000ff;stroke:#0000ff;" x="141.785482" xlink:href="#m7590eeef8b" y="201.82626"/>
    </g>
   </g>
   <g id="line2d_22">
    <path clip-path="url(#pcf6ecbad16)" d="M 174.703622 201.103582 
L 174.619176 206.326015 
" style="fill:none;stroke:#0000ff;stroke-linecap:square;stroke-width:1.5;"/>
    <g clip-path="url(#pcf6ecbad16)">
     <use style="fill:#0000ff;stroke:#0000ff;" x="174.703622" xlink:href="#m7590eeef8b" y="201.103582"/>
     <use style="fill:#0000ff;stroke:#0000ff;" x="174.619176" xlink:href="#m7590eeef8b" y="206.326015"/>
    </g>
   </g>
   <g id="line2d_23">
    <path clip-path="url(#pcf6ecbad16)" d="M 102.33986 148.58544 
L 102.492093 158.804823 
" style="fill:none;stroke:#008000;stroke-linecap:square;stroke-width:1.5;"/>
    <defs>
     <path d="M 3 0 
L -3 -0 
" id="m6168c69dfa" style="stroke:#008000;"/>
    </defs>
    <g clip-path="url(#pcf6ecbad16)">
     <use style="fill:#008000;stroke:#008000;" x="102.33986" xlink:href="#m6168c69dfa" y="148.58544"/>
     <use style="fill:#008000;stroke:#008000;" x="102.492093" xlink:href="#m6168c69dfa" y="158.804823"/>
    </g>
   </g>
   <g id="line2d_24">
    <path clip-path="url(#pcf6ecbad16)" d="M 133.241307 158.267048 
L 133.263291 170.539186 
" style="fill:none;stroke:#008000;stroke-linecap:square;stroke-width:1.5;"/>
    <g clip-path="url(#pcf6ecbad16)">
     <use style="fill:#008000;stroke:#008000;" x="133.241307" xlink:href="#m6168c69dfa" y="158.267048"/>
     <use style="fill:#008000;stroke:#008000;" x="133.263291" xlink:href="#m6168c69dfa" y="170.539186"/>
    </g>
   </g>
   <g id="line2d_25">
    <path clip-path="url(#pcf6ecbad16)" d="M 164.951525 159.032245 
L 164.807061 171.354812 
" style="fill:none;stroke:#008000;stroke-linecap:square;stroke-width:1.5;"/>
    <g clip-path="url(#pcf6ecbad16)">
     <use style="fill:#008000;stroke:#008000;" x="164.951525" xlink:href="#m6168c69dfa" y="159.032245"/>
     <use style="fill:#008000;stroke:#008000;" x="164.807061" xlink:href="#m6168c69dfa" y="171.354812"/>
    </g>
   </g>
   <g id="line2d_26">
    <path clip-path="url(#pcf6ecbad16)" d="M 197.154592 179.028591 
L 197.022717 184.166344 
" style="fill:none;stroke:#008000;stroke-linecap:square;stroke-width:1.5;"/>
    <g clip-path="url(#pcf6ecbad16)">
     <use style="fill:#008000;stroke:#008000;" x="197.154592" xlink:href="#m6168c69dfa" y="179.028591"/>
     <use style="fill:#008000;stroke:#008000;" x="197.022717" xlink:href="#m6168c69dfa" y="184.166344"/>
    </g>
   </g>
   <g id="line2d_27">
    <path clip-path="url(#pcf6ecbad16)" d="M 125.202929 115.160999 
L 125.219588 118.413101 
" style="fill:none;stroke:#bfbf00;stroke-linecap:square;stroke-width:1.5;"/>
    <defs>
     <path d="M 3 0 
L -3 -0 
" id="m6f6b39c598" style="stroke:#bfbf00;"/>
    </defs>
    <g clip-path="url(#pcf6ecbad16)">
     <use style="fill:#bfbf00;stroke:#bfbf00;" x="125.202929" xlink:href="#m6f6b39c598" y="115.160999"/>
     <use style="fill:#bfbf00;stroke:#bfbf00;" x="125.219588" xlink:href="#m6f6b39c598" y="118.413101"/>
    </g>
   </g>
   <g id="line2d_28">
    <path clip-path="url(#pcf6ecbad16)" d="M 155.644728 141.754491 
L 155.610186 146.240392 
" style="fill:none;stroke:#bfbf00;stroke-linecap:square;stroke-width:1.5;"/>
    <g clip-path="url(#pcf6ecbad16)">
     <use style="fill:#bfbf00;stroke:#bfbf00;" x="155.644728" xlink:href="#m6f6b39c598" y="141.754491"/>
     <use style="fill:#bfbf00;stroke:#bfbf00;" x="155.610186" xlink:href="#m6f6b39c598" y="146.240392"/>
    </g>
   </g>
   <g id="line2d_29">
    <path clip-path="url(#pcf6ecbad16)" d="M 186.67799 150.779471 
L 186.583498 155.298388 
" style="fill:none;stroke:#bfbf00;stroke-linecap:square;stroke-width:1.5;"/>
    <g clip-path="url(#pcf6ecbad16)">
     <use style="fill:#bfbf00;stroke:#bfbf00;" x="186.67799" xlink:href="#m6f6b39c598" y="150.779471"/>
     <use style="fill:#bfbf00;stroke:#bfbf00;" x="186.583498" xlink:href="#m6f6b39c598" y="155.298388"/>
    </g>
   </g>
   <g id="line2d_30">
    <path clip-path="url(#pcf6ecbad16)" d="M 219.901376 117.016682 
L 219.78543 120.374924 
" style="fill:none;stroke:#bfbf00;stroke-linecap:square;stroke-width:1.5;"/>
    <g clip-path="url(#pcf6ecbad16)">
     <use style="fill:#bfbf00;stroke:#bfbf00;" x="219.901376" xlink:href="#m6f6b39c598" y="117.016682"/>
     <use style="fill:#bfbf00;stroke:#bfbf00;" x="219.78543" xlink:href="#m6f6b39c598" y="120.374924"/>
    </g>
   </g>
   <g id="patch_6">
    <path clip-path="url(#pcf6ecbad16)" d="M 113.372244 132.65967 
L 137.353929 139.66216 
L 137.353176 120.247542 
L 113.176413 113.359276 
L 113.372244 132.65967 
" style="fill:#bfbf00;opacity:0.5;"/>
   </g>
   <g id="text_12">
    <!-- $0.948$ -->
    <g transform="translate(48.990893 84.131255)scale(0.22 -0.22)">
     <defs>
      <path d="M 2253 1871 
C 2253 448 1670 25 1190 25 
C 1043 25 685 43 538 281 
C 704 256 826 345 826 505 
C 826 678 685 736 595 736 
C 538 736 365 710 365 492 
C 365 68 742 -128 1203 -128 
C 1939 -128 2688 665 2688 2090 
C 2688 3857 1971 4224 1485 4224 
C 851 4224 243 3664 243 2800 
C 243 2000 762 1408 1414 1408 
C 1952 1408 2189 1910 2253 2122 
L 2253 1871 
z
M 1427 1510 
C 1254 1510 1011 1542 813 1929 
C 678 2181 678 2477 678 2793 
C 678 3174 678 3438 858 3722 
C 947 3857 1114 4076 1485 4076 
C 2240 4076 2240 2909 2240 2651 
C 2240 2193 2035 1510 1427 1510 
z
" id="CMR17-39" transform="scale(0.015625)"/>
      <path d="M 2150 4147 
C 2150 4281 2144 4288 2029 4288 
L 128 1254 
L 128 1088 
L 1779 1088 
L 1779 460 
C 1779 230 1766 166 1318 166 
L 1197 166 
L 1197 0 
C 1402 12 1747 12 1965 12 
C 2182 12 2528 12 2733 0 
L 2733 166 
L 2611 166 
C 2163 166 2150 230 2150 460 
L 2150 1088 
L 2803 1088 
L 2803 1254 
L 2150 1254 
L 2150 4147 
z
M 1798 3723 
L 1798 1254 
L 256 1254 
L 1798 3723 
z
" id="CMR17-34" transform="scale(0.015625)"/>
      <path d="M 1741 2289 
C 2144 2494 2554 2803 2554 3298 
C 2554 3884 1990 4224 1472 4224 
C 890 4224 378 3800 378 3215 
C 378 3054 416 2777 666 2533 
C 730 2469 998 2276 1171 2154 
C 883 2006 211 1652 211 945 
C 211 282 838 -128 1459 -128 
C 2144 -128 2720 366 2720 1022 
C 2720 1607 2330 1877 2074 2051 
L 1741 2289 
z
M 902 2855 
C 851 2887 595 3086 595 3388 
C 595 3781 998 4076 1459 4076 
C 1965 4076 2336 3716 2336 3298 
C 2336 2700 1670 2359 1638 2359 
C 1632 2359 1626 2359 1574 2398 
L 902 2855 
z
M 2080 1536 
C 2176 1466 2483 1253 2483 861 
C 2483 385 2010 25 1472 25 
C 890 25 448 443 448 951 
C 448 1459 838 1884 1280 2083 
L 2080 1536 
z
" id="CMR17-38" transform="scale(0.015625)"/>
     </defs>
     <use transform="scale(0.996264)" xlink:href="#CMR17-30"/>
     <use transform="translate(45.690477 0)scale(0.996264)" xlink:href="#CMMI12-3a"/>
     <use transform="translate(72.787654 0)scale(0.996264)" xlink:href="#CMR17-39"/>
     <use transform="translate(118.478131 0)scale(0.996264)" xlink:href="#CMR17-34"/>
     <use transform="translate(164.168608 0)scale(0.996264)" xlink:href="#CMR17-38"/>
    </g>
   </g>
   <g id="text_13">
    <!-- $|\Upsilon_0|$ -->
    <g transform="translate(250.55087 20.192376)scale(0.28 -0.28)">
     <defs>
      <path d="M 2515 2262 
C 2515 2544 2554 3089 2726 3506 
C 2906 3922 3187 4115 3533 4115 
C 3738 4115 4115 3999 4173 3531 
C 4179 3480 4179 3461 4237 3461 
C 4301 3461 4307 3480 4307 3544 
C 4307 3884 4083 4480 3526 4480 
C 2554 4480 2355 3236 2310 2909 
L 2304 2909 
C 2253 3243 2048 4480 1075 4480 
C 512 4480 294 3877 294 3544 
C 294 3480 301 3461 365 3461 
C 422 3461 422 3480 429 3531 
C 486 4006 864 4115 1069 4115 
C 2029 4115 2093 2647 2093 2262 
L 2093 461 
C 2093 230 2080 166 1594 166 
L 1453 166 
L 1453 0 
C 1722 12 2035 12 2304 12 
C 2573 12 2886 12 3155 0 
L 3155 166 
L 3014 166 
C 2528 166 2515 230 2515 461 
L 2515 2262 
z
" id="CMR17-7" transform="scale(0.015625)"/>
     </defs>
     <use transform="scale(0.996264)" xlink:href="#CMSY10-6a"/>
     <use transform="translate(27.674085 0)scale(0.996264)" xlink:href="#CMR17-7"/>
     <use transform="translate(99.388873 -14.943915)scale(0.697382)" xlink:href="#CMR17-30"/>
     <use transform="translate(131.870187 0)scale(0.996264)" xlink:href="#CMSY10-6a"/>
    </g>
   </g>
   <g id="patch_7">
    <path clip-path="url(#pcf6ecbad16)" d="M 143.415622 141.432133 
L 167.932803 148.590984 
L 167.945726 147.591973 
L 143.418131 140.438952 
L 143.415622 141.432133 
" style="fill:#bfbf00;opacity:0.5;"/>
   </g>
   <g id="patch_8">
    <path clip-path="url(#pcf6ecbad16)" d="M 174.130606 150.400701 
L 199.20142 157.721209 
L 199.227895 156.71484 
L 174.146192 149.400224 
L 174.130606 150.400701 
" style="fill:#bfbf00;opacity:0.5;"/>
   </g>
   <g id="patch_9">
    <path clip-path="url(#pcf6ecbad16)" d="M 90.318552 152.163245 
L 114.686469 159.515737 
L 114.665871 157.39279 
L 90.276284 150.052745 
L 90.318552 152.163245 
" style="fill:#008000;opacity:0.5;"/>
   </g>
   <g id="patch_10">
    <path clip-path="url(#pcf6ecbad16)" d="M 120.847461 161.374683 
L 145.77316 168.895474 
L 145.775658 168.194651 
L 120.842527 160.677979 
L 120.847461 161.374683 
" style="fill:#008000;opacity:0.5;"/>
   </g>
   <g id="patch_11">
    <path clip-path="url(#pcf6ecbad16)" d="M 66.103203 172.649591 
L 90.866222 180.378997 
L 90.822994 178.221379 
L 66.037601 170.504706 
L 66.103203 172.649591 
" style="fill:#0000ff;opacity:0.5;"/>
   </g>
   <g id="patch_12">
    <path clip-path="url(#pcf6ecbad16)" d="M 152.075986 170.797215 
L 177.57884 178.49215 
L 177.741757 169.046886 
L 152.13483 161.407931 
L 152.075986 170.797215 
" style="fill:#008000;opacity:0.5;"/>
   </g>
   <g id="patch_13">
    <path clip-path="url(#pcf6ecbad16)" d="M 205.539972 159.572023 
L 231.183386 167.059727 
L 232.976902 122.322399 
L 206.830838 115.104975 
L 205.539972 159.572023 
" style="fill:#bfbf00;opacity:0.5;"/>
   </g>
   <g id="patch_14">
    <path clip-path="url(#pcf6ecbad16)" d="M 184.028455 180.438182 
L 210.128745 188.31338 
L 210.215494 185.548051 
L 184.083537 177.689214 
L 184.028455 180.438182 
" style="fill:#008000;opacity:0.5;"/>
   </g>
   <g id="patch_15">
    <path clip-path="url(#pcf6ecbad16)" d="M 97.128897 182.333797 
L 122.473342 190.244687 
L 122.411708 180.715021 
L 96.964482 172.860798 
L 97.128897 182.333797 
" style="fill:#0000ff;opacity:0.5;"/>
   </g>
   <g id="patch_16">
    <path clip-path="url(#pcf6ecbad16)" d="M 128.883926 192.245655 
L 154.830517 200.344495 
L 154.835929 199.626896 
L 128.881285 191.532308 
L 128.883926 192.245655 
" style="fill:#0000ff;opacity:0.5;"/>
   </g>
   <g id="patch_17">
    <path clip-path="url(#pcf6ecbad16)" d="M 161.394313 202.393286 
L 187.964767 210.686856 
L 188.026653 207.875995 
L 161.423371 199.59914 
L 161.394313 202.393286 
" style="fill:#0000ff;opacity:0.5;"/>
   </g>
   <g id="patch_18">
    <path clip-path="url(#pcf6ecbad16)" d="M 72.169666 204.389236 
L 97.943026 212.721382 
L 97.840007 206.742675 
L 72.00106 198.446173 
L 72.169666 204.389236 
" style="fill:#ff0000;opacity:0.5;"/>
   </g>
   <g id="patch_19">
    <path clip-path="url(#pcf6ecbad16)" d="M 104.464104 214.82955 
L 130.866186 223.364953 
L 130.848817 217.341315 
L 104.377883 208.841891 
L 104.464104 214.82955 
" style="fill:#ff0000;opacity:0.5;"/>
   </g>
   <g id="patch_20">
    <path clip-path="url(#pcf6ecbad16)" d="M 137.547313 225.524862 
L 164.601406 234.271051 
L 165.044539 197.21278 
L 137.548955 188.693186 
L 137.547313 225.524862 
" style="fill:#ff0000;opacity:0.5;"/>
   </g>
   <g id="patch_21">
    <path clip-path="url(#pcf6ecbad16)" d="M 40.636123 194.194908 
L 65.802955 202.330972 
L 16.394988 -1385.859188 
L -25.071704 -1374.390455 
L 40.636123 194.194908 
" style="fill:#ff0000;opacity:0.5;"/>
   </g>
  </g>
  <g id="patch_22">
   <path d="M 311.563636 260.836364 
L 565.2 260.836364 
L 565.2 7.2 
L 311.563636 7.2 
z
" style="fill:#ffffff;"/>
  </g>
  <g id="pane3d_4">
   <g id="patch_23">
    <path d="M 330.714931 198.297765 
L 414.473942 128.089301 
L 413.309611 26.836146 
L 325.5423 90.884732 
" style="fill:#f2f2f2;opacity:0.5;stroke:#f2f2f2;stroke-linejoin:miter;"/>
   </g>
  </g>
  <g id="pane3d_5">
   <g id="patch_24">
    <path d="M 414.473942 128.089301 
L 548.877268 167.155042 
L 553.673649 62.414338 
L 413.309611 26.836146 
" style="fill:#e6e6e6;opacity:0.5;stroke:#e6e6e6;stroke-linejoin:miter;"/>
   </g>
  </g>
  <g id="pane3d_6">
   <g id="patch_25">
    <path d="M 330.714931 198.297765 
L 473.189022 244.829803 
L 548.877268 167.155042 
L 414.473942 128.089301 
" style="fill:#ececec;opacity:0.5;stroke:#ececec;stroke-linejoin:miter;"/>
   </g>
  </g>
  <g id="axis3d_4">
   <g id="line2d_31">
    <path d="M 330.714931 198.297765 
L 473.189022 244.829803 
" style="fill:none;stroke:#000000;stroke-linecap:square;stroke-width:0.8;"/>
   </g>
   <g id="Line3DCollection_4">
    <path d="M 351.901093 205.217165 
L 434.5352 133.920317 
L 434.222976 32.137074 
" style="fill:none;stroke:#b0b0b0;stroke-width:0.8;"/>
    <path d="M 383.823056 215.642878 
L 464.712457 142.691654 
L 465.706835 40.117315 
" style="fill:none;stroke:#b0b0b0;stroke-width:0.8;"/>
    <path d="M 416.522835 226.322626 
L 495.563143 151.658731 
L 497.924142 48.283463 
" style="fill:none;stroke:#b0b0b0;stroke-width:0.8;"/>
    <path d="M 450.029211 237.265808 
L 527.110056 160.828173 
L 530.900827 56.642091 
" style="fill:none;stroke:#b0b0b0;stroke-width:0.8;"/>
   </g>
   <g id="xtick_12">
    <g id="line2d_32">
     <path d="M 352.620944 204.596076 
L 350.458287 206.462021 
" style="fill:none;stroke:#000000;stroke-linecap:square;stroke-width:0.8;"/>
    </g>
    <g id="text_14">
     <!-- $|00\rangle$ -->
     <g transform="translate(335.715935 248.24498)rotate(-45)scale(0.22 -0.22)">
      <use transform="scale(0.996264)" xlink:href="#CMSY10-6a"/>
      <use transform="translate(27.674085 0)scale(0.996264)" xlink:href="#CMR17-30"/>
      <use transform="translate(73.364562 0)scale(0.996264)" xlink:href="#CMR17-30"/>
      <use transform="translate(119.055039 0)scale(0.996264)" xlink:href="#CMSY10-69"/>
     </g>
    </g>
   </g>
   <g id="xtick_13">
    <g id="line2d_33">
     <path d="M 384.5284 215.006753 
L 382.409289 216.917904 
" style="fill:none;stroke:#000000;stroke-linecap:square;stroke-width:0.8;"/>
    </g>
    <g id="text_15">
     <!-- $|01\rangle$ -->
     <g transform="translate(367.65351 258.771303)rotate(-45)scale(0.22 -0.22)">
      <use transform="scale(0.996264)" xlink:href="#CMSY10-6a"/>
      <use transform="translate(27.674085 0)scale(0.996264)" xlink:href="#CMR17-30"/>
      <use transform="translate(73.364562 0)scale(0.996264)" xlink:href="#CMR17-31"/>
      <use transform="translate(119.055039 0)scale(0.996264)" xlink:href="#CMSY10-69"/>
     </g>
    </g>
   </g>
   <g id="xtick_14">
    <g id="line2d_34">
     <path d="M 417.212749 225.670913 
L 415.139961 227.628931 
" style="fill:none;stroke:#000000;stroke-linecap:square;stroke-width:0.8;"/>
    </g>
    <g id="text_16">
     <!-- $|10\rangle$ -->
     <g transform="translate(400.370638 269.554559)rotate(-45)scale(0.22 -0.22)">
      <use transform="scale(0.996264)" xlink:href="#CMSY10-6a"/>
      <use transform="translate(27.674085 0)scale(0.996264)" xlink:href="#CMR17-31"/>
      <use transform="translate(73.364562 0)scale(0.996264)" xlink:href="#CMR17-30"/>
      <use transform="translate(119.055039 0)scale(0.996264)" xlink:href="#CMSY10-69"/>
     </g>
    </g>
   </g>
   <g id="xtick_15">
    <g id="line2d_35">
     <path d="M 450.702713 236.597926 
L 448.679195 238.604559 
" style="fill:none;stroke:#000000;stroke-linecap:square;stroke-width:0.8;"/>
    </g>
    <g id="text_17">
     <!-- $|11\rangle$ -->
     <g transform="translate(433.896214 280.604272)rotate(-45)scale(0.22 -0.22)">
      <use transform="scale(0.996264)" xlink:href="#CMSY10-6a"/>
      <use transform="translate(27.674085 0)scale(0.996264)" xlink:href="#CMR17-31"/>
      <use transform="translate(73.364562 0)scale(0.996264)" xlink:href="#CMR17-31"/>
      <use transform="translate(119.055039 0)scale(0.996264)" xlink:href="#CMSY10-69"/>
     </g>
    </g>
   </g>
  </g>
  <g id="axis3d_5">
   <g id="line2d_36">
    <path d="M 548.877268 167.155042 
L 473.189022 244.829803 
" style="fill:none;stroke:#000000;stroke-linecap:square;stroke-width:0.8;"/>
   </g>
   <g id="Line3DCollection_5">
    <path d="M 331.611627 86.455614 
L 336.486635 193.459808 
L 478.426063 239.45531 
" style="fill:none;stroke:#b0b0b0;stroke-width:0.8;"/>
    <path d="M 358.47036 66.855333 
L 362.064658 172.019802 
L 501.596288 215.676959 
" style="fill:none;stroke:#b0b0b0;stroke-width:0.8;"/>
    <path d="M 383.956402 48.256781 
L 386.390444 151.629446 
L 523.574233 193.122181 
" style="fill:none;stroke:#b0b0b0;stroke-width:0.8;"/>
    <path d="M 408.172363 30.585075 
L 409.553754 132.2135 
L 544.449616 171.698903 
" style="fill:none;stroke:#b0b0b0;stroke-width:0.8;"/>
   </g>
   <g id="xtick_16">
    <g id="line2d_37">
     <path d="M 477.229935 239.067705 
L 480.821412 240.231524 
" style="fill:none;stroke:#000000;stroke-linecap:square;stroke-width:0.8;"/>
    </g>
    <g id="text_18">
     <!-- $\langle 00|$ -->
     <g transform="translate(472.400842 256.913298)rotate(-315)scale(0.22 -0.22)">
      <use transform="scale(0.996264)" xlink:href="#CMSY10-68"/>
      <use transform="translate(38.743734 0)scale(0.996264)" xlink:href="#CMR17-30"/>
      <use transform="translate(84.434211 0)scale(0.996264)" xlink:href="#CMR17-30"/>
      <use transform="translate(130.124688 0)scale(0.996264)" xlink:href="#CMSY10-6a"/>
     </g>
    </g>
   </g>
   <g id="xtick_17">
    <g id="line2d_38">
     <path d="M 500.422024 215.309551 
L 503.947774 216.4127 
" style="fill:none;stroke:#000000;stroke-linecap:square;stroke-width:0.8;"/>
    </g>
    <g id="text_19">
     <!-- $\langle 01|$ -->
     <g transform="translate(495.429343 232.97451)rotate(-315)scale(0.22 -0.22)">
      <use transform="scale(0.996264)" xlink:href="#CMSY10-68"/>
      <use transform="translate(38.743734 0)scale(0.996264)" xlink:href="#CMR17-30"/>
      <use transform="translate(84.434211 0)scale(0.996264)" xlink:href="#CMR17-31"/>
      <use transform="translate(130.124688 0)scale(0.996264)" xlink:href="#CMSY10-6a"/>
     </g>
    </g>
   </g>
   <g id="xtick_18">
    <g id="line2d_39">
     <path d="M 522.421194 192.773432 
L 525.883139 193.820535 
" style="fill:none;stroke:#000000;stroke-linecap:square;stroke-width:0.8;"/>
    </g>
    <g id="text_20">
     <!-- $\langle 10|$ -->
     <g transform="translate(517.272549 210.267872)rotate(-315)scale(0.22 -0.22)">
      <use transform="scale(0.996264)" xlink:href="#CMSY10-68"/>
      <use transform="translate(38.743734 0)scale(0.996264)" xlink:href="#CMR17-31"/>
      <use transform="translate(84.434211 0)scale(0.996264)" xlink:href="#CMR17-30"/>
      <use transform="translate(130.124688 0)scale(0.996264)" xlink:href="#CMSY10-6a"/>
     </g>
    </g>
   </g>
   <g id="xtick_19">
    <g id="line2d_40">
     <path d="M 543.317177 171.367426 
L 546.717201 172.362648 
" style="fill:none;stroke:#000000;stroke-linecap:square;stroke-width:0.8;"/>
    </g>
    <g id="text_21">
     <!-- $\langle 11|$ -->
     <g transform="translate(538.019676 188.700638)rotate(-315)scale(0.22 -0.22)">
      <use transform="scale(0.996264)" xlink:href="#CMSY10-68"/>
      <use transform="translate(38.743734 0)scale(0.996264)" xlink:href="#CMR17-31"/>
      <use transform="translate(84.434211 0)scale(0.996264)" xlink:href="#CMR17-31"/>
      <use transform="translate(130.124688 0)scale(0.996264)" xlink:href="#CMSY10-6a"/>
     </g>
    </g>
   </g>
  </g>
  <g id="axis3d_6">
   <g id="line2d_41">
    <path d="M 548.877268 167.155042 
L 553.673649 62.414338 
" style="fill:none;stroke:#000000;stroke-linecap:square;stroke-width:0.8;"/>
   </g>
   <g id="Line3DCollection_6">
    <path d="M 548.969162 165.148326 
L 414.451588 126.145382 
L 330.615993 196.24325 
" style="fill:none;stroke:#b0b0b0;stroke-width:0.8;"/>
    <path d="M 551.222919 115.932023 
L 413.903916 78.51844 
L 328.187456 145.813109 
" style="fill:none;stroke:#b0b0b0;stroke-width:0.8;"/>
    <path d="M 553.573514 64.601035 
L 413.333869 28.945668 
L 325.650469 93.130925 
" style="fill:none;stroke:#b0b0b0;stroke-width:0.8;"/>
   </g>
   <g id="xtick_20">
    <g id="line2d_42">
     <path d="M 547.840143 164.820971 
L 551.229886 165.803816 
" style="fill:none;stroke:#000000;stroke-linecap:square;stroke-width:0.8;"/>
    </g>
    <g id="text_22">
     <!-- $\mathdefault{0.00}$ -->
     <g transform="translate(558.641268 176.169361)rotate(-345)scale(0.22 -0.22)">
      <use transform="scale(0.996264)" xlink:href="#CMR17-30"/>
      <use transform="translate(45.690477 0)scale(0.996264)" xlink:href="#CMMI12-3a"/>
      <use transform="translate(72.787654 0)scale(0.996264)" xlink:href="#CMR17-30"/>
      <use transform="translate(118.478131 0)scale(0.996264)" xlink:href="#CMR17-30"/>
     </g>
    </g>
   </g>
   <g id="xtick_21">
    <g id="line2d_43">
     <path d="M 550.069253 115.617698 
L 553.533055 116.561436 
" style="fill:none;stroke:#000000;stroke-linecap:square;stroke-width:0.8;"/>
    </g>
    <g id="text_23">
     <!-- $\mathdefault{0.05}$ -->
     <g transform="translate(561.480775 127.115164)rotate(-345)scale(0.22 -0.22)">
      <use transform="scale(0.996264)" xlink:href="#CMR17-30"/>
      <use transform="translate(45.690477 0)scale(0.996264)" xlink:href="#CMMI12-3a"/>
      <use transform="translate(72.787654 0)scale(0.996264)" xlink:href="#CMR17-30"/>
      <use transform="translate(118.478131 0)scale(0.996264)" xlink:href="#CMR17-35"/>
     </g>
    </g>
   </g>
   <g id="xtick_22">
    <g id="line2d_44">
     <path d="M 552.394102 64.301175 
L 555.935266 65.201501 
" style="fill:none;stroke:#000000;stroke-linecap:square;stroke-width:0.8;"/>
    </g>
    <g id="text_24">
     <!-- $\mathdefault{0.10}$ -->
     <g transform="translate(564.441661 75.964058)rotate(-345)scale(0.22 -0.22)">
      <use transform="scale(0.996264)" xlink:href="#CMR17-30"/>
      <use transform="translate(45.690477 0)scale(0.996264)" xlink:href="#CMMI12-3a"/>
      <use transform="translate(72.787654 0)scale(0.996264)" xlink:href="#CMR17-31"/>
      <use transform="translate(118.478131 0)scale(0.996264)" xlink:href="#CMR17-30"/>
     </g>
    </g>
   </g>
  </g>
  <g id="axes_2">
   <g id="line2d_45">
    <path clip-path="url(#pf015709030)" d="M 357.07057 185.843754 
L 357.152698 188.091683 
" style="fill:none;stroke:#ff0000;stroke-linecap:square;stroke-width:1.5;"/>
    <g clip-path="url(#pf015709030)">
     <use style="fill:#ff0000;stroke:#ff0000;" x="357.07057" xlink:href="#m3c83294b00" y="185.843754"/>
     <use style="fill:#ff0000;stroke:#ff0000;" x="357.152698" xlink:href="#m3c83294b00" y="188.091683"/>
    </g>
   </g>
   <g id="line2d_46">
    <path clip-path="url(#pf015709030)" d="M 389.250752 203.82872 
L 389.405228 210.592885 
" style="fill:none;stroke:#ff0000;stroke-linecap:square;stroke-width:1.5;"/>
    <g clip-path="url(#pf015709030)">
     <use style="fill:#ff0000;stroke:#ff0000;" x="389.250752" xlink:href="#m3c83294b00" y="203.82872"/>
     <use style="fill:#ff0000;stroke:#ff0000;" x="389.405228" xlink:href="#m3c83294b00" y="210.592885"/>
    </g>
   </g>
   <g id="line2d_47">
    <path clip-path="url(#pf015709030)" d="M 421.923604 214.334614 
L 421.982758 221.149456 
" style="fill:none;stroke:#ff0000;stroke-linecap:square;stroke-width:1.5;"/>
    <g clip-path="url(#pf015709030)">
     <use style="fill:#ff0000;stroke:#ff0000;" x="421.923604" xlink:href="#m3c83294b00" y="214.334614"/>
     <use style="fill:#ff0000;stroke:#ff0000;" x="421.982758" xlink:href="#m3c83294b00" y="221.149456"/>
    </g>
   </g>
   <g id="line2d_48">
    <path clip-path="url(#pf015709030)" d="M 455.413926 222.774328 
L 455.384916 227.641386 
" style="fill:none;stroke:#ff0000;stroke-linecap:square;stroke-width:1.5;"/>
    <g clip-path="url(#pf015709030)">
     <use style="fill:#ff0000;stroke:#ff0000;" x="455.413926" xlink:href="#m3c83294b00" y="222.774328"/>
     <use style="fill:#ff0000;stroke:#ff0000;" x="455.384916" xlink:href="#m3c83294b00" y="227.641386"/>
    </g>
   </g>
   <g id="line2d_49">
    <path clip-path="url(#pf015709030)" d="M 382.687507 172.404471 
L 382.764606 175.446641 
" style="fill:none;stroke:#0000ff;stroke-linecap:square;stroke-width:1.5;"/>
    <g clip-path="url(#pf015709030)">
     <use style="fill:#0000ff;stroke:#0000ff;" x="382.687507" xlink:href="#m7590eeef8b" y="172.404471"/>
     <use style="fill:#0000ff;stroke:#0000ff;" x="382.764606" xlink:href="#m7590eeef8b" y="175.446641"/>
    </g>
   </g>
   <g id="line2d_50">
    <path clip-path="url(#pf015709030)" d="M 414.002116 177.608988 
L 414.143884 189.475827 
" style="fill:none;stroke:#0000ff;stroke-linecap:square;stroke-width:1.5;"/>
    <g clip-path="url(#pf015709030)">
     <use style="fill:#0000ff;stroke:#0000ff;" x="414.002116" xlink:href="#m7590eeef8b" y="177.608988"/>
     <use style="fill:#0000ff;stroke:#0000ff;" x="414.143884" xlink:href="#m7590eeef8b" y="189.475827"/>
    </g>
   </g>
   <g id="line2d_51">
    <path clip-path="url(#pf015709030)" d="M 446.194778 177.591878 
L 446.156073 198.134873 
" style="fill:none;stroke:#0000ff;stroke-linecap:square;stroke-width:1.5;"/>
    <g clip-path="url(#pf015709030)">
     <use style="fill:#0000ff;stroke:#0000ff;" x="446.194778" xlink:href="#m7590eeef8b" y="177.591878"/>
     <use style="fill:#0000ff;stroke:#0000ff;" x="446.156073" xlink:href="#m7590eeef8b" y="198.134873"/>
    </g>
   </g>
   <g id="line2d_52">
    <path clip-path="url(#pf015709030)" d="M 479.09955 199.106557 
L 478.931576 209.494569 
" style="fill:none;stroke:#0000ff;stroke-linecap:square;stroke-width:1.5;"/>
    <g clip-path="url(#pf015709030)">
     <use style="fill:#0000ff;stroke:#0000ff;" x="479.09955" xlink:href="#m7590eeef8b" y="199.106557"/>
     <use style="fill:#0000ff;stroke:#0000ff;" x="478.931576" xlink:href="#m7590eeef8b" y="209.494569"/>
    </g>
   </g>
   <g id="line2d_53">
    <path clip-path="url(#pf015709030)" d="M 406.751333 151.796717 
L 406.795922 154.789965 
" style="fill:none;stroke:#008000;stroke-linecap:square;stroke-width:1.5;"/>
    <g clip-path="url(#pf015709030)">
     <use style="fill:#008000;stroke:#008000;" x="406.751333" xlink:href="#m6168c69dfa" y="151.796717"/>
     <use style="fill:#008000;stroke:#008000;" x="406.795922" xlink:href="#m6168c69dfa" y="154.789965"/>
    </g>
   </g>
   <g id="line2d_54">
    <path clip-path="url(#pf015709030)" d="M 437.584536 146.875403 
L 437.620468 166.933547 
" style="fill:none;stroke:#008000;stroke-linecap:square;stroke-width:1.5;"/>
    <g clip-path="url(#pf015709030)">
     <use style="fill:#008000;stroke:#008000;" x="437.584536" xlink:href="#m6168c69dfa" y="146.875403"/>
     <use style="fill:#008000;stroke:#008000;" x="437.620468" xlink:href="#m6168c69dfa" y="166.933547"/>
    </g>
   </g>
   <g id="line2d_55">
    <path clip-path="url(#pf015709030)" d="M 469.232985 166.041769 
L 469.095092 177.803902 
" style="fill:none;stroke:#008000;stroke-linecap:square;stroke-width:1.5;"/>
    <g clip-path="url(#pf015709030)">
     <use style="fill:#008000;stroke:#008000;" x="469.232985" xlink:href="#m6168c69dfa" y="166.041769"/>
     <use style="fill:#008000;stroke:#008000;" x="469.095092" xlink:href="#m6168c69dfa" y="177.803902"/>
    </g>
   </g>
   <g id="line2d_56">
    <path clip-path="url(#pf015709030)" d="M 501.568652 177.064106 
L 501.306335 187.283811 
" style="fill:none;stroke:#008000;stroke-linecap:square;stroke-width:1.5;"/>
    <g clip-path="url(#pf015709030)">
     <use style="fill:#008000;stroke:#008000;" x="501.568652" xlink:href="#m6168c69dfa" y="177.064106"/>
     <use style="fill:#008000;stroke:#008000;" x="501.306335" xlink:href="#m6168c69dfa" y="187.283811"/>
    </g>
   </g>
   <g id="line2d_57">
    <path clip-path="url(#pf015709030)" d="M 429.358872 74.614216 
L 429.36999 76.784756 
" style="fill:none;stroke:#bfbf00;stroke-linecap:square;stroke-width:1.5;"/>
    <g clip-path="url(#pf015709030)">
     <use style="fill:#bfbf00;stroke:#bfbf00;" x="429.358872" xlink:href="#m6f6b39c598" y="74.614216"/>
     <use style="fill:#bfbf00;stroke:#bfbf00;" x="429.36999" xlink:href="#m6f6b39c598" y="76.784756"/>
    </g>
   </g>
   <g id="line2d_58">
    <path clip-path="url(#pf015709030)" d="M 460.186623 118.604128 
L 460.116116 127.760891 
" style="fill:none;stroke:#bfbf00;stroke-linecap:square;stroke-width:1.5;"/>
    <g clip-path="url(#pf015709030)">
     <use style="fill:#bfbf00;stroke:#bfbf00;" x="460.186623" xlink:href="#m6f6b39c598" y="118.604128"/>
     <use style="fill:#bfbf00;stroke:#bfbf00;" x="460.116116" xlink:href="#m6f6b39c598" y="127.760891"/>
    </g>
   </g>
   <g id="line2d_59">
    <path clip-path="url(#pf015709030)" d="M 491.529331 127.455652 
L 491.336414 136.681637 
" style="fill:none;stroke:#bfbf00;stroke-linecap:square;stroke-width:1.5;"/>
    <g clip-path="url(#pf015709030)">
     <use style="fill:#bfbf00;stroke:#bfbf00;" x="491.529331" xlink:href="#m6f6b39c598" y="127.455652"/>
     <use style="fill:#bfbf00;stroke:#bfbf00;" x="491.336414" xlink:href="#m6f6b39c598" y="136.681637"/>
    </g>
   </g>
   <g id="line2d_60">
    <path clip-path="url(#pf015709030)" style="fill:none;stroke:#bfbf00;stroke-linecap:square;stroke-width:1.5;"/>
    <g clip-path="url(#pf015709030)"/>
   </g>
   <g id="patch_26">
    <path clip-path="url(#pf015709030)" d="M 447.779259 141.432133 
L 472.296439 148.590984 
L 472.579352 126.721825 
L 447.834164 119.692302 
L 447.779259 141.432133 
" style="fill:#bfbf00;opacity:0.5;"/>
   </g>
   <g id="text_25">
    <!-- $0.872$ -->
    <g transform="translate(526.49622 52.392447)scale(0.22 -0.22)">
     <defs>
      <path d="M 2886 3955 
L 2886 4096 
L 1382 4096 
C 634 4096 621 4166 595 4288 
L 480 4288 
L 294 3104 
L 410 3104 
C 429 3226 474 3552 550 3673 
C 589 3724 1062 3724 1171 3724 
L 2579 3724 
L 1869 2670 
C 1395 1961 1069 1003 1069 166 
C 1069 89 1069 -128 1299 -128 
C 1530 -128 1530 89 1530 172 
L 1530 466 
C 1530 1514 1709 2204 2003 2644 
L 2886 3955 
z
" id="CMR17-37" transform="scale(0.015625)"/>
      <path d="M 2669 990 
L 2554 990 
C 2490 537 2438 460 2413 422 
C 2381 371 1920 371 1830 371 
L 602 371 
C 832 620 1280 1073 1824 1596 
C 2214 1966 2669 2400 2669 3033 
C 2669 3788 2067 4224 1395 4224 
C 691 4224 262 3603 262 3027 
C 262 2777 448 2745 525 2745 
C 589 2745 781 2783 781 3007 
C 781 3206 614 3264 525 3264 
C 486 3264 448 3257 422 3244 
C 544 3788 915 4057 1306 4057 
C 1862 4057 2227 3616 2227 3033 
C 2227 2477 1901 1998 1536 1583 
L 262 147 
L 262 0 
L 2515 0 
L 2669 990 
z
" id="CMR17-32" transform="scale(0.015625)"/>
     </defs>
     <use transform="scale(0.996264)" xlink:href="#CMR17-30"/>
     <use transform="translate(45.690477 0)scale(0.996264)" xlink:href="#CMMI12-3a"/>
     <use transform="translate(72.787654 0)scale(0.996264)" xlink:href="#CMR17-38"/>
     <use transform="translate(118.478131 0)scale(0.996264)" xlink:href="#CMR17-37"/>
     <use transform="translate(164.168608 0)scale(0.996264)" xlink:href="#CMR17-32"/>
    </g>
   </g>
   <g id="text_26">
    <!-- $|\Upsilon_1|$ -->
    <g transform="translate(554.914506 20.192376)scale(0.28 -0.28)">
     <use transform="scale(0.996264)" xlink:href="#CMSY10-6a"/>
     <use transform="translate(27.674085 0)scale(0.996264)" xlink:href="#CMR17-7"/>
     <use transform="translate(99.388873 -14.943915)scale(0.697382)" xlink:href="#CMR17-31"/>
     <use transform="translate(131.870187 0)scale(0.996264)" xlink:href="#CMSY10-6a"/>
    </g>
   </g>
   <g id="patch_27">
    <path clip-path="url(#pf015709030)" d="M 417.735881 132.65967 
L 441.717566 139.66216 
L 441.715214 79.03322 
L 417.124421 72.396616 
L 417.735881 132.65967 
" style="fill:#bfbf00;opacity:0.5;"/>
   </g>
   <g id="patch_28">
    <path clip-path="url(#pf015709030)" d="M 394.682189 152.163245 
L 419.050105 159.515737 
L 419.025499 156.979633 
L 394.631694 149.642014 
L 394.682189 152.163245 
" style="fill:#008000;opacity:0.5;"/>
   </g>
   <g id="patch_29">
    <path clip-path="url(#pf015709030)" d="M 478.494243 150.400701 
L 503.565057 157.721209 
L 504.144658 135.688783 
L 478.835438 128.499031 
L 478.494243 150.400701 
" style="fill:#bfbf00;opacity:0.5;"/>
   </g>
   <g id="patch_30">
    <path clip-path="url(#pf015709030)" d="M 425.211097 161.374683 
L 450.136796 168.895474 
L 450.166005 160.700575 
L 425.153407 153.228171 
L 425.211097 161.374683 
" style="fill:#008000;opacity:0.5;"/>
   </g>
   <g id="patch_31">
    <path clip-path="url(#pf015709030)" d="M 456.439622 170.797215 
L 481.942476 178.49215 
L 481.989 175.794868 
L 456.456427 168.115848 
L 456.439622 170.797215 
" style="fill:#008000;opacity:0.5;"/>
   </g>
   <g id="patch_32">
    <path clip-path="url(#pf015709030)" d="M 370.466839 172.649591 
L 395.229859 180.378997 
L 395.178217 177.801463 
L 370.38847 170.087272 
L 370.466839 172.649591 
" style="fill:#0000ff;opacity:0.5;"/>
   </g>
   <g id="patch_33">
    <path clip-path="url(#pf015709030)" d="M 488.392091 180.438182 
L 514.492381 188.31338 
L 514.560728 186.134683 
L 488.435488 178.27237 
L 488.392091 180.438182 
" style="fill:#008000;opacity:0.5;"/>
   </g>
   <g id="patch_34">
    <path clip-path="url(#pf015709030)" d="M 401.492533 182.333797 
L 426.836978 190.244687 
L 426.819378 187.523412 
L 401.445582 179.62863 
L 401.492533 182.333797 
" style="fill:#0000ff;opacity:0.5;"/>
   </g>
   <g id="patch_35">
    <path clip-path="url(#pf015709030)" d="M 433.247562 192.245655 
L 459.194153 200.344495 
L 459.257451 191.952409 
L 433.216683 183.903554 
L 433.247562 192.245655 
" style="fill:#0000ff;opacity:0.5;"/>
   </g>
   <g id="patch_36">
    <path clip-path="url(#pf015709030)" d="M 344.99976 194.194908 
L 370.166591 202.330972 
L 369.814765 191.021727 
L 344.528845 182.953187 
L 344.99976 194.194908 
" style="fill:#ff0000;opacity:0.5;"/>
   </g>
   <g id="patch_37">
    <path clip-path="url(#pf015709030)" d="M 465.75795 202.393286 
L 492.328403 210.686856 
L 492.377161 208.472301 
L 465.780843 200.191894 
L 465.75795 202.393286 
" style="fill:#0000ff;opacity:0.5;"/>
   </g>
   <g id="patch_38">
    <path clip-path="url(#pf015709030)" d="M 376.533303 204.389236 
L 402.306663 212.721382 
L 402.283857 211.397874 
L 376.495977 203.073593 
L 376.533303 204.389236 
" style="fill:#ff0000;opacity:0.5;"/>
   </g>
   <g id="patch_39">
    <path clip-path="url(#pf015709030)" d="M 408.827741 214.82955 
L 435.229822 223.364953 
L 435.225977 222.031531 
L 408.808654 213.504066 
L 408.827741 214.82955 
" style="fill:#ff0000;opacity:0.5;"/>
   </g>
   <g id="patch_40">
    <path clip-path="url(#pf015709030)" d="M 441.910949 225.524862 
L 468.965043 234.271051 
L 469.021006 229.591007 
L 441.911157 220.872787 
L 441.910949 225.524862 
" style="fill:#ff0000;opacity:0.5;"/>
   </g>
   <g id="patch_41">
    <path clip-path="url(#pf015709030)" d="M 509.903608 159.572023 
L 535.547022 167.059727 
L 588.24848 -1147.521234 
L 547.64965 -1140.682356 
L 509.903608 159.572023 
" style="fill:#bfbf00;opacity:0.5;"/>
   </g>
  </g>
 </g>
 <defs>
  <clipPath id="pcf6ecbad16">
   <rect height="253.636364" width="253.636364" x="7.2" y="7.2"/>
  </clipPath>
  <clipPath id="pf015709030">
   <rect height="253.636364" width="253.636364" x="311.563636" y="7.2"/>
  </clipPath>
 </defs>
</svg>
