<?xml version="1.0" encoding="utf-8" standalone="no"?>
<!DOCTYPE svg PUBLIC "-//W3C//DTD SVG 1.1//EN"
  "http://www.w3.org/Graphics/SVG/1.1/DTD/svg11.dtd">
<!-- Created with matplotlib (https://matplotlib.org/) -->
<svg height="583.051022pt" version="1.1" viewBox="0 0 299.956801 583.051022" width="299.956801pt" xmlns="http://www.w3.org/2000/svg" xmlns:xlink="http://www.w3.org/1999/xlink">
 <metadata>
  <rdf:RDF xmlns:cc="http://creativecommons.org/ns#" xmlns:dc="http://purl.org/dc/elements/1.1/" xmlns:rdf="http://www.w3.org/1999/02/22-rdf-syntax-ns#">
   <cc:Work>
    <dc:type rdf:resource="http://purl.org/dc/dcmitype/StillImage"/>
    <dc:date>2022-04-21T11:54:10.841527</dc:date>
    <dc:format>image/svg+xml</dc:format>
    <dc:creator>
     <cc:Agent>
      <dc:title>Matplotlib v3.3.4, https://matplotlib.org/</dc:title>
     </cc:Agent>
    </dc:creator>
   </cc:Work>
  </rdf:RDF>
 </metadata>
 <defs>
  <style type="text/css">*{stroke-linecap:butt;stroke-linejoin:round;}</style>
 </defs>
 <g id="figure_1">
  <g id="patch_1">
   <path d="M 0 583.051022 
L 299.956801 583.051022 
L 299.956801 0 
L 0 0 
z
" style="fill:none;"/>
  </g>
  <g id="patch_2">
   <path d="M 7.2 254.290909 
L 254.290909 254.290909 
L 254.290909 7.2 
L 7.2 7.2 
z
" style="fill:#ffffff;"/>
  </g>
  <g id="pane3d_1">
   <g id="patch_3">
    <path d="M 25.857068 193.36621 
L 107.454555 124.969577 
L 106.320272 26.329407 
L 20.817924 88.725126 
" style="fill:#f2f2f2;opacity:0.5;stroke:#f2f2f2;stroke-linejoin:miter;"/>
   </g>
  </g>
  <g id="pane3d_2">
   <g id="patch_4">
    <path d="M 107.454555 124.969577 
L 238.389409 163.02717 
L 243.062013 60.989452 
L 106.320272 26.329407 
" style="fill:#e6e6e6;opacity:0.5;stroke:#e6e6e6;stroke-linejoin:miter;"/>
   </g>
  </g>
  <g id="pane3d_3">
   <g id="patch_5">
    <path d="M 25.857068 193.36621 
L 164.654408 238.697421 
L 238.389409 163.02717 
L 107.454555 124.969577 
" style="fill:#ececec;opacity:0.5;stroke:#ececec;stroke-linejoin:miter;"/>
   </g>
  </g>
  <g id="axis3d_1">
   <g id="line2d_1">
    <path d="M 25.857068 193.36621 
L 164.654408 238.697421 
" style="fill:none;stroke:#000000;stroke-linecap:square;stroke-width:0.8;"/>
   </g>
   <g id="Line3DCollection_1">
    <path d="M 46.49649 200.107045 
L 126.998104 130.650115 
L 126.693938 31.493537 
" style="fill:none;stroke:#b0b0b0;stroke-width:0.8;"/>
    <path d="M 77.59466 210.263707 
L 156.396593 139.195095 
L 157.36531 39.267836 
" style="fill:none;stroke:#b0b0b0;stroke-width:0.8;"/>
    <path d="M 109.450574 220.667849 
L 186.451132 147.930763 
L 188.751202 47.223244 
" style="fill:none;stroke:#b0b0b0;stroke-width:0.8;"/>
    <path d="M 142.092269 231.328626 
L 217.183931 156.863575 
L 220.876876 55.366166 
" style="fill:none;stroke:#b0b0b0;stroke-width:0.8;"/>
   </g>
   <g id="xtick_1">
    <g id="line2d_2">
     <path d="M 47.197764 199.501984 
L 45.090918 201.319775 
" style="fill:none;stroke:#000000;stroke-linecap:square;stroke-width:0.8;"/>
    </g>
    <g id="text_1">
     <!-- $|00\rangle$ -->
     <g transform="translate(30.311185 243.135168)rotate(-45)scale(0.22 -0.22)">
      <defs>
       <path d="M 15.90625 71.40625 
C 15.90625 73.203125 15.90625 75 13.90625 75 
C 11.90625 75 11.90625 73.203125 11.90625 71.40625 
L 11.90625 -21.40625 
C 11.90625 -23.203125 11.90625 -25 13.90625 -25 
C 15.90625 -25 15.90625 -23.203125 15.90625 -21.40625 
z
" id="CMSY10-106"/>
       <path d="M 42 31.640625 
C 42 37.75 41.90625 48.125 37.703125 56.109375 
C 34 63.109375 28.09375 65.59375 22.90625 65.59375 
C 18.09375 65.59375 12 63.40625 8.203125 56.203125 
C 4.203125 48.71875 3.796875 39.4375 3.796875 31.640625 
C 3.796875 25.953125 3.90625 17.28125 7 9.671875 
C 11.296875 -0.609375 19 -2 22.90625 -2 
C 27.5 -2 34.5 -0.109375 38.59375 9.375 
C 41.59375 16.28125 42 24.359375 42 31.640625 
z
M 22.90625 -0.40625 
C 16.5 -0.40625 12.703125 5.078125 11.296875 12.6875 
C 10.203125 18.5625 10.203125 27.15625 10.203125 32.75 
C 10.203125 40.4375 10.203125 46.828125 11.5 52.921875 
C 13.40625 61.390625 19 64 22.90625 64 
C 27 64 32.296875 61.296875 34.203125 53.125 
C 35.5 47.4375 35.59375 40.734375 35.59375 32.75 
C 35.59375 26.25 35.59375 18.265625 34.40625 12.375 
C 32.296875 1.484375 26.40625 -0.40625 22.90625 -0.40625 
z
" id="CMR17-48"/>
       <path d="M 27.296875 23.296875 
C 27.796875 24.5 27.796875 24.703125 27.796875 25 
C 27.796875 25.296875 27.796875 25.5 27.296875 26.703125 
L 9.796875 72.703125 
C 9.203125 74.40625 8.59375 75 7.5 75 
C 6.40625 75 5.5 74.09375 5.5 73 
C 5.5 72.703125 5.5 72.5 6 71.40625 
L 23.703125 25 
L 6 -21.203125 
C 5.5 -22.296875 5.5 -22.5 5.5 -23 
C 5.5 -24.09375 6.40625 -25 7.5 -25 
C 8.796875 -25 9.203125 -24 9.59375 -23 
z
" id="CMSY10-105"/>
      </defs>
      <use transform="scale(0.996264)" xlink:href="#CMSY10-106"/>
      <use transform="translate(27.674085 0)scale(0.996264)" xlink:href="#CMR17-48"/>
      <use transform="translate(73.364562 0)scale(0.996264)" xlink:href="#CMR17-48"/>
      <use transform="translate(119.055039 0)scale(0.996264)" xlink:href="#CMSY10-105"/>
     </g>
    </g>
   </g>
   <g id="xtick_2">
    <g id="line2d_3">
     <path d="M 78.281802 209.643998 
L 76.217377 211.505829 
" style="fill:none;stroke:#000000;stroke-linecap:square;stroke-width:0.8;"/>
    </g>
    <g id="text_2">
     <!-- $|01\rangle$ -->
     <g transform="translate(61.424967 253.392449)rotate(-45)scale(0.22 -0.22)">
      <defs>
       <path d="M 26.59375 63.40625 
C 26.59375 65.5 26.5 65.5 25.09375 65.5 
C 21.203125 61.1875 15.296875 59.796875 9.703125 59.796875 
C 9.40625 59.796875 8.90625 59.796875 8.796875 59.5 
C 8.703125 59.296875 8.703125 59.09375 8.703125 57 
C 11.796875 57 17 57.59375 21 59.984375 
L 21 7.203125 
C 21 3.6875 20.796875 2.5 12.203125 2.5 
L 9.203125 2.5 
L 9.203125 0 
C 14 0 19 0 23.796875 0 
C 28.59375 0 33.59375 0 38.40625 0 
L 38.40625 2.5 
L 35.40625 2.5 
C 26.796875 2.5 26.59375 3.59375 26.59375 7.15625 
z
" id="CMR17-49"/>
      </defs>
      <use transform="scale(0.996264)" xlink:href="#CMSY10-106"/>
      <use transform="translate(27.674085 0)scale(0.996264)" xlink:href="#CMR17-48"/>
      <use transform="translate(73.364562 0)scale(0.996264)" xlink:href="#CMR17-49"/>
      <use transform="translate(119.055039 0)scale(0.996264)" xlink:href="#CMSY10-105"/>
     </g>
    </g>
   </g>
   <g id="xtick_3">
    <g id="line2d_4">
     <path d="M 110.122684 220.032954 
L 108.103387 221.940443 
" style="fill:none;stroke:#000000;stroke-linecap:square;stroke-width:0.8;"/>
    </g>
    <g id="text_3">
     <!-- $|10\rangle$ -->
     <g transform="translate(93.298229 263.900107)rotate(-45)scale(0.22 -0.22)">
      <use transform="scale(0.996264)" xlink:href="#CMSY10-106"/>
      <use transform="translate(27.674085 0)scale(0.996264)" xlink:href="#CMR17-49"/>
      <use transform="translate(73.364562 0)scale(0.996264)" xlink:href="#CMR17-48"/>
      <use transform="translate(119.055039 0)scale(0.996264)" xlink:href="#CMSY10-105"/>
     </g>
    </g>
   </g>
   <g id="xtick_4">
    <g id="line2d_5">
     <path d="M 142.748391 230.67798 
L 140.777092 232.632828 
" style="fill:none;stroke:#000000;stroke-linecap:square;stroke-width:0.8;"/>
    </g>
    <g id="text_4">
     <!-- $|11\rangle$ -->
     <g transform="translate(125.959122 274.667424)rotate(-45)scale(0.22 -0.22)">
      <use transform="scale(0.996264)" xlink:href="#CMSY10-106"/>
      <use transform="translate(27.674085 0)scale(0.996264)" xlink:href="#CMR17-49"/>
      <use transform="translate(73.364562 0)scale(0.996264)" xlink:href="#CMR17-49"/>
      <use transform="translate(119.055039 0)scale(0.996264)" xlink:href="#CMSY10-105"/>
     </g>
    </g>
   </g>
  </g>
  <g id="axis3d_2">
   <g id="line2d_6">
    <path d="M 238.389409 163.02717 
L 164.654408 238.697421 
" style="fill:none;stroke:#000000;stroke-linecap:square;stroke-width:0.8;"/>
   </g>
   <g id="Line3DCollection_2">
    <path d="M 26.730623 84.410307 
L 31.479824 188.653104 
L 169.756299 233.461625 
" style="fill:none;stroke:#b0b0b0;stroke-width:0.8;"/>
    <path d="M 52.896228 65.315841 
L 56.39777 167.766387 
L 192.328584 210.296908 
" style="fill:none;stroke:#b0b0b0;stroke-width:0.8;"/>
    <path d="M 77.724565 47.197251 
L 80.095793 147.902234 
L 213.739355 188.324189 
" style="fill:none;stroke:#b0b0b0;stroke-width:0.8;"/>
    <path d="M 101.315598 29.98159 
L 102.661341 128.987345 
L 234.076019 167.45377 
" style="fill:none;stroke:#b0b0b0;stroke-width:0.8;"/>
   </g>
   <g id="xtick_5">
    <g id="line2d_7">
     <path d="M 168.591039 233.084022 
L 172.089833 234.217807 
" style="fill:none;stroke:#000000;stroke-linecap:square;stroke-width:0.8;"/>
    </g>
    <g id="text_5">
     <!-- $\langle 00|$ -->
     <g transform="translate(163.731119 250.919654)rotate(-315)scale(0.22 -0.22)">
      <defs>
       <path d="M 32.796875 71.203125 
C 33.296875 72.296875 33.296875 72.5 33.296875 73 
C 33.296875 74.09375 32.40625 75 31.296875 75 
C 30.40625 75 29.703125 74.5 29 72.703125 
L 11.5 26.796875 
C 11.296875 26.203125 11 25.59375 11 25 
C 11 24.703125 11 24.5 11.5 23.296875 
L 29 -22.59375 
C 29.40625 -23.703125 29.90625 -25 31.296875 -25 
C 32.40625 -25 33.296875 -24.09375 33.296875 -23 
C 33.296875 -22.703125 33.296875 -22.5 32.796875 -21.40625 
L 15.09375 25 
z
" id="CMSY10-104"/>
      </defs>
      <use transform="scale(0.996264)" xlink:href="#CMSY10-104"/>
      <use transform="translate(38.743734 0)scale(0.996264)" xlink:href="#CMR17-48"/>
      <use transform="translate(84.434211 0)scale(0.996264)" xlink:href="#CMR17-48"/>
      <use transform="translate(130.124688 0)scale(0.996264)" xlink:href="#CMSY10-106"/>
     </g>
    </g>
   </g>
   <g id="xtick_6">
    <g id="line2d_8">
     <path d="M 191.184623 209.938982 
L 194.619385 211.013663 
" style="fill:none;stroke:#000000;stroke-linecap:square;stroke-width:0.8;"/>
    </g>
    <g id="text_6">
     <!-- $\langle 01|$ -->
     <g transform="translate(186.161677 227.5945)rotate(-315)scale(0.22 -0.22)">
      <use transform="scale(0.996264)" xlink:href="#CMSY10-104"/>
      <use transform="translate(38.743734 0)scale(0.996264)" xlink:href="#CMR17-48"/>
      <use transform="translate(84.434211 0)scale(0.996264)" xlink:href="#CMR17-49"/>
      <use transform="translate(130.124688 0)scale(0.996264)" xlink:href="#CMSY10-106"/>
     </g>
    </g>
   </g>
   <g id="xtick_7">
    <g id="line2d_9">
     <path d="M 212.616073 187.98444 
L 215.988676 189.004521 
" style="fill:none;stroke:#000000;stroke-linecap:square;stroke-width:0.8;"/>
    </g>
    <g id="text_7">
     <!-- $\langle 10|$ -->
     <g transform="translate(207.437708 205.469918)rotate(-315)scale(0.22 -0.22)">
      <use transform="scale(0.996264)" xlink:href="#CMSY10-104"/>
      <use transform="translate(38.743734 0)scale(0.996264)" xlink:href="#CMR17-49"/>
      <use transform="translate(84.434211 0)scale(0.996264)" xlink:href="#CMR17-48"/>
      <use transform="translate(130.124688 0)scale(0.996264)" xlink:href="#CMSY10-106"/>
     </g>
    </g>
   </g>
   <g id="xtick_8">
    <g id="line2d_10">
     <path d="M 232.972804 167.130848 
L 236.285085 168.100386 
" style="fill:none;stroke:#000000;stroke-linecap:square;stroke-width:0.8;"/>
    </g>
    <g id="text_8">
     <!-- $\langle 11|$ -->
     <g transform="translate(227.646113 184.455541)rotate(-315)scale(0.22 -0.22)">
      <use transform="scale(0.996264)" xlink:href="#CMSY10-104"/>
      <use transform="translate(38.743734 0)scale(0.996264)" xlink:href="#CMR17-49"/>
      <use transform="translate(84.434211 0)scale(0.996264)" xlink:href="#CMR17-49"/>
      <use transform="translate(130.124688 0)scale(0.996264)" xlink:href="#CMSY10-106"/>
     </g>
    </g>
   </g>
  </g>
  <g id="axis3d_3">
   <g id="line2d_11">
    <path d="M 238.389409 163.02717 
L 243.062013 60.989452 
" style="fill:none;stroke:#000000;stroke-linecap:square;stroke-width:0.8;"/>
   </g>
   <g id="Line3DCollection_3">
    <path d="M 238.478931 161.07224 
L 107.432779 123.075824 
L 25.760683 191.364715 
" style="fill:none;stroke:#b0b0b0;stroke-width:0.8;"/>
    <path d="M 240.674527 113.126035 
L 106.89924 76.677964 
L 23.394818 142.235996 
" style="fill:none;stroke:#b0b0b0;stroke-width:0.8;"/>
    <path d="M 242.964462 63.119718 
L 106.343904 28.384489 
L 20.923301 90.913353 
" style="fill:none;stroke:#b0b0b0;stroke-width:0.8;"/>
   </g>
   <g id="xtick_9">
    <g id="line2d_12">
     <path d="M 237.379049 160.753333 
L 240.681314 161.710814 
" style="fill:none;stroke:#000000;stroke-linecap:square;stroke-width:0.8;"/>
    </g>
    <g id="text_9">
     <!-- $\mathdefault{0.00}$ -->
     <g transform="translate(248.14732 172.093804)rotate(-345)scale(0.22 -0.22)">
      <defs>
       <path d="M 18.40625 4.796875 
C 18.40625 7.6875 16 9.671875 13.59375 9.671875 
C 10.703125 9.671875 8.703125 7.28125 8.703125 4.890625 
C 8.703125 2 11.09375 0 13.5 0 
C 16.40625 0 18.40625 2.390625 18.40625 4.796875 
z
" id="CMMI12-58"/>
      </defs>
      <use transform="scale(0.996264)" xlink:href="#CMR17-48"/>
      <use transform="translate(45.690477 0)scale(0.996264)" xlink:href="#CMMI12-58"/>
      <use transform="translate(72.787654 0)scale(0.996264)" xlink:href="#CMR17-48"/>
      <use transform="translate(118.478131 0)scale(0.996264)" xlink:href="#CMR17-48"/>
     </g>
    </g>
   </g>
   <g id="xtick_10">
    <g id="line2d_13">
     <path d="M 239.550633 112.819822 
L 242.925046 113.739206 
" style="fill:none;stroke:#000000;stroke-linecap:square;stroke-width:0.8;"/>
    </g>
    <g id="text_10">
     <!-- $\mathdefault{0.05}$ -->
     <g transform="translate(250.92851 124.309695)rotate(-345)scale(0.22 -0.22)">
      <defs>
       <path d="M 11.40625 57.6875 
C 12.40625 57.28125 16.5 56 20.703125 56 
C 30 56 35.09375 61.109375 38 64.0625 
C 38 64.953125 38 65.5 37.40625 65.5 
C 37.296875 65.5 37.09375 65.5 36.296875 65.046875 
C 32.796875 63.40625 28.703125 62.078125 23.703125 62.078125 
C 20.703125 62.078125 16.203125 62.484375 11.296875 64.671875 
C 10.203125 65.171875 10 65.171875 9.90625 65.171875 
C 9.40625 65.171875 9.296875 65.0625 9.296875 63.078125 
L 9.296875 34.421875 
C 9.296875 32.640625 9.296875 32.140625 10.296875 32.140625 
C 10.796875 32.140625 11 32.34375 11.5 33.03125 
C 14.703125 37.515625 19.09375 39.40625 24.09375 39.40625 
C 27.59375 39.40625 35.09375 37.21875 35.09375 20.140625 
C 35.09375 16.953125 35.09375 11.171875 32.09375 6.578125 
C 29.59375 2.484375 25.703125 0.390625 21.40625 0.390625 
C 14.796875 0.390625 8.09375 5 6.296875 12.71875 
C 6.703125 12.609375 7.5 12.421875 7.90625 12.421875 
C 9.203125 12.421875 11.703125 13.125 11.703125 16.21875 
C 11.703125 18.90625 9.796875 20 7.90625 20 
C 5.59375 20 4.09375 18.59375 4.09375 15.796875 
C 4.09375 7.09375 11 -2 21.59375 -2 
C 31.90625 -2 41.703125 6.875 41.703125 19.75 
C 41.703125 31.71875 33.90625 41 24.203125 41 
C 19.09375 41 14.796875 39.109375 11.40625 35.53125 
z
" id="CMR17-53"/>
      </defs>
      <use transform="scale(0.996264)" xlink:href="#CMR17-48"/>
      <use transform="translate(45.690477 0)scale(0.996264)" xlink:href="#CMMI12-58"/>
      <use transform="translate(72.787654 0)scale(0.996264)" xlink:href="#CMR17-48"/>
      <use transform="translate(118.478131 0)scale(0.996264)" xlink:href="#CMR17-53"/>
     </g>
    </g>
   </g>
   <g id="xtick_11">
    <g id="line2d_14">
     <path d="M 241.815486 62.827596 
L 245.265265 63.704688 
" style="fill:none;stroke:#000000;stroke-linecap:square;stroke-width:0.8;"/>
    </g>
    <g id="text_11">
     <!-- $\mathdefault{0.10}$ -->
     <g transform="translate(253.82857 74.483246)rotate(-345)scale(0.22 -0.22)">
      <use transform="scale(0.996264)" xlink:href="#CMR17-48"/>
      <use transform="translate(45.690477 0)scale(0.996264)" xlink:href="#CMMI12-58"/>
      <use transform="translate(72.787654 0)scale(0.996264)" xlink:href="#CMR17-49"/>
      <use transform="translate(118.478131 0)scale(0.996264)" xlink:href="#CMR17-48"/>
     </g>
    </g>
   </g>
  </g>
  <g id="axes_1">
   <g id="line2d_15">
    <path clip-path="url(#pc830163809)" style="fill:none;stroke:#ff0000;stroke-linecap:square;stroke-width:1.5;"/>
    <defs>
     <path d="M 3 0 
L -3 -0 
" id="mb0f6b92f96" style="stroke:#ff0000;"/>
    </defs>
    <g clip-path="url(#pc830163809)"/>
   </g>
   <g id="line2d_16">
    <path clip-path="url(#pc830163809)" d="M 82.79689 195.015129 
L 83.041513 205.726576 
" style="fill:none;stroke:#ff0000;stroke-linecap:square;stroke-width:1.5;"/>
    <g clip-path="url(#pc830163809)">
     <use style="fill:#ff0000;stroke:#ff0000;" x="82.79689" xlink:href="#mb0f6b92f96" y="195.015129"/>
     <use style="fill:#ff0000;stroke:#ff0000;" x="83.041513" xlink:href="#mb0f6b92f96" y="205.726576"/>
    </g>
   </g>
   <g id="line2d_17">
    <path clip-path="url(#pc830163809)" d="M 114.679265 205.221677 
L 114.772942 216.013571 
" style="fill:none;stroke:#ff0000;stroke-linecap:square;stroke-width:1.5;"/>
    <g clip-path="url(#pc830163809)">
     <use style="fill:#ff0000;stroke:#ff0000;" x="114.679265" xlink:href="#mb0f6b92f96" y="205.221677"/>
     <use style="fill:#ff0000;stroke:#ff0000;" x="114.772942" xlink:href="#mb0f6b92f96" y="216.013571"/>
    </g>
   </g>
   <g id="line2d_18">
    <path clip-path="url(#pc830163809)" d="M 147.38264 209.725874 
L 147.353973 214.535374 
" style="fill:none;stroke:#ff0000;stroke-linecap:square;stroke-width:1.5;"/>
    <g clip-path="url(#pc830163809)">
     <use style="fill:#ff0000;stroke:#ff0000;" x="147.38264" xlink:href="#mb0f6b92f96" y="209.725874"/>
     <use style="fill:#ff0000;stroke:#ff0000;" x="147.353973" xlink:href="#mb0f6b92f96" y="214.535374"/>
    </g>
   </g>
   <g id="line2d_19">
    <path clip-path="url(#pc830163809)" d="M 76.306952 160.980892 
L 76.661368 174.965483 
" style="fill:none;stroke:#0000ff;stroke-linecap:square;stroke-width:1.5;"/>
    <defs>
     <path d="M 3 0 
L -3 -0 
" id="me039ef6710" style="stroke:#0000ff;"/>
    </defs>
    <g clip-path="url(#pc830163809)">
     <use style="fill:#0000ff;stroke:#0000ff;" x="76.306952" xlink:href="#me039ef6710" y="160.980892"/>
     <use style="fill:#0000ff;stroke:#0000ff;" x="76.661368" xlink:href="#me039ef6710" y="174.965483"/>
    </g>
   </g>
   <g id="line2d_20">
    <path clip-path="url(#pc830163809)" d="M 107.018 175.144452 
L 107.152772 186.425709 
" style="fill:none;stroke:#0000ff;stroke-linecap:square;stroke-width:1.5;"/>
    <g clip-path="url(#pc830163809)">
     <use style="fill:#0000ff;stroke:#0000ff;" x="107.018" xlink:href="#me039ef6710" y="175.144452"/>
     <use style="fill:#0000ff;stroke:#0000ff;" x="107.152772" xlink:href="#me039ef6710" y="186.425709"/>
    </g>
   </g>
   <g id="line2d_21">
    <path clip-path="url(#pc830163809)" d="M 138.336103 184.174343 
L 138.315081 195.331794 
" style="fill:none;stroke:#0000ff;stroke-linecap:square;stroke-width:1.5;"/>
    <g clip-path="url(#pc830163809)">
     <use style="fill:#0000ff;stroke:#0000ff;" x="138.336103" xlink:href="#me039ef6710" y="184.174343"/>
     <use style="fill:#0000ff;stroke:#0000ff;" x="138.315081" xlink:href="#me039ef6710" y="195.331794"/>
    </g>
   </g>
   <g id="line2d_22">
    <path clip-path="url(#pc830163809)" d="M 170.332063 199.122828 
L 170.273031 202.773554 
" style="fill:none;stroke:#0000ff;stroke-linecap:square;stroke-width:1.5;"/>
    <g clip-path="url(#pc830163809)">
     <use style="fill:#0000ff;stroke:#0000ff;" x="170.332063" xlink:href="#me039ef6710" y="199.122828"/>
     <use style="fill:#0000ff;stroke:#0000ff;" x="170.273031" xlink:href="#me039ef6710" y="202.773554"/>
    </g>
   </g>
   <g id="line2d_23">
    <path clip-path="url(#pc830163809)" d="M 99.826305 141.020873 
L 100.031268 154.78008 
" style="fill:none;stroke:#008000;stroke-linecap:square;stroke-width:1.5;"/>
    <defs>
     <path d="M 3 0 
L -3 -0 
" id="m428f5122a8" style="stroke:#008000;"/>
    </defs>
    <g clip-path="url(#pc830163809)">
     <use style="fill:#008000;stroke:#008000;" x="99.826305" xlink:href="#m428f5122a8" y="141.020873"/>
     <use style="fill:#008000;stroke:#008000;" x="100.031268" xlink:href="#m428f5122a8" y="154.78008"/>
    </g>
   </g>
   <g id="line2d_24">
    <path clip-path="url(#pc830163809)" d="M 129.987949 153.989847 
L 130.007469 164.88627 
" style="fill:none;stroke:#008000;stroke-linecap:square;stroke-width:1.5;"/>
    <g clip-path="url(#pc830163809)">
     <use style="fill:#008000;stroke:#008000;" x="129.987949" xlink:href="#m428f5122a8" y="153.989847"/>
     <use style="fill:#008000;stroke:#008000;" x="130.007469" xlink:href="#m428f5122a8" y="164.88627"/>
    </g>
   </g>
   <g id="line2d_25">
    <path clip-path="url(#pc830163809)" d="M 160.778001 163.858573 
L 160.646909 175.040536 
" style="fill:none;stroke:#008000;stroke-linecap:square;stroke-width:1.5;"/>
    <g clip-path="url(#pc830163809)">
     <use style="fill:#008000;stroke:#008000;" x="160.778001" xlink:href="#m428f5122a8" y="163.858573"/>
     <use style="fill:#008000;stroke:#008000;" x="160.646909" xlink:href="#m428f5122a8" y="175.040536"/>
    </g>
   </g>
   <g id="line2d_26">
    <path clip-path="url(#pc830163809)" d="M 192.176199 177.568424 
L 192.084007 181.160144 
" style="fill:none;stroke:#008000;stroke-linecap:square;stroke-width:1.5;"/>
    <g clip-path="url(#pc830163809)">
     <use style="fill:#008000;stroke:#008000;" x="192.176199" xlink:href="#m428f5122a8" y="177.568424"/>
     <use style="fill:#008000;stroke:#008000;" x="192.084007" xlink:href="#m428f5122a8" y="181.160144"/>
    </g>
   </g>
   <g id="line2d_27">
    <path clip-path="url(#pc830163809)" d="M 122.124506 105.896188 
L 122.134516 107.85023 
" style="fill:none;stroke:#bfbf00;stroke-linecap:square;stroke-width:1.5;"/>
    <defs>
     <path d="M 3 0 
L -3 -0 
" id="mb341ab6b7a" style="stroke:#bfbf00;"/>
    </defs>
    <g clip-path="url(#pc830163809)">
     <use style="fill:#bfbf00;stroke:#bfbf00;" x="122.124506" xlink:href="#mb341ab6b7a" y="105.896188"/>
     <use style="fill:#bfbf00;stroke:#bfbf00;" x="122.134516" xlink:href="#mb341ab6b7a" y="107.85023"/>
    </g>
   </g>
   <g id="line2d_28">
    <path clip-path="url(#pc830163809)" d="M 151.79769 140.38682 
L 151.783106 142.280825 
" style="fill:none;stroke:#bfbf00;stroke-linecap:square;stroke-width:1.5;"/>
    <g clip-path="url(#pc830163809)">
     <use style="fill:#bfbf00;stroke:#bfbf00;" x="151.79769" xlink:href="#mb341ab6b7a" y="140.38682"/>
     <use style="fill:#bfbf00;stroke:#bfbf00;" x="151.783106" xlink:href="#mb341ab6b7a" y="142.280825"/>
    </g>
   </g>
   <g id="line2d_29">
    <path clip-path="url(#pc830163809)" d="M 182.001966 149.194412 
L 181.96207 151.10234 
" style="fill:none;stroke:#bfbf00;stroke-linecap:square;stroke-width:1.5;"/>
    <g clip-path="url(#pc830163809)">
     <use style="fill:#bfbf00;stroke:#bfbf00;" x="182.001966" xlink:href="#mb341ab6b7a" y="149.194412"/>
     <use style="fill:#bfbf00;stroke:#bfbf00;" x="181.96207" xlink:href="#mb341ab6b7a" y="151.10234"/>
    </g>
   </g>
   <g id="line2d_30">
    <path clip-path="url(#pc830163809)" d="M 212.981245 155.631717 
L 212.938392 156.872893 
" style="fill:none;stroke:#bfbf00;stroke-linecap:square;stroke-width:1.5;"/>
    <g clip-path="url(#pc830163809)">
     <use style="fill:#bfbf00;stroke:#bfbf00;" x="212.981245" xlink:href="#mb341ab6b7a" y="155.631717"/>
     <use style="fill:#bfbf00;stroke:#bfbf00;" x="212.938392" xlink:href="#mb341ab6b7a" y="156.872893"/>
    </g>
   </g>
   <g id="patch_6">
    <path clip-path="url(#pc830163809)" d="M 139.90038 137.968078 
L 163.784859 144.942184 
L 163.786227 144.836443 
L 139.900646 137.862953 
L 139.90038 137.968078 
" style="fill:#bfbf00;opacity:0.5;"/>
   </g>
   <g id="text_12">
    <!-- $0.977$ -->
    <g transform="translate(47.912418 82.145932)scale(0.22 -0.22)">
     <defs>
      <path d="M 35.203125 29.125 
C 35.203125 7.25 26.09375 0.484375 18.59375 0.484375 
C 16.296875 0.484375 10.703125 0.484375 8.40625 4.59375 
C 11 4.1875 12.90625 5.578125 12.90625 8.09375 
C 12.90625 10.8125 10.703125 11.703125 9.296875 11.703125 
C 8.40625 11.703125 5.703125 11.296875 5.703125 7.90625 
C 5.703125 1.109375 11.59375 -2 18.796875 -2 
C 30.296875 -2 42 10.53125 42 32.390625 
C 42 59.640625 30.796875 65.296875 23.203125 65.296875 
C 13.296875 65.296875 3.796875 56.6875 3.796875 43.40625 
C 3.796875 31.109375 11.90625 22 22.09375 22 
C 30.5 22 34.203125 29.734375 35.203125 33 
z
M 22.296875 23.59375 
C 19.59375 23.59375 15.796875 24.09375 12.703125 30.03125 
C 10.59375 33.890625 10.59375 38.453125 10.59375 43.296875 
C 10.59375 49.15625 10.59375 53.203125 13.40625 57.5625 
C 14.796875 59.640625 17.40625 63 23.203125 63 
C 35 63 35 45.078125 35 41.125 
C 35 34.09375 31.796875 23.59375 22.296875 23.59375 
z
" id="CMR17-57"/>
      <path d="M 45.09375 61.578125 
L 45.09375 63.765625 
L 21.59375 63.765625 
C 9.90625 63.765625 9.703125 65.078125 9.296875 67 
L 7.5 67 
L 4.59375 48.34375 
L 6.40625 48.34375 
C 6.703125 50.234375 7.40625 55.3125 8.59375 57.203125 
C 9.203125 58 16.59375 58 18.296875 58 
L 40.296875 58 
L 29.203125 41.578125 
C 21.796875 30.53125 16.703125 15.609375 16.703125 2.578125 
C 16.703125 1.390625 16.703125 -2 20.296875 -2 
C 23.90625 -2 23.90625 1.390625 23.90625 2.671875 
L 23.90625 7.265625 
C 23.90625 23.5625 26.703125 34.3125 31.296875 41.1875 
z
" id="CMR17-55"/>
     </defs>
     <use transform="scale(0.996264)" xlink:href="#CMR17-48"/>
     <use transform="translate(45.690477 0)scale(0.996264)" xlink:href="#CMMI12-58"/>
     <use transform="translate(72.787654 0)scale(0.996264)" xlink:href="#CMR17-57"/>
     <use transform="translate(118.478131 0)scale(0.996264)" xlink:href="#CMR17-55"/>
     <use transform="translate(164.168608 0)scale(0.996264)" xlink:href="#CMR17-55"/>
    </g>
   </g>
   <g id="text_13">
    <!-- $|\bar\Upsilon_0|$ -->
    <g transform="translate(244.03818 24.969078)scale(0.28 -0.28)">
     <defs>
      <path d="M 39.90625 55 
L 39.90625 57.28125 
L 5.90625 57.28125 
L 5.90625 55 
z
" id="CMR17-22"/>
      <path d="M 39.296875 35.140625 
C 39.296875 39.546875 39.90625 48.03125 42.59375 54.515625 
C 45.40625 61 49.796875 64 55.203125 64 
C 58.40625 64 64.296875 62.203125 65.203125 54.90625 
C 65.296875 54.109375 65.296875 53.8125 66.203125 53.8125 
C 67.203125 53.8125 67.296875 54.109375 67.296875 55.109375 
C 67.296875 60.40625 63.796875 69.703125 55.09375 69.703125 
C 39.90625 69.703125 36.796875 50.328125 36.09375 45.234375 
L 36 45.234375 
C 35.203125 50.421875 32 69.703125 16.796875 69.703125 
C 8 69.703125 4.59375 60.3125 4.59375 55.109375 
C 4.59375 54.109375 4.703125 53.8125 5.703125 53.8125 
C 6.59375 53.8125 6.59375 54.109375 6.703125 54.90625 
C 7.59375 62.296875 13.5 64 16.703125 64 
C 31.703125 64 32.703125 41.140625 32.703125 35.140625 
L 32.703125 7.09375 
C 32.703125 3.5 32.5 2.5 24.90625 2.5 
L 22.703125 2.5 
L 22.703125 0 
C 26.90625 0 31.796875 0 36 0 
C 40.203125 0 45.09375 0 49.296875 0 
L 49.296875 2.5 
L 47.09375 2.5 
C 39.5 2.5 39.296875 3.5 39.296875 7.09375 
z
" id="CMR17-7"/>
     </defs>
     <use transform="scale(0.996264)" xlink:href="#CMSY10-106"/>
     <use transform="translate(40.686248 25.175672)scale(0.996264)" xlink:href="#CMR17-22"/>
     <use transform="translate(27.674085 0)scale(0.996264)" xlink:href="#CMR17-7"/>
     <use transform="translate(99.388873 -14.943915)scale(0.697382)" xlink:href="#CMR17-48"/>
     <use transform="translate(131.870187 0)scale(0.996264)" xlink:href="#CMSY10-106"/>
    </g>
   </g>
   <g id="patch_7">
    <path clip-path="url(#pc830163809)" d="M 110.632316 129.422001 
L 133.995118 136.243781 
L 133.994109 110.222421 
L 110.36985 103.554432 
L 110.632316 129.422001 
" style="fill:#bfbf00;opacity:0.5;"/>
   </g>
   <g id="patch_8">
    <path clip-path="url(#pc830163809)" d="M 169.82272 146.705199 
L 194.246545 153.836791 
L 194.249347 153.730271 
L 169.82437 146.599302 
L 169.82272 146.705199 
" style="fill:#bfbf00;opacity:0.5;"/>
   </g>
   <g id="patch_9">
    <path clip-path="url(#pc830163809)" d="M 88.173557 148.422258 
L 111.912625 155.585009 
L 111.873054 151.506615 
L 88.092356 144.367808 
L 88.173557 148.422258 
" style="fill:#008000;opacity:0.5;"/>
   </g>
   <g id="patch_10">
    <path clip-path="url(#pc830163809)" d="M 200.421521 155.639842 
L 225.40317 162.934314 
L 225.52452 159.907356 
L 200.508876 152.630686 
L 200.421521 155.639842 
" style="fill:#bfbf00;opacity:0.5;"/>
   </g>
   <g id="patch_11">
    <path clip-path="url(#pc830163809)" d="M 117.914623 157.395982 
L 142.197078 164.722688 
L 142.202768 163.126396 
L 117.903386 155.809075 
L 117.914623 157.395982 
" style="fill:#008000;opacity:0.5;"/>
   </g>
   <g id="patch_12">
    <path clip-path="url(#pc830163809)" d="M 148.337251 166.575352 
L 173.181967 174.071708 
L 173.196549 173.226256 
L 148.342518 165.734883 
L 148.337251 166.575352 
" style="fill:#008000;opacity:0.5;"/>
   </g>
   <g id="patch_13">
    <path clip-path="url(#pc830163809)" d="M 64.58312 168.379924 
L 88.707094 175.909862 
L 88.624046 171.76477 
L 64.457091 164.259328 
L 64.58312 168.379924 
" style="fill:#0000ff;opacity:0.5;"/>
   </g>
   <g id="patch_14">
    <path clip-path="url(#pc830163809)" d="M 179.46514 175.967519 
L 204.891874 183.639486 
L 204.905086 183.218315 
L 179.473529 175.548836 
L 179.46514 175.967519 
" style="fill:#008000;opacity:0.5;"/>
   </g>
   <g id="patch_15">
    <path clip-path="url(#pc830163809)" d="M 94.808151 177.814215 
L 119.498546 185.520953 
L 119.493029 184.667991 
L 94.793434 176.966296 
L 94.808151 177.814215 
" style="fill:#0000ff;opacity:0.5;"/>
   </g>
   <g id="patch_16">
    <path clip-path="url(#pc830163809)" d="M 125.743695 187.470283 
L 151.020697 195.360121 
L 151.033025 193.725593 
L 125.737681 185.845446 
L 125.743695 187.470283 
" style="fill:#0000ff;opacity:0.5;"/>
   </g>
   <g id="patch_17">
    <path clip-path="url(#pc830163809)" d="M 157.415105 197.35604 
L 183.29987 205.435582 
L 183.309295 205.007488 
L 157.419531 196.930487 
L 157.415105 197.35604 
" style="fill:#0000ff;opacity:0.5;"/>
   </g>
   <g id="patch_18">
    <path clip-path="url(#pc830163809)" d="M 70.49303 199.300481 
L 95.601271 207.417605 
L 95.550184 204.452826 
L 70.409419 196.353342 
L 70.49303 199.300481 
" style="fill:#ff0000;opacity:0.5;"/>
   </g>
   <g id="patch_19">
    <path clip-path="url(#pc830163809)" d="M 101.954063 209.471368 
L 127.6748 217.786502 
L 127.666188 214.79949 
L 101.911307 206.502159 
L 101.954063 209.471368 
" style="fill:#ff0000;opacity:0.5;"/>
   </g>
   <g id="patch_20">
    <path clip-path="url(#pc830163809)" d="M 134.183511 219.890672 
L 160.539435 228.411153 
L 160.683322 216.378154 
L 134.184045 207.929979 
L 134.183511 219.890672 
" style="fill:#ff0000;opacity:0.5;"/>
   </g>
   <g id="patch_21">
    <path clip-path="url(#pc830163809)" d="M 39.773256 189.369233 
L 64.290621 197.295334 
L 13.659603 -1430.209093 
L -27.538552 -1417.506558 
L 39.773256 189.369233 
" style="fill:#ff0000;opacity:0.5;"/>
   </g>
  </g>
  <g id="patch_22">
   <path d="M 7.2 550.8 
L 254.290909 550.8 
L 254.290909 303.709091 
L 7.2 303.709091 
z
" style="fill:#ffffff;"/>
  </g>
  <g id="pane3d_4">
   <g id="patch_23">
    <path d="M 25.857068 489.8753 
L 107.454555 421.478668 
L 106.320272 322.838498 
L 20.817924 385.234217 
" style="fill:#f2f2f2;opacity:0.5;stroke:#f2f2f2;stroke-linejoin:miter;"/>
   </g>
  </g>
  <g id="pane3d_5">
   <g id="patch_24">
    <path d="M 107.454555 421.478668 
L 238.389409 459.536261 
L 243.062013 357.498543 
L 106.320272 322.838498 
" style="fill:#e6e6e6;opacity:0.5;stroke:#e6e6e6;stroke-linejoin:miter;"/>
   </g>
  </g>
  <g id="pane3d_6">
   <g id="patch_25">
    <path d="M 25.857068 489.8753 
L 164.654408 535.206511 
L 238.389409 459.536261 
L 107.454555 421.478668 
" style="fill:#ececec;opacity:0.5;stroke:#ececec;stroke-linejoin:miter;"/>
   </g>
  </g>
  <g id="axis3d_4">
   <g id="line2d_31">
    <path d="M 25.857068 489.8753 
L 164.654408 535.206511 
" style="fill:none;stroke:#000000;stroke-linecap:square;stroke-width:0.8;"/>
   </g>
   <g id="Line3DCollection_4">
    <path d="M 46.49649 496.616136 
L 126.998104 427.159206 
L 126.693938 328.002628 
" style="fill:none;stroke:#b0b0b0;stroke-width:0.8;"/>
    <path d="M 77.59466 506.772798 
L 156.396593 435.704186 
L 157.36531 335.776927 
" style="fill:none;stroke:#b0b0b0;stroke-width:0.8;"/>
    <path d="M 109.450574 517.17694 
L 186.451132 444.439854 
L 188.751202 343.732335 
" style="fill:none;stroke:#b0b0b0;stroke-width:0.8;"/>
    <path d="M 142.092269 527.837717 
L 217.183931 453.372666 
L 220.876876 351.875257 
" style="fill:none;stroke:#b0b0b0;stroke-width:0.8;"/>
   </g>
   <g id="xtick_12">
    <g id="line2d_32">
     <path d="M 47.197764 496.011075 
L 45.090918 497.828866 
" style="fill:none;stroke:#000000;stroke-linecap:square;stroke-width:0.8;"/>
    </g>
    <g id="text_14">
     <!-- $|00\rangle$ -->
     <g transform="translate(30.311185 539.644259)rotate(-45)scale(0.22 -0.22)">
      <use transform="scale(0.996264)" xlink:href="#CMSY10-106"/>
      <use transform="translate(27.674085 0)scale(0.996264)" xlink:href="#CMR17-48"/>
      <use transform="translate(73.364562 0)scale(0.996264)" xlink:href="#CMR17-48"/>
      <use transform="translate(119.055039 0)scale(0.996264)" xlink:href="#CMSY10-105"/>
     </g>
    </g>
   </g>
   <g id="xtick_13">
    <g id="line2d_33">
     <path d="M 78.281802 506.153089 
L 76.217377 508.014919 
" style="fill:none;stroke:#000000;stroke-linecap:square;stroke-width:0.8;"/>
    </g>
    <g id="text_15">
     <!-- $|01\rangle$ -->
     <g transform="translate(61.424967 549.90154)rotate(-45)scale(0.22 -0.22)">
      <use transform="scale(0.996264)" xlink:href="#CMSY10-106"/>
      <use transform="translate(27.674085 0)scale(0.996264)" xlink:href="#CMR17-48"/>
      <use transform="translate(73.364562 0)scale(0.996264)" xlink:href="#CMR17-49"/>
      <use transform="translate(119.055039 0)scale(0.996264)" xlink:href="#CMSY10-105"/>
     </g>
    </g>
   </g>
   <g id="xtick_14">
    <g id="line2d_34">
     <path d="M 110.122684 516.542045 
L 108.103387 518.449534 
" style="fill:none;stroke:#000000;stroke-linecap:square;stroke-width:0.8;"/>
    </g>
    <g id="text_16">
     <!-- $|10\rangle$ -->
     <g transform="translate(93.298229 560.409198)rotate(-45)scale(0.22 -0.22)">
      <use transform="scale(0.996264)" xlink:href="#CMSY10-106"/>
      <use transform="translate(27.674085 0)scale(0.996264)" xlink:href="#CMR17-49"/>
      <use transform="translate(73.364562 0)scale(0.996264)" xlink:href="#CMR17-48"/>
      <use transform="translate(119.055039 0)scale(0.996264)" xlink:href="#CMSY10-105"/>
     </g>
    </g>
   </g>
   <g id="xtick_15">
    <g id="line2d_35">
     <path d="M 142.748391 527.187071 
L 140.777092 529.141919 
" style="fill:none;stroke:#000000;stroke-linecap:square;stroke-width:0.8;"/>
    </g>
    <g id="text_17">
     <!-- $|11\rangle$ -->
     <g transform="translate(125.959122 571.176515)rotate(-45)scale(0.22 -0.22)">
      <use transform="scale(0.996264)" xlink:href="#CMSY10-106"/>
      <use transform="translate(27.674085 0)scale(0.996264)" xlink:href="#CMR17-49"/>
      <use transform="translate(73.364562 0)scale(0.996264)" xlink:href="#CMR17-49"/>
      <use transform="translate(119.055039 0)scale(0.996264)" xlink:href="#CMSY10-105"/>
     </g>
    </g>
   </g>
  </g>
  <g id="axis3d_5">
   <g id="line2d_36">
    <path d="M 238.389409 459.536261 
L 164.654408 535.206511 
" style="fill:none;stroke:#000000;stroke-linecap:square;stroke-width:0.8;"/>
   </g>
   <g id="Line3DCollection_5">
    <path d="M 26.730623 380.919398 
L 31.479824 485.162194 
L 169.756299 529.970716 
" style="fill:none;stroke:#b0b0b0;stroke-width:0.8;"/>
    <path d="M 52.896228 361.824932 
L 56.39777 464.275478 
L 192.328584 506.805999 
" style="fill:none;stroke:#b0b0b0;stroke-width:0.8;"/>
    <path d="M 77.724565 343.706342 
L 80.095793 444.411325 
L 213.739355 484.83328 
" style="fill:none;stroke:#b0b0b0;stroke-width:0.8;"/>
    <path d="M 101.315598 326.49068 
L 102.661341 425.496436 
L 234.076019 463.962861 
" style="fill:none;stroke:#b0b0b0;stroke-width:0.8;"/>
   </g>
   <g id="xtick_16">
    <g id="line2d_37">
     <path d="M 168.591039 529.593113 
L 172.089833 530.726898 
" style="fill:none;stroke:#000000;stroke-linecap:square;stroke-width:0.8;"/>
    </g>
    <g id="text_18">
     <!-- $\langle 00|$ -->
     <g transform="translate(163.731119 547.428745)rotate(-315)scale(0.22 -0.22)">
      <use transform="scale(0.996264)" xlink:href="#CMSY10-104"/>
      <use transform="translate(38.743734 0)scale(0.996264)" xlink:href="#CMR17-48"/>
      <use transform="translate(84.434211 0)scale(0.996264)" xlink:href="#CMR17-48"/>
      <use transform="translate(130.124688 0)scale(0.996264)" xlink:href="#CMSY10-106"/>
     </g>
    </g>
   </g>
   <g id="xtick_17">
    <g id="line2d_38">
     <path d="M 191.184623 506.448073 
L 194.619385 507.522754 
" style="fill:none;stroke:#000000;stroke-linecap:square;stroke-width:0.8;"/>
    </g>
    <g id="text_19">
     <!-- $\langle 01|$ -->
     <g transform="translate(186.161677 524.103591)rotate(-315)scale(0.22 -0.22)">
      <use transform="scale(0.996264)" xlink:href="#CMSY10-104"/>
      <use transform="translate(38.743734 0)scale(0.996264)" xlink:href="#CMR17-48"/>
      <use transform="translate(84.434211 0)scale(0.996264)" xlink:href="#CMR17-49"/>
      <use transform="translate(130.124688 0)scale(0.996264)" xlink:href="#CMSY10-106"/>
     </g>
    </g>
   </g>
   <g id="xtick_18">
    <g id="line2d_39">
     <path d="M 212.616073 484.493531 
L 215.988676 485.513612 
" style="fill:none;stroke:#000000;stroke-linecap:square;stroke-width:0.8;"/>
    </g>
    <g id="text_20">
     <!-- $\langle 10|$ -->
     <g transform="translate(207.437708 501.979009)rotate(-315)scale(0.22 -0.22)">
      <use transform="scale(0.996264)" xlink:href="#CMSY10-104"/>
      <use transform="translate(38.743734 0)scale(0.996264)" xlink:href="#CMR17-49"/>
      <use transform="translate(84.434211 0)scale(0.996264)" xlink:href="#CMR17-48"/>
      <use transform="translate(130.124688 0)scale(0.996264)" xlink:href="#CMSY10-106"/>
     </g>
    </g>
   </g>
   <g id="xtick_19">
    <g id="line2d_40">
     <path d="M 232.972804 463.639939 
L 236.285085 464.609477 
" style="fill:none;stroke:#000000;stroke-linecap:square;stroke-width:0.8;"/>
    </g>
    <g id="text_21">
     <!-- $\langle 11|$ -->
     <g transform="translate(227.646113 480.964632)rotate(-315)scale(0.22 -0.22)">
      <use transform="scale(0.996264)" xlink:href="#CMSY10-104"/>
      <use transform="translate(38.743734 0)scale(0.996264)" xlink:href="#CMR17-49"/>
      <use transform="translate(84.434211 0)scale(0.996264)" xlink:href="#CMR17-49"/>
      <use transform="translate(130.124688 0)scale(0.996264)" xlink:href="#CMSY10-106"/>
     </g>
    </g>
   </g>
  </g>
  <g id="axis3d_6">
   <g id="line2d_41">
    <path d="M 238.389409 459.536261 
L 243.062013 357.498543 
" style="fill:none;stroke:#000000;stroke-linecap:square;stroke-width:0.8;"/>
   </g>
   <g id="Line3DCollection_6">
    <path d="M 238.478931 457.581331 
L 107.432779 419.584914 
L 25.760683 487.873806 
" style="fill:none;stroke:#b0b0b0;stroke-width:0.8;"/>
    <path d="M 240.674527 409.635126 
L 106.89924 373.187055 
L 23.394818 438.745087 
" style="fill:none;stroke:#b0b0b0;stroke-width:0.8;"/>
    <path d="M 242.964462 359.628809 
L 106.343904 324.89358 
L 20.923301 387.422444 
" style="fill:none;stroke:#b0b0b0;stroke-width:0.8;"/>
   </g>
   <g id="xtick_20">
    <g id="line2d_42">
     <path d="M 237.379049 457.262424 
L 240.681314 458.219905 
" style="fill:none;stroke:#000000;stroke-linecap:square;stroke-width:0.8;"/>
    </g>
    <g id="text_22">
     <!-- $\mathdefault{0.00}$ -->
     <g transform="translate(248.14732 468.602895)rotate(-345)scale(0.22 -0.22)">
      <use transform="scale(0.996264)" xlink:href="#CMR17-48"/>
      <use transform="translate(45.690477 0)scale(0.996264)" xlink:href="#CMMI12-58"/>
      <use transform="translate(72.787654 0)scale(0.996264)" xlink:href="#CMR17-48"/>
      <use transform="translate(118.478131 0)scale(0.996264)" xlink:href="#CMR17-48"/>
     </g>
    </g>
   </g>
   <g id="xtick_21">
    <g id="line2d_43">
     <path d="M 239.550633 409.328913 
L 242.925046 410.248297 
" style="fill:none;stroke:#000000;stroke-linecap:square;stroke-width:0.8;"/>
    </g>
    <g id="text_23">
     <!-- $\mathdefault{0.05}$ -->
     <g transform="translate(250.92851 420.818786)rotate(-345)scale(0.22 -0.22)">
      <use transform="scale(0.996264)" xlink:href="#CMR17-48"/>
      <use transform="translate(45.690477 0)scale(0.996264)" xlink:href="#CMMI12-58"/>
      <use transform="translate(72.787654 0)scale(0.996264)" xlink:href="#CMR17-48"/>
      <use transform="translate(118.478131 0)scale(0.996264)" xlink:href="#CMR17-53"/>
     </g>
    </g>
   </g>
   <g id="xtick_22">
    <g id="line2d_44">
     <path d="M 241.815486 359.336687 
L 245.265265 360.213779 
" style="fill:none;stroke:#000000;stroke-linecap:square;stroke-width:0.8;"/>
    </g>
    <g id="text_24">
     <!-- $\mathdefault{0.10}$ -->
     <g transform="translate(253.82857 370.992337)rotate(-345)scale(0.22 -0.22)">
      <use transform="scale(0.996264)" xlink:href="#CMR17-48"/>
      <use transform="translate(45.690477 0)scale(0.996264)" xlink:href="#CMMI12-58"/>
      <use transform="translate(72.787654 0)scale(0.996264)" xlink:href="#CMR17-49"/>
      <use transform="translate(118.478131 0)scale(0.996264)" xlink:href="#CMR17-48"/>
     </g>
    </g>
   </g>
  </g>
  <g id="axes_2">
   <g id="line2d_45">
    <path clip-path="url(#p18185c6e69)" d="M 51.807913 485.279393 
L 51.858413 486.661615 
" style="fill:none;stroke:#ff0000;stroke-linecap:square;stroke-width:1.5;"/>
    <g clip-path="url(#p18185c6e69)">
     <use style="fill:#ff0000;stroke:#ff0000;" x="51.807913" xlink:href="#mb0f6b92f96" y="485.279393"/>
     <use style="fill:#ff0000;stroke:#ff0000;" x="51.858413" xlink:href="#mb0f6b92f96" y="486.661615"/>
    </g>
   </g>
   <g id="line2d_46">
    <path clip-path="url(#p18185c6e69)" d="M 82.897238 495.918212 
L 83.015939 501.115863 
" style="fill:none;stroke:#ff0000;stroke-linecap:square;stroke-width:1.5;"/>
    <g clip-path="url(#p18185c6e69)">
     <use style="fill:#ff0000;stroke:#ff0000;" x="82.897238" xlink:href="#mb0f6b92f96" y="495.918212"/>
     <use style="fill:#ff0000;stroke:#ff0000;" x="83.015939" xlink:href="#mb0f6b92f96" y="501.115863"/>
    </g>
   </g>
   <g id="line2d_47">
    <path clip-path="url(#p18185c6e69)" d="M 114.717694 506.157912 
L 114.763149 511.394507 
" style="fill:none;stroke:#ff0000;stroke-linecap:square;stroke-width:1.5;"/>
    <g clip-path="url(#p18185c6e69)">
     <use style="fill:#ff0000;stroke:#ff0000;" x="114.717694" xlink:href="#mb0f6b92f96" y="506.157912"/>
     <use style="fill:#ff0000;stroke:#ff0000;" x="114.763149" xlink:href="#mb0f6b92f96" y="511.394507"/>
    </g>
   </g>
   <g id="line2d_48">
    <path clip-path="url(#p18185c6e69)" d="M 147.367533 508.769471 
L 147.312071 518.074427 
" style="fill:none;stroke:#ff0000;stroke-linecap:square;stroke-width:1.5;"/>
    <g clip-path="url(#p18185c6e69)">
     <use style="fill:#ff0000;stroke:#ff0000;" x="147.367533" xlink:href="#mb0f6b92f96" y="508.769471"/>
     <use style="fill:#ff0000;stroke:#ff0000;" x="147.312071" xlink:href="#mb0f6b92f96" y="518.074427"/>
    </g>
   </g>
   <g id="line2d_49">
    <path clip-path="url(#p18185c6e69)" d="M 76.540792 466.716874 
L 76.609281 469.419334 
" style="fill:none;stroke:#0000ff;stroke-linecap:square;stroke-width:1.5;"/>
    <g clip-path="url(#p18185c6e69)">
     <use style="fill:#0000ff;stroke:#0000ff;" x="76.540792" xlink:href="#me039ef6710" y="466.716874"/>
     <use style="fill:#0000ff;stroke:#0000ff;" x="76.609281" xlink:href="#me039ef6710" y="469.419334"/>
    </g>
   </g>
   <g id="line2d_50">
    <path clip-path="url(#p18185c6e69)" d="M 107.014866 471.391221 
L 107.127699 480.836002 
" style="fill:none;stroke:#0000ff;stroke-linecap:square;stroke-width:1.5;"/>
    <g clip-path="url(#p18185c6e69)">
     <use style="fill:#0000ff;stroke:#0000ff;" x="107.014866" xlink:href="#me039ef6710" y="471.391221"/>
     <use style="fill:#0000ff;stroke:#0000ff;" x="107.127699" xlink:href="#me039ef6710" y="480.836002"/>
    </g>
   </g>
   <g id="line2d_51">
    <path clip-path="url(#p18185c6e69)" d="M 138.343656 476.674312 
L 138.312842 493.029586 
" style="fill:none;stroke:#0000ff;stroke-linecap:square;stroke-width:1.5;"/>
    <g clip-path="url(#p18185c6e69)">
     <use style="fill:#0000ff;stroke:#0000ff;" x="138.343656" xlink:href="#me039ef6710" y="476.674312"/>
     <use style="fill:#0000ff;stroke:#0000ff;" x="138.312842" xlink:href="#me039ef6710" y="493.029586"/>
    </g>
   </g>
   <g id="line2d_52">
    <path clip-path="url(#p18185c6e69)" d="M 170.498861 485.316635 
L 170.238038 501.446702 
" style="fill:none;stroke:#0000ff;stroke-linecap:square;stroke-width:1.5;"/>
    <g clip-path="url(#p18185c6e69)">
     <use style="fill:#0000ff;stroke:#0000ff;" x="170.498861" xlink:href="#me039ef6710" y="485.316635"/>
     <use style="fill:#0000ff;stroke:#0000ff;" x="170.238038" xlink:href="#me039ef6710" y="501.446702"/>
    </g>
   </g>
   <g id="line2d_53">
    <path clip-path="url(#p18185c6e69)" d="M 99.961531 446.607678 
L 100.001142 449.266791 
" style="fill:none;stroke:#008000;stroke-linecap:square;stroke-width:1.5;"/>
    <g clip-path="url(#p18185c6e69)">
     <use style="fill:#008000;stroke:#008000;" x="99.961531" xlink:href="#m428f5122a8" y="446.607678"/>
     <use style="fill:#008000;stroke:#008000;" x="100.001142" xlink:href="#m428f5122a8" y="449.266791"/>
    </g>
   </g>
   <g id="line2d_54">
    <path clip-path="url(#p18185c6e69)" d="M 129.980937 446.584569 
L 130.009549 462.556483 
" style="fill:none;stroke:#008000;stroke-linecap:square;stroke-width:1.5;"/>
    <g clip-path="url(#p18185c6e69)">
     <use style="fill:#008000;stroke:#008000;" x="129.980937" xlink:href="#m428f5122a8" y="446.584569"/>
     <use style="fill:#008000;stroke:#008000;" x="130.009549" xlink:href="#m428f5122a8" y="462.556483"/>
    </g>
   </g>
   <g id="line2d_55">
    <path clip-path="url(#p18185c6e69)" d="M 160.781049 460.107669 
L 160.671299 469.469185 
" style="fill:none;stroke:#008000;stroke-linecap:square;stroke-width:1.5;"/>
    <g clip-path="url(#p18185c6e69)">
     <use style="fill:#008000;stroke:#008000;" x="160.781049" xlink:href="#m428f5122a8" y="460.107669"/>
     <use style="fill:#008000;stroke:#008000;" x="160.671299" xlink:href="#m428f5122a8" y="469.469185"/>
    </g>
   </g>
   <g id="line2d_56">
    <path clip-path="url(#p18185c6e69)" d="M 192.436648 463.930574 
L 192.029355 479.798455 
" style="fill:none;stroke:#008000;stroke-linecap:square;stroke-width:1.5;"/>
    <g clip-path="url(#p18185c6e69)">
     <use style="fill:#008000;stroke:#008000;" x="192.436648" xlink:href="#m428f5122a8" y="463.930574"/>
     <use style="fill:#008000;stroke:#008000;" x="192.029355" xlink:href="#m428f5122a8" y="479.798455"/>
    </g>
   </g>
   <g id="line2d_57">
    <path clip-path="url(#p18185c6e69)" d="M 121.826465 344.220367 
L 121.836194 346.119738 
" style="fill:none;stroke:#bfbf00;stroke-linecap:square;stroke-width:1.5;"/>
    <g clip-path="url(#p18185c6e69)">
     <use style="fill:#bfbf00;stroke:#bfbf00;" x="121.826465" xlink:href="#mb341ab6b7a" y="344.220367"/>
     <use style="fill:#bfbf00;stroke:#bfbf00;" x="121.836194" xlink:href="#mb341ab6b7a" y="346.119738"/>
    </g>
   </g>
   <g id="line2d_58">
    <path clip-path="url(#p18185c6e69)" d="M 151.874316 426.944504 
L 151.793166 437.483428 
" style="fill:none;stroke:#bfbf00;stroke-linecap:square;stroke-width:1.5;"/>
    <g clip-path="url(#p18185c6e69)">
     <use style="fill:#bfbf00;stroke:#bfbf00;" x="151.874316" xlink:href="#mb341ab6b7a" y="426.944504"/>
     <use style="fill:#bfbf00;stroke:#bfbf00;" x="151.793166" xlink:href="#mb341ab6b7a" y="437.483428"/>
    </g>
   </g>
   <g id="line2d_59">
    <path clip-path="url(#p18185c6e69)" d="M 182.211593 435.678357 
L 181.98959 446.295342 
" style="fill:none;stroke:#bfbf00;stroke-linecap:square;stroke-width:1.5;"/>
    <g clip-path="url(#p18185c6e69)">
     <use style="fill:#bfbf00;stroke:#bfbf00;" x="182.211593" xlink:href="#mb341ab6b7a" y="435.678357"/>
     <use style="fill:#bfbf00;stroke:#bfbf00;" x="181.98959" xlink:href="#mb341ab6b7a" y="446.295342"/>
    </g>
   </g>
   <g id="line2d_60">
    <path clip-path="url(#p18185c6e69)" style="fill:none;stroke:#bfbf00;stroke-linecap:square;stroke-width:1.5;"/>
    <g clip-path="url(#p18185c6e69)"/>
   </g>
   <g id="patch_26">
    <path clip-path="url(#p18185c6e69)" d="M 139.90038 434.477169 
L 163.784859 441.451275 
L 163.85911 435.711715 
L 139.914791 428.771209 
L 139.90038 434.477169 
" style="fill:#bfbf00;opacity:0.5;"/>
   </g>
   <g id="text_25">
    <!-- $0.88$ -->
    <g transform="translate(216.585937 347.735281)scale(0.22 -0.22)">
     <defs>
      <path d="M 27.203125 35.375 
C 33.5 38.546875 39.90625 43.328125 39.90625 50.984375 
C 39.90625 60.015625 31.09375 65.296875 23 65.296875 
C 13.90625 65.296875 5.90625 58.734375 5.90625 49.6875 
C 5.90625 47.203125 6.5 42.921875 10.40625 39.140625 
C 11.40625 38.15625 15.59375 35.171875 18.296875 33.28125 
C 13.796875 30.984375 3.296875 25.53125 3.296875 14.59375 
C 3.296875 4.359375 13.09375 -2 22.796875 -2 
C 33.5 -2 42.5 5.65625 42.5 15.78125 
C 42.5 24.84375 36.40625 29.015625 32.40625 31.703125 
z
M 14.09375 44.09375 
C 13.296875 44.59375 9.296875 47.671875 9.296875 52.359375 
C 9.296875 58.421875 15.59375 63 22.796875 63 
C 30.703125 63 36.5 57.4375 36.5 50.96875 
C 36.5 41.703125 26.09375 36.421875 25.59375 36.421875 
C 25.5 36.421875 25.40625 36.421875 24.59375 37.03125 
z
M 32.5 23.734375 
C 34 22.640625 38.796875 19.375 38.796875 13.296875 
C 38.796875 5.953125 31.40625 0.390625 23 0.390625 
C 13.90625 0.390625 7 6.84375 7 14.6875 
C 7 22.546875 13.09375 29.09375 20 32.1875 
z
" id="CMR17-56"/>
     </defs>
     <use transform="scale(0.996264)" xlink:href="#CMR17-48"/>
     <use transform="translate(45.690477 0)scale(0.996264)" xlink:href="#CMMI12-58"/>
     <use transform="translate(72.787654 0)scale(0.996264)" xlink:href="#CMR17-56"/>
     <use transform="translate(118.478131 0)scale(0.996264)" xlink:href="#CMR17-56"/>
    </g>
   </g>
   <g id="text_26">
    <!-- $|\bar\Upsilon_1|$ -->
    <g transform="translate(244.03818 321.478169)scale(0.28 -0.28)">
     <use transform="scale(0.996264)" xlink:href="#CMSY10-106"/>
     <use transform="translate(40.686248 25.175672)scale(0.996264)" xlink:href="#CMR17-22"/>
     <use transform="translate(27.674085 0)scale(0.996264)" xlink:href="#CMR17-7"/>
     <use transform="translate(99.388873 -14.943915)scale(0.697382)" xlink:href="#CMR17-49"/>
     <use transform="translate(131.870187 0)scale(0.996264)" xlink:href="#CMSY10-106"/>
    </g>
   </g>
   <g id="patch_27">
    <path clip-path="url(#p18185c6e69)" d="M 88.173557 444.931349 
L 111.912625 452.094099 
L 111.907189 451.533857 
L 88.162403 444.374388 
L 88.173557 444.931349 
" style="fill:#008000;opacity:0.5;"/>
   </g>
   <g id="patch_28">
    <path clip-path="url(#p18185c6e69)" d="M 169.82272 443.21429 
L 194.246545 450.345882 
L 194.39865 444.563914 
L 169.912265 437.466284 
L 169.82272 443.21429 
" style="fill:#bfbf00;opacity:0.5;"/>
   </g>
   <g id="patch_29">
    <path clip-path="url(#p18185c6e69)" d="M 110.632316 425.931092 
L 133.995118 432.752872 
L 133.991843 348.336916 
L 109.781039 342.032643 
L 110.632316 425.931092 
" style="fill:#bfbf00;opacity:0.5;"/>
   </g>
   <g id="patch_30">
    <path clip-path="url(#p18185c6e69)" d="M 117.914623 453.905073 
L 142.197078 461.231778 
L 142.207636 458.26976 
L 117.893771 450.960485 
L 117.914623 453.905073 
" style="fill:#008000;opacity:0.5;"/>
   </g>
   <g id="patch_31">
    <path clip-path="url(#p18185c6e69)" d="M 148.337251 463.084443 
L 173.181967 470.580798 
L 173.216865 468.557526 
L 148.349856 461.073103 
L 148.337251 463.084443 
" style="fill:#008000;opacity:0.5;"/>
   </g>
   <g id="patch_32">
    <path clip-path="url(#p18185c6e69)" d="M 64.58312 464.889015 
L 88.707094 472.418953 
L 88.695686 471.84957 
L 64.565808 464.322989 
L 64.58312 464.889015 
" style="fill:#0000ff;opacity:0.5;"/>
   </g>
   <g id="patch_33">
    <path clip-path="url(#p18185c6e69)" d="M 179.46514 472.47661 
L 204.891874 480.148577 
L 205.030391 475.733048 
L 179.553091 468.087236 
L 179.46514 472.47661 
" style="fill:#008000;opacity:0.5;"/>
   </g>
   <g id="patch_34">
    <path clip-path="url(#p18185c6e69)" d="M 94.808151 474.323306 
L 119.498546 482.030044 
L 119.485344 479.988782 
L 94.772932 472.294122 
L 94.808151 474.323306 
" style="fill:#0000ff;opacity:0.5;"/>
   </g>
   <g id="patch_35">
    <path clip-path="url(#p18185c6e69)" d="M 125.743695 483.979374 
L 151.020697 491.869212 
L 151.043574 488.836174 
L 125.732535 480.964337 
L 125.743695 483.979374 
" style="fill:#0000ff;opacity:0.5;"/>
   </g>
   <g id="patch_36">
    <path clip-path="url(#p18185c6e69)" d="M 39.773256 485.878324 
L 64.290621 493.804425 
L 64.170432 489.941032 
L 39.61238 482.037882 
L 39.773256 485.878324 
" style="fill:#ff0000;opacity:0.5;"/>
   </g>
   <g id="patch_37">
    <path clip-path="url(#p18185c6e69)" d="M 157.415105 493.865131 
L 183.29987 501.944673 
L 183.398689 497.456351 
L 157.461504 489.403531 
L 157.415105 493.865131 
" style="fill:#0000ff;opacity:0.5;"/>
   </g>
   <g id="patch_38">
    <path clip-path="url(#p18185c6e69)" d="M 70.49303 495.809572 
L 95.601271 503.926695 
L 95.578309 502.594094 
L 70.455448 494.484891 
L 70.49303 495.809572 
" style="fill:#ff0000;opacity:0.5;"/>
   </g>
   <g id="patch_39">
    <path clip-path="url(#p18185c6e69)" d="M 101.954063 505.980459 
L 127.6748 514.295593 
L 127.670929 512.953011 
L 101.934845 504.645869 
L 101.954063 505.980459 
" style="fill:#ff0000;opacity:0.5;"/>
   </g>
   <g id="patch_40">
    <path clip-path="url(#p18185c6e69)" d="M 134.183511 516.399763 
L 160.539435 524.920244 
L 160.625878 517.691153 
L 134.183832 509.213959 
L 134.183511 516.399763 
" style="fill:#ff0000;opacity:0.5;"/>
   </g>
   <g id="patch_41">
    <path clip-path="url(#p18185c6e69)" d="M 200.421521 452.148933 
L 225.40317 459.443405 
L 277.555393 -841.437489 
L 237.771204 -834.451907 
L 200.421521 452.148933 
" style="fill:#bfbf00;opacity:0.5;"/>
   </g>
  </g>
 </g>
 <defs>
  <clipPath id="pc830163809">
   <rect height="247.090909" width="247.090909" x="7.2" y="7.2"/>
  </clipPath>
  <clipPath id="p18185c6e69">
   <rect height="247.090909" width="247.090909" x="7.2" y="303.709091"/>
  </clipPath>
 </defs>
</svg>
