<?xml version="1.0" encoding="utf-8" standalone="no"?>
<!DOCTYPE svg PUBLIC "-//W3C//DTD SVG 1.1//EN"
  "http://www.w3.org/Graphics/SVG/1.1/DTD/svg11.dtd">
<svg height="285.410007pt" version="1.1" viewBox="0 0 419.823544 285.410007" width="419.823544pt" xmlns="http://www.w3.org/2000/svg" xmlns:xlink="http://www.w3.org/1999/xlink">
 <metadata>
  <rdf:RDF xmlns:cc="http://creativecommons.org/ns#" xmlns:dc="http://purl.org/dc/elements/1.1/" xmlns:rdf="http://www.w3.org/1999/02/22-rdf-syntax-ns#">
   <cc:Work>
    <dc:type rdf:resource="http://purl.org/dc/dcmitype/StillImage"/>
    <dc:date>2022-03-17T00:09:50.815267</dc:date>
    <dc:format>image/svg+xml</dc:format>
    <dc:creator>
     <cc:Agent>
      <dc:title>Matplotlib v3.4.2, https://matplotlib.org/</dc:title>
     </cc:Agent>
    </dc:creator>
   </cc:Work>
  </rdf:RDF>
 </metadata>
 <defs>
  <style type="text/css">*{stroke-linecap:butt;stroke-linejoin:round;}</style>
 </defs>
 <g id="figure_1">
  <g id="patch_1">
   <path d="M 0 285.410007 
L 419.823544 285.410007 
L 419.823544 0 
L 0 0 
z
" style="fill:none;"/>
  </g>
  <g id="axes_1">
   <g id="patch_2">
    <path d="M 70.420904 224.64 
L 405.220904 224.64 
L 405.220904 7.2 
L 70.420904 7.2 
z
" style="fill:#ffffff;"/>
   </g>
   <g id="matplotlib.axis_1">
    <g id="xtick_1">
     <g id="line2d_1">
      <path clip-path="url(#p4f4c36b485)" d="M 85.639086 224.64 
L 85.639086 7.2 
" style="fill:none;stroke:#b0b0b0;stroke-linecap:square;stroke-width:0.8;"/>
     </g>
     <g id="line2d_2">
      <defs>
       <path d="M 0 0 
L 0 3.5 
" id="ma962358cb3" style="stroke:#000000;stroke-width:0.8;"/>
      </defs>
      <g>
       <use style="stroke:#000000;stroke-width:0.8;" x="85.639086" xlink:href="#ma962358cb3" y="224.64"/>
      </g>
     </g>
     <g id="text_1">
      <!-- $(0,1)$ -->
      <g transform="translate(63.018263 248.058624)scale(0.22 -0.22)">
       <defs>
        <path d="M 1958 -1562 
C 1958 -1556 1958 -1543 1939 -1524 
C 1645 -1223 858 -403 858 1596 
C 858 3595 1632 4408 1946 4729 
C 1946 4735 1958 4748 1958 4767 
C 1958 4787 1939 4800 1914 4800 
C 1843 4800 1299 4325 986 3620 
C 666 2909 576 2218 576 1603 
C 576 1141 621 360 1005 -467 
C 1312 -1133 1837 -1600 1914 -1600 
C 1946 -1600 1958 -1588 1958 -1562 
z
" id="CMR17-28" transform="scale(0.015625)"/>
        <path d="M 2688 2038 
C 2688 2430 2682 3099 2413 3613 
C 2176 4063 1798 4224 1466 4224 
C 1158 4224 768 4082 525 3620 
C 269 3137 243 2539 243 2038 
C 243 1671 250 1112 448 623 
C 723 -39 1216 -128 1466 -128 
C 1760 -128 2208 -7 2470 604 
C 2662 1048 2688 1568 2688 2038 
z
M 1466 -26 
C 1056 -26 813 328 723 816 
C 653 1196 653 1749 653 2109 
C 653 2604 653 3015 736 3407 
C 858 3954 1216 4121 1466 4121 
C 1728 4121 2067 3947 2189 3420 
C 2272 3054 2278 2623 2278 2109 
C 2278 1691 2278 1176 2202 797 
C 2067 96 1690 -26 1466 -26 
z
" id="CMR17-30" transform="scale(0.015625)"/>
        <path d="M 1248 -26 
C 1248 345 1126 620 864 620 
C 659 620 557 454 557 313 
C 557 172 653 0 870 0 
C 954 0 1024 25 1082 83 
C 1094 96 1101 96 1107 96 
C 1120 96 1120 6 1120 -26 
C 1120 -233 1082 -642 710 -1051 
C 640 -1127 640 -1140 640 -1152 
C 640 -1184 672 -1216 704 -1216 
C 755 -1216 1248 -749 1248 -26 
z
" id="CMMI12-3b" transform="scale(0.015625)"/>
        <path d="M 1702 4083 
C 1702 4217 1696 4224 1606 4224 
C 1357 3927 979 3833 621 3820 
C 602 3820 570 3820 563 3808 
C 557 3795 557 3782 557 3648 
C 755 3648 1088 3686 1344 3839 
L 1344 467 
C 1344 243 1331 166 781 166 
L 589 166 
L 589 0 
C 896 6 1216 12 1523 12 
C 1830 12 2150 6 2458 0 
L 2458 166 
L 2266 166 
C 1715 166 1702 236 1702 467 
L 1702 4083 
z
" id="CMR17-31" transform="scale(0.015625)"/>
        <path d="M 1683 1596 
C 1683 2057 1638 2839 1254 3665 
C 947 4332 422 4800 346 4800 
C 326 4800 301 4793 301 4761 
C 301 4748 307 4742 314 4729 
C 621 4408 1402 3595 1402 1603 
C 1402 -396 627 -1210 314 -1530 
C 307 -1543 301 -1549 301 -1562 
C 301 -1594 326 -1600 346 -1600 
C 416 -1600 960 -1127 1274 -422 
C 1594 289 1683 981 1683 1596 
z
" id="CMR17-29" transform="scale(0.015625)"/>
       </defs>
       <use transform="scale(0.996264)" xlink:href="#CMR17-28"/>
       <use transform="translate(35.280768 0)scale(0.996264)" xlink:href="#CMR17-30"/>
       <use transform="translate(80.971245 0)scale(0.996264)" xlink:href="#CMMI12-3b"/>
       <use transform="translate(124.672827 0)scale(0.996264)" xlink:href="#CMR17-31"/>
       <use transform="translate(170.363304 0)scale(0.996264)" xlink:href="#CMR17-29"/>
      </g>
     </g>
    </g>
    <g id="xtick_2">
     <g id="line2d_3">
      <path clip-path="url(#p4f4c36b485)" d="M 146.511813 224.64 
L 146.511813 7.2 
" style="fill:none;stroke:#b0b0b0;stroke-linecap:square;stroke-width:0.8;"/>
     </g>
     <g id="line2d_4">
      <g>
       <use style="stroke:#000000;stroke-width:0.8;" x="146.511813" xlink:href="#ma962358cb3" y="224.64"/>
      </g>
     </g>
     <g id="text_2">
      <!-- $(1,2)$ -->
      <g transform="translate(123.890991 248.058624)scale(0.22 -0.22)">
       <defs>
        <path d="M 2669 990 
L 2554 990 
C 2490 537 2438 460 2413 422 
C 2381 371 1920 371 1830 371 
L 602 371 
C 832 620 1280 1073 1824 1596 
C 2214 1966 2669 2400 2669 3033 
C 2669 3788 2067 4224 1395 4224 
C 691 4224 262 3603 262 3027 
C 262 2777 448 2745 525 2745 
C 589 2745 781 2783 781 3007 
C 781 3206 614 3264 525 3264 
C 486 3264 448 3257 422 3244 
C 544 3788 915 4057 1306 4057 
C 1862 4057 2227 3616 2227 3033 
C 2227 2477 1901 1998 1536 1583 
L 262 147 
L 262 0 
L 2515 0 
L 2669 990 
z
" id="CMR17-32" transform="scale(0.015625)"/>
       </defs>
       <use transform="scale(0.996264)" xlink:href="#CMR17-28"/>
       <use transform="translate(35.280768 0)scale(0.996264)" xlink:href="#CMR17-31"/>
       <use transform="translate(80.971245 0)scale(0.996264)" xlink:href="#CMMI12-3b"/>
       <use transform="translate(124.672827 0)scale(0.996264)" xlink:href="#CMR17-32"/>
       <use transform="translate(170.363304 0)scale(0.996264)" xlink:href="#CMR17-29"/>
      </g>
     </g>
    </g>
    <g id="xtick_3">
     <g id="line2d_5">
      <path clip-path="url(#p4f4c36b485)" d="M 207.38454 224.64 
L 207.38454 7.2 
" style="fill:none;stroke:#b0b0b0;stroke-linecap:square;stroke-width:0.8;"/>
     </g>
     <g id="line2d_6">
      <g>
       <use style="stroke:#000000;stroke-width:0.8;" x="207.38454" xlink:href="#ma962358cb3" y="224.64"/>
      </g>
     </g>
     <g id="text_3">
      <!-- $(1,3)$ -->
      <g transform="translate(184.763718 248.058624)scale(0.22 -0.22)">
       <defs>
        <path d="M 1414 2176 
C 1984 2176 2234 1673 2234 1094 
C 2234 322 1824 25 1453 25 
C 1114 25 563 193 390 691 
C 422 678 454 678 486 678 
C 640 678 755 780 755 947 
C 755 1132 614 1216 486 1216 
C 378 1216 211 1164 211 927 
C 211 335 787 -128 1466 -128 
C 2176 -128 2720 432 2720 1087 
C 2720 1718 2208 2176 1600 2246 
C 2086 2347 2554 2776 2554 3353 
C 2554 3856 2048 4224 1472 4224 
C 890 4224 378 3862 378 3347 
C 378 3123 544 3084 627 3084 
C 762 3084 877 3167 877 3334 
C 877 3500 762 3584 627 3584 
C 602 3584 570 3584 544 3571 
C 730 3999 1235 4076 1459 4076 
C 1683 4076 2106 3966 2106 3347 
C 2106 3167 2080 2851 1862 2574 
C 1670 2329 1453 2316 1242 2297 
C 1210 2297 1062 2284 1037 2284 
C 992 2278 966 2272 966 2227 
C 966 2182 973 2176 1101 2176 
L 1414 2176 
z
" id="CMR17-33" transform="scale(0.015625)"/>
       </defs>
       <use transform="scale(0.996264)" xlink:href="#CMR17-28"/>
       <use transform="translate(35.280768 0)scale(0.996264)" xlink:href="#CMR17-31"/>
       <use transform="translate(80.971245 0)scale(0.996264)" xlink:href="#CMMI12-3b"/>
       <use transform="translate(124.672827 0)scale(0.996264)" xlink:href="#CMR17-33"/>
       <use transform="translate(170.363304 0)scale(0.996264)" xlink:href="#CMR17-29"/>
      </g>
     </g>
    </g>
    <g id="xtick_4">
     <g id="line2d_7">
      <path clip-path="url(#p4f4c36b485)" d="M 268.257267 224.64 
L 268.257267 7.2 
" style="fill:none;stroke:#b0b0b0;stroke-linecap:square;stroke-width:0.8;"/>
     </g>
     <g id="line2d_8">
      <g>
       <use style="stroke:#000000;stroke-width:0.8;" x="268.257267" xlink:href="#ma962358cb3" y="224.64"/>
      </g>
     </g>
     <g id="text_4">
      <!-- $(3,5)$ -->
      <g transform="translate(245.636445 248.058624)scale(0.22 -0.22)">
       <defs>
        <path d="M 730 3750 
C 794 3724 1056 3641 1325 3641 
C 1920 3641 2246 3961 2432 4140 
C 2432 4191 2432 4224 2394 4224 
C 2387 4224 2374 4224 2323 4198 
C 2099 4102 1837 4032 1517 4032 
C 1325 4032 1037 4055 723 4191 
C 653 4224 640 4224 634 4224 
C 602 4224 595 4217 595 4090 
L 595 2231 
C 595 2113 595 2080 659 2080 
C 691 2080 704 2093 736 2139 
C 941 2435 1222 2560 1542 2560 
C 1766 2560 2246 2415 2246 1293 
C 2246 1087 2246 716 2054 422 
C 1894 159 1645 25 1370 25 
C 947 25 518 319 403 812 
C 429 806 480 793 506 793 
C 589 793 749 838 749 1036 
C 749 1209 627 1280 506 1280 
C 358 1280 262 1190 262 1011 
C 262 454 704 -128 1382 -128 
C 2042 -128 2669 441 2669 1267 
C 2669 2054 2170 2662 1549 2662 
C 1222 2662 947 2540 730 2304 
L 730 3750 
z
" id="CMR17-35" transform="scale(0.015625)"/>
       </defs>
       <use transform="scale(0.996264)" xlink:href="#CMR17-28"/>
       <use transform="translate(35.280768 0)scale(0.996264)" xlink:href="#CMR17-33"/>
       <use transform="translate(80.971245 0)scale(0.996264)" xlink:href="#CMMI12-3b"/>
       <use transform="translate(124.672827 0)scale(0.996264)" xlink:href="#CMR17-35"/>
       <use transform="translate(170.363304 0)scale(0.996264)" xlink:href="#CMR17-29"/>
      </g>
     </g>
    </g>
    <g id="xtick_5">
     <g id="line2d_9">
      <path clip-path="url(#p4f4c36b485)" d="M 329.129995 224.64 
L 329.129995 7.2 
" style="fill:none;stroke:#b0b0b0;stroke-linecap:square;stroke-width:0.8;"/>
     </g>
     <g id="line2d_10">
      <g>
       <use style="stroke:#000000;stroke-width:0.8;" x="329.129995" xlink:href="#ma962358cb3" y="224.64"/>
      </g>
     </g>
     <g id="text_5">
      <!-- $(4,5)$ -->
      <g transform="translate(306.509172 248.058624)scale(0.22 -0.22)">
       <defs>
        <path d="M 2150 4147 
C 2150 4281 2144 4288 2029 4288 
L 128 1254 
L 128 1088 
L 1779 1088 
L 1779 460 
C 1779 230 1766 166 1318 166 
L 1197 166 
L 1197 0 
C 1402 12 1747 12 1965 12 
C 2182 12 2528 12 2733 0 
L 2733 166 
L 2611 166 
C 2163 166 2150 230 2150 460 
L 2150 1088 
L 2803 1088 
L 2803 1254 
L 2150 1254 
L 2150 4147 
z
M 1798 3723 
L 1798 1254 
L 256 1254 
L 1798 3723 
z
" id="CMR17-34" transform="scale(0.015625)"/>
       </defs>
       <use transform="scale(0.996264)" xlink:href="#CMR17-28"/>
       <use transform="translate(35.280768 0)scale(0.996264)" xlink:href="#CMR17-34"/>
       <use transform="translate(80.971245 0)scale(0.996264)" xlink:href="#CMMI12-3b"/>
       <use transform="translate(124.672827 0)scale(0.996264)" xlink:href="#CMR17-35"/>
       <use transform="translate(170.363304 0)scale(0.996264)" xlink:href="#CMR17-29"/>
      </g>
     </g>
    </g>
    <g id="xtick_6">
     <g id="line2d_11">
      <path clip-path="url(#p4f4c36b485)" d="M 390.002722 224.64 
L 390.002722 7.2 
" style="fill:none;stroke:#b0b0b0;stroke-linecap:square;stroke-width:0.8;"/>
     </g>
     <g id="line2d_12">
      <g>
       <use style="stroke:#000000;stroke-width:0.8;" x="390.002722" xlink:href="#ma962358cb3" y="224.64"/>
      </g>
     </g>
     <g id="text_6">
      <!-- $(5,6)$ -->
      <g transform="translate(367.3819 248.058624)scale(0.22 -0.22)">
       <defs>
        <path d="M 678 2198 
C 678 3712 1395 4076 1811 4076 
C 1946 4076 2272 4049 2400 3782 
C 2298 3782 2106 3782 2106 3558 
C 2106 3385 2246 3328 2336 3328 
C 2394 3328 2566 3353 2566 3571 
C 2566 3987 2246 4224 1805 4224 
C 1043 4224 243 3411 243 2011 
C 243 257 966 -128 1478 -128 
C 2099 -128 2688 431 2688 1295 
C 2688 2101 2170 2688 1517 2688 
C 1126 2688 838 2430 678 1979 
L 678 2198 
z
M 1478 25 
C 691 25 691 1212 691 1450 
C 691 1914 909 2585 1504 2585 
C 1613 2585 1926 2585 2138 2140 
C 2253 1889 2253 1624 2253 1302 
C 2253 954 2253 696 2118 438 
C 1978 173 1773 25 1478 25 
z
" id="CMR17-36" transform="scale(0.015625)"/>
       </defs>
       <use transform="scale(0.996264)" xlink:href="#CMR17-28"/>
       <use transform="translate(35.280768 0)scale(0.996264)" xlink:href="#CMR17-35"/>
       <use transform="translate(80.971245 0)scale(0.996264)" xlink:href="#CMMI12-3b"/>
       <use transform="translate(124.672827 0)scale(0.996264)" xlink:href="#CMR17-36"/>
       <use transform="translate(170.363304 0)scale(0.996264)" xlink:href="#CMR17-29"/>
      </g>
     </g>
    </g>
    <g id="text_7">
     <!-- Pair of qubits -->
     <g transform="translate(174.303981 273.541646)scale(0.22 -0.22)">
      <defs>
       <path d="M 1178 1984 
L 2643 1984 
C 3008 1984 3296 2092 3546 2316 
C 3827 2572 3949 2873 3949 3302 
C 3949 4179 3430 4672 2509 4672 
L 582 4672 
L 582 0 
L 1178 0 
L 1178 1984 
z
M 1178 2508 
L 1178 4147 
L 2419 4147 
C 2989 4147 3328 3839 3328 3327 
C 3328 2816 2989 2508 2419 2508 
L 1178 2508 
z
" id="NimbusSanL-Regu-50" transform="scale(0.015625)"/>
       <path d="M 3424 332 
C 3366 320 3341 320 3309 320 
C 3123 320 3021 415 3021 581 
L 3021 2542 
C 3021 3135 2586 3456 1760 3456 
C 1274 3456 870 3315 646 3065 
C 493 2893 429 2702 416 2370 
L 954 2370 
C 998 2778 1242 2963 1741 2963 
C 2221 2963 2490 2784 2490 2466 
L 2490 2326 
C 2490 2103 2355 2007 1933 1956 
C 1178 1861 1062 1835 858 1753 
C 467 1593 269 1294 269 861 
C 269 256 691 -128 1370 -128 
C 1792 -128 2131 19 2509 364 
C 2547 25 2714 -128 3059 -128 
C 3168 -128 3251 -116 3424 -71 
L 3424 332 
z
M 2490 1071 
C 2490 893 2438 785 2278 638 
C 2061 441 1798 339 1485 339 
C 1069 339 826 536 826 874 
C 826 1224 1062 1402 1632 1485 
C 2195 1562 2310 1587 2490 1670 
L 2490 1071 
z
" id="NimbusSanL-Regu-61" transform="scale(0.015625)"/>
       <path d="M 960 3358 
L 429 3358 
L 429 0 
L 960 0 
L 960 3358 
z
M 960 4672 
L 422 4672 
L 422 3999 
L 960 3999 
L 960 4672 
z
" id="NimbusSanL-Regu-69" transform="scale(0.015625)"/>
       <path d="M 442 3328 
L 442 0 
L 979 0 
L 979 1727 
C 979 2203 1101 2514 1357 2698 
C 1523 2819 1683 2857 2054 2863 
L 2054 3404 
C 1965 3449 1920 3456 1850 3456 
C 1504 3456 1242 3251 934 2750 
L 934 3328 
L 442 3328 
z
" id="NimbusSanL-Regu-72" transform="scale(0.015625)"/>
       <path d="M 1741 3456 
C 800 3456 230 2784 230 1663 
C 230 543 794 -128 1747 -128 
C 2688 -128 3264 543 3264 1638 
C 3264 2791 2707 3456 1741 3456 
z
M 1747 2963 
C 2349 2963 2707 2472 2707 1644 
C 2707 861 2336 364 1747 364 
C 1152 364 787 855 787 1663 
C 787 2466 1152 2963 1747 2963 
z
" id="NimbusSanL-Regu-6f" transform="scale(0.015625)"/>
       <path d="M 1651 3328 
L 1094 3328 
L 1094 3860 
C 1094 4087 1222 4204 1466 4204 
C 1510 4204 1530 4204 1651 4198 
L 1651 4639 
C 1530 4665 1459 4672 1350 4672 
C 858 4672 563 4390 563 3905 
L 563 3328 
L 115 3328 
L 115 2892 
L 563 2892 
L 563 0 
L 1094 0 
L 1094 2892 
L 1651 2892 
L 1651 3328 
z
" id="NimbusSanL-Regu-66" transform="scale(0.015625)"/>
       <path d="M 3168 -1408 
L 3168 3359 
L 2694 3359 
L 2694 2912 
C 2445 3263 2067 3456 1626 3456 
C 742 3456 166 2733 166 1625 
C 166 543 717 -128 1600 -128 
C 2067 -128 2387 38 2637 403 
L 2637 -1408 
L 3168 -1408 
z
M 1702 2956 
C 2272 2956 2637 2447 2637 1644 
C 2637 880 2266 371 1702 371 
C 1114 371 723 887 723 1663 
C 723 2434 1114 2956 1702 2956 
z
" id="NimbusSanL-Regu-71" transform="scale(0.015625)"/>
       <path d="M 3085 19 
L 3085 3328 
L 2554 3328 
L 2554 1454 
C 2554 780 2195 339 1638 339 
C 1216 339 947 591 947 988 
L 947 3328 
L 416 3328 
L 416 780 
C 416 230 832 -128 1485 -128 
C 1978 -128 2291 44 2605 484 
L 2605 19 
L 3085 19 
z
" id="NimbusSanL-Regu-75" transform="scale(0.015625)"/>
       <path d="M 346 4672 
L 346 19 
L 826 19 
L 826 447 
C 1082 57 1421 -128 1888 -128 
C 2771 -128 3347 594 3347 1702 
C 3347 2784 2797 3456 1914 3456 
C 1453 3456 1126 3283 877 2905 
L 877 4672 
L 346 4672 
z
M 1811 2956 
C 2406 2956 2790 2440 2790 1644 
C 2790 887 2394 371 1811 371 
C 1248 371 877 880 877 1663 
C 877 2447 1248 2956 1811 2956 
z
" id="NimbusSanL-Regu-62" transform="scale(0.015625)"/>
       <path d="M 1626 3328 
L 1075 3328 
L 1075 4249 
L 544 4249 
L 544 3328 
L 90 3328 
L 90 2892 
L 544 2892 
L 544 402 
C 544 64 774 -128 1190 -128 
C 1318 -128 1446 -116 1626 -84 
L 1626 364 
C 1555 345 1472 339 1370 339 
C 1139 339 1075 402 1075 634 
L 1075 2892 
L 1626 2892 
L 1626 3328 
z
" id="NimbusSanL-Regu-74" transform="scale(0.015625)"/>
       <path d="M 2803 2428 
C 2797 3084 2362 3456 1587 3456 
C 806 3456 301 3052 301 2434 
C 301 1912 570 1663 1363 1472 
L 1862 1351 
C 2234 1262 2381 1129 2381 887 
C 2381 574 2067 364 1600 364 
C 1312 364 1069 447 934 587 
C 851 683 813 778 781 1014 
L 218 1014 
C 243 243 678 -128 1555 -128 
C 2400 -128 2938 288 2938 931 
C 2938 1428 2656 1702 1990 1861 
L 1478 1982 
C 1043 2084 858 2224 858 2459 
C 858 2765 1133 2963 1568 2963 
C 1997 2963 2227 2778 2240 2428 
L 2803 2428 
z
" id="NimbusSanL-Regu-73" transform="scale(0.015625)"/>
      </defs>
      <use transform="scale(0.996264)" xlink:href="#NimbusSanL-Regu-50"/>
      <use transform="translate(62.465918 0)scale(0.996264)" xlink:href="#NimbusSanL-Regu-61"/>
      <use transform="translate(117.857595 0)scale(0.996264)" xlink:href="#NimbusSanL-Regu-69"/>
      <use transform="translate(139.974379 0)scale(0.996264)" xlink:href="#NimbusSanL-Regu-72"/>
      <use transform="translate(200.844778 0)scale(0.996264)" xlink:href="#NimbusSanL-Regu-6f"/>
      <use transform="translate(256.236455 0)scale(0.996264)" xlink:href="#NimbusSanL-Regu-66"/>
      <use transform="translate(311.626794 0)scale(0.996264)" xlink:href="#NimbusSanL-Regu-71"/>
      <use transform="translate(367.018471 0)scale(0.996264)" xlink:href="#NimbusSanL-Regu-75"/>
      <use transform="translate(422.410148 0)scale(0.996264)" xlink:href="#NimbusSanL-Regu-62"/>
      <use transform="translate(477.801825 0)scale(0.996264)" xlink:href="#NimbusSanL-Regu-69"/>
      <use transform="translate(499.91861 0)scale(0.996264)" xlink:href="#NimbusSanL-Regu-74"/>
      <use transform="translate(527.613779 0)scale(0.996264)" xlink:href="#NimbusSanL-Regu-73"/>
     </g>
    </g>
   </g>
   <g id="matplotlib.axis_2">
    <g id="ytick_1">
     <g id="line2d_13">
      <path clip-path="url(#p4f4c36b485)" d="M 70.420904 208.419531 
L 405.220904 208.419531 
" style="fill:none;stroke:#b0b0b0;stroke-linecap:square;stroke-width:0.8;"/>
     </g>
     <g id="line2d_14">
      <defs>
       <path d="M 0 0 
L -3.5 0 
" id="m08ece4193a" style="stroke:#000000;stroke-width:0.8;"/>
      </defs>
      <g>
       <use style="stroke:#000000;stroke-width:0.8;" x="70.420904" xlink:href="#m08ece4193a" y="208.419531"/>
      </g>
     </g>
     <g id="text_8">
      <!-- $\mathdefault{0.0010}$ -->
      <g transform="translate(7.2 216.227683)scale(0.22 -0.22)">
       <defs>
        <path d="M 1178 307 
C 1178 492 1024 620 870 620 
C 685 620 557 467 557 313 
C 557 128 710 0 864 0 
C 1050 0 1178 153 1178 307 
z
" id="CMMI12-3a" transform="scale(0.015625)"/>
       </defs>
       <use transform="scale(0.996264)" xlink:href="#CMR17-30"/>
       <use transform="translate(45.690477 0)scale(0.996264)" xlink:href="#CMMI12-3a"/>
       <use transform="translate(72.787654 0)scale(0.996264)" xlink:href="#CMR17-30"/>
       <use transform="translate(118.478131 0)scale(0.996264)" xlink:href="#CMR17-30"/>
       <use transform="translate(164.168608 0)scale(0.996264)" xlink:href="#CMR17-31"/>
       <use transform="translate(209.859086 0)scale(0.996264)" xlink:href="#CMR17-30"/>
      </g>
     </g>
    </g>
    <g id="ytick_2">
     <g id="line2d_15">
      <path clip-path="url(#p4f4c36b485)" d="M 70.420904 128.33325 
L 405.220904 128.33325 
" style="fill:none;stroke:#b0b0b0;stroke-linecap:square;stroke-width:0.8;"/>
     </g>
     <g id="line2d_16">
      <g>
       <use style="stroke:#000000;stroke-width:0.8;" x="70.420904" xlink:href="#m08ece4193a" y="128.33325"/>
      </g>
     </g>
     <g id="text_9">
      <!-- $\mathdefault{0.0015}$ -->
      <g transform="translate(7.2 136.141402)scale(0.22 -0.22)">
       <use transform="scale(0.996264)" xlink:href="#CMR17-30"/>
       <use transform="translate(45.690477 0)scale(0.996264)" xlink:href="#CMMI12-3a"/>
       <use transform="translate(72.787654 0)scale(0.996264)" xlink:href="#CMR17-30"/>
       <use transform="translate(118.478131 0)scale(0.996264)" xlink:href="#CMR17-30"/>
       <use transform="translate(164.168608 0)scale(0.996264)" xlink:href="#CMR17-31"/>
       <use transform="translate(209.859086 0)scale(0.996264)" xlink:href="#CMR17-35"/>
      </g>
     </g>
    </g>
    <g id="ytick_3">
     <g id="line2d_17">
      <path clip-path="url(#p4f4c36b485)" d="M 70.420904 48.246969 
L 405.220904 48.246969 
" style="fill:none;stroke:#b0b0b0;stroke-linecap:square;stroke-width:0.8;"/>
     </g>
     <g id="line2d_18">
      <g>
       <use style="stroke:#000000;stroke-width:0.8;" x="70.420904" xlink:href="#m08ece4193a" y="48.246969"/>
      </g>
     </g>
     <g id="text_10">
      <!-- $\mathdefault{0.0020}$ -->
      <g transform="translate(7.2 56.055121)scale(0.22 -0.22)">
       <use transform="scale(0.996264)" xlink:href="#CMR17-30"/>
       <use transform="translate(45.690477 0)scale(0.996264)" xlink:href="#CMMI12-3a"/>
       <use transform="translate(72.787654 0)scale(0.996264)" xlink:href="#CMR17-30"/>
       <use transform="translate(118.478131 0)scale(0.996264)" xlink:href="#CMR17-30"/>
       <use transform="translate(164.168608 0)scale(0.996264)" xlink:href="#CMR17-32"/>
       <use transform="translate(209.859086 0)scale(0.996264)" xlink:href="#CMR17-30"/>
      </g>
     </g>
    </g>
   </g>
   <g id="LineCollection_1">
    <path clip-path="url(#p4f4c36b485)" d="M 85.639086 90.23213 
L 85.639086 17.083636 
" style="fill:none;stroke:#1f77b4;stroke-width:1.5;"/>
    <path clip-path="url(#p4f4c36b485)" d="M 146.511813 199.358641 
L 146.511813 95.978133 
" style="fill:none;stroke:#1f77b4;stroke-width:1.5;"/>
    <path clip-path="url(#p4f4c36b485)" d="M 207.38454 167.815097 
L 207.38454 65.695173 
" style="fill:none;stroke:#1f77b4;stroke-width:1.5;"/>
    <path clip-path="url(#p4f4c36b485)" d="M 268.257267 100.488501 
L 268.257267 33.839138 
" style="fill:none;stroke:#1f77b4;stroke-width:1.5;"/>
    <path clip-path="url(#p4f4c36b485)" d="M 329.129995 176.880384 
L 329.129995 68.948441 
" style="fill:none;stroke:#1f77b4;stroke-width:1.5;"/>
    <path clip-path="url(#p4f4c36b485)" d="M 390.002722 137.467993 
L 390.002722 76.595771 
" style="fill:none;stroke:#1f77b4;stroke-width:1.5;"/>
   </g>
   <g id="LineCollection_2">
    <path clip-path="url(#p4f4c36b485)" d="M 85.639086 145.125349 
L 85.639086 117.042942 
" style="fill:none;stroke:#ff7f0e;stroke-width:1.5;"/>
    <path clip-path="url(#p4f4c36b485)" d="M 146.511813 200.273886 
L 146.511813 167.558102 
" style="fill:none;stroke:#ff7f0e;stroke-width:1.5;"/>
    <path clip-path="url(#p4f4c36b485)" d="M 207.38454 214.756364 
L 207.38454 185.59535 
" style="fill:none;stroke:#ff7f0e;stroke-width:1.5;"/>
    <path clip-path="url(#p4f4c36b485)" d="M 268.257267 125.784303 
L 268.257267 103.837947 
" style="fill:none;stroke:#ff7f0e;stroke-width:1.5;"/>
    <path clip-path="url(#p4f4c36b485)" d="M 329.129995 201.285037 
L 329.129995 165.691173 
" style="fill:none;stroke:#ff7f0e;stroke-width:1.5;"/>
    <path clip-path="url(#p4f4c36b485)" d="M 390.002722 194.223532 
L 390.002722 164.315049 
" style="fill:none;stroke:#ff7f0e;stroke-width:1.5;"/>
   </g>
   <g id="line2d_19">
    <defs>
     <path d="M 5 0 
L -5 -0 
" id="m87c16f4679" style="stroke:#1f77b4;"/>
    </defs>
    <g clip-path="url(#p4f4c36b485)">
     <use style="fill:#1f77b4;stroke:#1f77b4;" x="85.639086" xlink:href="#m87c16f4679" y="90.23213"/>
     <use style="fill:#1f77b4;stroke:#1f77b4;" x="146.511813" xlink:href="#m87c16f4679" y="199.358641"/>
     <use style="fill:#1f77b4;stroke:#1f77b4;" x="207.38454" xlink:href="#m87c16f4679" y="167.815097"/>
     <use style="fill:#1f77b4;stroke:#1f77b4;" x="268.257267" xlink:href="#m87c16f4679" y="100.488501"/>
     <use style="fill:#1f77b4;stroke:#1f77b4;" x="329.129995" xlink:href="#m87c16f4679" y="176.880384"/>
     <use style="fill:#1f77b4;stroke:#1f77b4;" x="390.002722" xlink:href="#m87c16f4679" y="137.467993"/>
    </g>
   </g>
   <g id="line2d_20">
    <g clip-path="url(#p4f4c36b485)">
     <use style="fill:#1f77b4;stroke:#1f77b4;" x="85.639086" xlink:href="#m87c16f4679" y="17.083636"/>
     <use style="fill:#1f77b4;stroke:#1f77b4;" x="146.511813" xlink:href="#m87c16f4679" y="95.978133"/>
     <use style="fill:#1f77b4;stroke:#1f77b4;" x="207.38454" xlink:href="#m87c16f4679" y="65.695173"/>
     <use style="fill:#1f77b4;stroke:#1f77b4;" x="268.257267" xlink:href="#m87c16f4679" y="33.839138"/>
     <use style="fill:#1f77b4;stroke:#1f77b4;" x="329.129995" xlink:href="#m87c16f4679" y="68.948441"/>
     <use style="fill:#1f77b4;stroke:#1f77b4;" x="390.002722" xlink:href="#m87c16f4679" y="76.595771"/>
    </g>
   </g>
   <g id="line2d_21">
    <defs>
     <path d="M 5 0 
L -5 -0 
" id="m637fa9d0f7" style="stroke:#ff7f0e;"/>
    </defs>
    <g clip-path="url(#p4f4c36b485)">
     <use style="fill:#ff7f0e;stroke:#ff7f0e;" x="85.639086" xlink:href="#m637fa9d0f7" y="145.125349"/>
     <use style="fill:#ff7f0e;stroke:#ff7f0e;" x="146.511813" xlink:href="#m637fa9d0f7" y="200.273886"/>
     <use style="fill:#ff7f0e;stroke:#ff7f0e;" x="207.38454" xlink:href="#m637fa9d0f7" y="214.756364"/>
     <use style="fill:#ff7f0e;stroke:#ff7f0e;" x="268.257267" xlink:href="#m637fa9d0f7" y="125.784303"/>
     <use style="fill:#ff7f0e;stroke:#ff7f0e;" x="329.129995" xlink:href="#m637fa9d0f7" y="201.285037"/>
     <use style="fill:#ff7f0e;stroke:#ff7f0e;" x="390.002722" xlink:href="#m637fa9d0f7" y="194.223532"/>
    </g>
   </g>
   <g id="line2d_22">
    <g clip-path="url(#p4f4c36b485)">
     <use style="fill:#ff7f0e;stroke:#ff7f0e;" x="85.639086" xlink:href="#m637fa9d0f7" y="117.042942"/>
     <use style="fill:#ff7f0e;stroke:#ff7f0e;" x="146.511813" xlink:href="#m637fa9d0f7" y="167.558102"/>
     <use style="fill:#ff7f0e;stroke:#ff7f0e;" x="207.38454" xlink:href="#m637fa9d0f7" y="185.59535"/>
     <use style="fill:#ff7f0e;stroke:#ff7f0e;" x="268.257267" xlink:href="#m637fa9d0f7" y="103.837947"/>
     <use style="fill:#ff7f0e;stroke:#ff7f0e;" x="329.129995" xlink:href="#m637fa9d0f7" y="165.691173"/>
     <use style="fill:#ff7f0e;stroke:#ff7f0e;" x="390.002722" xlink:href="#m637fa9d0f7" y="164.315049"/>
    </g>
   </g>
   <g id="line2d_23">
    <path clip-path="url(#p4f4c36b485)" d="M 85.639086 53.657883 
L 146.511813 147.668387 
L 207.38454 116.755135 
L 268.257267 67.163819 
L 329.129995 122.914413 
L 390.002722 107.031882 
" style="fill:none;stroke:#1f77b4;stroke-dasharray:5.55,2.4;stroke-dashoffset:0;stroke-width:1.5;"/>
    <defs>
     <path d="M 0 3 
C 0.795609 3 1.55874 2.683901 2.12132 2.12132 
C 2.683901 1.55874 3 0.795609 3 0 
C 3 -0.795609 2.683901 -1.55874 2.12132 -2.12132 
C 1.55874 -2.683901 0.795609 -3 0 -3 
C -0.795609 -3 -1.55874 -2.683901 -2.12132 -2.12132 
C -2.683901 -1.55874 -3 -0.795609 -3 0 
C -3 0.795609 -2.683901 1.55874 -2.12132 2.12132 
C -1.55874 2.683901 -0.795609 3 0 3 
z
" id="mf78a1ecb01" style="stroke:#1f77b4;"/>
    </defs>
    <g clip-path="url(#p4f4c36b485)">
     <use style="fill:#1f77b4;stroke:#1f77b4;" x="85.639086" xlink:href="#mf78a1ecb01" y="53.657883"/>
     <use style="fill:#1f77b4;stroke:#1f77b4;" x="146.511813" xlink:href="#mf78a1ecb01" y="147.668387"/>
     <use style="fill:#1f77b4;stroke:#1f77b4;" x="207.38454" xlink:href="#mf78a1ecb01" y="116.755135"/>
     <use style="fill:#1f77b4;stroke:#1f77b4;" x="268.257267" xlink:href="#mf78a1ecb01" y="67.163819"/>
     <use style="fill:#1f77b4;stroke:#1f77b4;" x="329.129995" xlink:href="#mf78a1ecb01" y="122.914413"/>
     <use style="fill:#1f77b4;stroke:#1f77b4;" x="390.002722" xlink:href="#mf78a1ecb01" y="107.031882"/>
    </g>
   </g>
   <g id="line2d_24">
    <path clip-path="url(#p4f4c36b485)" d="M 85.639086 131.084145 
L 146.511813 183.915994 
L 207.38454 200.175857 
L 268.257267 114.811125 
L 329.129995 183.488105 
L 390.002722 179.26929 
" style="fill:none;stroke:#ff7f0e;stroke-dasharray:5.55,2.4;stroke-dashoffset:0;stroke-width:1.5;"/>
    <defs>
     <path d="M 0 3 
C 0.795609 3 1.55874 2.683901 2.12132 2.12132 
C 2.683901 1.55874 3 0.795609 3 0 
C 3 -0.795609 2.683901 -1.55874 2.12132 -2.12132 
C 1.55874 -2.683901 0.795609 -3 0 -3 
C -0.795609 -3 -1.55874 -2.683901 -2.12132 -2.12132 
C -2.683901 -1.55874 -3 -0.795609 -3 0 
C -3 0.795609 -2.683901 1.55874 -2.12132 2.12132 
C -1.55874 2.683901 -0.795609 3 0 3 
z
" id="mbc8dff147d" style="stroke:#ff7f0e;"/>
    </defs>
    <g clip-path="url(#p4f4c36b485)">
     <use style="fill:#ff7f0e;stroke:#ff7f0e;" x="85.639086" xlink:href="#mbc8dff147d" y="131.084145"/>
     <use style="fill:#ff7f0e;stroke:#ff7f0e;" x="146.511813" xlink:href="#mbc8dff147d" y="183.915994"/>
     <use style="fill:#ff7f0e;stroke:#ff7f0e;" x="207.38454" xlink:href="#mbc8dff147d" y="200.175857"/>
     <use style="fill:#ff7f0e;stroke:#ff7f0e;" x="268.257267" xlink:href="#mbc8dff147d" y="114.811125"/>
     <use style="fill:#ff7f0e;stroke:#ff7f0e;" x="329.129995" xlink:href="#mbc8dff147d" y="183.488105"/>
     <use style="fill:#ff7f0e;stroke:#ff7f0e;" x="390.002722" xlink:href="#mbc8dff147d" y="179.26929"/>
    </g>
   </g>
   <g id="patch_3">
    <path d="M 70.420904 224.64 
L 70.420904 7.2 
" style="fill:none;stroke:#000000;stroke-linecap:square;stroke-linejoin:miter;stroke-width:0.8;"/>
   </g>
   <g id="patch_4">
    <path d="M 405.220904 224.64 
L 405.220904 7.2 
" style="fill:none;stroke:#000000;stroke-linecap:square;stroke-linejoin:miter;stroke-width:0.8;"/>
   </g>
   <g id="patch_5">
    <path d="M 70.420904 224.64 
L 405.220904 224.64 
" style="fill:none;stroke:#000000;stroke-linecap:square;stroke-linejoin:miter;stroke-width:0.8;"/>
   </g>
   <g id="patch_6">
    <path d="M 70.420904 7.2 
L 405.220904 7.2 
" style="fill:none;stroke:#000000;stroke-linecap:square;stroke-linejoin:miter;stroke-width:0.8;"/>
   </g>
  </g>
 </g>
 <defs>
  <clipPath id="p4f4c36b485">
   <rect height="217.44" width="334.8" x="70.420904" y="7.2"/>
  </clipPath>
 </defs>
</svg>
