<?xml version="1.0" encoding="utf-8" standalone="no"?>
<!DOCTYPE svg PUBLIC "-//W3C//DTD SVG 1.1//EN"
  "http://www.w3.org/Graphics/SVG/1.1/DTD/svg11.dtd">
<!-- Created with matplotlib (https://matplotlib.org/) -->
<svg height="292.535575pt" version="1.1" viewBox="0 0 610.569892 292.535575" width="610.569892pt" xmlns="http://www.w3.org/2000/svg" xmlns:xlink="http://www.w3.org/1999/xlink">
 <metadata>
  <rdf:RDF xmlns:cc="http://creativecommons.org/ns#" xmlns:dc="http://purl.org/dc/elements/1.1/" xmlns:rdf="http://www.w3.org/1999/02/22-rdf-syntax-ns#">
   <cc:Work>
    <dc:type rdf:resource="http://purl.org/dc/dcmitype/StillImage"/>
    <dc:date>2022-04-21T11:54:33.913852</dc:date>
    <dc:format>image/svg+xml</dc:format>
    <dc:creator>
     <cc:Agent>
      <dc:title>Matplotlib v3.3.4, https://matplotlib.org/</dc:title>
     </cc:Agent>
    </dc:creator>
   </cc:Work>
  </rdf:RDF>
 </metadata>
 <defs>
  <style type="text/css">*{stroke-linecap:butt;stroke-linejoin:round;}</style>
 </defs>
 <g id="figure_1">
  <g id="patch_1">
   <path d="M 0 292.535575 
L 610.569892 292.535575 
L 610.569892 0 
L 0 0 
z
" style="fill:none;"/>
  </g>
  <g id="patch_2">
   <path d="M 7.2 260.836364 
L 260.836364 260.836364 
L 260.836364 7.2 
L 7.2 7.2 
z
" style="fill:#ffffff;"/>
  </g>
  <g id="pane3d_1">
   <g id="patch_3">
    <path d="M 26.351295 198.297765 
L 110.110305 128.089301 
L 108.945975 26.836146 
L 21.178664 90.884732 
" style="fill:#f2f2f2;opacity:0.5;stroke:#f2f2f2;stroke-linejoin:miter;"/>
   </g>
  </g>
  <g id="pane3d_2">
   <g id="patch_4">
    <path d="M 110.110305 128.089301 
L 244.513632 167.155042 
L 249.310013 62.414338 
L 108.945975 26.836146 
" style="fill:#e6e6e6;opacity:0.5;stroke:#e6e6e6;stroke-linejoin:miter;"/>
   </g>
  </g>
  <g id="pane3d_3">
   <g id="patch_5">
    <path d="M 26.351295 198.297765 
L 168.825385 244.829803 
L 244.513632 167.155042 
L 110.110305 128.089301 
" style="fill:#ececec;opacity:0.5;stroke:#ececec;stroke-linejoin:miter;"/>
   </g>
  </g>
  <g id="axis3d_1">
   <g id="line2d_1">
    <path d="M 26.351295 198.297765 
L 168.825385 244.829803 
" style="fill:none;stroke:#000000;stroke-linecap:square;stroke-width:0.8;"/>
   </g>
   <g id="Line3DCollection_1">
    <path d="M 47.537457 205.217165 
L 130.171564 133.920317 
L 129.85934 32.137074 
" style="fill:none;stroke:#b0b0b0;stroke-width:0.8;"/>
    <path d="M 79.459419 215.642878 
L 160.34882 142.691654 
L 161.343199 40.117315 
" style="fill:none;stroke:#b0b0b0;stroke-width:0.8;"/>
    <path d="M 112.159199 226.322626 
L 191.199507 151.658731 
L 193.560505 48.283463 
" style="fill:none;stroke:#b0b0b0;stroke-width:0.8;"/>
    <path d="M 145.665574 237.265808 
L 222.746419 160.828173 
L 226.53719 56.642091 
" style="fill:none;stroke:#b0b0b0;stroke-width:0.8;"/>
   </g>
   <g id="xtick_1">
    <g id="line2d_2">
     <path d="M 48.257308 204.596076 
L 46.094651 206.462021 
" style="fill:none;stroke:#000000;stroke-linecap:square;stroke-width:0.8;"/>
    </g>
    <g id="text_1">
     <!-- $|00\rangle$ -->
     <g transform="translate(31.352298 248.24498)rotate(-45)scale(0.22 -0.22)">
      <defs>
       <path d="M 15.90625 71.40625 
C 15.90625 73.203125 15.90625 75 13.90625 75 
C 11.90625 75 11.90625 73.203125 11.90625 71.40625 
L 11.90625 -21.40625 
C 11.90625 -23.203125 11.90625 -25 13.90625 -25 
C 15.90625 -25 15.90625 -23.203125 15.90625 -21.40625 
z
" id="CMSY10-106"/>
       <path d="M 42 31.640625 
C 42 37.75 41.90625 48.125 37.703125 56.109375 
C 34 63.109375 28.09375 65.59375 22.90625 65.59375 
C 18.09375 65.59375 12 63.40625 8.203125 56.203125 
C 4.203125 48.71875 3.796875 39.4375 3.796875 31.640625 
C 3.796875 25.953125 3.90625 17.28125 7 9.671875 
C 11.296875 -0.609375 19 -2 22.90625 -2 
C 27.5 -2 34.5 -0.109375 38.59375 9.375 
C 41.59375 16.28125 42 24.359375 42 31.640625 
z
M 22.90625 -0.40625 
C 16.5 -0.40625 12.703125 5.078125 11.296875 12.6875 
C 10.203125 18.5625 10.203125 27.15625 10.203125 32.75 
C 10.203125 40.4375 10.203125 46.828125 11.5 52.921875 
C 13.40625 61.390625 19 64 22.90625 64 
C 27 64 32.296875 61.296875 34.203125 53.125 
C 35.5 47.4375 35.59375 40.734375 35.59375 32.75 
C 35.59375 26.25 35.59375 18.265625 34.40625 12.375 
C 32.296875 1.484375 26.40625 -0.40625 22.90625 -0.40625 
z
" id="CMR17-48"/>
       <path d="M 27.296875 23.296875 
C 27.796875 24.5 27.796875 24.703125 27.796875 25 
C 27.796875 25.296875 27.796875 25.5 27.296875 26.703125 
L 9.796875 72.703125 
C 9.203125 74.40625 8.59375 75 7.5 75 
C 6.40625 75 5.5 74.09375 5.5 73 
C 5.5 72.703125 5.5 72.5 6 71.40625 
L 23.703125 25 
L 6 -21.203125 
C 5.5 -22.296875 5.5 -22.5 5.5 -23 
C 5.5 -24.09375 6.40625 -25 7.5 -25 
C 8.796875 -25 9.203125 -24 9.59375 -23 
z
" id="CMSY10-105"/>
      </defs>
      <use transform="scale(0.996264)" xlink:href="#CMSY10-106"/>
      <use transform="translate(27.674085 0)scale(0.996264)" xlink:href="#CMR17-48"/>
      <use transform="translate(73.364562 0)scale(0.996264)" xlink:href="#CMR17-48"/>
      <use transform="translate(119.055039 0)scale(0.996264)" xlink:href="#CMSY10-105"/>
     </g>
    </g>
   </g>
   <g id="xtick_2">
    <g id="line2d_3">
     <path d="M 80.164764 215.006753 
L 78.045652 216.917904 
" style="fill:none;stroke:#000000;stroke-linecap:square;stroke-width:0.8;"/>
    </g>
    <g id="text_2">
     <!-- $|01\rangle$ -->
     <g transform="translate(63.289874 258.771303)rotate(-45)scale(0.22 -0.22)">
      <defs>
       <path d="M 26.59375 63.40625 
C 26.59375 65.5 26.5 65.5 25.09375 65.5 
C 21.203125 61.1875 15.296875 59.796875 9.703125 59.796875 
C 9.40625 59.796875 8.90625 59.796875 8.796875 59.5 
C 8.703125 59.296875 8.703125 59.09375 8.703125 57 
C 11.796875 57 17 57.59375 21 59.984375 
L 21 7.203125 
C 21 3.6875 20.796875 2.5 12.203125 2.5 
L 9.203125 2.5 
L 9.203125 0 
C 14 0 19 0 23.796875 0 
C 28.59375 0 33.59375 0 38.40625 0 
L 38.40625 2.5 
L 35.40625 2.5 
C 26.796875 2.5 26.59375 3.59375 26.59375 7.15625 
z
" id="CMR17-49"/>
      </defs>
      <use transform="scale(0.996264)" xlink:href="#CMSY10-106"/>
      <use transform="translate(27.674085 0)scale(0.996264)" xlink:href="#CMR17-48"/>
      <use transform="translate(73.364562 0)scale(0.996264)" xlink:href="#CMR17-49"/>
      <use transform="translate(119.055039 0)scale(0.996264)" xlink:href="#CMSY10-105"/>
     </g>
    </g>
   </g>
   <g id="xtick_3">
    <g id="line2d_4">
     <path d="M 112.849112 225.670913 
L 110.776325 227.628931 
" style="fill:none;stroke:#000000;stroke-linecap:square;stroke-width:0.8;"/>
    </g>
    <g id="text_3">
     <!-- $|10\rangle$ -->
     <g transform="translate(96.007002 269.554559)rotate(-45)scale(0.22 -0.22)">
      <use transform="scale(0.996264)" xlink:href="#CMSY10-106"/>
      <use transform="translate(27.674085 0)scale(0.996264)" xlink:href="#CMR17-49"/>
      <use transform="translate(73.364562 0)scale(0.996264)" xlink:href="#CMR17-48"/>
      <use transform="translate(119.055039 0)scale(0.996264)" xlink:href="#CMSY10-105"/>
     </g>
    </g>
   </g>
   <g id="xtick_4">
    <g id="line2d_5">
     <path d="M 146.339076 236.597926 
L 144.315558 238.604559 
" style="fill:none;stroke:#000000;stroke-linecap:square;stroke-width:0.8;"/>
    </g>
    <g id="text_4">
     <!-- $|11\rangle$ -->
     <g transform="translate(129.532577 280.604272)rotate(-45)scale(0.22 -0.22)">
      <use transform="scale(0.996264)" xlink:href="#CMSY10-106"/>
      <use transform="translate(27.674085 0)scale(0.996264)" xlink:href="#CMR17-49"/>
      <use transform="translate(73.364562 0)scale(0.996264)" xlink:href="#CMR17-49"/>
      <use transform="translate(119.055039 0)scale(0.996264)" xlink:href="#CMSY10-105"/>
     </g>
    </g>
   </g>
  </g>
  <g id="axis3d_2">
   <g id="line2d_6">
    <path d="M 244.513632 167.155042 
L 168.825385 244.829803 
" style="fill:none;stroke:#000000;stroke-linecap:square;stroke-width:0.8;"/>
   </g>
   <g id="Line3DCollection_2">
    <path d="M 27.247991 86.455614 
L 32.122998 193.459808 
L 174.062426 239.45531 
" style="fill:none;stroke:#b0b0b0;stroke-width:0.8;"/>
    <path d="M 54.106724 66.855333 
L 57.701022 172.019802 
L 197.232652 215.676959 
" style="fill:none;stroke:#b0b0b0;stroke-width:0.8;"/>
    <path d="M 79.592766 48.256781 
L 82.026808 151.629446 
L 219.210597 193.122181 
" style="fill:none;stroke:#b0b0b0;stroke-width:0.8;"/>
    <path d="M 103.808727 30.585075 
L 105.190118 132.2135 
L 240.085979 171.698903 
" style="fill:none;stroke:#b0b0b0;stroke-width:0.8;"/>
   </g>
   <g id="xtick_5">
    <g id="line2d_7">
     <path d="M 172.866299 239.067705 
L 176.457775 240.231524 
" style="fill:none;stroke:#000000;stroke-linecap:square;stroke-width:0.8;"/>
    </g>
    <g id="text_5">
     <!-- $\langle 00|$ -->
     <g transform="translate(168.037206 256.913298)rotate(-315)scale(0.22 -0.22)">
      <defs>
       <path d="M 32.796875 71.203125 
C 33.296875 72.296875 33.296875 72.5 33.296875 73 
C 33.296875 74.09375 32.40625 75 31.296875 75 
C 30.40625 75 29.703125 74.5 29 72.703125 
L 11.5 26.796875 
C 11.296875 26.203125 11 25.59375 11 25 
C 11 24.703125 11 24.5 11.5 23.296875 
L 29 -22.59375 
C 29.40625 -23.703125 29.90625 -25 31.296875 -25 
C 32.40625 -25 33.296875 -24.09375 33.296875 -23 
C 33.296875 -22.703125 33.296875 -22.5 32.796875 -21.40625 
L 15.09375 25 
z
" id="CMSY10-104"/>
      </defs>
      <use transform="scale(0.996264)" xlink:href="#CMSY10-104"/>
      <use transform="translate(38.743734 0)scale(0.996264)" xlink:href="#CMR17-48"/>
      <use transform="translate(84.434211 0)scale(0.996264)" xlink:href="#CMR17-48"/>
      <use transform="translate(130.124688 0)scale(0.996264)" xlink:href="#CMSY10-106"/>
     </g>
    </g>
   </g>
   <g id="xtick_6">
    <g id="line2d_8">
     <path d="M 196.058388 215.309551 
L 199.584137 216.4127 
" style="fill:none;stroke:#000000;stroke-linecap:square;stroke-width:0.8;"/>
    </g>
    <g id="text_6">
     <!-- $\langle 01|$ -->
     <g transform="translate(191.065707 232.97451)rotate(-315)scale(0.22 -0.22)">
      <use transform="scale(0.996264)" xlink:href="#CMSY10-104"/>
      <use transform="translate(38.743734 0)scale(0.996264)" xlink:href="#CMR17-48"/>
      <use transform="translate(84.434211 0)scale(0.996264)" xlink:href="#CMR17-49"/>
      <use transform="translate(130.124688 0)scale(0.996264)" xlink:href="#CMSY10-106"/>
     </g>
    </g>
   </g>
   <g id="xtick_7">
    <g id="line2d_9">
     <path d="M 218.057558 192.773432 
L 221.519502 193.820535 
" style="fill:none;stroke:#000000;stroke-linecap:square;stroke-width:0.8;"/>
    </g>
    <g id="text_7">
     <!-- $\langle 10|$ -->
     <g transform="translate(212.908913 210.267872)rotate(-315)scale(0.22 -0.22)">
      <use transform="scale(0.996264)" xlink:href="#CMSY10-104"/>
      <use transform="translate(38.743734 0)scale(0.996264)" xlink:href="#CMR17-49"/>
      <use transform="translate(84.434211 0)scale(0.996264)" xlink:href="#CMR17-48"/>
      <use transform="translate(130.124688 0)scale(0.996264)" xlink:href="#CMSY10-106"/>
     </g>
    </g>
   </g>
   <g id="xtick_8">
    <g id="line2d_10">
     <path d="M 238.953541 171.367426 
L 242.353564 172.362648 
" style="fill:none;stroke:#000000;stroke-linecap:square;stroke-width:0.8;"/>
    </g>
    <g id="text_8">
     <!-- $\langle 11|$ -->
     <g transform="translate(233.656039 188.700638)rotate(-315)scale(0.22 -0.22)">
      <use transform="scale(0.996264)" xlink:href="#CMSY10-104"/>
      <use transform="translate(38.743734 0)scale(0.996264)" xlink:href="#CMR17-49"/>
      <use transform="translate(84.434211 0)scale(0.996264)" xlink:href="#CMR17-49"/>
      <use transform="translate(130.124688 0)scale(0.996264)" xlink:href="#CMSY10-106"/>
     </g>
    </g>
   </g>
  </g>
  <g id="axis3d_3">
   <g id="line2d_11">
    <path d="M 244.513632 167.155042 
L 249.310013 62.414338 
" style="fill:none;stroke:#000000;stroke-linecap:square;stroke-width:0.8;"/>
   </g>
   <g id="Line3DCollection_3">
    <path d="M 244.605525 165.148326 
L 110.087952 126.145382 
L 26.252356 196.24325 
" style="fill:none;stroke:#b0b0b0;stroke-width:0.8;"/>
    <path d="M 246.859283 115.932023 
L 109.54028 78.51844 
L 23.82382 145.813109 
" style="fill:none;stroke:#b0b0b0;stroke-width:0.8;"/>
    <path d="M 249.209878 64.601035 
L 108.970233 28.945668 
L 21.286832 93.130925 
" style="fill:none;stroke:#b0b0b0;stroke-width:0.8;"/>
   </g>
   <g id="xtick_9">
    <g id="line2d_12">
     <path d="M 243.476507 164.820971 
L 246.866249 165.803816 
" style="fill:none;stroke:#000000;stroke-linecap:square;stroke-width:0.8;"/>
    </g>
    <g id="text_9">
     <!-- $\mathdefault{0.00}$ -->
     <g transform="translate(254.277632 176.169361)rotate(-345)scale(0.22 -0.22)">
      <defs>
       <path d="M 18.40625 4.796875 
C 18.40625 7.6875 16 9.671875 13.59375 9.671875 
C 10.703125 9.671875 8.703125 7.28125 8.703125 4.890625 
C 8.703125 2 11.09375 0 13.5 0 
C 16.40625 0 18.40625 2.390625 18.40625 4.796875 
z
" id="CMMI12-58"/>
      </defs>
      <use transform="scale(0.996264)" xlink:href="#CMR17-48"/>
      <use transform="translate(45.690477 0)scale(0.996264)" xlink:href="#CMMI12-58"/>
      <use transform="translate(72.787654 0)scale(0.996264)" xlink:href="#CMR17-48"/>
      <use transform="translate(118.478131 0)scale(0.996264)" xlink:href="#CMR17-48"/>
     </g>
    </g>
   </g>
   <g id="xtick_10">
    <g id="line2d_13">
     <path d="M 245.705617 115.617698 
L 249.169418 116.561436 
" style="fill:none;stroke:#000000;stroke-linecap:square;stroke-width:0.8;"/>
    </g>
    <g id="text_10">
     <!-- $\mathdefault{0.05}$ -->
     <g transform="translate(257.117138 127.115164)rotate(-345)scale(0.22 -0.22)">
      <defs>
       <path d="M 11.40625 57.6875 
C 12.40625 57.28125 16.5 56 20.703125 56 
C 30 56 35.09375 61.109375 38 64.0625 
C 38 64.953125 38 65.5 37.40625 65.5 
C 37.296875 65.5 37.09375 65.5 36.296875 65.046875 
C 32.796875 63.40625 28.703125 62.078125 23.703125 62.078125 
C 20.703125 62.078125 16.203125 62.484375 11.296875 64.671875 
C 10.203125 65.171875 10 65.171875 9.90625 65.171875 
C 9.40625 65.171875 9.296875 65.0625 9.296875 63.078125 
L 9.296875 34.421875 
C 9.296875 32.640625 9.296875 32.140625 10.296875 32.140625 
C 10.796875 32.140625 11 32.34375 11.5 33.03125 
C 14.703125 37.515625 19.09375 39.40625 24.09375 39.40625 
C 27.59375 39.40625 35.09375 37.21875 35.09375 20.140625 
C 35.09375 16.953125 35.09375 11.171875 32.09375 6.578125 
C 29.59375 2.484375 25.703125 0.390625 21.40625 0.390625 
C 14.796875 0.390625 8.09375 5 6.296875 12.71875 
C 6.703125 12.609375 7.5 12.421875 7.90625 12.421875 
C 9.203125 12.421875 11.703125 13.125 11.703125 16.21875 
C 11.703125 18.90625 9.796875 20 7.90625 20 
C 5.59375 20 4.09375 18.59375 4.09375 15.796875 
C 4.09375 7.09375 11 -2 21.59375 -2 
C 31.90625 -2 41.703125 6.875 41.703125 19.75 
C 41.703125 31.71875 33.90625 41 24.203125 41 
C 19.09375 41 14.796875 39.109375 11.40625 35.53125 
z
" id="CMR17-53"/>
      </defs>
      <use transform="scale(0.996264)" xlink:href="#CMR17-48"/>
      <use transform="translate(45.690477 0)scale(0.996264)" xlink:href="#CMMI12-58"/>
      <use transform="translate(72.787654 0)scale(0.996264)" xlink:href="#CMR17-48"/>
      <use transform="translate(118.478131 0)scale(0.996264)" xlink:href="#CMR17-53"/>
     </g>
    </g>
   </g>
   <g id="xtick_11">
    <g id="line2d_14">
     <path d="M 248.030466 64.301175 
L 251.57163 65.201501 
" style="fill:none;stroke:#000000;stroke-linecap:square;stroke-width:0.8;"/>
    </g>
    <g id="text_11">
     <!-- $\mathdefault{0.10}$ -->
     <g transform="translate(260.078025 75.964058)rotate(-345)scale(0.22 -0.22)">
      <use transform="scale(0.996264)" xlink:href="#CMR17-48"/>
      <use transform="translate(45.690477 0)scale(0.996264)" xlink:href="#CMMI12-58"/>
      <use transform="translate(72.787654 0)scale(0.996264)" xlink:href="#CMR17-49"/>
      <use transform="translate(118.478131 0)scale(0.996264)" xlink:href="#CMR17-48"/>
     </g>
    </g>
   </g>
  </g>
  <g id="axes_1">
   <g id="line2d_15">
    <path clip-path="url(#p750daabe72)" style="fill:none;stroke:#ff0000;stroke-linecap:square;stroke-width:1.5;"/>
    <defs>
     <path d="M 3 0 
L -3 -0 
" id="m9044eed69f" style="stroke:#ff0000;"/>
    </defs>
    <g clip-path="url(#p750daabe72)"/>
   </g>
   <g id="line2d_16">
    <path clip-path="url(#p750daabe72)" d="M 84.837679 201.664014 
L 85.007992 209.121629 
" style="fill:none;stroke:#ff0000;stroke-linecap:square;stroke-width:1.5;"/>
    <g clip-path="url(#p750daabe72)">
     <use style="fill:#ff0000;stroke:#ff0000;" x="84.837679" xlink:href="#m9044eed69f" y="201.664014"/>
     <use style="fill:#ff0000;stroke:#ff0000;" x="85.007992" xlink:href="#m9044eed69f" y="209.121629"/>
    </g>
   </g>
   <g id="line2d_17">
    <path clip-path="url(#p750daabe72)" d="M 117.541035 212.153586 
L 117.606256 219.667219 
" style="fill:none;stroke:#ff0000;stroke-linecap:square;stroke-width:1.5;"/>
    <g clip-path="url(#p750daabe72)">
     <use style="fill:#ff0000;stroke:#ff0000;" x="117.541035" xlink:href="#m9044eed69f" y="212.153586"/>
     <use style="fill:#ff0000;stroke:#ff0000;" x="117.606256" xlink:href="#m9044eed69f" y="219.667219"/>
    </g>
   </g>
   <g id="line2d_18">
    <path clip-path="url(#p750daabe72)" d="M 151.439462 157.482125 
L 151.418029 161.077905 
" style="fill:none;stroke:#ff0000;stroke-linecap:square;stroke-width:1.5;"/>
    <g clip-path="url(#p750daabe72)">
     <use style="fill:#ff0000;stroke:#ff0000;" x="151.439462" xlink:href="#m9044eed69f" y="157.482125"/>
     <use style="fill:#ff0000;stroke:#ff0000;" x="151.418029" xlink:href="#m9044eed69f" y="161.077905"/>
    </g>
   </g>
   <g id="line2d_19">
    <path clip-path="url(#p750daabe72)" d="M 78.195222 167.328226 
L 78.448784 177.333308 
" style="fill:none;stroke:#0000ff;stroke-linecap:square;stroke-width:1.5;"/>
    <defs>
     <path d="M 3 0 
L -3 -0 
" id="m77af2b8f69" style="stroke:#0000ff;"/>
    </defs>
    <g clip-path="url(#p750daabe72)">
     <use style="fill:#0000ff;stroke:#0000ff;" x="78.195222" xlink:href="#m77af2b8f69" y="167.328226"/>
     <use style="fill:#0000ff;stroke:#0000ff;" x="78.448784" xlink:href="#m77af2b8f69" y="177.333308"/>
    </g>
   </g>
   <g id="line2d_20">
    <path clip-path="url(#p750daabe72)" d="M 109.615511 175.686414 
L 109.761489 187.905679 
" style="fill:none;stroke:#0000ff;stroke-linecap:square;stroke-width:1.5;"/>
    <g clip-path="url(#p750daabe72)">
     <use style="fill:#0000ff;stroke:#0000ff;" x="109.615511" xlink:href="#m77af2b8f69" y="175.686414"/>
     <use style="fill:#0000ff;stroke:#0000ff;" x="109.761489" xlink:href="#m77af2b8f69" y="187.905679"/>
    </g>
   </g>
   <g id="line2d_21">
    <path clip-path="url(#p750daabe72)" d="M 141.813575 186.915587 
L 141.789679 199.598764 
" style="fill:none;stroke:#0000ff;stroke-linecap:square;stroke-width:1.5;"/>
    <g clip-path="url(#p750daabe72)">
     <use style="fill:#0000ff;stroke:#0000ff;" x="141.813575" xlink:href="#m77af2b8f69" y="186.915587"/>
     <use style="fill:#0000ff;stroke:#0000ff;" x="141.789679" xlink:href="#m77af2b8f69" y="199.598764"/>
    </g>
   </g>
   <g id="line2d_22">
    <path clip-path="url(#p750daabe72)" d="M 174.673331 202.976889 
L 174.601338 207.429127 
" style="fill:none;stroke:#0000ff;stroke-linecap:square;stroke-width:1.5;"/>
    <g clip-path="url(#p750daabe72)">
     <use style="fill:#0000ff;stroke:#0000ff;" x="174.673331" xlink:href="#m77af2b8f69" y="202.976889"/>
     <use style="fill:#0000ff;stroke:#0000ff;" x="174.601338" xlink:href="#m77af2b8f69" y="207.429127"/>
    </g>
   </g>
   <g id="line2d_23">
    <path clip-path="url(#p750daabe72)" d="M 102.313301 146.802534 
L 102.45994 156.646388 
" style="fill:none;stroke:#008000;stroke-linecap:square;stroke-width:1.5;"/>
    <defs>
     <path d="M 3 0 
L -3 -0 
" id="me775023554" style="stroke:#008000;"/>
    </defs>
    <g clip-path="url(#p750daabe72)">
     <use style="fill:#008000;stroke:#008000;" x="102.313301" xlink:href="#me775023554" y="146.802534"/>
     <use style="fill:#008000;stroke:#008000;" x="102.45994" xlink:href="#me775023554" y="156.646388"/>
    </g>
   </g>
   <g id="line2d_24">
    <path clip-path="url(#p750daabe72)" d="M 133.237205 155.977449 
L 133.259393 168.363383 
" style="fill:none;stroke:#008000;stroke-linecap:square;stroke-width:1.5;"/>
    <g clip-path="url(#p750daabe72)">
     <use style="fill:#008000;stroke:#008000;" x="133.237205" xlink:href="#me775023554" y="155.977449"/>
     <use style="fill:#008000;stroke:#008000;" x="133.259393" xlink:href="#me775023554" y="168.363383"/>
    </g>
   </g>
   <g id="line2d_25">
    <path clip-path="url(#p750daabe72)" d="M 164.891687 164.136314 
L 164.749702 176.247514 
" style="fill:none;stroke:#008000;stroke-linecap:square;stroke-width:1.5;"/>
    <g clip-path="url(#p750daabe72)">
     <use style="fill:#008000;stroke:#008000;" x="164.891687" xlink:href="#me775023554" y="164.136314"/>
     <use style="fill:#008000;stroke:#008000;" x="164.749702" xlink:href="#me775023554" y="176.247514"/>
    </g>
   </g>
   <g id="line2d_26">
    <path clip-path="url(#p750daabe72)" d="M 197.107289 180.871455 
L 196.99486 185.251646 
" style="fill:none;stroke:#008000;stroke-linecap:square;stroke-width:1.5;"/>
    <g clip-path="url(#p750daabe72)">
     <use style="fill:#008000;stroke:#008000;" x="197.107289" xlink:href="#me775023554" y="180.871455"/>
     <use style="fill:#008000;stroke:#008000;" x="196.99486" xlink:href="#me775023554" y="185.251646"/>
    </g>
   </g>
   <g id="line2d_27">
    <path clip-path="url(#p750daabe72)" d="M 125.008124 77.130335 
L 125.027087 80.83232 
" style="fill:none;stroke:#bfbf00;stroke-linecap:square;stroke-width:1.5;"/>
    <defs>
     <path d="M 3 0 
L -3 -0 
" id="m05e4ba36c3" style="stroke:#bfbf00;"/>
    </defs>
    <g clip-path="url(#p750daabe72)">
     <use style="fill:#bfbf00;stroke:#bfbf00;" x="125.008124" xlink:href="#m05e4ba36c3" y="77.130335"/>
     <use style="fill:#bfbf00;stroke:#bfbf00;" x="125.027087" xlink:href="#m05e4ba36c3" y="80.83232"/>
    </g>
   </g>
   <g id="line2d_28">
    <path clip-path="url(#p750daabe72)" d="M 155.656622 140.209841 
L 155.624436 144.389751 
" style="fill:none;stroke:#bfbf00;stroke-linecap:square;stroke-width:1.5;"/>
    <g clip-path="url(#p750daabe72)">
     <use style="fill:#bfbf00;stroke:#bfbf00;" x="155.656622" xlink:href="#m05e4ba36c3" y="140.209841"/>
     <use style="fill:#bfbf00;stroke:#bfbf00;" x="155.624436" xlink:href="#m05e4ba36c3" y="144.389751"/>
    </g>
   </g>
   <g id="line2d_29">
    <path clip-path="url(#p750daabe72)" d="M 186.710527 149.223407 
L 186.62248 153.434151 
" style="fill:none;stroke:#bfbf00;stroke-linecap:square;stroke-width:1.5;"/>
    <g clip-path="url(#p750daabe72)">
     <use style="fill:#bfbf00;stroke:#bfbf00;" x="186.710527" xlink:href="#m05e4ba36c3" y="149.223407"/>
     <use style="fill:#bfbf00;stroke:#bfbf00;" x="186.62248" xlink:href="#m05e4ba36c3" y="153.434151"/>
    </g>
   </g>
   <g id="line2d_30">
    <path clip-path="url(#p750daabe72)" d="M 218.559609 155.879332 
L 218.488146 157.949165 
" style="fill:none;stroke:#bfbf00;stroke-linecap:square;stroke-width:1.5;"/>
    <g clip-path="url(#p750daabe72)">
     <use style="fill:#bfbf00;stroke:#bfbf00;" x="218.559609" xlink:href="#m05e4ba36c3" y="155.879332"/>
     <use style="fill:#bfbf00;stroke:#bfbf00;" x="218.488146" xlink:href="#m05e4ba36c3" y="157.949165"/>
    </g>
   </g>
   <g id="patch_6">
    <path clip-path="url(#p750daabe72)" d="M 143.415622 141.432133 
L 167.932803 148.590984 
L 167.967756 145.889057 
L 143.422406 138.745991 
L 143.415622 141.432133 
" style="fill:#bfbf00;opacity:0.5;"/>
   </g>
   <g id="text_12">
    <!-- $0.914$ -->
    <g transform="translate(48.990893 84.131255)scale(0.22 -0.22)">
     <defs>
      <path d="M 35.203125 29.125 
C 35.203125 7.25 26.09375 0.484375 18.59375 0.484375 
C 16.296875 0.484375 10.703125 0.484375 8.40625 4.59375 
C 11 4.1875 12.90625 5.578125 12.90625 8.09375 
C 12.90625 10.8125 10.703125 11.703125 9.296875 11.703125 
C 8.40625 11.703125 5.703125 11.296875 5.703125 7.90625 
C 5.703125 1.109375 11.59375 -2 18.796875 -2 
C 30.296875 -2 42 10.53125 42 32.390625 
C 42 59.640625 30.796875 65.296875 23.203125 65.296875 
C 13.296875 65.296875 3.796875 56.6875 3.796875 43.40625 
C 3.796875 31.109375 11.90625 22 22.09375 22 
C 30.5 22 34.203125 29.734375 35.203125 33 
z
M 22.296875 23.59375 
C 19.59375 23.59375 15.796875 24.09375 12.703125 30.03125 
C 10.59375 33.890625 10.59375 38.453125 10.59375 43.296875 
C 10.59375 49.15625 10.59375 53.203125 13.40625 57.5625 
C 14.796875 59.640625 17.40625 63 23.203125 63 
C 35 63 35 45.078125 35 41.125 
C 35 34.09375 31.796875 23.59375 22.296875 23.59375 
z
" id="CMR17-57"/>
      <path d="M 33.59375 64.40625 
C 33.59375 66.5 33.5 66.5 31.703125 66.5 
L 2 19.59375 
L 2 17 
L 27.796875 17 
L 27.796875 7.140625 
C 27.796875 3.5 27.59375 2.5 20.59375 2.5 
L 18.703125 2.5 
L 18.703125 0 
C 21.90625 0 27.296875 0 30.703125 0 
C 34.09375 0 39.5 0 42.703125 0 
L 42.703125 2.5 
L 40.796875 2.5 
C 33.796875 2.5 33.59375 3.5 33.59375 7.140625 
L 33.59375 17 
L 43.796875 17 
L 43.796875 19.59375 
L 33.59375 19.59375 
z
M 28.09375 57.859375 
L 28.09375 19.59375 
L 4 19.59375 
z
" id="CMR17-52"/>
     </defs>
     <use transform="scale(0.996264)" xlink:href="#CMR17-48"/>
     <use transform="translate(45.690477 0)scale(0.996264)" xlink:href="#CMMI12-58"/>
     <use transform="translate(72.787654 0)scale(0.996264)" xlink:href="#CMR17-57"/>
     <use transform="translate(118.478131 0)scale(0.996264)" xlink:href="#CMR17-49"/>
     <use transform="translate(164.168608 0)scale(0.996264)" xlink:href="#CMR17-52"/>
    </g>
   </g>
   <g id="text_13">
    <!-- $|\Upsilon_0|$ -->
    <g transform="translate(250.55087 20.192376)scale(0.28 -0.28)">
     <defs>
      <path d="M 39.296875 35.140625 
C 39.296875 39.546875 39.90625 48.03125 42.59375 54.515625 
C 45.40625 61 49.796875 64 55.203125 64 
C 58.40625 64 64.296875 62.203125 65.203125 54.90625 
C 65.296875 54.109375 65.296875 53.8125 66.203125 53.8125 
C 67.203125 53.8125 67.296875 54.109375 67.296875 55.109375 
C 67.296875 60.40625 63.796875 69.703125 55.09375 69.703125 
C 39.90625 69.703125 36.796875 50.328125 36.09375 45.234375 
L 36 45.234375 
C 35.203125 50.421875 32 69.703125 16.796875 69.703125 
C 8 69.703125 4.59375 60.3125 4.59375 55.109375 
C 4.59375 54.109375 4.703125 53.8125 5.703125 53.8125 
C 6.59375 53.8125 6.59375 54.109375 6.703125 54.90625 
C 7.59375 62.296875 13.5 64 16.703125 64 
C 31.703125 64 32.703125 41.140625 32.703125 35.140625 
L 32.703125 7.09375 
C 32.703125 3.5 32.5 2.5 24.90625 2.5 
L 22.703125 2.5 
L 22.703125 0 
C 26.90625 0 31.796875 0 36 0 
C 40.203125 0 45.09375 0 49.296875 0 
L 49.296875 2.5 
L 47.09375 2.5 
C 39.5 2.5 39.296875 3.5 39.296875 7.09375 
z
" id="CMR17-7"/>
     </defs>
     <use transform="scale(0.996264)" xlink:href="#CMSY10-106"/>
     <use transform="translate(27.674085 0)scale(0.996264)" xlink:href="#CMR17-7"/>
     <use transform="translate(99.388873 -14.943915)scale(0.697382)" xlink:href="#CMR17-48"/>
     <use transform="translate(131.870187 0)scale(0.996264)" xlink:href="#CMSY10-106"/>
    </g>
   </g>
   <g id="patch_7">
    <path clip-path="url(#p750daabe72)" d="M 174.130606 150.400701 
L 199.20142 157.721209 
L 199.273023 154.99936 
L 174.17276 147.694806 
L 174.130606 150.400701 
" style="fill:#bfbf00;opacity:0.5;"/>
   </g>
   <g id="patch_8">
    <path clip-path="url(#p750daabe72)" d="M 113.372244 132.65967 
L 137.353929 139.66216 
L 137.351705 82.326298 
L 112.79399 75.669128 
L 113.372244 132.65967 
" style="fill:#bfbf00;opacity:0.5;"/>
   </g>
   <g id="patch_9">
    <path clip-path="url(#p750daabe72)" d="M 90.318552 152.163245 
L 114.686469 159.515737 
L 114.646687 155.415486 
L 90.236915 148.087064 
L 90.318552 152.163245 
" style="fill:#008000;opacity:0.5;"/>
   </g>
   <g id="patch_10">
    <path clip-path="url(#p750daabe72)" d="M 205.539972 159.572023 
L 231.183386 167.059727 
L 231.440085 160.656651 
L 205.724756 153.206688 
L 205.539972 159.572023 
" style="fill:#bfbf00;opacity:0.5;"/>
   </g>
   <g id="patch_11">
    <path clip-path="url(#p750daabe72)" d="M 120.847461 161.374683 
L 145.77316 168.895474 
L 145.783638 165.95563 
L 120.826765 158.452138 
L 120.847461 161.374683 
" style="fill:#008000;opacity:0.5;"/>
   </g>
   <g id="patch_12">
    <path clip-path="url(#p750daabe72)" d="M 152.075986 170.797215 
L 177.57884 178.49215 
L 177.655294 174.059682 
L 152.103601 166.390931 
L 152.075986 170.797215 
" style="fill:#008000;opacity:0.5;"/>
   </g>
   <g id="patch_13">
    <path clip-path="url(#p750daabe72)" d="M 66.103203 172.649591 
L 90.866222 180.378997 
L 90.782729 176.211694 
L 65.976499 168.506913 
L 66.103203 172.649591 
" style="fill:#0000ff;opacity:0.5;"/>
   </g>
   <g id="patch_14">
    <path clip-path="url(#p750daabe72)" d="M 184.028455 180.438182 
L 210.128745 188.31338 
L 210.169453 187.015714 
L 184.054303 179.148186 
L 184.028455 180.438182 
" style="fill:#008000;opacity:0.5;"/>
   </g>
   <g id="patch_15">
    <path clip-path="url(#p750daabe72)" d="M 97.128897 182.333797 
L 122.473342 190.244687 
L 122.444419 185.772746 
L 97.051741 177.888358 
L 97.128897 182.333797 
" style="fill:#0000ff;opacity:0.5;"/>
   </g>
   <g id="patch_16">
    <path clip-path="url(#p750daabe72)" d="M 128.883926 192.245655 
L 154.830517 200.344495 
L 154.853222 197.334168 
L 128.872849 189.253193 
L 128.883926 192.245655 
" style="fill:#0000ff;opacity:0.5;"/>
   </g>
   <g id="patch_17">
    <path clip-path="url(#p750daabe72)" d="M 161.394313 202.393286 
L 187.964767 210.686856 
L 187.993808 209.367845 
L 161.407949 201.08211 
L 161.394313 202.393286 
" style="fill:#0000ff;opacity:0.5;"/>
   </g>
   <g id="patch_18">
    <path clip-path="url(#p750daabe72)" d="M 72.169666 204.389236 
L 97.943026 212.721382 
L 97.88882 209.575524 
L 72.080948 201.262096 
L 72.169666 204.389236 
" style="fill:#ff0000;opacity:0.5;"/>
   </g>
   <g id="patch_19">
    <path clip-path="url(#p750daabe72)" d="M 104.464104 214.82955 
L 130.866186 223.364953 
L 130.857047 220.195501 
L 104.418737 211.678991 
L 104.464104 214.82955 
" style="fill:#ff0000;opacity:0.5;"/>
   </g>
   <g id="patch_20">
    <path clip-path="url(#p750daabe72)" d="M 137.547313 225.524862 
L 164.601406 234.271051 
L 165.448219 163.453882 
L 137.55045 155.150926 
L 137.547313 225.524862 
" style="fill:#ff0000;opacity:0.5;"/>
   </g>
   <g id="patch_21">
    <path clip-path="url(#p750daabe72)" d="M 40.636123 194.194908 
L 65.802955 202.330972 
L 19.314813 -1292.003135 
L -21.212221 -1282.25641 
L 40.636123 194.194908 
" style="fill:#ff0000;opacity:0.5;"/>
   </g>
  </g>
  <g id="patch_22">
   <path d="M 311.563636 260.836364 
L 565.2 260.836364 
L 565.2 7.2 
L 311.563636 7.2 
z
" style="fill:#ffffff;"/>
  </g>
  <g id="pane3d_4">
   <g id="patch_23">
    <path d="M 330.714931 198.297765 
L 414.473942 128.089301 
L 413.309611 26.836146 
L 325.5423 90.884732 
" style="fill:#f2f2f2;opacity:0.5;stroke:#f2f2f2;stroke-linejoin:miter;"/>
   </g>
  </g>
  <g id="pane3d_5">
   <g id="patch_24">
    <path d="M 414.473942 128.089301 
L 548.877268 167.155042 
L 553.673649 62.414338 
L 413.309611 26.836146 
" style="fill:#e6e6e6;opacity:0.5;stroke:#e6e6e6;stroke-linejoin:miter;"/>
   </g>
  </g>
  <g id="pane3d_6">
   <g id="patch_25">
    <path d="M 330.714931 198.297765 
L 473.189022 244.829803 
L 548.877268 167.155042 
L 414.473942 128.089301 
" style="fill:#ececec;opacity:0.5;stroke:#ececec;stroke-linejoin:miter;"/>
   </g>
  </g>
  <g id="axis3d_4">
   <g id="line2d_31">
    <path d="M 330.714931 198.297765 
L 473.189022 244.829803 
" style="fill:none;stroke:#000000;stroke-linecap:square;stroke-width:0.8;"/>
   </g>
   <g id="Line3DCollection_4">
    <path d="M 351.901093 205.217165 
L 434.5352 133.920317 
L 434.222976 32.137074 
" style="fill:none;stroke:#b0b0b0;stroke-width:0.8;"/>
    <path d="M 383.823056 215.642878 
L 464.712457 142.691654 
L 465.706835 40.117315 
" style="fill:none;stroke:#b0b0b0;stroke-width:0.8;"/>
    <path d="M 416.522835 226.322626 
L 495.563143 151.658731 
L 497.924142 48.283463 
" style="fill:none;stroke:#b0b0b0;stroke-width:0.8;"/>
    <path d="M 450.029211 237.265808 
L 527.110056 160.828173 
L 530.900827 56.642091 
" style="fill:none;stroke:#b0b0b0;stroke-width:0.8;"/>
   </g>
   <g id="xtick_12">
    <g id="line2d_32">
     <path d="M 352.620944 204.596076 
L 350.458287 206.462021 
" style="fill:none;stroke:#000000;stroke-linecap:square;stroke-width:0.8;"/>
    </g>
    <g id="text_14">
     <!-- $|00\rangle$ -->
     <g transform="translate(335.715935 248.24498)rotate(-45)scale(0.22 -0.22)">
      <use transform="scale(0.996264)" xlink:href="#CMSY10-106"/>
      <use transform="translate(27.674085 0)scale(0.996264)" xlink:href="#CMR17-48"/>
      <use transform="translate(73.364562 0)scale(0.996264)" xlink:href="#CMR17-48"/>
      <use transform="translate(119.055039 0)scale(0.996264)" xlink:href="#CMSY10-105"/>
     </g>
    </g>
   </g>
   <g id="xtick_13">
    <g id="line2d_33">
     <path d="M 384.5284 215.006753 
L 382.409289 216.917904 
" style="fill:none;stroke:#000000;stroke-linecap:square;stroke-width:0.8;"/>
    </g>
    <g id="text_15">
     <!-- $|01\rangle$ -->
     <g transform="translate(367.65351 258.771303)rotate(-45)scale(0.22 -0.22)">
      <use transform="scale(0.996264)" xlink:href="#CMSY10-106"/>
      <use transform="translate(27.674085 0)scale(0.996264)" xlink:href="#CMR17-48"/>
      <use transform="translate(73.364562 0)scale(0.996264)" xlink:href="#CMR17-49"/>
      <use transform="translate(119.055039 0)scale(0.996264)" xlink:href="#CMSY10-105"/>
     </g>
    </g>
   </g>
   <g id="xtick_14">
    <g id="line2d_34">
     <path d="M 417.212749 225.670913 
L 415.139961 227.628931 
" style="fill:none;stroke:#000000;stroke-linecap:square;stroke-width:0.8;"/>
    </g>
    <g id="text_16">
     <!-- $|10\rangle$ -->
     <g transform="translate(400.370638 269.554559)rotate(-45)scale(0.22 -0.22)">
      <use transform="scale(0.996264)" xlink:href="#CMSY10-106"/>
      <use transform="translate(27.674085 0)scale(0.996264)" xlink:href="#CMR17-49"/>
      <use transform="translate(73.364562 0)scale(0.996264)" xlink:href="#CMR17-48"/>
      <use transform="translate(119.055039 0)scale(0.996264)" xlink:href="#CMSY10-105"/>
     </g>
    </g>
   </g>
   <g id="xtick_15">
    <g id="line2d_35">
     <path d="M 450.702713 236.597926 
L 448.679195 238.604559 
" style="fill:none;stroke:#000000;stroke-linecap:square;stroke-width:0.8;"/>
    </g>
    <g id="text_17">
     <!-- $|11\rangle$ -->
     <g transform="translate(433.896214 280.604272)rotate(-45)scale(0.22 -0.22)">
      <use transform="scale(0.996264)" xlink:href="#CMSY10-106"/>
      <use transform="translate(27.674085 0)scale(0.996264)" xlink:href="#CMR17-49"/>
      <use transform="translate(73.364562 0)scale(0.996264)" xlink:href="#CMR17-49"/>
      <use transform="translate(119.055039 0)scale(0.996264)" xlink:href="#CMSY10-105"/>
     </g>
    </g>
   </g>
  </g>
  <g id="axis3d_5">
   <g id="line2d_36">
    <path d="M 548.877268 167.155042 
L 473.189022 244.829803 
" style="fill:none;stroke:#000000;stroke-linecap:square;stroke-width:0.8;"/>
   </g>
   <g id="Line3DCollection_5">
    <path d="M 331.611627 86.455614 
L 336.486635 193.459808 
L 478.426063 239.45531 
" style="fill:none;stroke:#b0b0b0;stroke-width:0.8;"/>
    <path d="M 358.47036 66.855333 
L 362.064658 172.019802 
L 501.596288 215.676959 
" style="fill:none;stroke:#b0b0b0;stroke-width:0.8;"/>
    <path d="M 383.956402 48.256781 
L 386.390444 151.629446 
L 523.574233 193.122181 
" style="fill:none;stroke:#b0b0b0;stroke-width:0.8;"/>
    <path d="M 408.172363 30.585075 
L 409.553754 132.2135 
L 544.449616 171.698903 
" style="fill:none;stroke:#b0b0b0;stroke-width:0.8;"/>
   </g>
   <g id="xtick_16">
    <g id="line2d_37">
     <path d="M 477.229935 239.067705 
L 480.821412 240.231524 
" style="fill:none;stroke:#000000;stroke-linecap:square;stroke-width:0.8;"/>
    </g>
    <g id="text_18">
     <!-- $\langle 00|$ -->
     <g transform="translate(472.400842 256.913298)rotate(-315)scale(0.22 -0.22)">
      <use transform="scale(0.996264)" xlink:href="#CMSY10-104"/>
      <use transform="translate(38.743734 0)scale(0.996264)" xlink:href="#CMR17-48"/>
      <use transform="translate(84.434211 0)scale(0.996264)" xlink:href="#CMR17-48"/>
      <use transform="translate(130.124688 0)scale(0.996264)" xlink:href="#CMSY10-106"/>
     </g>
    </g>
   </g>
   <g id="xtick_17">
    <g id="line2d_38">
     <path d="M 500.422024 215.309551 
L 503.947774 216.4127 
" style="fill:none;stroke:#000000;stroke-linecap:square;stroke-width:0.8;"/>
    </g>
    <g id="text_19">
     <!-- $\langle 01|$ -->
     <g transform="translate(495.429343 232.97451)rotate(-315)scale(0.22 -0.22)">
      <use transform="scale(0.996264)" xlink:href="#CMSY10-104"/>
      <use transform="translate(38.743734 0)scale(0.996264)" xlink:href="#CMR17-48"/>
      <use transform="translate(84.434211 0)scale(0.996264)" xlink:href="#CMR17-49"/>
      <use transform="translate(130.124688 0)scale(0.996264)" xlink:href="#CMSY10-106"/>
     </g>
    </g>
   </g>
   <g id="xtick_18">
    <g id="line2d_39">
     <path d="M 522.421194 192.773432 
L 525.883139 193.820535 
" style="fill:none;stroke:#000000;stroke-linecap:square;stroke-width:0.8;"/>
    </g>
    <g id="text_20">
     <!-- $\langle 10|$ -->
     <g transform="translate(517.272549 210.267872)rotate(-315)scale(0.22 -0.22)">
      <use transform="scale(0.996264)" xlink:href="#CMSY10-104"/>
      <use transform="translate(38.743734 0)scale(0.996264)" xlink:href="#CMR17-49"/>
      <use transform="translate(84.434211 0)scale(0.996264)" xlink:href="#CMR17-48"/>
      <use transform="translate(130.124688 0)scale(0.996264)" xlink:href="#CMSY10-106"/>
     </g>
    </g>
   </g>
   <g id="xtick_19">
    <g id="line2d_40">
     <path d="M 543.317177 171.367426 
L 546.717201 172.362648 
" style="fill:none;stroke:#000000;stroke-linecap:square;stroke-width:0.8;"/>
    </g>
    <g id="text_21">
     <!-- $\langle 11|$ -->
     <g transform="translate(538.019676 188.700638)rotate(-315)scale(0.22 -0.22)">
      <use transform="scale(0.996264)" xlink:href="#CMSY10-104"/>
      <use transform="translate(38.743734 0)scale(0.996264)" xlink:href="#CMR17-49"/>
      <use transform="translate(84.434211 0)scale(0.996264)" xlink:href="#CMR17-49"/>
      <use transform="translate(130.124688 0)scale(0.996264)" xlink:href="#CMSY10-106"/>
     </g>
    </g>
   </g>
  </g>
  <g id="axis3d_6">
   <g id="line2d_41">
    <path d="M 548.877268 167.155042 
L 553.673649 62.414338 
" style="fill:none;stroke:#000000;stroke-linecap:square;stroke-width:0.8;"/>
   </g>
   <g id="Line3DCollection_6">
    <path d="M 548.969162 165.148326 
L 414.451588 126.145382 
L 330.615993 196.24325 
" style="fill:none;stroke:#b0b0b0;stroke-width:0.8;"/>
    <path d="M 551.222919 115.932023 
L 413.903916 78.51844 
L 328.187456 145.813109 
" style="fill:none;stroke:#b0b0b0;stroke-width:0.8;"/>
    <path d="M 553.573514 64.601035 
L 413.333869 28.945668 
L 325.650469 93.130925 
" style="fill:none;stroke:#b0b0b0;stroke-width:0.8;"/>
   </g>
   <g id="xtick_20">
    <g id="line2d_42">
     <path d="M 547.840143 164.820971 
L 551.229886 165.803816 
" style="fill:none;stroke:#000000;stroke-linecap:square;stroke-width:0.8;"/>
    </g>
    <g id="text_22">
     <!-- $\mathdefault{0.00}$ -->
     <g transform="translate(558.641268 176.169361)rotate(-345)scale(0.22 -0.22)">
      <use transform="scale(0.996264)" xlink:href="#CMR17-48"/>
      <use transform="translate(45.690477 0)scale(0.996264)" xlink:href="#CMMI12-58"/>
      <use transform="translate(72.787654 0)scale(0.996264)" xlink:href="#CMR17-48"/>
      <use transform="translate(118.478131 0)scale(0.996264)" xlink:href="#CMR17-48"/>
     </g>
    </g>
   </g>
   <g id="xtick_21">
    <g id="line2d_43">
     <path d="M 550.069253 115.617698 
L 553.533055 116.561436 
" style="fill:none;stroke:#000000;stroke-linecap:square;stroke-width:0.8;"/>
    </g>
    <g id="text_23">
     <!-- $\mathdefault{0.05}$ -->
     <g transform="translate(561.480775 127.115164)rotate(-345)scale(0.22 -0.22)">
      <use transform="scale(0.996264)" xlink:href="#CMR17-48"/>
      <use transform="translate(45.690477 0)scale(0.996264)" xlink:href="#CMMI12-58"/>
      <use transform="translate(72.787654 0)scale(0.996264)" xlink:href="#CMR17-48"/>
      <use transform="translate(118.478131 0)scale(0.996264)" xlink:href="#CMR17-53"/>
     </g>
    </g>
   </g>
   <g id="xtick_22">
    <g id="line2d_44">
     <path d="M 552.394102 64.301175 
L 555.935266 65.201501 
" style="fill:none;stroke:#000000;stroke-linecap:square;stroke-width:0.8;"/>
    </g>
    <g id="text_24">
     <!-- $\mathdefault{0.10}$ -->
     <g transform="translate(564.441661 75.964058)rotate(-345)scale(0.22 -0.22)">
      <use transform="scale(0.996264)" xlink:href="#CMR17-48"/>
      <use transform="translate(45.690477 0)scale(0.996264)" xlink:href="#CMMI12-58"/>
      <use transform="translate(72.787654 0)scale(0.996264)" xlink:href="#CMR17-49"/>
      <use transform="translate(118.478131 0)scale(0.996264)" xlink:href="#CMR17-48"/>
     </g>
    </g>
   </g>
  </g>
  <g id="axes_2">
   <g id="line2d_45">
    <path clip-path="url(#p8087b7f3ea)" d="M 357.465903 196.664481 
L 357.507936 197.814981 
" style="fill:none;stroke:#ff0000;stroke-linecap:square;stroke-width:1.5;"/>
    <g clip-path="url(#p8087b7f3ea)">
     <use style="fill:#ff0000;stroke:#ff0000;" x="357.465903" xlink:href="#m9044eed69f" y="196.664481"/>
     <use style="fill:#ff0000;stroke:#ff0000;" x="357.507936" xlink:href="#m9044eed69f" y="197.814981"/>
    </g>
   </g>
   <g id="line2d_46">
    <path clip-path="url(#p8087b7f3ea)" d="M 389.234454 203.115092 
L 389.356757 208.470431 
" style="fill:none;stroke:#ff0000;stroke-linecap:square;stroke-width:1.5;"/>
    <g clip-path="url(#p8087b7f3ea)">
     <use style="fill:#ff0000;stroke:#ff0000;" x="389.234454" xlink:href="#m9044eed69f" y="203.115092"/>
     <use style="fill:#ff0000;stroke:#ff0000;" x="389.356757" xlink:href="#m9044eed69f" y="208.470431"/>
    </g>
   </g>
   <g id="line2d_47">
    <path clip-path="url(#p8087b7f3ea)" d="M 421.917363 213.615611 
L 421.964197 219.011153 
" style="fill:none;stroke:#ff0000;stroke-linecap:square;stroke-width:1.5;"/>
    <g clip-path="url(#p8087b7f3ea)">
     <use style="fill:#ff0000;stroke:#ff0000;" x="421.917363" xlink:href="#m9044eed69f" y="213.615611"/>
     <use style="fill:#ff0000;stroke:#ff0000;" x="421.964197" xlink:href="#m9044eed69f" y="219.011153"/>
    </g>
   </g>
   <g id="line2d_48">
    <path clip-path="url(#p8087b7f3ea)" d="M 455.490932 209.854854 
L 455.460536 214.954561 
" style="fill:none;stroke:#ff0000;stroke-linecap:square;stroke-width:1.5;"/>
    <g clip-path="url(#p8087b7f3ea)">
     <use style="fill:#ff0000;stroke:#ff0000;" x="455.490932" xlink:href="#m9044eed69f" y="209.854854"/>
     <use style="fill:#ff0000;stroke:#ff0000;" x="455.460536" xlink:href="#m9044eed69f" y="214.954561"/>
    </g>
   </g>
   <g id="line2d_49">
    <path clip-path="url(#p8087b7f3ea)" d="M 382.723471 173.823525 
L 382.814925 177.432137 
" style="fill:none;stroke:#0000ff;stroke-linecap:square;stroke-width:1.5;"/>
    <g clip-path="url(#p8087b7f3ea)">
     <use style="fill:#0000ff;stroke:#0000ff;" x="382.723471" xlink:href="#m77af2b8f69" y="173.823525"/>
     <use style="fill:#0000ff;stroke:#0000ff;" x="382.814925" xlink:href="#m77af2b8f69" y="177.432137"/>
    </g>
   </g>
   <g id="line2d_50">
    <path clip-path="url(#p8087b7f3ea)" d="M 414.04282 181.016165 
L 414.146466 189.692 
" style="fill:none;stroke:#0000ff;stroke-linecap:square;stroke-width:1.5;"/>
    <g clip-path="url(#p8087b7f3ea)">
     <use style="fill:#0000ff;stroke:#0000ff;" x="414.04282" xlink:href="#m77af2b8f69" y="181.016165"/>
     <use style="fill:#0000ff;stroke:#0000ff;" x="414.146466" xlink:href="#m77af2b8f69" y="189.692"/>
    </g>
   </g>
   <g id="line2d_51">
    <path clip-path="url(#p8087b7f3ea)" d="M 446.173869 188.689413 
L 446.149548 201.598146 
" style="fill:none;stroke:#0000ff;stroke-linecap:square;stroke-width:1.5;"/>
    <g clip-path="url(#p8087b7f3ea)">
     <use style="fill:#0000ff;stroke:#0000ff;" x="446.173869" xlink:href="#m77af2b8f69" y="188.689413"/>
     <use style="fill:#0000ff;stroke:#0000ff;" x="446.149548" xlink:href="#m77af2b8f69" y="201.598146"/>
    </g>
   </g>
   <g id="line2d_52">
    <path clip-path="url(#p8087b7f3ea)" d="M 479.097944 199.205887 
L 478.935681 209.240757 
" style="fill:none;stroke:#0000ff;stroke-linecap:square;stroke-width:1.5;"/>
    <g clip-path="url(#p8087b7f3ea)">
     <use style="fill:#0000ff;stroke:#0000ff;" x="479.097944" xlink:href="#m77af2b8f69" y="199.205887"/>
     <use style="fill:#0000ff;stroke:#0000ff;" x="478.935681" xlink:href="#m77af2b8f69" y="209.240757"/>
    </g>
   </g>
   <g id="line2d_53">
    <path clip-path="url(#p8087b7f3ea)" d="M 406.772132 153.192926 
L 406.825025 156.743635 
" style="fill:none;stroke:#008000;stroke-linecap:square;stroke-width:1.5;"/>
    <g clip-path="url(#p8087b7f3ea)">
     <use style="fill:#008000;stroke:#008000;" x="406.772132" xlink:href="#me775023554" y="153.192926"/>
     <use style="fill:#008000;stroke:#008000;" x="406.825025" xlink:href="#me775023554" y="156.743635"/>
    </g>
   </g>
   <g id="line2d_54">
    <path clip-path="url(#p8087b7f3ea)" d="M 437.603944 157.709406 
L 437.626528 170.316359 
" style="fill:none;stroke:#008000;stroke-linecap:square;stroke-width:1.5;"/>
    <g clip-path="url(#p8087b7f3ea)">
     <use style="fill:#008000;stroke:#008000;" x="437.603944" xlink:href="#me775023554" y="157.709406"/>
     <use style="fill:#008000;stroke:#008000;" x="437.626528" xlink:href="#me775023554" y="170.316359"/>
    </g>
   </g>
   <g id="line2d_55">
    <path clip-path="url(#p8087b7f3ea)" d="M 469.193395 169.418714 
L 469.09258 178.018184 
" style="fill:none;stroke:#008000;stroke-linecap:square;stroke-width:1.5;"/>
    <g clip-path="url(#p8087b7f3ea)">
     <use style="fill:#008000;stroke:#008000;" x="469.193395" xlink:href="#me775023554" y="169.418714"/>
     <use style="fill:#008000;stroke:#008000;" x="469.09258" xlink:href="#me775023554" y="178.018184"/>
    </g>
   </g>
   <g id="line2d_56">
    <path clip-path="url(#p8087b7f3ea)" d="M 501.566144 177.161815 
L 501.312745 187.034083 
" style="fill:none;stroke:#008000;stroke-linecap:square;stroke-width:1.5;"/>
    <g clip-path="url(#p8087b7f3ea)">
     <use style="fill:#008000;stroke:#008000;" x="501.566144" xlink:href="#me775023554" y="177.161815"/>
     <use style="fill:#008000;stroke:#008000;" x="501.312745" xlink:href="#me775023554" y="187.034083"/>
    </g>
   </g>
   <g id="line2d_57">
    <path clip-path="url(#p8087b7f3ea)" d="M 429.160913 35.967756 
L 429.171788 38.090949 
" style="fill:none;stroke:#bfbf00;stroke-linecap:square;stroke-width:1.5;"/>
    <g clip-path="url(#p8087b7f3ea)">
     <use style="fill:#bfbf00;stroke:#bfbf00;" x="429.160913" xlink:href="#m05e4ba36c3" y="35.967756"/>
     <use style="fill:#bfbf00;stroke:#bfbf00;" x="429.171788" xlink:href="#m05e4ba36c3" y="38.090949"/>
    </g>
   </g>
   <g id="line2d_58">
    <path clip-path="url(#p8087b7f3ea)" d="M 460.136083 125.167767 
L 460.076833 132.862496 
" style="fill:none;stroke:#bfbf00;stroke-linecap:square;stroke-width:1.5;"/>
    <g clip-path="url(#p8087b7f3ea)">
     <use style="fill:#bfbf00;stroke:#bfbf00;" x="460.136083" xlink:href="#m05e4ba36c3" y="125.167767"/>
     <use style="fill:#bfbf00;stroke:#bfbf00;" x="460.076833" xlink:href="#m05e4ba36c3" y="132.862496"/>
    </g>
   </g>
   <g id="line2d_59">
    <path clip-path="url(#p8087b7f3ea)" d="M 491.391045 134.068991 
L 491.22894 141.82146 
" style="fill:none;stroke:#bfbf00;stroke-linecap:square;stroke-width:1.5;"/>
    <g clip-path="url(#p8087b7f3ea)">
     <use style="fill:#bfbf00;stroke:#bfbf00;" x="491.391045" xlink:href="#m05e4ba36c3" y="134.068991"/>
     <use style="fill:#bfbf00;stroke:#bfbf00;" x="491.22894" xlink:href="#m05e4ba36c3" y="141.82146"/>
    </g>
   </g>
   <g id="line2d_60">
    <path clip-path="url(#p8087b7f3ea)" style="fill:none;stroke:#bfbf00;stroke-linecap:square;stroke-width:1.5;"/>
    <g clip-path="url(#p8087b7f3ea)"/>
   </g>
   <g id="patch_26">
    <path clip-path="url(#p8087b7f3ea)" d="M 447.779259 141.432133 
L 472.296439 148.590984 
L 472.503704 132.56938 
L 447.819484 125.504927 
L 447.779259 141.432133 
" style="fill:#bfbf00;opacity:0.5;"/>
   </g>
   <g id="text_25">
    <!-- $0.833$ -->
    <g transform="translate(526.49622 52.392447)scale(0.22 -0.22)">
     <defs>
      <path d="M 27.203125 35.375 
C 33.5 38.546875 39.90625 43.328125 39.90625 50.984375 
C 39.90625 60.015625 31.09375 65.296875 23 65.296875 
C 13.90625 65.296875 5.90625 58.734375 5.90625 49.6875 
C 5.90625 47.203125 6.5 42.921875 10.40625 39.140625 
C 11.40625 38.15625 15.59375 35.171875 18.296875 33.28125 
C 13.796875 30.984375 3.296875 25.53125 3.296875 14.59375 
C 3.296875 4.359375 13.09375 -2 22.796875 -2 
C 33.5 -2 42.5 5.65625 42.5 15.78125 
C 42.5 24.84375 36.40625 29.015625 32.40625 31.703125 
z
M 14.09375 44.09375 
C 13.296875 44.59375 9.296875 47.671875 9.296875 52.359375 
C 9.296875 58.421875 15.59375 63 22.796875 63 
C 30.703125 63 36.5 57.4375 36.5 50.96875 
C 36.5 41.703125 26.09375 36.421875 25.59375 36.421875 
C 25.5 36.421875 25.40625 36.421875 24.59375 37.03125 
z
M 32.5 23.734375 
C 34 22.640625 38.796875 19.375 38.796875 13.296875 
C 38.796875 5.953125 31.40625 0.390625 23 0.390625 
C 13.90625 0.390625 7 6.84375 7 14.6875 
C 7 22.546875 13.09375 29.09375 20 32.1875 
z
" id="CMR17-56"/>
      <path d="M 22.09375 33.703125 
C 31 33.703125 34.90625 25.96875 34.90625 17.03125 
C 34.90625 5 28.5 0.390625 22.703125 0.390625 
C 17.40625 0.390625 8.796875 3.03125 6.09375 10.828125 
C 6.59375 10.625 7.09375 10.625 7.59375 10.625 
C 10 10.625 11.796875 12.21875 11.796875 14.8125 
C 11.796875 17.703125 9.59375 19 7.59375 19 
C 5.90625 19 3.296875 18.203125 3.296875 14.46875 
C 3.296875 5.234375 12.296875 -2 22.90625 -2 
C 34 -2 42.5 6.71875 42.5 16.953125 
C 42.5 26.671875 34.5 33.703125 25 34.796875 
C 32.59375 36.375 39.90625 43.0625 39.90625 52.015625 
C 39.90625 59.6875 32 65.296875 23 65.296875 
C 13.90625 65.296875 5.90625 59.828125 5.90625 52.015625 
C 5.90625 48.59375 8.5 48 9.796875 48 
C 11.90625 48 13.703125 49.296875 13.703125 51.890625 
C 13.703125 54.46875 11.90625 55.765625 9.796875 55.765625 
C 9.40625 55.765625 8.90625 55.765625 8.5 55.578125 
C 11.40625 61.859375 19.296875 63 22.796875 63 
C 26.296875 63 32.90625 61.328125 32.90625 51.875 
C 32.90625 49.109375 32.5 44.1875 29.09375 39.84375 
C 26.09375 36 22.703125 36 19.40625 35.6875 
C 18.90625 35.6875 16.59375 35.453125 16.203125 35.453125 
C 15.5 35.359375 15.09375 35.265625 15.09375 34.5 
C 15.09375 33.796875 15.203125 33.703125 17.203125 33.703125 
z
" id="CMR17-51"/>
     </defs>
     <use transform="scale(0.996264)" xlink:href="#CMR17-48"/>
     <use transform="translate(45.690477 0)scale(0.996264)" xlink:href="#CMMI12-58"/>
     <use transform="translate(72.787654 0)scale(0.996264)" xlink:href="#CMR17-56"/>
     <use transform="translate(118.478131 0)scale(0.996264)" xlink:href="#CMR17-51"/>
     <use transform="translate(164.168608 0)scale(0.996264)" xlink:href="#CMR17-51"/>
    </g>
   </g>
   <g id="text_26">
    <!-- $|\Upsilon_1|$ -->
    <g transform="translate(554.914506 20.192376)scale(0.28 -0.28)">
     <use transform="scale(0.996264)" xlink:href="#CMSY10-106"/>
     <use transform="translate(27.674085 0)scale(0.996264)" xlink:href="#CMR17-7"/>
     <use transform="translate(99.388873 -14.943915)scale(0.697382)" xlink:href="#CMR17-49"/>
     <use transform="translate(131.870187 0)scale(0.996264)" xlink:href="#CMSY10-106"/>
    </g>
   </g>
   <g id="patch_27">
    <path clip-path="url(#p8087b7f3ea)" d="M 394.682189 152.163245 
L 419.050105 159.515737 
L 419.041802 158.659902 
L 394.665149 151.312423 
L 394.682189 152.163245 
" style="fill:#008000;opacity:0.5;"/>
   </g>
   <g id="patch_28">
    <path clip-path="url(#p8087b7f3ea)" d="M 478.494243 150.400701 
L 503.565057 157.721209 
L 503.989668 141.580446 
L 478.744205 134.355369 
L 478.494243 150.400701 
" style="fill:#bfbf00;opacity:0.5;"/>
   </g>
   <g id="patch_29">
    <path clip-path="url(#p8087b7f3ea)" d="M 425.211097 161.374683 
L 450.136796 168.895474 
L 450.140686 167.804153 
L 425.203415 160.289776 
L 425.211097 161.374683 
" style="fill:#008000;opacity:0.5;"/>
   </g>
   <g id="patch_30">
    <path clip-path="url(#p8087b7f3ea)" d="M 417.735881 132.65967 
L 441.717566 139.66216 
L 441.713709 40.238583 
L 416.733311 33.850269 
L 417.735881 132.65967 
" style="fill:#bfbf00;opacity:0.5;"/>
   </g>
   <g id="patch_31">
    <path clip-path="url(#p8087b7f3ea)" d="M 456.439622 170.797215 
L 481.942476 178.49215 
L 481.958056 177.588894 
L 456.44525 169.899282 
L 456.439622 170.797215 
" style="fill:#008000;opacity:0.5;"/>
   </g>
   <g id="patch_32">
    <path clip-path="url(#p8087b7f3ea)" d="M 370.466839 172.649591 
L 395.229859 180.378997 
L 395.212432 179.509197 
L 370.440393 171.784919 
L 370.466839 172.649591 
" style="fill:#0000ff;opacity:0.5;"/>
   </g>
   <g id="patch_33">
    <path clip-path="url(#p8087b7f3ea)" d="M 488.392091 180.438182 
L 514.492381 188.31338 
L 514.563143 186.057694 
L 488.437022 178.195837 
L 488.392091 180.438182 
" style="fill:#008000;opacity:0.5;"/>
   </g>
   <g id="patch_34">
    <path clip-path="url(#p8087b7f3ea)" d="M 401.492533 182.333797 
L 426.836978 190.244687 
L 426.831084 189.333406 
L 401.47681 181.427904 
L 401.492533 182.333797 
" style="fill:#0000ff;opacity:0.5;"/>
   </g>
   <g id="patch_35">
    <path clip-path="url(#p8087b7f3ea)" d="M 433.247562 192.245655 
L 459.194153 200.344495 
L 459.202581 199.227043 
L 433.24345 191.134826 
L 433.247562 192.245655 
" style="fill:#0000ff;opacity:0.5;"/>
   </g>
   <g id="patch_36">
    <path clip-path="url(#p8087b7f3ea)" d="M 344.99976 194.194908 
L 370.166591 202.330972 
L 370.13527 201.324176 
L 344.957835 193.194081 
L 344.99976 194.194908 
" style="fill:#ff0000;opacity:0.5;"/>
   </g>
   <g id="patch_37">
    <path clip-path="url(#p8087b7f3ea)" d="M 465.75795 202.393286 
L 492.328403 210.686856 
L 492.378884 208.394042 
L 465.781652 200.114101 
L 465.75795 202.393286 
" style="fill:#0000ff;opacity:0.5;"/>
   </g>
   <g id="patch_38">
    <path clip-path="url(#p8087b7f3ea)" d="M 376.533303 204.389236 
L 402.306663 212.721382 
L 402.259318 209.973726 
L 376.455815 201.657924 
L 376.533303 204.389236 
" style="fill:#ff0000;opacity:0.5;"/>
   </g>
   <g id="patch_39">
    <path clip-path="url(#p8087b7f3ea)" d="M 408.827741 214.82955 
L 435.229822 223.364953 
L 435.22184 220.596695 
L 408.788116 212.077789 
L 408.827741 214.82955 
" style="fill:#ff0000;opacity:0.5;"/>
   </g>
   <g id="patch_40">
    <path clip-path="url(#p8087b7f3ea)" d="M 441.910949 225.524862 
L 468.965043 234.271051 
L 469.174565 216.749171 
L 441.911726 208.108657 
L 441.910949 225.524862 
" style="fill:#ff0000;opacity:0.5;"/>
   </g>
   <g id="patch_41">
    <path clip-path="url(#p8087b7f3ea)" d="M 509.903608 159.572023 
L 535.547022 167.059727 
L 584.703142 -1059.086603 
L 545.122379 -1053.624342 
L 509.903608 159.572023 
" style="fill:#bfbf00;opacity:0.5;"/>
   </g>
  </g>
 </g>
 <defs>
  <clipPath id="p750daabe72">
   <rect height="253.636364" width="253.636364" x="7.2" y="7.2"/>
  </clipPath>
  <clipPath id="p8087b7f3ea">
   <rect height="253.636364" width="253.636364" x="311.563636" y="7.2"/>
  </clipPath>
 </defs>
</svg>
