<?xml version="1.0" encoding="utf-8" standalone="no"?>
<!DOCTYPE svg PUBLIC "-//W3C//DTD SVG 1.1//EN"
  "http://www.w3.org/Graphics/SVG/1.1/DTD/svg11.dtd">
<svg height="564.288986pt" version="1.1" viewBox="0 0 291.894468 564.288986" width="291.894468pt" xmlns="http://www.w3.org/2000/svg" xmlns:xlink="http://www.w3.org/1999/xlink">
 <metadata>
  <rdf:RDF xmlns:cc="http://creativecommons.org/ns#" xmlns:dc="http://purl.org/dc/elements/1.1/" xmlns:rdf="http://www.w3.org/1999/02/22-rdf-syntax-ns#">
   <cc:Work>
    <dc:type rdf:resource="http://purl.org/dc/dcmitype/StillImage"/>
    <dc:date>2022-11-16T15:22:19.784820</dc:date>
    <dc:format>image/svg+xml</dc:format>
    <dc:creator>
     <cc:Agent>
      <dc:title>Matplotlib v3.4.2, https://matplotlib.org/</dc:title>
     </cc:Agent>
    </dc:creator>
   </cc:Work>
  </rdf:RDF>
 </metadata>
 <defs>
  <style type="text/css">*{stroke-linecap:butt;stroke-linejoin:round;}</style>
 </defs>
 <g id="figure_1">
  <g id="patch_1">
   <path d="M 0 564.288986 
L 291.894468 564.288986 
L 291.894468 0 
L 0 0 
z
" style="fill:none;"/>
  </g>
  <g id="patch_2">
   <path d="M 7.2 254.290909 
L 254.290909 254.290909 
L 254.290909 7.2 
L 7.2 7.2 
z
" style="fill:none;"/>
  </g>
  <g id="pane3d_1">
   <g id="patch_3">
    <path d="M 25.857068 193.36621 
L 107.454555 124.969577 
L 106.320272 26.329407 
L 20.817924 88.725126 
" style="fill:#f2f2f2;opacity:0.5;stroke:#f2f2f2;stroke-linejoin:miter;"/>
   </g>
  </g>
  <g id="pane3d_2">
   <g id="patch_4">
    <path d="M 107.454555 124.969577 
L 238.389409 163.02717 
L 243.062013 60.989452 
L 106.320272 26.329407 
" style="fill:#e6e6e6;opacity:0.5;stroke:#e6e6e6;stroke-linejoin:miter;"/>
   </g>
  </g>
  <g id="pane3d_3">
   <g id="patch_5">
    <path d="M 25.857068 193.36621 
L 164.654408 238.697421 
L 238.389409 163.02717 
L 107.454555 124.969577 
" style="fill:#ececec;opacity:0.5;stroke:#ececec;stroke-linejoin:miter;"/>
   </g>
  </g>
  <g id="axis3d_1">
   <g id="line2d_1">
    <path d="M 25.857068 193.36621 
L 164.654408 238.697421 
" style="fill:none;stroke:#000000;stroke-linecap:square;stroke-width:0.8;"/>
   </g>
   <g id="Line3DCollection_1">
    <path d="M 46.49649 200.107045 
L 126.998104 130.650115 
L 126.693938 31.493537 
" style="fill:none;stroke:#b0b0b0;stroke-width:0.8;"/>
    <path d="M 77.59466 210.263707 
L 156.396593 139.195095 
L 157.36531 39.267836 
" style="fill:none;stroke:#b0b0b0;stroke-width:0.8;"/>
    <path d="M 109.450574 220.667849 
L 186.451132 147.930763 
L 188.751202 47.223244 
" style="fill:none;stroke:#b0b0b0;stroke-width:0.8;"/>
    <path d="M 142.092269 231.328626 
L 217.183931 156.863575 
L 220.876876 55.366166 
" style="fill:none;stroke:#b0b0b0;stroke-width:0.8;"/>
   </g>
   <g id="xtick_1">
    <g id="line2d_2">
     <path d="M 47.197764 199.501984 
L 45.090918 201.319775 
" style="fill:none;stroke:#000000;stroke-linecap:square;stroke-width:0.8;"/>
    </g>
    <g id="text_1">
     <!-- $|00\rangle$ -->
     <g transform="translate(34.537818 226.550634)rotate(-45)scale(0.1 -0.1)">
      <defs>
       <path d="M 1344 4891 
L 1344 -1509 
L 813 -1509 
L 813 4891 
L 1344 4891 
z
" id="DejaVuSans-7c" transform="scale(0.015625)"/>
       <path d="M 2034 4250 
Q 1547 4250 1301 3770 
Q 1056 3291 1056 2328 
Q 1056 1369 1301 889 
Q 1547 409 2034 409 
Q 2525 409 2770 889 
Q 3016 1369 3016 2328 
Q 3016 3291 2770 3770 
Q 2525 4250 2034 4250 
z
M 2034 4750 
Q 2819 4750 3233 4129 
Q 3647 3509 3647 2328 
Q 3647 1150 3233 529 
Q 2819 -91 2034 -91 
Q 1250 -91 836 529 
Q 422 1150 422 2328 
Q 422 3509 836 4129 
Q 1250 4750 2034 4750 
z
" id="DejaVuSans-30" transform="scale(0.015625)"/>
       <path d="M 1925 2006 
L 1044 -844 
L 513 -844 
L 1394 2006 
L 513 4856 
L 1044 4856 
L 1925 2006 
z
" id="DejaVuSans-27e9" transform="scale(0.015625)"/>
      </defs>
      <use transform="translate(0 0.578125)" xlink:href="#DejaVuSans-7c"/>
      <use transform="translate(33.691406 0.578125)" xlink:href="#DejaVuSans-30"/>
      <use transform="translate(97.314453 0.578125)" xlink:href="#DejaVuSans-30"/>
      <use transform="translate(160.9375 0.578125)" xlink:href="#DejaVuSans-27e9"/>
     </g>
    </g>
   </g>
   <g id="xtick_2">
    <g id="line2d_3">
     <path d="M 78.281802 209.643998 
L 76.217377 211.505829 
" style="fill:none;stroke:#000000;stroke-linecap:square;stroke-width:0.8;"/>
    </g>
    <g id="text_2">
     <!-- $|01\rangle$ -->
     <g transform="translate(65.651599 236.807914)rotate(-45)scale(0.1 -0.1)">
      <defs>
       <path d="M 794 531 
L 1825 531 
L 1825 4091 
L 703 3866 
L 703 4441 
L 1819 4666 
L 2450 4666 
L 2450 531 
L 3481 531 
L 3481 0 
L 794 0 
L 794 531 
z
" id="DejaVuSans-31" transform="scale(0.015625)"/>
      </defs>
      <use transform="translate(0 0.578125)" xlink:href="#DejaVuSans-7c"/>
      <use transform="translate(33.691406 0.578125)" xlink:href="#DejaVuSans-30"/>
      <use transform="translate(97.314453 0.578125)" xlink:href="#DejaVuSans-31"/>
      <use transform="translate(160.9375 0.578125)" xlink:href="#DejaVuSans-27e9"/>
     </g>
    </g>
   </g>
   <g id="xtick_3">
    <g id="line2d_4">
     <path d="M 110.122684 220.032954 
L 108.103387 221.940443 
" style="fill:none;stroke:#000000;stroke-linecap:square;stroke-width:0.8;"/>
    </g>
    <g id="text_3">
     <!-- $|10\rangle$ -->
     <g transform="translate(97.524861 247.315573)rotate(-45)scale(0.1 -0.1)">
      <use transform="translate(0 0.578125)" xlink:href="#DejaVuSans-7c"/>
      <use transform="translate(33.691406 0.578125)" xlink:href="#DejaVuSans-31"/>
      <use transform="translate(97.314453 0.578125)" xlink:href="#DejaVuSans-30"/>
      <use transform="translate(160.9375 0.578125)" xlink:href="#DejaVuSans-27e9"/>
     </g>
    </g>
   </g>
   <g id="xtick_4">
    <g id="line2d_5">
     <path d="M 142.748391 230.67798 
L 140.777092 232.632828 
" style="fill:none;stroke:#000000;stroke-linecap:square;stroke-width:0.8;"/>
    </g>
    <g id="text_4">
     <!-- $|11\rangle$ -->
     <g transform="translate(130.185755 258.08289)rotate(-45)scale(0.1 -0.1)">
      <use transform="translate(0 0.578125)" xlink:href="#DejaVuSans-7c"/>
      <use transform="translate(33.691406 0.578125)" xlink:href="#DejaVuSans-31"/>
      <use transform="translate(97.314453 0.578125)" xlink:href="#DejaVuSans-31"/>
      <use transform="translate(160.9375 0.578125)" xlink:href="#DejaVuSans-27e9"/>
     </g>
    </g>
   </g>
  </g>
  <g id="axis3d_2">
   <g id="line2d_6">
    <path d="M 238.389409 163.02717 
L 164.654408 238.697421 
" style="fill:none;stroke:#000000;stroke-linecap:square;stroke-width:0.8;"/>
   </g>
   <g id="Line3DCollection_2">
    <path d="M 26.730623 84.410307 
L 31.479824 188.653104 
L 169.756299 233.461625 
" style="fill:none;stroke:#b0b0b0;stroke-width:0.8;"/>
    <path d="M 52.896228 65.315841 
L 56.39777 167.766387 
L 192.328584 210.296908 
" style="fill:none;stroke:#b0b0b0;stroke-width:0.8;"/>
    <path d="M 77.724565 47.197251 
L 80.095793 147.902234 
L 213.739355 188.324189 
" style="fill:none;stroke:#b0b0b0;stroke-width:0.8;"/>
    <path d="M 101.315598 29.98159 
L 102.661341 128.987345 
L 234.076019 167.45377 
" style="fill:none;stroke:#b0b0b0;stroke-width:0.8;"/>
   </g>
   <g id="xtick_5">
    <g id="line2d_7">
     <path d="M 168.591039 233.084022 
L 172.089833 234.217807 
" style="fill:none;stroke:#000000;stroke-linecap:square;stroke-width:0.8;"/>
    </g>
    <g id="text_5">
     <!-- $\langle 00|$ -->
     <g transform="translate(169.91007 244.740704)rotate(-315)scale(0.1 -0.1)">
      <defs>
       <path d="M 572 2006 
L 1453 4856 
L 1984 4856 
L 1103 2006 
L 1984 -844 
L 1453 -844 
L 572 2006 
z
" id="DejaVuSans-27e8" transform="scale(0.015625)"/>
      </defs>
      <use transform="translate(0 0.578125)" xlink:href="#DejaVuSans-27e8"/>
      <use transform="translate(39.013672 0.578125)" xlink:href="#DejaVuSans-30"/>
      <use transform="translate(102.636719 0.578125)" xlink:href="#DejaVuSans-30"/>
      <use transform="translate(166.259766 0.578125)" xlink:href="#DejaVuSans-7c"/>
     </g>
    </g>
   </g>
   <g id="xtick_6">
    <g id="line2d_8">
     <path d="M 191.184623 209.938982 
L 194.619385 211.013663 
" style="fill:none;stroke:#000000;stroke-linecap:square;stroke-width:0.8;"/>
    </g>
    <g id="text_6">
     <!-- $\langle 01|$ -->
     <g transform="translate(192.340628 221.415549)rotate(-315)scale(0.1 -0.1)">
      <use transform="translate(0 0.578125)" xlink:href="#DejaVuSans-27e8"/>
      <use transform="translate(39.013672 0.578125)" xlink:href="#DejaVuSans-30"/>
      <use transform="translate(102.636719 0.578125)" xlink:href="#DejaVuSans-31"/>
      <use transform="translate(166.259766 0.578125)" xlink:href="#DejaVuSans-7c"/>
     </g>
    </g>
   </g>
   <g id="xtick_7">
    <g id="line2d_9">
     <path d="M 212.616073 187.98444 
L 215.988676 189.004521 
" style="fill:none;stroke:#000000;stroke-linecap:square;stroke-width:0.8;"/>
    </g>
    <g id="text_7">
     <!-- $\langle 10|$ -->
     <g transform="translate(213.616659 199.290967)rotate(-315)scale(0.1 -0.1)">
      <use transform="translate(0 0.578125)" xlink:href="#DejaVuSans-27e8"/>
      <use transform="translate(39.013672 0.578125)" xlink:href="#DejaVuSans-31"/>
      <use transform="translate(102.636719 0.578125)" xlink:href="#DejaVuSans-30"/>
      <use transform="translate(166.259766 0.578125)" xlink:href="#DejaVuSans-7c"/>
     </g>
    </g>
   </g>
   <g id="xtick_8">
    <g id="line2d_10">
     <path d="M 232.972804 167.130848 
L 236.285085 168.100386 
" style="fill:none;stroke:#000000;stroke-linecap:square;stroke-width:0.8;"/>
    </g>
    <g id="text_8">
     <!-- $\langle 11|$ -->
     <g transform="translate(233.825064 178.27659)rotate(-315)scale(0.1 -0.1)">
      <use transform="translate(0 0.578125)" xlink:href="#DejaVuSans-27e8"/>
      <use transform="translate(39.013672 0.578125)" xlink:href="#DejaVuSans-31"/>
      <use transform="translate(102.636719 0.578125)" xlink:href="#DejaVuSans-31"/>
      <use transform="translate(166.259766 0.578125)" xlink:href="#DejaVuSans-7c"/>
     </g>
    </g>
   </g>
  </g>
  <g id="axis3d_3">
   <g id="line2d_11">
    <path d="M 238.389409 163.02717 
L 243.062013 60.989452 
" style="fill:none;stroke:#000000;stroke-linecap:square;stroke-width:0.8;"/>
   </g>
   <g id="Line3DCollection_3">
    <path d="M 238.478931 161.07224 
L 107.432779 123.075824 
L 25.760683 191.364715 
" style="fill:none;stroke:#b0b0b0;stroke-width:0.8;"/>
    <path d="M 240.674527 113.126035 
L 106.89924 76.677964 
L 23.394818 142.235996 
" style="fill:none;stroke:#b0b0b0;stroke-width:0.8;"/>
    <path d="M 242.964462 63.119718 
L 106.343904 28.384489 
L 20.923301 90.913353 
" style="fill:none;stroke:#b0b0b0;stroke-width:0.8;"/>
   </g>
   <g id="xtick_9">
    <g id="line2d_12">
     <path d="M 237.379049 160.753333 
L 240.681314 161.710814 
" style="fill:none;stroke:#000000;stroke-linecap:square;stroke-width:0.8;"/>
    </g>
    <g id="text_9">
     <!-- 0.00 -->
     <g transform="translate(255.539656 164.349139)rotate(-345)scale(0.1 -0.1)">
      <defs>
       <path d="M 684 794 
L 1344 794 
L 1344 0 
L 684 0 
L 684 794 
z
" id="DejaVuSans-2e" transform="scale(0.015625)"/>
      </defs>
      <use xlink:href="#DejaVuSans-30"/>
      <use x="63.623047" xlink:href="#DejaVuSans-2e"/>
      <use x="95.410156" xlink:href="#DejaVuSans-30"/>
      <use x="159.033203" xlink:href="#DejaVuSans-30"/>
     </g>
    </g>
   </g>
   <g id="xtick_10">
    <g id="line2d_13">
     <path d="M 239.550633 112.819822 
L 242.925046 113.739206 
" style="fill:none;stroke:#000000;stroke-linecap:square;stroke-width:0.8;"/>
    </g>
    <g id="text_10">
     <!-- 0.05 -->
     <g transform="translate(258.320845 116.56503)rotate(-345)scale(0.1 -0.1)">
      <defs>
       <path d="M 691 4666 
L 3169 4666 
L 3169 4134 
L 1269 4134 
L 1269 2991 
Q 1406 3038 1543 3061 
Q 1681 3084 1819 3084 
Q 2600 3084 3056 2656 
Q 3513 2228 3513 1497 
Q 3513 744 3044 326 
Q 2575 -91 1722 -91 
Q 1428 -91 1123 -41 
Q 819 9 494 109 
L 494 744 
Q 775 591 1075 516 
Q 1375 441 1709 441 
Q 2250 441 2565 725 
Q 2881 1009 2881 1497 
Q 2881 1984 2565 2268 
Q 2250 2553 1709 2553 
Q 1456 2553 1204 2497 
Q 953 2441 691 2322 
L 691 4666 
z
" id="DejaVuSans-35" transform="scale(0.015625)"/>
      </defs>
      <use xlink:href="#DejaVuSans-30"/>
      <use x="63.623047" xlink:href="#DejaVuSans-2e"/>
      <use x="95.410156" xlink:href="#DejaVuSans-30"/>
      <use x="159.033203" xlink:href="#DejaVuSans-35"/>
     </g>
    </g>
   </g>
   <g id="xtick_11">
    <g id="line2d_14">
     <path d="M 241.815486 62.827596 
L 245.265265 63.704688 
" style="fill:none;stroke:#000000;stroke-linecap:square;stroke-width:0.8;"/>
    </g>
    <g id="text_11">
     <!-- 0.10 -->
     <g transform="translate(261.220906 66.738581)rotate(-345)scale(0.1 -0.1)">
      <use xlink:href="#DejaVuSans-30"/>
      <use x="63.623047" xlink:href="#DejaVuSans-2e"/>
      <use x="95.410156" xlink:href="#DejaVuSans-31"/>
      <use x="159.033203" xlink:href="#DejaVuSans-30"/>
     </g>
    </g>
   </g>
  </g>
  <g id="axes_1">
   <g id="line2d_15">
    <path clip-path="url(#p80a7a09e56)" style="fill:none;stroke:#ff0000;stroke-linecap:square;stroke-width:1.5;"/>
    <defs>
     <path d="M 3 0 
L -3 -0 
" id="m1e4ab4cdf0" style="stroke:#ff0000;"/>
    </defs>
    <g clip-path="url(#p80a7a09e56)"/>
   </g>
   <g id="line2d_16">
    <path clip-path="url(#p80a7a09e56)" d="M 82.524787 183.100347 
L 82.919007 200.362332 
" style="fill:none;stroke:#ff0000;stroke-linecap:square;stroke-width:1.5;"/>
    <g clip-path="url(#p80a7a09e56)">
     <use style="fill:#ff0000;stroke:#ff0000;" x="82.524787" xlink:href="#m1e4ab4cdf0" y="183.100347"/>
     <use style="fill:#ff0000;stroke:#ff0000;" x="82.919007" xlink:href="#m1e4ab4cdf0" y="200.362332"/>
    </g>
   </g>
   <g id="line2d_17">
    <path clip-path="url(#p80a7a09e56)" d="M 114.575052 193.215938 
L 114.72603 210.609196 
" style="fill:none;stroke:#ff0000;stroke-linecap:square;stroke-width:1.5;"/>
    <g clip-path="url(#p80a7a09e56)">
     <use style="fill:#ff0000;stroke:#ff0000;" x="114.575052" xlink:href="#m1e4ab4cdf0" y="193.215938"/>
     <use style="fill:#ff0000;stroke:#ff0000;" x="114.72603" xlink:href="#m1e4ab4cdf0" y="210.609196"/>
    </g>
   </g>
   <g id="line2d_18">
    <path clip-path="url(#p80a7a09e56)" d="M 147.354979 214.366536 
L 147.281005 226.777347 
" style="fill:none;stroke:#ff0000;stroke-linecap:square;stroke-width:1.5;"/>
    <g clip-path="url(#p80a7a09e56)">
     <use style="fill:#ff0000;stroke:#ff0000;" x="147.354979" xlink:href="#m1e4ab4cdf0" y="214.366536"/>
     <use style="fill:#ff0000;stroke:#ff0000;" x="147.281005" xlink:href="#m1e4ab4cdf0" y="226.777347"/>
    </g>
   </g>
   <g id="line2d_19">
    <path clip-path="url(#p80a7a09e56)" d="M 76.164625 155.364913 
L 76.827707 181.528914 
" style="fill:none;stroke:#0000ff;stroke-linecap:square;stroke-width:1.5;"/>
    <defs>
     <path d="M 3 0 
L -3 -0 
" id="mae9d190813" style="stroke:#0000ff;"/>
    </defs>
    <g clip-path="url(#p80a7a09e56)">
     <use style="fill:#0000ff;stroke:#0000ff;" x="76.164625" xlink:href="#mae9d190813" y="155.364913"/>
     <use style="fill:#0000ff;stroke:#0000ff;" x="76.827707" xlink:href="#mae9d190813" y="181.528914"/>
    </g>
   </g>
   <g id="line2d_20">
    <path clip-path="url(#p80a7a09e56)" d="M 107.018843 175.215049 
L 107.143353 185.637318 
" style="fill:none;stroke:#0000ff;stroke-linecap:square;stroke-width:1.5;"/>
    <g clip-path="url(#p80a7a09e56)">
     <use style="fill:#0000ff;stroke:#0000ff;" x="107.018843" xlink:href="#mae9d190813" y="175.215049"/>
     <use style="fill:#0000ff;stroke:#0000ff;" x="107.143353" xlink:href="#mae9d190813" y="185.637318"/>
    </g>
   </g>
   <g id="line2d_21">
    <path clip-path="url(#p80a7a09e56)" d="M 99.744013 135.496582 
L 100.127486 161.239173 
" style="fill:none;stroke:#008000;stroke-linecap:square;stroke-width:1.5;"/>
    <defs>
     <path d="M 3 0 
L -3 -0 
" id="mbb421e89e5" style="stroke:#008000;"/>
    </defs>
    <g clip-path="url(#p80a7a09e56)">
     <use style="fill:#008000;stroke:#008000;" x="99.744013" xlink:href="#mbb421e89e5" y="135.496582"/>
     <use style="fill:#008000;stroke:#008000;" x="100.127486" xlink:href="#mbb421e89e5" y="161.239173"/>
    </g>
   </g>
   <g id="line2d_22">
    <path clip-path="url(#p80a7a09e56)" d="M 160.77718 163.928544 
L 160.656071 174.259034 
" style="fill:none;stroke:#008000;stroke-linecap:square;stroke-width:1.5;"/>
    <g clip-path="url(#p80a7a09e56)">
     <use style="fill:#008000;stroke:#008000;" x="160.77718" xlink:href="#mbb421e89e5" y="163.928544"/>
     <use style="fill:#008000;stroke:#008000;" x="160.656071" xlink:href="#mbb421e89e5" y="174.259034"/>
    </g>
   </g>
   <g id="line2d_23">
    <path clip-path="url(#p80a7a09e56)" d="M 122.203538 121.325133 
L 122.255693 131.507011 
" style="fill:none;stroke:#bfbf00;stroke-linecap:square;stroke-width:1.5;"/>
    <defs>
     <path d="M 3 0 
L -3 -0 
" id="m95f9a1bff4" style="stroke:#bfbf00;"/>
    </defs>
    <g clip-path="url(#p80a7a09e56)">
     <use style="fill:#bfbf00;stroke:#bfbf00;" x="122.203538" xlink:href="#m95f9a1bff4" y="121.325133"/>
     <use style="fill:#bfbf00;stroke:#bfbf00;" x="122.255693" xlink:href="#m95f9a1bff4" y="131.507011"/>
    </g>
   </g>
   <g id="line2d_24">
    <path clip-path="url(#p80a7a09e56)" d="M 213.413565 143.110083 
L 212.818222 160.35347 
" style="fill:none;stroke:#bfbf00;stroke-linecap:square;stroke-width:1.5;"/>
    <g clip-path="url(#p80a7a09e56)">
     <use style="fill:#bfbf00;stroke:#bfbf00;" x="213.413565" xlink:href="#m95f9a1bff4" y="143.110083"/>
     <use style="fill:#bfbf00;stroke:#bfbf00;" x="212.818222" xlink:href="#m95f9a1bff4" y="160.35347"/>
    </g>
   </g>
   <g id="patch_6">
    <path clip-path="url(#p80a7a09e56)" d="M 110.632316 129.422001 
L 133.995118 136.243781 
L 133.99487 129.834398 
L 110.567662 123.050025 
L 110.632316 129.422001 
" style="fill:#bfbf00;opacity:0.5;"/>
   </g>
   <g id="text_12">
    <!-- $0.972$ -->
    <g transform="translate(47.912418 82.145932)scale(0.22 -0.22)">
     <defs>
      <path d="M 2688 2038 
C 2688 2430 2682 3099 2413 3613 
C 2176 4063 1798 4224 1466 4224 
C 1158 4224 768 4082 525 3620 
C 269 3137 243 2539 243 2038 
C 243 1671 250 1112 448 623 
C 723 -39 1216 -128 1466 -128 
C 1760 -128 2208 -7 2470 604 
C 2662 1048 2688 1568 2688 2038 
z
M 1466 -26 
C 1056 -26 813 328 723 816 
C 653 1196 653 1749 653 2109 
C 653 2604 653 3015 736 3407 
C 858 3954 1216 4121 1466 4121 
C 1728 4121 2067 3947 2189 3420 
C 2272 3054 2278 2623 2278 2109 
C 2278 1691 2278 1176 2202 797 
C 2067 96 1690 -26 1466 -26 
z
" id="CMR17-30" transform="scale(0.015625)"/>
      <path d="M 1178 307 
C 1178 492 1024 620 870 620 
C 685 620 557 467 557 313 
C 557 128 710 0 864 0 
C 1050 0 1178 153 1178 307 
z
" id="CMMI12-3a" transform="scale(0.015625)"/>
      <path d="M 2253 1871 
C 2253 448 1670 25 1190 25 
C 1043 25 685 43 538 281 
C 704 256 826 345 826 505 
C 826 678 685 736 595 736 
C 538 736 365 710 365 492 
C 365 68 742 -128 1203 -128 
C 1939 -128 2688 665 2688 2090 
C 2688 3857 1971 4224 1485 4224 
C 851 4224 243 3664 243 2800 
C 243 2000 762 1408 1414 1408 
C 1952 1408 2189 1910 2253 2122 
L 2253 1871 
z
M 1427 1510 
C 1254 1510 1011 1542 813 1929 
C 678 2181 678 2477 678 2793 
C 678 3174 678 3438 858 3722 
C 947 3857 1114 4076 1485 4076 
C 2240 4076 2240 2909 2240 2651 
C 2240 2193 2035 1510 1427 1510 
z
" id="CMR17-39" transform="scale(0.015625)"/>
      <path d="M 2886 3955 
L 2886 4096 
L 1382 4096 
C 634 4096 621 4166 595 4288 
L 480 4288 
L 294 3104 
L 410 3104 
C 429 3226 474 3552 550 3673 
C 589 3724 1062 3724 1171 3724 
L 2579 3724 
L 1869 2670 
C 1395 1961 1069 1003 1069 166 
C 1069 89 1069 -128 1299 -128 
C 1530 -128 1530 89 1530 172 
L 1530 466 
C 1530 1514 1709 2204 2003 2644 
L 2886 3955 
z
" id="CMR17-37" transform="scale(0.015625)"/>
      <path d="M 2669 990 
L 2554 990 
C 2490 537 2438 460 2413 422 
C 2381 371 1920 371 1830 371 
L 602 371 
C 832 620 1280 1073 1824 1596 
C 2214 1966 2669 2400 2669 3033 
C 2669 3788 2067 4224 1395 4224 
C 691 4224 262 3603 262 3027 
C 262 2777 448 2745 525 2745 
C 589 2745 781 2783 781 3007 
C 781 3206 614 3264 525 3264 
C 486 3264 448 3257 422 3244 
C 544 3788 915 4057 1306 4057 
C 1862 4057 2227 3616 2227 3033 
C 2227 2477 1901 1998 1536 1583 
L 262 147 
L 262 0 
L 2515 0 
L 2669 990 
z
" id="CMR17-32" transform="scale(0.015625)"/>
     </defs>
     <use transform="scale(0.996264)" xlink:href="#CMR17-30"/>
     <use transform="translate(45.690477 0)scale(0.996264)" xlink:href="#CMMI12-3a"/>
     <use transform="translate(72.787654 0)scale(0.996264)" xlink:href="#CMR17-39"/>
     <use transform="translate(118.478131 0)scale(0.996264)" xlink:href="#CMR17-37"/>
     <use transform="translate(164.168608 0)scale(0.996264)" xlink:href="#CMR17-32"/>
    </g>
   </g>
   <g id="text_13">
    <!-- $|\bar\Upsilon_0|$ -->
    <g transform="translate(244.03818 24.969078)scale(0.28 -0.28)">
     <defs>
      <path d="M 1018 4569 
C 1018 4684 1018 4800 890 4800 
C 762 4800 762 4684 762 4569 
L 762 -1370 
C 762 -1485 762 -1600 890 -1600 
C 1018 -1600 1018 -1485 1018 -1370 
L 1018 4569 
z
" id="CMSY10-6a" transform="scale(0.015625)"/>
      <path d="M 2554 3520 
L 2554 3667 
L 378 3667 
L 378 3520 
L 2554 3520 
z
" id="CMR17-16" transform="scale(0.015625)"/>
      <path d="M 2515 2262 
C 2515 2544 2554 3089 2726 3506 
C 2906 3922 3187 4115 3533 4115 
C 3738 4115 4115 3999 4173 3531 
C 4179 3480 4179 3461 4237 3461 
C 4301 3461 4307 3480 4307 3544 
C 4307 3884 4083 4480 3526 4480 
C 2554 4480 2355 3236 2310 2909 
L 2304 2909 
C 2253 3243 2048 4480 1075 4480 
C 512 4480 294 3877 294 3544 
C 294 3480 301 3461 365 3461 
C 422 3461 422 3480 429 3531 
C 486 4006 864 4115 1069 4115 
C 2029 4115 2093 2647 2093 2262 
L 2093 461 
C 2093 230 2080 166 1594 166 
L 1453 166 
L 1453 0 
C 1722 12 2035 12 2304 12 
C 2573 12 2886 12 3155 0 
L 3155 166 
L 3014 166 
C 2528 166 2515 230 2515 461 
L 2515 2262 
z
" id="CMR17-7" transform="scale(0.015625)"/>
     </defs>
     <use transform="scale(0.996264)" xlink:href="#CMSY10-6a"/>
     <use transform="translate(40.686248 25.175672)scale(0.996264)" xlink:href="#CMR17-16"/>
     <use transform="translate(27.674085 0)scale(0.996264)" xlink:href="#CMR17-7"/>
     <use transform="translate(99.388873 -14.943915)scale(0.697382)" xlink:href="#CMR17-30"/>
     <use transform="translate(131.870187 0)scale(0.996264)" xlink:href="#CMSY10-6a"/>
    </g>
   </g>
   <g id="patch_7">
    <path clip-path="url(#p80a7a09e56)" d="M 139.90038 137.968078 
L 163.784859 144.942184 
L 163.786662 144.802797 
L 139.90073 137.829504 
L 139.90038 137.968078 
" style="fill:#bfbf00;opacity:0.5;"/>
   </g>
   <g id="patch_8">
    <path clip-path="url(#p80a7a09e56)" d="M 169.82272 146.705199 
L 194.246545 153.836791 
L 194.250239 153.696378 
L 169.824894 146.565608 
L 169.82272 146.705199 
" style="fill:#bfbf00;opacity:0.5;"/>
   </g>
   <g id="patch_9">
    <path clip-path="url(#p80a7a09e56)" d="M 88.173557 148.422258 
L 111.912625 155.585009 
L 111.878105 152.027179 
L 88.10272 144.885309 
L 88.173557 148.422258 
" style="fill:#008000;opacity:0.5;"/>
   </g>
   <g id="patch_10">
    <path clip-path="url(#p80a7a09e56)" d="M 117.914623 157.395982 
L 142.197078 164.722688 
L 142.197575 164.583417 
L 117.913643 157.257529 
L 117.914623 157.395982 
" style="fill:#008000;opacity:0.5;"/>
   </g>
   <g id="patch_11">
    <path clip-path="url(#p80a7a09e56)" d="M 200.421521 155.639842 
L 225.40317 162.934314 
L 225.704987 155.405799 
L 200.638782 148.155739 
L 200.421521 155.639842 
" style="fill:#bfbf00;opacity:0.5;"/>
   </g>
   <g id="patch_12">
    <path clip-path="url(#p80a7a09e56)" d="M 148.337251 166.575352 
L 173.181967 174.071708 
L 173.202739 172.867413 
L 148.344754 165.378156 
L 148.337251 166.575352 
" style="fill:#008000;opacity:0.5;"/>
   </g>
   <g id="patch_13">
    <path clip-path="url(#p80a7a09e56)" d="M 64.58312 168.379924 
L 88.707094 175.909862 
L 88.634646 172.293868 
L 64.473178 164.785292 
L 64.58312 168.379924 
" style="fill:#0000ff;opacity:0.5;"/>
   </g>
   <g id="patch_14">
    <path clip-path="url(#p80a7a09e56)" d="M 179.46514 175.967519 
L 204.891874 183.639486 
L 204.892861 183.608014 
L 179.465767 175.936233 
L 179.46514 175.967519 
" style="fill:#008000;opacity:0.5;"/>
   </g>
   <g id="patch_15">
    <path clip-path="url(#p80a7a09e56)" d="M 94.808151 177.814215 
L 119.498546 185.520953 
L 119.490688 184.305957 
L 94.787188 176.606404 
L 94.808151 177.814215 
" style="fill:#0000ff;opacity:0.5;"/>
   </g>
   <g id="patch_16">
    <path clip-path="url(#p80a7a09e56)" d="M 125.743695 187.470283 
L 151.020697 195.360121 
L 151.021772 195.217518 
L 125.743171 187.328524 
L 125.743695 187.470283 
" style="fill:#0000ff;opacity:0.5;"/>
   </g>
   <g id="patch_17">
    <path clip-path="url(#p80a7a09e56)" d="M 157.415105 197.35604 
L 183.29987 205.435582 
L 183.300574 205.403593 
L 157.415436 197.32424 
L 157.415105 197.35604 
" style="fill:#0000ff;opacity:0.5;"/>
   </g>
   <g id="patch_18">
    <path clip-path="url(#p80a7a09e56)" d="M 70.49303 199.300481 
L 95.601271 207.417605 
L 95.401219 195.807652 
L 70.165623 187.760029 
L 70.49303 199.300481 
" style="fill:#ff0000;opacity:0.5;"/>
   </g>
   <g id="patch_19">
    <path clip-path="url(#p80a7a09e56)" d="M 101.954063 209.471368 
L 127.6748 217.786502 
L 127.641072 206.08893 
L 101.78663 197.843958 
L 101.954063 209.471368 
" style="fill:#ff0000;opacity:0.5;"/>
   </g>
   <g id="patch_20">
    <path clip-path="url(#p80a7a09e56)" d="M 134.183511 219.890672 
L 160.539435 228.411153 
L 160.581901 224.859816 
L 134.183669 216.360543 
L 134.183511 219.890672 
" style="fill:#ff0000;opacity:0.5;"/>
   </g>
   <g id="patch_21">
    <path clip-path="url(#p80a7a09e56)" d="M 39.773256 189.369233 
L 64.290621 197.295334 
L 14.078621 -1416.740007 
L -26.985237 -1404.297752 
L 39.773256 189.369233 
" style="fill:#ff0000;opacity:0.5;"/>
   </g>
  </g>
  <g id="patch_22">
   <path d="M 7.2 550.8 
L 254.290909 550.8 
L 254.290909 303.709091 
L 7.2 303.709091 
z
" style="fill:none;"/>
  </g>
  <g id="pane3d_4">
   <g id="patch_23">
    <path d="M 25.857068 489.8753 
L 107.454555 421.478668 
L 106.320272 322.838498 
L 20.817924 385.234217 
" style="fill:#f2f2f2;opacity:0.5;stroke:#f2f2f2;stroke-linejoin:miter;"/>
   </g>
  </g>
  <g id="pane3d_5">
   <g id="patch_24">
    <path d="M 107.454555 421.478668 
L 238.389409 459.536261 
L 243.062013 357.498543 
L 106.320272 322.838498 
" style="fill:#e6e6e6;opacity:0.5;stroke:#e6e6e6;stroke-linejoin:miter;"/>
   </g>
  </g>
  <g id="pane3d_6">
   <g id="patch_25">
    <path d="M 25.857068 489.8753 
L 164.654408 535.206511 
L 238.389409 459.536261 
L 107.454555 421.478668 
" style="fill:#ececec;opacity:0.5;stroke:#ececec;stroke-linejoin:miter;"/>
   </g>
  </g>
  <g id="axis3d_4">
   <g id="line2d_25">
    <path d="M 25.857068 489.8753 
L 164.654408 535.206511 
" style="fill:none;stroke:#000000;stroke-linecap:square;stroke-width:0.8;"/>
   </g>
   <g id="Line3DCollection_4">
    <path d="M 46.49649 496.616136 
L 126.998104 427.159206 
L 126.693938 328.002628 
" style="fill:none;stroke:#b0b0b0;stroke-width:0.8;"/>
    <path d="M 77.59466 506.772798 
L 156.396593 435.704186 
L 157.36531 335.776927 
" style="fill:none;stroke:#b0b0b0;stroke-width:0.8;"/>
    <path d="M 109.450574 517.17694 
L 186.451132 444.439854 
L 188.751202 343.732335 
" style="fill:none;stroke:#b0b0b0;stroke-width:0.8;"/>
    <path d="M 142.092269 527.837717 
L 217.183931 453.372666 
L 220.876876 351.875257 
" style="fill:none;stroke:#b0b0b0;stroke-width:0.8;"/>
   </g>
   <g id="xtick_12">
    <g id="line2d_26">
     <path d="M 47.197764 496.011075 
L 45.090918 497.828866 
" style="fill:none;stroke:#000000;stroke-linecap:square;stroke-width:0.8;"/>
    </g>
    <g id="text_14">
     <!-- $|00\rangle$ -->
     <g transform="translate(34.537818 523.059725)rotate(-45)scale(0.1 -0.1)">
      <use transform="translate(0 0.578125)" xlink:href="#DejaVuSans-7c"/>
      <use transform="translate(33.691406 0.578125)" xlink:href="#DejaVuSans-30"/>
      <use transform="translate(97.314453 0.578125)" xlink:href="#DejaVuSans-30"/>
      <use transform="translate(160.9375 0.578125)" xlink:href="#DejaVuSans-27e9"/>
     </g>
    </g>
   </g>
   <g id="xtick_13">
    <g id="line2d_27">
     <path d="M 78.281802 506.153089 
L 76.217377 508.014919 
" style="fill:none;stroke:#000000;stroke-linecap:square;stroke-width:0.8;"/>
    </g>
    <g id="text_15">
     <!-- $|01\rangle$ -->
     <g transform="translate(65.651599 533.317005)rotate(-45)scale(0.1 -0.1)">
      <use transform="translate(0 0.578125)" xlink:href="#DejaVuSans-7c"/>
      <use transform="translate(33.691406 0.578125)" xlink:href="#DejaVuSans-30"/>
      <use transform="translate(97.314453 0.578125)" xlink:href="#DejaVuSans-31"/>
      <use transform="translate(160.9375 0.578125)" xlink:href="#DejaVuSans-27e9"/>
     </g>
    </g>
   </g>
   <g id="xtick_14">
    <g id="line2d_28">
     <path d="M 110.122684 516.542045 
L 108.103387 518.449534 
" style="fill:none;stroke:#000000;stroke-linecap:square;stroke-width:0.8;"/>
    </g>
    <g id="text_16">
     <!-- $|10\rangle$ -->
     <g transform="translate(97.524861 543.824664)rotate(-45)scale(0.1 -0.1)">
      <use transform="translate(0 0.578125)" xlink:href="#DejaVuSans-7c"/>
      <use transform="translate(33.691406 0.578125)" xlink:href="#DejaVuSans-31"/>
      <use transform="translate(97.314453 0.578125)" xlink:href="#DejaVuSans-30"/>
      <use transform="translate(160.9375 0.578125)" xlink:href="#DejaVuSans-27e9"/>
     </g>
    </g>
   </g>
   <g id="xtick_15">
    <g id="line2d_29">
     <path d="M 142.748391 527.187071 
L 140.777092 529.141919 
" style="fill:none;stroke:#000000;stroke-linecap:square;stroke-width:0.8;"/>
    </g>
    <g id="text_17">
     <!-- $|11\rangle$ -->
     <g transform="translate(130.185755 554.591981)rotate(-45)scale(0.1 -0.1)">
      <use transform="translate(0 0.578125)" xlink:href="#DejaVuSans-7c"/>
      <use transform="translate(33.691406 0.578125)" xlink:href="#DejaVuSans-31"/>
      <use transform="translate(97.314453 0.578125)" xlink:href="#DejaVuSans-31"/>
      <use transform="translate(160.9375 0.578125)" xlink:href="#DejaVuSans-27e9"/>
     </g>
    </g>
   </g>
  </g>
  <g id="axis3d_5">
   <g id="line2d_30">
    <path d="M 238.389409 459.536261 
L 164.654408 535.206511 
" style="fill:none;stroke:#000000;stroke-linecap:square;stroke-width:0.8;"/>
   </g>
   <g id="Line3DCollection_5">
    <path d="M 26.730623 380.919398 
L 31.479824 485.162194 
L 169.756299 529.970716 
" style="fill:none;stroke:#b0b0b0;stroke-width:0.8;"/>
    <path d="M 52.896228 361.824932 
L 56.39777 464.275478 
L 192.328584 506.805999 
" style="fill:none;stroke:#b0b0b0;stroke-width:0.8;"/>
    <path d="M 77.724565 343.706342 
L 80.095793 444.411325 
L 213.739355 484.83328 
" style="fill:none;stroke:#b0b0b0;stroke-width:0.8;"/>
    <path d="M 101.315598 326.49068 
L 102.661341 425.496436 
L 234.076019 463.962861 
" style="fill:none;stroke:#b0b0b0;stroke-width:0.8;"/>
   </g>
   <g id="xtick_16">
    <g id="line2d_31">
     <path d="M 168.591039 529.593113 
L 172.089833 530.726898 
" style="fill:none;stroke:#000000;stroke-linecap:square;stroke-width:0.8;"/>
    </g>
    <g id="text_18">
     <!-- $\langle 00|$ -->
     <g transform="translate(169.91007 541.249794)rotate(-315)scale(0.1 -0.1)">
      <use transform="translate(0 0.578125)" xlink:href="#DejaVuSans-27e8"/>
      <use transform="translate(39.013672 0.578125)" xlink:href="#DejaVuSans-30"/>
      <use transform="translate(102.636719 0.578125)" xlink:href="#DejaVuSans-30"/>
      <use transform="translate(166.259766 0.578125)" xlink:href="#DejaVuSans-7c"/>
     </g>
    </g>
   </g>
   <g id="xtick_17">
    <g id="line2d_32">
     <path d="M 191.184623 506.448073 
L 194.619385 507.522754 
" style="fill:none;stroke:#000000;stroke-linecap:square;stroke-width:0.8;"/>
    </g>
    <g id="text_19">
     <!-- $\langle 01|$ -->
     <g transform="translate(192.340628 517.92464)rotate(-315)scale(0.1 -0.1)">
      <use transform="translate(0 0.578125)" xlink:href="#DejaVuSans-27e8"/>
      <use transform="translate(39.013672 0.578125)" xlink:href="#DejaVuSans-30"/>
      <use transform="translate(102.636719 0.578125)" xlink:href="#DejaVuSans-31"/>
      <use transform="translate(166.259766 0.578125)" xlink:href="#DejaVuSans-7c"/>
     </g>
    </g>
   </g>
   <g id="xtick_18">
    <g id="line2d_33">
     <path d="M 212.616073 484.493531 
L 215.988676 485.513612 
" style="fill:none;stroke:#000000;stroke-linecap:square;stroke-width:0.8;"/>
    </g>
    <g id="text_20">
     <!-- $\langle 10|$ -->
     <g transform="translate(213.616659 495.800058)rotate(-315)scale(0.1 -0.1)">
      <use transform="translate(0 0.578125)" xlink:href="#DejaVuSans-27e8"/>
      <use transform="translate(39.013672 0.578125)" xlink:href="#DejaVuSans-31"/>
      <use transform="translate(102.636719 0.578125)" xlink:href="#DejaVuSans-30"/>
      <use transform="translate(166.259766 0.578125)" xlink:href="#DejaVuSans-7c"/>
     </g>
    </g>
   </g>
   <g id="xtick_19">
    <g id="line2d_34">
     <path d="M 232.972804 463.639939 
L 236.285085 464.609477 
" style="fill:none;stroke:#000000;stroke-linecap:square;stroke-width:0.8;"/>
    </g>
    <g id="text_21">
     <!-- $\langle 11|$ -->
     <g transform="translate(233.825064 474.785681)rotate(-315)scale(0.1 -0.1)">
      <use transform="translate(0 0.578125)" xlink:href="#DejaVuSans-27e8"/>
      <use transform="translate(39.013672 0.578125)" xlink:href="#DejaVuSans-31"/>
      <use transform="translate(102.636719 0.578125)" xlink:href="#DejaVuSans-31"/>
      <use transform="translate(166.259766 0.578125)" xlink:href="#DejaVuSans-7c"/>
     </g>
    </g>
   </g>
  </g>
  <g id="axis3d_6">
   <g id="line2d_35">
    <path d="M 238.389409 459.536261 
L 243.062013 357.498543 
" style="fill:none;stroke:#000000;stroke-linecap:square;stroke-width:0.8;"/>
   </g>
   <g id="Line3DCollection_6">
    <path d="M 238.478931 457.581331 
L 107.432779 419.584914 
L 25.760683 487.873806 
" style="fill:none;stroke:#b0b0b0;stroke-width:0.8;"/>
    <path d="M 240.674527 409.635126 
L 106.89924 373.187055 
L 23.394818 438.745087 
" style="fill:none;stroke:#b0b0b0;stroke-width:0.8;"/>
    <path d="M 242.964462 359.628809 
L 106.343904 324.89358 
L 20.923301 387.422444 
" style="fill:none;stroke:#b0b0b0;stroke-width:0.8;"/>
   </g>
   <g id="xtick_20">
    <g id="line2d_36">
     <path d="M 237.379049 457.262424 
L 240.681314 458.219905 
" style="fill:none;stroke:#000000;stroke-linecap:square;stroke-width:0.8;"/>
    </g>
    <g id="text_22">
     <!-- 0.00 -->
     <g transform="translate(255.539656 460.85823)rotate(-345)scale(0.1 -0.1)">
      <use xlink:href="#DejaVuSans-30"/>
      <use x="63.623047" xlink:href="#DejaVuSans-2e"/>
      <use x="95.410156" xlink:href="#DejaVuSans-30"/>
      <use x="159.033203" xlink:href="#DejaVuSans-30"/>
     </g>
    </g>
   </g>
   <g id="xtick_21">
    <g id="line2d_37">
     <path d="M 239.550633 409.328913 
L 242.925046 410.248297 
" style="fill:none;stroke:#000000;stroke-linecap:square;stroke-width:0.8;"/>
    </g>
    <g id="text_23">
     <!-- 0.05 -->
     <g transform="translate(258.320845 413.074121)rotate(-345)scale(0.1 -0.1)">
      <use xlink:href="#DejaVuSans-30"/>
      <use x="63.623047" xlink:href="#DejaVuSans-2e"/>
      <use x="95.410156" xlink:href="#DejaVuSans-30"/>
      <use x="159.033203" xlink:href="#DejaVuSans-35"/>
     </g>
    </g>
   </g>
   <g id="xtick_22">
    <g id="line2d_38">
     <path d="M 241.815486 359.336687 
L 245.265265 360.213779 
" style="fill:none;stroke:#000000;stroke-linecap:square;stroke-width:0.8;"/>
    </g>
    <g id="text_24">
     <!-- 0.10 -->
     <g transform="translate(261.220906 363.247672)rotate(-345)scale(0.1 -0.1)">
      <use xlink:href="#DejaVuSans-30"/>
      <use x="63.623047" xlink:href="#DejaVuSans-2e"/>
      <use x="95.410156" xlink:href="#DejaVuSans-31"/>
      <use x="159.033203" xlink:href="#DejaVuSans-30"/>
     </g>
    </g>
   </g>
  </g>
  <g id="axes_2">
   <g id="line2d_39">
    <path clip-path="url(#p3f314243d5)" d="M 51.533942 477.780469 
L 52.032668 491.431194 
" style="fill:none;stroke:#ff0000;stroke-linecap:square;stroke-width:1.5;"/>
    <g clip-path="url(#p3f314243d5)">
     <use style="fill:#ff0000;stroke:#ff0000;" x="51.533942" xlink:href="#m1e4ab4cdf0" y="477.780469"/>
     <use style="fill:#ff0000;stroke:#ff0000;" x="52.032668" xlink:href="#m1e4ab4cdf0" y="491.431194"/>
    </g>
   </g>
   <g id="line2d_40">
    <path clip-path="url(#p3f314243d5)" d="M 82.822018 492.624493 
L 82.906222 496.311582 
" style="fill:none;stroke:#ff0000;stroke-linecap:square;stroke-width:1.5;"/>
    <g clip-path="url(#p3f314243d5)">
     <use style="fill:#ff0000;stroke:#ff0000;" x="82.822018" xlink:href="#m1e4ab4cdf0" y="492.624493"/>
     <use style="fill:#ff0000;stroke:#ff0000;" x="82.906222" xlink:href="#m1e4ab4cdf0" y="496.311582"/>
    </g>
   </g>
   <g id="line2d_41">
    <path clip-path="url(#p3f314243d5)" d="M 114.688888 502.839362 
L 114.721134 506.55424 
" style="fill:none;stroke:#ff0000;stroke-linecap:square;stroke-width:1.5;"/>
    <g clip-path="url(#p3f314243d5)">
     <use style="fill:#ff0000;stroke:#ff0000;" x="114.688888" xlink:href="#m1e4ab4cdf0" y="502.839362"/>
     <use style="fill:#ff0000;stroke:#ff0000;" x="114.721134" xlink:href="#m1e4ab4cdf0" y="506.55424"/>
    </g>
   </g>
   <g id="line2d_42">
    <path clip-path="url(#p3f314243d5)" d="M 147.494724 487.430274 
L 147.32645 515.66196 
" style="fill:none;stroke:#ff0000;stroke-linecap:square;stroke-width:1.5;"/>
    <g clip-path="url(#p3f314243d5)">
     <use style="fill:#ff0000;stroke:#ff0000;" x="147.494724" xlink:href="#m1e4ab4cdf0" y="487.430274"/>
     <use style="fill:#ff0000;stroke:#ff0000;" x="147.32645" xlink:href="#m1e4ab4cdf0" y="515.66196"/>
    </g>
   </g>
   <g id="line2d_43">
    <path clip-path="url(#p3f314243d5)" d="M 76.469565 463.906383 
L 76.688265 472.535908 
" style="fill:none;stroke:#0000ff;stroke-linecap:square;stroke-width:1.5;"/>
    <g clip-path="url(#p3f314243d5)">
     <use style="fill:#0000ff;stroke:#0000ff;" x="76.469565" xlink:href="#mae9d190813" y="463.906383"/>
     <use style="fill:#0000ff;stroke:#0000ff;" x="76.688265" xlink:href="#mae9d190813" y="472.535908"/>
    </g>
   </g>
   <g id="line2d_44">
    <path clip-path="url(#p3f314243d5)" d="M 107.030671 472.714222 
L 107.148244 482.555813 
" style="fill:none;stroke:#0000ff;stroke-linecap:square;stroke-width:1.5;"/>
    <g clip-path="url(#p3f314243d5)">
     <use style="fill:#0000ff;stroke:#0000ff;" x="107.030671" xlink:href="#mae9d190813" y="472.714222"/>
     <use style="fill:#0000ff;stroke:#0000ff;" x="107.148244" xlink:href="#mae9d190813" y="482.555813"/>
    </g>
   </g>
   <g id="line2d_45">
    <path clip-path="url(#p3f314243d5)" d="M 138.335832 480.827059 
L 138.312125 493.410293 
" style="fill:none;stroke:#0000ff;stroke-linecap:square;stroke-width:1.5;"/>
    <g clip-path="url(#p3f314243d5)">
     <use style="fill:#0000ff;stroke:#0000ff;" x="138.335832" xlink:href="#mae9d190813" y="480.827059"/>
     <use style="fill:#0000ff;stroke:#0000ff;" x="138.312125" xlink:href="#mae9d190813" y="493.410293"/>
    </g>
   </g>
   <g id="line2d_46">
    <path clip-path="url(#p3f314243d5)" d="M 170.544334 482.504434 
L 170.155005 506.581726 
" style="fill:none;stroke:#0000ff;stroke-linecap:square;stroke-width:1.5;"/>
    <g clip-path="url(#p3f314243d5)">
     <use style="fill:#0000ff;stroke:#0000ff;" x="170.544334" xlink:href="#mae9d190813" y="482.504434"/>
     <use style="fill:#0000ff;stroke:#0000ff;" x="170.155005" xlink:href="#mae9d190813" y="506.581726"/>
    </g>
   </g>
   <g id="line2d_47">
    <path clip-path="url(#p3f314243d5)" d="M 99.920338 443.842433 
L 100.046826 452.33357 
" style="fill:none;stroke:#008000;stroke-linecap:square;stroke-width:1.5;"/>
    <g clip-path="url(#p3f314243d5)">
     <use style="fill:#008000;stroke:#008000;" x="99.920338" xlink:href="#mbb421e89e5" y="443.842433"/>
     <use style="fill:#008000;stroke:#008000;" x="100.046826" xlink:href="#mbb421e89e5" y="452.33357"/>
    </g>
   </g>
   <g id="line2d_48">
    <path clip-path="url(#p3f314243d5)" d="M 129.988201 450.639179 
L 130.010216 462.928367 
" style="fill:none;stroke:#008000;stroke-linecap:square;stroke-width:1.5;"/>
    <g clip-path="url(#p3f314243d5)">
     <use style="fill:#008000;stroke:#008000;" x="129.988201" xlink:href="#mbb421e89e5" y="450.639179"/>
     <use style="fill:#008000;stroke:#008000;" x="130.010216" xlink:href="#mbb421e89e5" y="462.928367"/>
    </g>
   </g>
   <g id="line2d_49">
    <path clip-path="url(#p3f314243d5)" d="M 160.765676 461.418942 
L 160.651313 471.17395 
" style="fill:none;stroke:#008000;stroke-linecap:square;stroke-width:1.5;"/>
    <g clip-path="url(#p3f314243d5)">
     <use style="fill:#008000;stroke:#008000;" x="160.765676" xlink:href="#mbb421e89e5" y="461.418942"/>
     <use style="fill:#008000;stroke:#008000;" x="160.651313" xlink:href="#mbb421e89e5" y="471.17395"/>
    </g>
   </g>
   <g id="line2d_50">
    <path clip-path="url(#p3f314243d5)" d="M 192.507643 461.164682 
L 191.899661 484.851237 
" style="fill:none;stroke:#008000;stroke-linecap:square;stroke-width:1.5;"/>
    <g clip-path="url(#p3f314243d5)">
     <use style="fill:#008000;stroke:#008000;" x="192.507643" xlink:href="#mbb421e89e5" y="461.164682"/>
     <use style="fill:#008000;stroke:#008000;" x="191.899661" xlink:href="#mbb421e89e5" y="484.851237"/>
    </g>
   </g>
   <g id="line2d_51">
    <path clip-path="url(#p3f314243d5)" d="M 122.09801 397.232476 
L 122.198942 416.936996 
" style="fill:none;stroke:#bfbf00;stroke-linecap:square;stroke-width:1.5;"/>
    <g clip-path="url(#p3f314243d5)">
     <use style="fill:#bfbf00;stroke:#bfbf00;" x="122.09801" xlink:href="#m95f9a1bff4" y="397.232476"/>
     <use style="fill:#bfbf00;stroke:#bfbf00;" x="122.198942" xlink:href="#m95f9a1bff4" y="416.936996"/>
    </g>
   </g>
   <g id="line2d_52">
    <path clip-path="url(#p3f314243d5)" d="M 151.889011 425.03611 
L 151.762491 441.467136 
" style="fill:none;stroke:#bfbf00;stroke-linecap:square;stroke-width:1.5;"/>
    <g clip-path="url(#p3f314243d5)">
     <use style="fill:#bfbf00;stroke:#bfbf00;" x="151.889011" xlink:href="#m95f9a1bff4" y="425.03611"/>
     <use style="fill:#bfbf00;stroke:#bfbf00;" x="151.762491" xlink:href="#m95f9a1bff4" y="441.467136"/>
    </g>
   </g>
   <g id="line2d_53">
    <path clip-path="url(#p3f314243d5)" d="M 182.251796 433.75571 
L 181.905679 450.308273 
" style="fill:none;stroke:#bfbf00;stroke-linecap:square;stroke-width:1.5;"/>
    <g clip-path="url(#p3f314243d5)">
     <use style="fill:#bfbf00;stroke:#bfbf00;" x="182.251796" xlink:href="#m95f9a1bff4" y="433.75571"/>
     <use style="fill:#bfbf00;stroke:#bfbf00;" x="181.905679" xlink:href="#m95f9a1bff4" y="450.308273"/>
    </g>
   </g>
   <g id="line2d_54">
    <path clip-path="url(#p3f314243d5)" style="fill:none;stroke:#bfbf00;stroke-linecap:square;stroke-width:1.5;"/>
    <g clip-path="url(#p3f314243d5)"/>
   </g>
   <g id="patch_26">
    <path clip-path="url(#p3f314243d5)" d="M 110.632316 425.931092 
L 133.995118 432.752872 
L 133.994254 410.486475 
L 110.407722 403.795979 
L 110.632316 425.931092 
" style="fill:#bfbf00;opacity:0.5;"/>
   </g>
   <g id="text_25">
    <!-- $0.961$ -->
    <g transform="translate(216.585937 347.735281)scale(0.22 -0.22)">
     <defs>
      <path d="M 678 2198 
C 678 3712 1395 4076 1811 4076 
C 1946 4076 2272 4049 2400 3782 
C 2298 3782 2106 3782 2106 3558 
C 2106 3385 2246 3328 2336 3328 
C 2394 3328 2566 3353 2566 3571 
C 2566 3987 2246 4224 1805 4224 
C 1043 4224 243 3411 243 2011 
C 243 257 966 -128 1478 -128 
C 2099 -128 2688 431 2688 1295 
C 2688 2101 2170 2688 1517 2688 
C 1126 2688 838 2430 678 1979 
L 678 2198 
z
M 1478 25 
C 691 25 691 1212 691 1450 
C 691 1914 909 2585 1504 2585 
C 1613 2585 1926 2585 2138 2140 
C 2253 1889 2253 1624 2253 1302 
C 2253 954 2253 696 2118 438 
C 1978 173 1773 25 1478 25 
z
" id="CMR17-36" transform="scale(0.015625)"/>
      <path d="M 1702 4083 
C 1702 4217 1696 4224 1606 4224 
C 1357 3927 979 3833 621 3820 
C 602 3820 570 3820 563 3808 
C 557 3795 557 3782 557 3648 
C 755 3648 1088 3686 1344 3839 
L 1344 467 
C 1344 243 1331 166 781 166 
L 589 166 
L 589 0 
C 896 6 1216 12 1523 12 
C 1830 12 2150 6 2458 0 
L 2458 166 
L 2266 166 
C 1715 166 1702 236 1702 467 
L 1702 4083 
z
" id="CMR17-31" transform="scale(0.015625)"/>
     </defs>
     <use transform="scale(0.996264)" xlink:href="#CMR17-30"/>
     <use transform="translate(45.690477 0)scale(0.996264)" xlink:href="#CMMI12-3a"/>
     <use transform="translate(72.787654 0)scale(0.996264)" xlink:href="#CMR17-39"/>
     <use transform="translate(118.478131 0)scale(0.996264)" xlink:href="#CMR17-36"/>
     <use transform="translate(164.168608 0)scale(0.996264)" xlink:href="#CMR17-31"/>
    </g>
   </g>
   <g id="text_26">
    <!-- $|\bar\Upsilon_1|$ -->
    <g transform="translate(244.03818 321.478169)scale(0.28 -0.28)">
     <use transform="scale(0.996264)" xlink:href="#CMSY10-6a"/>
     <use transform="translate(40.686248 25.175672)scale(0.996264)" xlink:href="#CMR17-16"/>
     <use transform="translate(27.674085 0)scale(0.996264)" xlink:href="#CMR17-7"/>
     <use transform="translate(99.388873 -14.943915)scale(0.697382)" xlink:href="#CMR17-31"/>
     <use transform="translate(131.870187 0)scale(0.996264)" xlink:href="#CMSY10-6a"/>
    </g>
   </g>
   <g id="patch_27">
    <path clip-path="url(#p3f314243d5)" d="M 139.90038 434.477169 
L 163.784859 441.451275 
L 163.845423 436.769733 
L 139.912135 429.823014 
L 139.90038 434.477169 
" style="fill:#bfbf00;opacity:0.5;"/>
   </g>
   <g id="patch_28">
    <path clip-path="url(#p3f314243d5)" d="M 169.82272 443.21429 
L 194.246545 450.345882 
L 194.37061 445.629774 
L 169.895758 438.525864 
L 169.82272 443.21429 
" style="fill:#bfbf00;opacity:0.5;"/>
   </g>
   <g id="patch_29">
    <path clip-path="url(#p3f314243d5)" d="M 88.173557 444.931349 
L 111.912625 452.094099 
L 111.908725 451.69219 
L 88.165555 444.531794 
L 88.173557 444.931349 
" style="fill:#008000;opacity:0.5;"/>
   </g>
   <g id="patch_30">
    <path clip-path="url(#p3f314243d5)" d="M 117.914623 453.905073 
L 142.197078 461.231778 
L 142.199764 460.478139 
L 117.909318 453.155861 
L 117.914623 453.905073 
" style="fill:#008000;opacity:0.5;"/>
   </g>
   <g id="patch_31">
    <path clip-path="url(#p3f314243d5)" d="M 148.337251 463.084443 
L 173.181967 470.580798 
L 173.190762 470.070852 
L 148.340428 462.577501 
L 148.337251 463.084443 
" style="fill:#008000;opacity:0.5;"/>
   </g>
   <g id="patch_32">
    <path clip-path="url(#p3f314243d5)" d="M 64.58312 464.889015 
L 88.707094 472.418953 
L 88.69891 472.010487 
L 64.570701 464.482957 
L 64.58312 464.889015 
" style="fill:#0000ff;opacity:0.5;"/>
   </g>
   <g id="patch_33">
    <path clip-path="url(#p3f314243d5)" d="M 179.46514 472.47661 
L 204.891874 480.148577 
L 204.993339 476.914167 
L 179.529565 469.261343 
L 179.46514 472.47661 
" style="fill:#008000;opacity:0.5;"/>
   </g>
   <g id="patch_34">
    <path clip-path="url(#p3f314243d5)" d="M 94.808151 474.323306 
L 119.498546 482.030044 
L 119.495218 481.515569 
L 94.799274 473.811872 
L 94.808151 474.323306 
" style="fill:#0000ff;opacity:0.5;"/>
   </g>
   <g id="patch_35">
    <path clip-path="url(#p3f314243d5)" d="M 125.743695 483.979374 
L 151.020697 491.869212 
L 151.026517 491.097531 
L 125.740856 483.212265 
L 125.743695 483.979374 
" style="fill:#0000ff;opacity:0.5;"/>
   </g>
   <g id="patch_36">
    <path clip-path="url(#p3f314243d5)" d="M 39.773256 485.878324 
L 64.290621 493.804425 
L 64.128489 488.592799 
L 39.556239 480.697689 
L 39.773256 485.878324 
" style="fill:#ff0000;opacity:0.5;"/>
   </g>
   <g id="patch_37">
    <path clip-path="url(#p3f314243d5)" d="M 157.415105 493.865131 
L 183.29987 501.944673 
L 183.372254 498.656986 
L 157.449092 490.597001 
L 157.415105 493.865131 
" style="fill:#0000ff;opacity:0.5;"/>
   </g>
   <g id="patch_38">
    <path clip-path="url(#p3f314243d5)" d="M 70.49303 495.809572 
L 95.601271 503.926695 
L 95.508305 498.531452 
L 70.340877 490.446484 
L 70.49303 495.809572 
" style="fill:#ff0000;opacity:0.5;"/>
   </g>
   <g id="patch_39">
    <path clip-path="url(#p3f314243d5)" d="M 101.954063 505.980459 
L 127.6748 514.295593 
L 127.659127 508.859817 
L 101.876256 500.577139 
L 101.954063 505.980459 
" style="fill:#ff0000;opacity:0.5;"/>
   </g>
   <g id="patch_40">
    <path clip-path="url(#p3f314243d5)" d="M 134.183511 516.399763 
L 160.539435 524.920244 
L 160.767367 505.858724 
L 134.184356 497.453371 
L 134.183511 516.399763 
" style="fill:#ff0000;opacity:0.5;"/>
   </g>
   <g id="patch_41">
    <path clip-path="url(#p3f314243d5)" d="M 200.421521 452.148933 
L 225.40317 459.443405 
L 285.490764 -1039.376772 
L 243.420638 -1029.060404 
L 200.421521 452.148933 
" style="fill:#bfbf00;opacity:0.5;"/>
   </g>
  </g>
 </g>
 <defs>
  <clipPath id="p80a7a09e56">
   <rect height="247.090909" width="247.090909" x="7.2" y="7.2"/>
  </clipPath>
  <clipPath id="p3f314243d5">
   <rect height="247.090909" width="247.090909" x="7.2" y="303.709091"/>
  </clipPath>
 </defs>
</svg>
