<?xml version="1.0" encoding="utf-8" standalone="no"?>
<!DOCTYPE svg PUBLIC "-//W3C//DTD SVG 1.1//EN"
  "http://www.w3.org/Graphics/SVG/1.1/DTD/svg11.dtd">
<svg height="292.535575pt" version="1.1" viewBox="0 0 610.569892 292.535575" width="610.569892pt" xmlns="http://www.w3.org/2000/svg" xmlns:xlink="http://www.w3.org/1999/xlink">
 <metadata>
  <rdf:RDF xmlns:cc="http://creativecommons.org/ns#" xmlns:dc="http://purl.org/dc/elements/1.1/" xmlns:rdf="http://www.w3.org/1999/02/22-rdf-syntax-ns#">
   <cc:Work>
    <dc:type rdf:resource="http://purl.org/dc/dcmitype/StillImage"/>
    <dc:date>2022-11-08T11:05:40.415137</dc:date>
    <dc:format>image/svg+xml</dc:format>
    <dc:creator>
     <cc:Agent>
      <dc:title>Matplotlib v3.4.2, https://matplotlib.org/</dc:title>
     </cc:Agent>
    </dc:creator>
   </cc:Work>
  </rdf:RDF>
 </metadata>
 <defs>
  <style type="text/css">*{stroke-linecap:butt;stroke-linejoin:round;}</style>
 </defs>
 <g id="figure_1">
  <g id="patch_1">
   <path d="M 0 292.535575 
L 610.569892 292.535575 
L 610.569892 0 
L 0 0 
z
" style="fill:none;"/>
  </g>
  <g id="patch_2">
   <path d="M 7.2 260.836364 
L 260.836364 260.836364 
L 260.836364 7.2 
L 7.2 7.2 
z
" style="fill:none;"/>
  </g>
  <g id="pane3d_1">
   <g id="patch_3">
    <path d="M 26.351295 198.297765 
L 110.110305 128.089301 
L 108.945975 26.836146 
L 21.178664 90.884732 
" style="fill:#f2f2f2;opacity:0.5;stroke:#f2f2f2;stroke-linejoin:miter;"/>
   </g>
  </g>
  <g id="pane3d_2">
   <g id="patch_4">
    <path d="M 110.110305 128.089301 
L 244.513632 167.155042 
L 249.310013 62.414338 
L 108.945975 26.836146 
" style="fill:#e6e6e6;opacity:0.5;stroke:#e6e6e6;stroke-linejoin:miter;"/>
   </g>
  </g>
  <g id="pane3d_3">
   <g id="patch_5">
    <path d="M 26.351295 198.297765 
L 168.825385 244.829803 
L 244.513632 167.155042 
L 110.110305 128.089301 
" style="fill:#ececec;opacity:0.5;stroke:#ececec;stroke-linejoin:miter;"/>
   </g>
  </g>
  <g id="axis3d_1">
   <g id="line2d_1">
    <path d="M 26.351295 198.297765 
L 168.825385 244.829803 
" style="fill:none;stroke:#000000;stroke-linecap:square;stroke-width:0.8;"/>
   </g>
   <g id="Line3DCollection_1">
    <path d="M 47.537457 205.217165 
L 130.171564 133.920317 
L 129.85934 32.137074 
" style="fill:none;stroke:#b0b0b0;stroke-width:0.8;"/>
    <path d="M 79.459419 215.642878 
L 160.34882 142.691654 
L 161.343199 40.117315 
" style="fill:none;stroke:#b0b0b0;stroke-width:0.8;"/>
    <path d="M 112.159199 226.322626 
L 191.199507 151.658731 
L 193.560505 48.283463 
" style="fill:none;stroke:#b0b0b0;stroke-width:0.8;"/>
    <path d="M 145.665574 237.265808 
L 222.746419 160.828173 
L 226.53719 56.642091 
" style="fill:none;stroke:#b0b0b0;stroke-width:0.8;"/>
   </g>
   <g id="xtick_1">
    <g id="line2d_2">
     <path d="M 48.257308 204.596076 
L 46.094651 206.462021 
" style="fill:none;stroke:#000000;stroke-linecap:square;stroke-width:0.8;"/>
    </g>
    <g id="text_1">
     <!-- $|00\rangle$ -->
     <g transform="translate(31.352298 248.24498)rotate(-45)scale(0.22 -0.22)">
      <defs>
       <path d="M 1018 4569 
C 1018 4684 1018 4800 890 4800 
C 762 4800 762 4684 762 4569 
L 762 -1370 
C 762 -1485 762 -1600 890 -1600 
C 1018 -1600 1018 -1485 1018 -1370 
L 1018 4569 
z
" id="CMSY10-6a" transform="scale(0.015625)"/>
       <path d="M 2688 2038 
C 2688 2430 2682 3099 2413 3613 
C 2176 4063 1798 4224 1466 4224 
C 1158 4224 768 4082 525 3620 
C 269 3137 243 2539 243 2038 
C 243 1671 250 1112 448 623 
C 723 -39 1216 -128 1466 -128 
C 1760 -128 2208 -7 2470 604 
C 2662 1048 2688 1568 2688 2038 
z
M 1466 -26 
C 1056 -26 813 328 723 816 
C 653 1196 653 1749 653 2109 
C 653 2604 653 3015 736 3407 
C 858 3954 1216 4121 1466 4121 
C 1728 4121 2067 3947 2189 3420 
C 2272 3054 2278 2623 2278 2109 
C 2278 1691 2278 1176 2202 797 
C 2067 96 1690 -26 1466 -26 
z
" id="CMR17-30" transform="scale(0.015625)"/>
       <path d="M 1747 1491 
C 1779 1568 1779 1580 1779 1600 
C 1779 1619 1779 1632 1747 1709 
L 627 4653 
C 589 4761 550 4800 480 4800 
C 410 4800 352 4742 352 4672 
C 352 4653 352 4640 384 4569 
L 1517 1600 
L 384 -1357 
C 352 -1428 352 -1440 352 -1472 
C 352 -1543 410 -1600 480 -1600 
C 563 -1600 589 -1536 614 -1472 
L 1747 1491 
z
" id="CMSY10-69" transform="scale(0.015625)"/>
      </defs>
      <use transform="scale(0.996264)" xlink:href="#CMSY10-6a"/>
      <use transform="translate(27.674085 0)scale(0.996264)" xlink:href="#CMR17-30"/>
      <use transform="translate(73.364562 0)scale(0.996264)" xlink:href="#CMR17-30"/>
      <use transform="translate(119.055039 0)scale(0.996264)" xlink:href="#CMSY10-69"/>
     </g>
    </g>
   </g>
   <g id="xtick_2">
    <g id="line2d_3">
     <path d="M 80.164764 215.006753 
L 78.045652 216.917904 
" style="fill:none;stroke:#000000;stroke-linecap:square;stroke-width:0.8;"/>
    </g>
    <g id="text_2">
     <!-- $|01\rangle$ -->
     <g transform="translate(63.289874 258.771303)rotate(-45)scale(0.22 -0.22)">
      <defs>
       <path d="M 1702 4083 
C 1702 4217 1696 4224 1606 4224 
C 1357 3927 979 3833 621 3820 
C 602 3820 570 3820 563 3808 
C 557 3795 557 3782 557 3648 
C 755 3648 1088 3686 1344 3839 
L 1344 467 
C 1344 243 1331 166 781 166 
L 589 166 
L 589 0 
C 896 6 1216 12 1523 12 
C 1830 12 2150 6 2458 0 
L 2458 166 
L 2266 166 
C 1715 166 1702 236 1702 467 
L 1702 4083 
z
" id="CMR17-31" transform="scale(0.015625)"/>
      </defs>
      <use transform="scale(0.996264)" xlink:href="#CMSY10-6a"/>
      <use transform="translate(27.674085 0)scale(0.996264)" xlink:href="#CMR17-30"/>
      <use transform="translate(73.364562 0)scale(0.996264)" xlink:href="#CMR17-31"/>
      <use transform="translate(119.055039 0)scale(0.996264)" xlink:href="#CMSY10-69"/>
     </g>
    </g>
   </g>
   <g id="xtick_3">
    <g id="line2d_4">
     <path d="M 112.849112 225.670913 
L 110.776325 227.628931 
" style="fill:none;stroke:#000000;stroke-linecap:square;stroke-width:0.8;"/>
    </g>
    <g id="text_3">
     <!-- $|10\rangle$ -->
     <g transform="translate(96.007002 269.554559)rotate(-45)scale(0.22 -0.22)">
      <use transform="scale(0.996264)" xlink:href="#CMSY10-6a"/>
      <use transform="translate(27.674085 0)scale(0.996264)" xlink:href="#CMR17-31"/>
      <use transform="translate(73.364562 0)scale(0.996264)" xlink:href="#CMR17-30"/>
      <use transform="translate(119.055039 0)scale(0.996264)" xlink:href="#CMSY10-69"/>
     </g>
    </g>
   </g>
   <g id="xtick_4">
    <g id="line2d_5">
     <path d="M 146.339076 236.597926 
L 144.315558 238.604559 
" style="fill:none;stroke:#000000;stroke-linecap:square;stroke-width:0.8;"/>
    </g>
    <g id="text_4">
     <!-- $|11\rangle$ -->
     <g transform="translate(129.532577 280.604272)rotate(-45)scale(0.22 -0.22)">
      <use transform="scale(0.996264)" xlink:href="#CMSY10-6a"/>
      <use transform="translate(27.674085 0)scale(0.996264)" xlink:href="#CMR17-31"/>
      <use transform="translate(73.364562 0)scale(0.996264)" xlink:href="#CMR17-31"/>
      <use transform="translate(119.055039 0)scale(0.996264)" xlink:href="#CMSY10-69"/>
     </g>
    </g>
   </g>
  </g>
  <g id="axis3d_2">
   <g id="line2d_6">
    <path d="M 244.513632 167.155042 
L 168.825385 244.829803 
" style="fill:none;stroke:#000000;stroke-linecap:square;stroke-width:0.8;"/>
   </g>
   <g id="Line3DCollection_2">
    <path d="M 27.247991 86.455614 
L 32.122998 193.459808 
L 174.062426 239.45531 
" style="fill:none;stroke:#b0b0b0;stroke-width:0.8;"/>
    <path d="M 54.106724 66.855333 
L 57.701022 172.019802 
L 197.232652 215.676959 
" style="fill:none;stroke:#b0b0b0;stroke-width:0.8;"/>
    <path d="M 79.592766 48.256781 
L 82.026808 151.629446 
L 219.210597 193.122181 
" style="fill:none;stroke:#b0b0b0;stroke-width:0.8;"/>
    <path d="M 103.808727 30.585075 
L 105.190118 132.2135 
L 240.085979 171.698903 
" style="fill:none;stroke:#b0b0b0;stroke-width:0.8;"/>
   </g>
   <g id="xtick_5">
    <g id="line2d_7">
     <path d="M 172.866299 239.067705 
L 176.457775 240.231524 
" style="fill:none;stroke:#000000;stroke-linecap:square;stroke-width:0.8;"/>
    </g>
    <g id="text_5">
     <!-- $\langle 00|$ -->
     <g transform="translate(168.037206 256.913298)rotate(-315)scale(0.22 -0.22)">
      <defs>
       <path d="M 2099 4557 
C 2131 4627 2131 4640 2131 4672 
C 2131 4742 2074 4800 2003 4800 
C 1946 4800 1901 4768 1856 4653 
L 736 1715 
C 723 1677 704 1638 704 1600 
C 704 1580 704 1568 736 1491 
L 1856 -1447 
C 1882 -1517 1914 -1600 2003 -1600 
C 2074 -1600 2131 -1543 2131 -1472 
C 2131 -1453 2131 -1440 2099 -1370 
L 966 1600 
L 2099 4557 
z
" id="CMSY10-68" transform="scale(0.015625)"/>
      </defs>
      <use transform="scale(0.996264)" xlink:href="#CMSY10-68"/>
      <use transform="translate(38.743734 0)scale(0.996264)" xlink:href="#CMR17-30"/>
      <use transform="translate(84.434211 0)scale(0.996264)" xlink:href="#CMR17-30"/>
      <use transform="translate(130.124688 0)scale(0.996264)" xlink:href="#CMSY10-6a"/>
     </g>
    </g>
   </g>
   <g id="xtick_6">
    <g id="line2d_8">
     <path d="M 196.058388 215.309551 
L 199.584137 216.4127 
" style="fill:none;stroke:#000000;stroke-linecap:square;stroke-width:0.8;"/>
    </g>
    <g id="text_6">
     <!-- $\langle 01|$ -->
     <g transform="translate(191.065707 232.97451)rotate(-315)scale(0.22 -0.22)">
      <use transform="scale(0.996264)" xlink:href="#CMSY10-68"/>
      <use transform="translate(38.743734 0)scale(0.996264)" xlink:href="#CMR17-30"/>
      <use transform="translate(84.434211 0)scale(0.996264)" xlink:href="#CMR17-31"/>
      <use transform="translate(130.124688 0)scale(0.996264)" xlink:href="#CMSY10-6a"/>
     </g>
    </g>
   </g>
   <g id="xtick_7">
    <g id="line2d_9">
     <path d="M 218.057558 192.773432 
L 221.519502 193.820535 
" style="fill:none;stroke:#000000;stroke-linecap:square;stroke-width:0.8;"/>
    </g>
    <g id="text_7">
     <!-- $\langle 10|$ -->
     <g transform="translate(212.908913 210.267872)rotate(-315)scale(0.22 -0.22)">
      <use transform="scale(0.996264)" xlink:href="#CMSY10-68"/>
      <use transform="translate(38.743734 0)scale(0.996264)" xlink:href="#CMR17-31"/>
      <use transform="translate(84.434211 0)scale(0.996264)" xlink:href="#CMR17-30"/>
      <use transform="translate(130.124688 0)scale(0.996264)" xlink:href="#CMSY10-6a"/>
     </g>
    </g>
   </g>
   <g id="xtick_8">
    <g id="line2d_10">
     <path d="M 238.953541 171.367426 
L 242.353564 172.362648 
" style="fill:none;stroke:#000000;stroke-linecap:square;stroke-width:0.8;"/>
    </g>
    <g id="text_8">
     <!-- $\langle 11|$ -->
     <g transform="translate(233.656039 188.700638)rotate(-315)scale(0.22 -0.22)">
      <use transform="scale(0.996264)" xlink:href="#CMSY10-68"/>
      <use transform="translate(38.743734 0)scale(0.996264)" xlink:href="#CMR17-31"/>
      <use transform="translate(84.434211 0)scale(0.996264)" xlink:href="#CMR17-31"/>
      <use transform="translate(130.124688 0)scale(0.996264)" xlink:href="#CMSY10-6a"/>
     </g>
    </g>
   </g>
  </g>
  <g id="axis3d_3">
   <g id="line2d_11">
    <path d="M 244.513632 167.155042 
L 249.310013 62.414338 
" style="fill:none;stroke:#000000;stroke-linecap:square;stroke-width:0.8;"/>
   </g>
   <g id="Line3DCollection_3">
    <path d="M 244.605525 165.148326 
L 110.087952 126.145382 
L 26.252356 196.24325 
" style="fill:none;stroke:#b0b0b0;stroke-width:0.8;"/>
    <path d="M 246.859283 115.932023 
L 109.54028 78.51844 
L 23.82382 145.813109 
" style="fill:none;stroke:#b0b0b0;stroke-width:0.8;"/>
    <path d="M 249.209878 64.601035 
L 108.970233 28.945668 
L 21.286832 93.130925 
" style="fill:none;stroke:#b0b0b0;stroke-width:0.8;"/>
   </g>
   <g id="xtick_9">
    <g id="line2d_12">
     <path d="M 243.476507 164.820971 
L 246.866249 165.803816 
" style="fill:none;stroke:#000000;stroke-linecap:square;stroke-width:0.8;"/>
    </g>
    <g id="text_9">
     <!-- $\mathdefault{0.00}$ -->
     <g transform="translate(254.277632 176.169361)rotate(-345)scale(0.22 -0.22)">
      <defs>
       <path d="M 1178 307 
C 1178 492 1024 620 870 620 
C 685 620 557 467 557 313 
C 557 128 710 0 864 0 
C 1050 0 1178 153 1178 307 
z
" id="CMMI12-3a" transform="scale(0.015625)"/>
      </defs>
      <use transform="scale(0.996264)" xlink:href="#CMR17-30"/>
      <use transform="translate(45.690477 0)scale(0.996264)" xlink:href="#CMMI12-3a"/>
      <use transform="translate(72.787654 0)scale(0.996264)" xlink:href="#CMR17-30"/>
      <use transform="translate(118.478131 0)scale(0.996264)" xlink:href="#CMR17-30"/>
     </g>
    </g>
   </g>
   <g id="xtick_10">
    <g id="line2d_13">
     <path d="M 245.705617 115.617698 
L 249.169418 116.561436 
" style="fill:none;stroke:#000000;stroke-linecap:square;stroke-width:0.8;"/>
    </g>
    <g id="text_10">
     <!-- $\mathdefault{0.05}$ -->
     <g transform="translate(257.117138 127.115164)rotate(-345)scale(0.22 -0.22)">
      <defs>
       <path d="M 730 3750 
C 794 3724 1056 3641 1325 3641 
C 1920 3641 2246 3961 2432 4140 
C 2432 4191 2432 4224 2394 4224 
C 2387 4224 2374 4224 2323 4198 
C 2099 4102 1837 4032 1517 4032 
C 1325 4032 1037 4055 723 4191 
C 653 4224 640 4224 634 4224 
C 602 4224 595 4217 595 4090 
L 595 2231 
C 595 2113 595 2080 659 2080 
C 691 2080 704 2093 736 2139 
C 941 2435 1222 2560 1542 2560 
C 1766 2560 2246 2415 2246 1293 
C 2246 1087 2246 716 2054 422 
C 1894 159 1645 25 1370 25 
C 947 25 518 319 403 812 
C 429 806 480 793 506 793 
C 589 793 749 838 749 1036 
C 749 1209 627 1280 506 1280 
C 358 1280 262 1190 262 1011 
C 262 454 704 -128 1382 -128 
C 2042 -128 2669 441 2669 1267 
C 2669 2054 2170 2662 1549 2662 
C 1222 2662 947 2540 730 2304 
L 730 3750 
z
" id="CMR17-35" transform="scale(0.015625)"/>
      </defs>
      <use transform="scale(0.996264)" xlink:href="#CMR17-30"/>
      <use transform="translate(45.690477 0)scale(0.996264)" xlink:href="#CMMI12-3a"/>
      <use transform="translate(72.787654 0)scale(0.996264)" xlink:href="#CMR17-30"/>
      <use transform="translate(118.478131 0)scale(0.996264)" xlink:href="#CMR17-35"/>
     </g>
    </g>
   </g>
   <g id="xtick_11">
    <g id="line2d_14">
     <path d="M 248.030466 64.301175 
L 251.57163 65.201501 
" style="fill:none;stroke:#000000;stroke-linecap:square;stroke-width:0.8;"/>
    </g>
    <g id="text_11">
     <!-- $\mathdefault{0.10}$ -->
     <g transform="translate(260.078025 75.964058)rotate(-345)scale(0.22 -0.22)">
      <use transform="scale(0.996264)" xlink:href="#CMR17-30"/>
      <use transform="translate(45.690477 0)scale(0.996264)" xlink:href="#CMMI12-3a"/>
      <use transform="translate(72.787654 0)scale(0.996264)" xlink:href="#CMR17-31"/>
      <use transform="translate(118.478131 0)scale(0.996264)" xlink:href="#CMR17-30"/>
     </g>
    </g>
   </g>
  </g>
  <g id="axes_1">
   <g id="line2d_15">
    <path clip-path="url(#pa47cce1fb0)" style="fill:none;stroke:#ff0000;stroke-linecap:square;stroke-width:1.5;"/>
    <defs>
     <path d="M 3 0 
L -3 -0 
" id="m537584c358" style="stroke:#ff0000;"/>
    </defs>
    <g clip-path="url(#pa47cce1fb0)"/>
   </g>
   <g id="line2d_16">
    <path clip-path="url(#pa47cce1fb0)" d="M 84.270242 176.817282 
L 84.531243 188.245919 
" style="fill:none;stroke:#ff0000;stroke-linecap:square;stroke-width:1.5;"/>
    <g clip-path="url(#pa47cce1fb0)">
     <use style="fill:#ff0000;stroke:#ff0000;" x="84.270242" xlink:href="#m537584c358" y="176.817282"/>
     <use style="fill:#ff0000;stroke:#ff0000;" x="84.531243" xlink:href="#m537584c358" y="188.245919"/>
    </g>
   </g>
   <g id="line2d_17">
    <path clip-path="url(#pa47cce1fb0)" d="M 117.323702 187.11595 
L 117.423675 198.633212 
" style="fill:none;stroke:#ff0000;stroke-linecap:square;stroke-width:1.5;"/>
    <g clip-path="url(#pa47cce1fb0)">
     <use style="fill:#ff0000;stroke:#ff0000;" x="117.323702" xlink:href="#m537584c358" y="187.11595"/>
     <use style="fill:#ff0000;stroke:#ff0000;" x="117.423675" xlink:href="#m537584c358" y="198.633212"/>
    </g>
   </g>
   <g id="line2d_18">
    <path clip-path="url(#pa47cce1fb0)" d="M 77.922612 156.57153 
L 78.695502 187.068343 
" style="fill:none;stroke:#0000ff;stroke-linecap:square;stroke-width:1.5;"/>
    <defs>
     <path d="M 3 0 
L -3 -0 
" id="m0261dff82a" style="stroke:#0000ff;"/>
    </defs>
    <g clip-path="url(#pa47cce1fb0)">
     <use style="fill:#0000ff;stroke:#0000ff;" x="77.922612" xlink:href="#m0261dff82a" y="156.57153"/>
     <use style="fill:#0000ff;stroke:#0000ff;" x="78.695502" xlink:href="#m0261dff82a" y="187.068343"/>
    </g>
   </g>
   <g id="line2d_19">
    <path clip-path="url(#pa47cce1fb0)" d="M 109.626624 176.616647 
L 109.767333 188.394831 
" style="fill:none;stroke:#0000ff;stroke-linecap:square;stroke-width:1.5;"/>
    <g clip-path="url(#pa47cce1fb0)">
     <use style="fill:#0000ff;stroke:#0000ff;" x="109.626624" xlink:href="#m0261dff82a" y="176.616647"/>
     <use style="fill:#0000ff;stroke:#0000ff;" x="109.767333" xlink:href="#m0261dff82a" y="188.394831"/>
    </g>
   </g>
   <g id="line2d_20">
    <path clip-path="url(#pa47cce1fb0)" d="M 102.155682 136.221506 
L 102.60265 166.226552 
" style="fill:none;stroke:#008000;stroke-linecap:square;stroke-width:1.5;"/>
    <defs>
     <path d="M 3 0 
L -3 -0 
" id="m63ae0f3fed" style="stroke:#008000;"/>
    </defs>
    <g clip-path="url(#pa47cce1fb0)">
     <use style="fill:#008000;stroke:#008000;" x="102.155682" xlink:href="#m63ae0f3fed" y="136.221506"/>
     <use style="fill:#008000;stroke:#008000;" x="102.60265" xlink:href="#m63ae0f3fed" y="166.226552"/>
    </g>
   </g>
   <g id="line2d_21">
    <path clip-path="url(#pa47cce1fb0)" d="M 164.880879 165.058258 
L 164.744017 176.732377 
" style="fill:none;stroke:#008000;stroke-linecap:square;stroke-width:1.5;"/>
    <g clip-path="url(#pa47cce1fb0)">
     <use style="fill:#008000;stroke:#008000;" x="164.880879" xlink:href="#m63ae0f3fed" y="165.058258"/>
     <use style="fill:#008000;stroke:#008000;" x="164.744017" xlink:href="#m63ae0f3fed" y="176.732377"/>
    </g>
   </g>
   <g id="line2d_22">
    <path clip-path="url(#pa47cce1fb0)" d="M 125.29969 134.051069 
L 125.320527 138.118817 
" style="fill:none;stroke:#bfbf00;stroke-linecap:square;stroke-width:1.5;"/>
    <defs>
     <path d="M 3 0 
L -3 -0 
" id="mde6923c5fa" style="stroke:#bfbf00;"/>
    </defs>
    <g clip-path="url(#pa47cce1fb0)">
     <use style="fill:#bfbf00;stroke:#bfbf00;" x="125.29969" xlink:href="#mde6923c5fa" y="134.051069"/>
     <use style="fill:#bfbf00;stroke:#bfbf00;" x="125.320527" xlink:href="#mde6923c5fa" y="138.118817"/>
    </g>
   </g>
   <g id="line2d_23">
    <path clip-path="url(#pa47cce1fb0)" d="M 218.966138 144.104706 
L 218.596899 154.799273 
" style="fill:none;stroke:#bfbf00;stroke-linecap:square;stroke-width:1.5;"/>
    <g clip-path="url(#pa47cce1fb0)">
     <use style="fill:#bfbf00;stroke:#bfbf00;" x="218.966138" xlink:href="#mde6923c5fa" y="144.104706"/>
     <use style="fill:#bfbf00;stroke:#bfbf00;" x="218.596899" xlink:href="#mde6923c5fa" y="154.799273"/>
    </g>
   </g>
   <g id="patch_6">
    <path clip-path="url(#pa47cce1fb0)" d="M 113.372244 132.65967 
L 137.353929 139.66216 
L 137.353927 139.603141 
L 113.371649 132.600994 
L 113.372244 132.65967 
" style="fill:#bfbf00;opacity:0.5;"/>
   </g>
   <g id="text_12">
    <!-- $0.961$ -->
    <g transform="translate(48.990893 84.131255)scale(0.22 -0.22)">
     <defs>
      <path d="M 2253 1871 
C 2253 448 1670 25 1190 25 
C 1043 25 685 43 538 281 
C 704 256 826 345 826 505 
C 826 678 685 736 595 736 
C 538 736 365 710 365 492 
C 365 68 742 -128 1203 -128 
C 1939 -128 2688 665 2688 2090 
C 2688 3857 1971 4224 1485 4224 
C 851 4224 243 3664 243 2800 
C 243 2000 762 1408 1414 1408 
C 1952 1408 2189 1910 2253 2122 
L 2253 1871 
z
M 1427 1510 
C 1254 1510 1011 1542 813 1929 
C 678 2181 678 2477 678 2793 
C 678 3174 678 3438 858 3722 
C 947 3857 1114 4076 1485 4076 
C 2240 4076 2240 2909 2240 2651 
C 2240 2193 2035 1510 1427 1510 
z
" id="CMR17-39" transform="scale(0.015625)"/>
      <path d="M 678 2198 
C 678 3712 1395 4076 1811 4076 
C 1946 4076 2272 4049 2400 3782 
C 2298 3782 2106 3782 2106 3558 
C 2106 3385 2246 3328 2336 3328 
C 2394 3328 2566 3353 2566 3571 
C 2566 3987 2246 4224 1805 4224 
C 1043 4224 243 3411 243 2011 
C 243 257 966 -128 1478 -128 
C 2099 -128 2688 431 2688 1295 
C 2688 2101 2170 2688 1517 2688 
C 1126 2688 838 2430 678 1979 
L 678 2198 
z
M 1478 25 
C 691 25 691 1212 691 1450 
C 691 1914 909 2585 1504 2585 
C 1613 2585 1926 2585 2138 2140 
C 2253 1889 2253 1624 2253 1302 
C 2253 954 2253 696 2118 438 
C 1978 173 1773 25 1478 25 
z
" id="CMR17-36" transform="scale(0.015625)"/>
     </defs>
     <use transform="scale(0.996264)" xlink:href="#CMR17-30"/>
     <use transform="translate(45.690477 0)scale(0.996264)" xlink:href="#CMMI12-3a"/>
     <use transform="translate(72.787654 0)scale(0.996264)" xlink:href="#CMR17-39"/>
     <use transform="translate(118.478131 0)scale(0.996264)" xlink:href="#CMR17-36"/>
     <use transform="translate(164.168608 0)scale(0.996264)" xlink:href="#CMR17-31"/>
    </g>
   </g>
   <g id="text_13">
    <!-- $|\Upsilon_0^0|$ -->
    <g transform="translate(250.312039 25.439782)scale(0.28 -0.28)">
     <defs>
      <path d="M 2515 2262 
C 2515 2544 2554 3089 2726 3506 
C 2906 3922 3187 4115 3533 4115 
C 3738 4115 4115 3999 4173 3531 
C 4179 3480 4179 3461 4237 3461 
C 4301 3461 4307 3480 4307 3544 
C 4307 3884 4083 4480 3526 4480 
C 2554 4480 2355 3236 2310 2909 
L 2304 2909 
C 2253 3243 2048 4480 1075 4480 
C 512 4480 294 3877 294 3544 
C 294 3480 301 3461 365 3461 
C 422 3461 422 3480 429 3531 
C 486 4006 864 4115 1069 4115 
C 2029 4115 2093 2647 2093 2262 
L 2093 461 
C 2093 230 2080 166 1594 166 
L 1453 166 
L 1453 0 
C 1722 12 2035 12 2304 12 
C 2573 12 2886 12 3155 0 
L 3155 166 
L 3014 166 
C 2528 166 2515 230 2515 461 
L 2515 2262 
z
" id="CMR17-7" transform="scale(0.015625)"/>
     </defs>
     <use transform="scale(0.996264)" xlink:href="#CMSY10-6a"/>
     <use transform="translate(27.674085 0)scale(0.996264)" xlink:href="#CMR17-7"/>
     <use transform="translate(99.388873 36.153639)scale(0.697382)" xlink:href="#CMR17-30"/>
     <use transform="translate(99.388873 -24.740171)scale(0.697382)" xlink:href="#CMR17-30"/>
     <use transform="translate(131.870187 0)scale(0.996264)" xlink:href="#CMSY10-6a"/>
    </g>
   </g>
   <g id="patch_7">
    <path clip-path="url(#pa47cce1fb0)" d="M 143.415622 141.432133 
L 167.932803 148.590984 
L 167.933413 148.543812 
L 143.415741 141.385236 
L 143.415622 141.432133 
" style="fill:#bfbf00;opacity:0.5;"/>
   </g>
   <g id="patch_8">
    <path clip-path="url(#pa47cce1fb0)" d="M 174.130606 150.400701 
L 199.20142 157.721209 
L 199.20267 157.673689 
L 174.131342 150.353459 
L 174.130606 150.400701 
" style="fill:#bfbf00;opacity:0.5;"/>
   </g>
   <g id="patch_9">
    <path clip-path="url(#pa47cce1fb0)" d="M 90.318552 152.163245 
L 114.686469 159.515737 
L 114.642647 154.999145 
L 90.228626 147.673175 
L 90.318552 152.163245 
" style="fill:#008000;opacity:0.5;"/>
   </g>
   <g id="patch_10">
    <path clip-path="url(#pa47cce1fb0)" d="M 120.847461 161.374683 
L 145.77316 168.895474 
L 145.77352 168.794345 
L 120.846749 161.274148 
L 120.847461 161.374683 
" style="fill:#008000;opacity:0.5;"/>
   </g>
   <g id="patch_11">
    <path clip-path="url(#pa47cce1fb0)" d="M 205.539972 159.572023 
L 231.183386 167.059727 
L 231.739671 153.183804 
L 205.9404 145.778285 
L 205.539972 159.572023 
" style="fill:#bfbf00;opacity:0.5;"/>
   </g>
   <g id="patch_12">
    <path clip-path="url(#pa47cce1fb0)" d="M 152.075986 170.797215 
L 177.57884 178.49215 
L 177.643144 174.764067 
L 152.099212 167.091145 
L 152.075986 170.797215 
" style="fill:#008000;opacity:0.5;"/>
   </g>
   <g id="patch_13">
    <path clip-path="url(#pa47cce1fb0)" d="M 66.103203 172.649591 
L 90.866222 180.378997 
L 90.774251 175.788524 
L 65.963633 168.086252 
L 66.103203 172.649591 
" style="fill:#0000ff;opacity:0.5;"/>
   </g>
   <g id="patch_14">
    <path clip-path="url(#pa47cce1fb0)" d="M 184.028455 180.438182 
L 210.128745 188.31338 
L 210.138661 187.997286 
L 184.034751 180.123955 
L 184.028455 180.438182 
" style="fill:#008000;opacity:0.5;"/>
   </g>
   <g id="patch_15">
    <path clip-path="url(#pa47cce1fb0)" d="M 97.128897 182.333797 
L 122.473342 190.244687 
L 122.449015 186.48342 
L 97.064002 178.594809 
L 97.128897 182.333797 
" style="fill:#0000ff;opacity:0.5;"/>
   </g>
   <g id="patch_16">
    <path clip-path="url(#pa47cce1fb0)" d="M 128.883926 192.245655 
L 154.830517 200.344495 
L 154.831298 200.240946 
L 128.883545 192.142719 
L 128.883926 192.245655 
" style="fill:#0000ff;opacity:0.5;"/>
   </g>
   <g id="patch_17">
    <path clip-path="url(#pa47cce1fb0)" d="M 161.394313 202.393286 
L 187.964767 210.686856 
L 187.971841 210.365566 
L 161.397635 202.073903 
L 161.394313 202.393286 
" style="fill:#0000ff;opacity:0.5;"/>
   </g>
   <g id="patch_18">
    <path clip-path="url(#pa47cce1fb0)" d="M 72.169666 204.389236 
L 97.943026 212.721382 
L 97.493835 186.652747 
L 71.434561 178.47818 
L 72.169666 204.389236 
" style="fill:#ff0000;opacity:0.5;"/>
   </g>
   <g id="patch_19">
    <path clip-path="url(#pa47cce1fb0)" d="M 104.464104 214.82955 
L 130.866186 223.364953 
L 130.790447 197.097603 
L 104.08815 188.721326 
L 104.464104 214.82955 
" style="fill:#ff0000;opacity:0.5;"/>
   </g>
   <g id="patch_20">
    <path clip-path="url(#pa47cce1fb0)" d="M 137.547313 225.524862 
L 164.601406 234.271051 
L 164.71479 224.789044 
L 137.547733 216.099715 
L 137.547313 225.524862 
" style="fill:#ff0000;opacity:0.5;"/>
   </g>
   <g id="patch_21">
    <path clip-path="url(#pa47cce1fb0)" d="M 40.636123 194.194908 
L 65.802955 202.330972 
L 15.235519 -1423.129667 
L -26.603497 -1410.957616 
L 40.636123 194.194908 
" style="fill:#ff0000;opacity:0.5;"/>
   </g>
  </g>
  <g id="patch_22">
   <path d="M 311.563636 260.836364 
L 565.2 260.836364 
L 565.2 7.2 
L 311.563636 7.2 
z
" style="fill:none;"/>
  </g>
  <g id="pane3d_4">
   <g id="patch_23">
    <path d="M 330.714931 198.297765 
L 414.473942 128.089301 
L 413.309611 26.836146 
L 325.5423 90.884732 
" style="fill:#f2f2f2;opacity:0.5;stroke:#f2f2f2;stroke-linejoin:miter;"/>
   </g>
  </g>
  <g id="pane3d_5">
   <g id="patch_24">
    <path d="M 414.473942 128.089301 
L 548.877268 167.155042 
L 553.673649 62.414338 
L 413.309611 26.836146 
" style="fill:#e6e6e6;opacity:0.5;stroke:#e6e6e6;stroke-linejoin:miter;"/>
   </g>
  </g>
  <g id="pane3d_6">
   <g id="patch_25">
    <path d="M 330.714931 198.297765 
L 473.189022 244.829803 
L 548.877268 167.155042 
L 414.473942 128.089301 
" style="fill:#ececec;opacity:0.5;stroke:#ececec;stroke-linejoin:miter;"/>
   </g>
  </g>
  <g id="axis3d_4">
   <g id="line2d_24">
    <path d="M 330.714931 198.297765 
L 473.189022 244.829803 
" style="fill:none;stroke:#000000;stroke-linecap:square;stroke-width:0.8;"/>
   </g>
   <g id="Line3DCollection_4">
    <path d="M 351.901093 205.217165 
L 434.5352 133.920317 
L 434.222976 32.137074 
" style="fill:none;stroke:#b0b0b0;stroke-width:0.8;"/>
    <path d="M 383.823056 215.642878 
L 464.712457 142.691654 
L 465.706835 40.117315 
" style="fill:none;stroke:#b0b0b0;stroke-width:0.8;"/>
    <path d="M 416.522835 226.322626 
L 495.563143 151.658731 
L 497.924142 48.283463 
" style="fill:none;stroke:#b0b0b0;stroke-width:0.8;"/>
    <path d="M 450.029211 237.265808 
L 527.110056 160.828173 
L 530.900827 56.642091 
" style="fill:none;stroke:#b0b0b0;stroke-width:0.8;"/>
   </g>
   <g id="xtick_12">
    <g id="line2d_25">
     <path d="M 352.620944 204.596076 
L 350.458287 206.462021 
" style="fill:none;stroke:#000000;stroke-linecap:square;stroke-width:0.8;"/>
    </g>
    <g id="text_14">
     <!-- $|00\rangle$ -->
     <g transform="translate(335.715935 248.24498)rotate(-45)scale(0.22 -0.22)">
      <use transform="scale(0.996264)" xlink:href="#CMSY10-6a"/>
      <use transform="translate(27.674085 0)scale(0.996264)" xlink:href="#CMR17-30"/>
      <use transform="translate(73.364562 0)scale(0.996264)" xlink:href="#CMR17-30"/>
      <use transform="translate(119.055039 0)scale(0.996264)" xlink:href="#CMSY10-69"/>
     </g>
    </g>
   </g>
   <g id="xtick_13">
    <g id="line2d_26">
     <path d="M 384.5284 215.006753 
L 382.409289 216.917904 
" style="fill:none;stroke:#000000;stroke-linecap:square;stroke-width:0.8;"/>
    </g>
    <g id="text_15">
     <!-- $|01\rangle$ -->
     <g transform="translate(367.65351 258.771303)rotate(-45)scale(0.22 -0.22)">
      <use transform="scale(0.996264)" xlink:href="#CMSY10-6a"/>
      <use transform="translate(27.674085 0)scale(0.996264)" xlink:href="#CMR17-30"/>
      <use transform="translate(73.364562 0)scale(0.996264)" xlink:href="#CMR17-31"/>
      <use transform="translate(119.055039 0)scale(0.996264)" xlink:href="#CMSY10-69"/>
     </g>
    </g>
   </g>
   <g id="xtick_14">
    <g id="line2d_27">
     <path d="M 417.212749 225.670913 
L 415.139961 227.628931 
" style="fill:none;stroke:#000000;stroke-linecap:square;stroke-width:0.8;"/>
    </g>
    <g id="text_16">
     <!-- $|10\rangle$ -->
     <g transform="translate(400.370638 269.554559)rotate(-45)scale(0.22 -0.22)">
      <use transform="scale(0.996264)" xlink:href="#CMSY10-6a"/>
      <use transform="translate(27.674085 0)scale(0.996264)" xlink:href="#CMR17-31"/>
      <use transform="translate(73.364562 0)scale(0.996264)" xlink:href="#CMR17-30"/>
      <use transform="translate(119.055039 0)scale(0.996264)" xlink:href="#CMSY10-69"/>
     </g>
    </g>
   </g>
   <g id="xtick_15">
    <g id="line2d_28">
     <path d="M 450.702713 236.597926 
L 448.679195 238.604559 
" style="fill:none;stroke:#000000;stroke-linecap:square;stroke-width:0.8;"/>
    </g>
    <g id="text_17">
     <!-- $|11\rangle$ -->
     <g transform="translate(433.896214 280.604272)rotate(-45)scale(0.22 -0.22)">
      <use transform="scale(0.996264)" xlink:href="#CMSY10-6a"/>
      <use transform="translate(27.674085 0)scale(0.996264)" xlink:href="#CMR17-31"/>
      <use transform="translate(73.364562 0)scale(0.996264)" xlink:href="#CMR17-31"/>
      <use transform="translate(119.055039 0)scale(0.996264)" xlink:href="#CMSY10-69"/>
     </g>
    </g>
   </g>
  </g>
  <g id="axis3d_5">
   <g id="line2d_29">
    <path d="M 548.877268 167.155042 
L 473.189022 244.829803 
" style="fill:none;stroke:#000000;stroke-linecap:square;stroke-width:0.8;"/>
   </g>
   <g id="Line3DCollection_5">
    <path d="M 331.611627 86.455614 
L 336.486635 193.459808 
L 478.426063 239.45531 
" style="fill:none;stroke:#b0b0b0;stroke-width:0.8;"/>
    <path d="M 358.47036 66.855333 
L 362.064658 172.019802 
L 501.596288 215.676959 
" style="fill:none;stroke:#b0b0b0;stroke-width:0.8;"/>
    <path d="M 383.956402 48.256781 
L 386.390444 151.629446 
L 523.574233 193.122181 
" style="fill:none;stroke:#b0b0b0;stroke-width:0.8;"/>
    <path d="M 408.172363 30.585075 
L 409.553754 132.2135 
L 544.449616 171.698903 
" style="fill:none;stroke:#b0b0b0;stroke-width:0.8;"/>
   </g>
   <g id="xtick_16">
    <g id="line2d_30">
     <path d="M 477.229935 239.067705 
L 480.821412 240.231524 
" style="fill:none;stroke:#000000;stroke-linecap:square;stroke-width:0.8;"/>
    </g>
    <g id="text_18">
     <!-- $\langle 00|$ -->
     <g transform="translate(472.400842 256.913298)rotate(-315)scale(0.22 -0.22)">
      <use transform="scale(0.996264)" xlink:href="#CMSY10-68"/>
      <use transform="translate(38.743734 0)scale(0.996264)" xlink:href="#CMR17-30"/>
      <use transform="translate(84.434211 0)scale(0.996264)" xlink:href="#CMR17-30"/>
      <use transform="translate(130.124688 0)scale(0.996264)" xlink:href="#CMSY10-6a"/>
     </g>
    </g>
   </g>
   <g id="xtick_17">
    <g id="line2d_31">
     <path d="M 500.422024 215.309551 
L 503.947774 216.4127 
" style="fill:none;stroke:#000000;stroke-linecap:square;stroke-width:0.8;"/>
    </g>
    <g id="text_19">
     <!-- $\langle 01|$ -->
     <g transform="translate(495.429343 232.97451)rotate(-315)scale(0.22 -0.22)">
      <use transform="scale(0.996264)" xlink:href="#CMSY10-68"/>
      <use transform="translate(38.743734 0)scale(0.996264)" xlink:href="#CMR17-30"/>
      <use transform="translate(84.434211 0)scale(0.996264)" xlink:href="#CMR17-31"/>
      <use transform="translate(130.124688 0)scale(0.996264)" xlink:href="#CMSY10-6a"/>
     </g>
    </g>
   </g>
   <g id="xtick_18">
    <g id="line2d_32">
     <path d="M 522.421194 192.773432 
L 525.883139 193.820535 
" style="fill:none;stroke:#000000;stroke-linecap:square;stroke-width:0.8;"/>
    </g>
    <g id="text_20">
     <!-- $\langle 10|$ -->
     <g transform="translate(517.272549 210.267872)rotate(-315)scale(0.22 -0.22)">
      <use transform="scale(0.996264)" xlink:href="#CMSY10-68"/>
      <use transform="translate(38.743734 0)scale(0.996264)" xlink:href="#CMR17-31"/>
      <use transform="translate(84.434211 0)scale(0.996264)" xlink:href="#CMR17-30"/>
      <use transform="translate(130.124688 0)scale(0.996264)" xlink:href="#CMSY10-6a"/>
     </g>
    </g>
   </g>
   <g id="xtick_19">
    <g id="line2d_33">
     <path d="M 543.317177 171.367426 
L 546.717201 172.362648 
" style="fill:none;stroke:#000000;stroke-linecap:square;stroke-width:0.8;"/>
    </g>
    <g id="text_21">
     <!-- $\langle 11|$ -->
     <g transform="translate(538.019676 188.700638)rotate(-315)scale(0.22 -0.22)">
      <use transform="scale(0.996264)" xlink:href="#CMSY10-68"/>
      <use transform="translate(38.743734 0)scale(0.996264)" xlink:href="#CMR17-31"/>
      <use transform="translate(84.434211 0)scale(0.996264)" xlink:href="#CMR17-31"/>
      <use transform="translate(130.124688 0)scale(0.996264)" xlink:href="#CMSY10-6a"/>
     </g>
    </g>
   </g>
  </g>
  <g id="axis3d_6">
   <g id="line2d_34">
    <path d="M 548.877268 167.155042 
L 553.673649 62.414338 
" style="fill:none;stroke:#000000;stroke-linecap:square;stroke-width:0.8;"/>
   </g>
   <g id="Line3DCollection_6">
    <path d="M 548.969162 165.148326 
L 414.451588 126.145382 
L 330.615993 196.24325 
" style="fill:none;stroke:#b0b0b0;stroke-width:0.8;"/>
    <path d="M 551.222919 115.932023 
L 413.903916 78.51844 
L 328.187456 145.813109 
" style="fill:none;stroke:#b0b0b0;stroke-width:0.8;"/>
    <path d="M 553.573514 64.601035 
L 413.333869 28.945668 
L 325.650469 93.130925 
" style="fill:none;stroke:#b0b0b0;stroke-width:0.8;"/>
   </g>
   <g id="xtick_20">
    <g id="line2d_35">
     <path d="M 547.840143 164.820971 
L 551.229886 165.803816 
" style="fill:none;stroke:#000000;stroke-linecap:square;stroke-width:0.8;"/>
    </g>
    <g id="text_22">
     <!-- $\mathdefault{0.00}$ -->
     <g transform="translate(558.641268 176.169361)rotate(-345)scale(0.22 -0.22)">
      <use transform="scale(0.996264)" xlink:href="#CMR17-30"/>
      <use transform="translate(45.690477 0)scale(0.996264)" xlink:href="#CMMI12-3a"/>
      <use transform="translate(72.787654 0)scale(0.996264)" xlink:href="#CMR17-30"/>
      <use transform="translate(118.478131 0)scale(0.996264)" xlink:href="#CMR17-30"/>
     </g>
    </g>
   </g>
   <g id="xtick_21">
    <g id="line2d_36">
     <path d="M 550.069253 115.617698 
L 553.533055 116.561436 
" style="fill:none;stroke:#000000;stroke-linecap:square;stroke-width:0.8;"/>
    </g>
    <g id="text_23">
     <!-- $\mathdefault{0.05}$ -->
     <g transform="translate(561.480775 127.115164)rotate(-345)scale(0.22 -0.22)">
      <use transform="scale(0.996264)" xlink:href="#CMR17-30"/>
      <use transform="translate(45.690477 0)scale(0.996264)" xlink:href="#CMMI12-3a"/>
      <use transform="translate(72.787654 0)scale(0.996264)" xlink:href="#CMR17-30"/>
      <use transform="translate(118.478131 0)scale(0.996264)" xlink:href="#CMR17-35"/>
     </g>
    </g>
   </g>
   <g id="xtick_22">
    <g id="line2d_37">
     <path d="M 552.394102 64.301175 
L 555.935266 65.201501 
" style="fill:none;stroke:#000000;stroke-linecap:square;stroke-width:0.8;"/>
    </g>
    <g id="text_24">
     <!-- $\mathdefault{0.10}$ -->
     <g transform="translate(564.441661 75.964058)rotate(-345)scale(0.22 -0.22)">
      <use transform="scale(0.996264)" xlink:href="#CMR17-30"/>
      <use transform="translate(45.690477 0)scale(0.996264)" xlink:href="#CMMI12-3a"/>
      <use transform="translate(72.787654 0)scale(0.996264)" xlink:href="#CMR17-31"/>
      <use transform="translate(118.478131 0)scale(0.996264)" xlink:href="#CMR17-30"/>
     </g>
    </g>
   </g>
  </g>
  <g id="axes_2">
   <g id="line2d_38">
    <path clip-path="url(#paa63cd0283)" d="M 389.127554 198.434178 
L 389.232314 203.021397 
" style="fill:none;stroke:#ff0000;stroke-linecap:square;stroke-width:1.5;"/>
    <g clip-path="url(#paa63cd0283)">
     <use style="fill:#ff0000;stroke:#ff0000;" x="389.127554" xlink:href="#m537584c358" y="198.434178"/>
     <use style="fill:#ff0000;stroke:#ff0000;" x="389.232314" xlink:href="#m537584c358" y="203.021397"/>
    </g>
   </g>
   <g id="line2d_39">
    <path clip-path="url(#paa63cd0283)" d="M 421.876424 208.899306 
L 421.916543 213.521209 
" style="fill:none;stroke:#ff0000;stroke-linecap:square;stroke-width:1.5;"/>
    <g clip-path="url(#paa63cd0283)">
     <use style="fill:#ff0000;stroke:#ff0000;" x="421.876424" xlink:href="#m537584c358" y="208.899306"/>
     <use style="fill:#ff0000;stroke:#ff0000;" x="421.916543" xlink:href="#m537584c358" y="213.521209"/>
    </g>
   </g>
   <g id="line2d_40">
    <path clip-path="url(#paa63cd0283)" d="M 455.571672 196.308965 
L 455.493381 209.444051 
" style="fill:none;stroke:#ff0000;stroke-linecap:square;stroke-width:1.5;"/>
    <g clip-path="url(#paa63cd0283)">
     <use style="fill:#ff0000;stroke:#ff0000;" x="455.571672" xlink:href="#m537584c358" y="196.308965"/>
     <use style="fill:#ff0000;stroke:#ff0000;" x="455.493381" xlink:href="#m537584c358" y="209.444051"/>
    </g>
   </g>
   <g id="line2d_41">
    <path clip-path="url(#paa63cd0283)" d="M 382.657869 171.234974 
L 382.84083 178.454291 
" style="fill:none;stroke:#0000ff;stroke-linecap:square;stroke-width:1.5;"/>
    <g clip-path="url(#paa63cd0283)">
     <use style="fill:#0000ff;stroke:#0000ff;" x="382.657869" xlink:href="#m0261dff82a" y="171.234974"/>
     <use style="fill:#0000ff;stroke:#0000ff;" x="382.84083" xlink:href="#m0261dff82a" y="178.454291"/>
    </g>
   </g>
   <g id="line2d_42">
    <path clip-path="url(#paa63cd0283)" d="M 414.00234 177.62779 
L 414.101458 185.924503 
" style="fill:none;stroke:#0000ff;stroke-linecap:square;stroke-width:1.5;"/>
    <g clip-path="url(#paa63cd0283)">
     <use style="fill:#0000ff;stroke:#0000ff;" x="414.00234" xlink:href="#m0261dff82a" y="177.62779"/>
     <use style="fill:#0000ff;stroke:#0000ff;" x="414.101458" xlink:href="#m0261dff82a" y="185.924503"/>
    </g>
   </g>
   <g id="line2d_43">
    <path clip-path="url(#paa63cd0283)" d="M 446.168593 191.489787 
L 446.153591 199.452477 
" style="fill:none;stroke:#0000ff;stroke-linecap:square;stroke-width:1.5;"/>
    <g clip-path="url(#paa63cd0283)">
     <use style="fill:#0000ff;stroke:#0000ff;" x="446.168593" xlink:href="#m0261dff82a" y="191.489787"/>
     <use style="fill:#0000ff;stroke:#0000ff;" x="446.153591" xlink:href="#m0261dff82a" y="199.452477"/>
    </g>
   </g>
   <g id="line2d_44">
    <path clip-path="url(#paa63cd0283)" d="M 479.290871 187.274725 
L 478.76947 219.519743 
" style="fill:none;stroke:#0000ff;stroke-linecap:square;stroke-width:1.5;"/>
    <g clip-path="url(#paa63cd0283)">
     <use style="fill:#0000ff;stroke:#0000ff;" x="479.290871" xlink:href="#m0261dff82a" y="187.274725"/>
     <use style="fill:#0000ff;stroke:#0000ff;" x="478.76947" xlink:href="#m0261dff82a" y="219.519743"/>
    </g>
   </g>
   <g id="line2d_45">
    <path clip-path="url(#paa63cd0283)" d="M 406.734193 150.646078 
L 406.840008 157.749438 
" style="fill:none;stroke:#008000;stroke-linecap:square;stroke-width:1.5;"/>
    <g clip-path="url(#paa63cd0283)">
     <use style="fill:#008000;stroke:#008000;" x="406.734193" xlink:href="#m63ae0f3fed" y="150.646078"/>
     <use style="fill:#008000;stroke:#008000;" x="406.840008" xlink:href="#m63ae0f3fed" y="157.749438"/>
    </g>
   </g>
   <g id="line2d_46">
    <path clip-path="url(#paa63cd0283)" d="M 437.608843 160.443878 
L 437.622774 168.220497 
" style="fill:none;stroke:#008000;stroke-linecap:square;stroke-width:1.5;"/>
    <g clip-path="url(#paa63cd0283)">
     <use style="fill:#008000;stroke:#008000;" x="437.608843" xlink:href="#m63ae0f3fed" y="160.443878"/>
     <use style="fill:#008000;stroke:#008000;" x="437.622774" xlink:href="#m63ae0f3fed" y="168.220497"/>
    </g>
   </g>
   <g id="line2d_47">
    <path clip-path="url(#paa63cd0283)" d="M 469.232767 166.060403 
L 469.13636 174.28374 
" style="fill:none;stroke:#008000;stroke-linecap:square;stroke-width:1.5;"/>
    <g clip-path="url(#paa63cd0283)">
     <use style="fill:#008000;stroke:#008000;" x="469.232767" xlink:href="#m63ae0f3fed" y="166.060403"/>
     <use style="fill:#008000;stroke:#008000;" x="469.13636" xlink:href="#m63ae0f3fed" y="174.28374"/>
    </g>
   </g>
   <g id="line2d_48">
    <path clip-path="url(#paa63cd0283)" d="M 501.867355 165.426847 
L 501.053122 197.148796 
" style="fill:none;stroke:#008000;stroke-linecap:square;stroke-width:1.5;"/>
    <g clip-path="url(#paa63cd0283)">
     <use style="fill:#008000;stroke:#008000;" x="501.867355" xlink:href="#m63ae0f3fed" y="165.426847"/>
     <use style="fill:#008000;stroke:#008000;" x="501.053122" xlink:href="#m63ae0f3fed" y="197.148796"/>
    </g>
   </g>
   <g id="line2d_49">
    <path clip-path="url(#paa63cd0283)" d="M 429.443052 91.0482 
L 429.462886 94.920297 
" style="fill:none;stroke:#bfbf00;stroke-linecap:square;stroke-width:1.5;"/>
    <g clip-path="url(#paa63cd0283)">
     <use style="fill:#bfbf00;stroke:#bfbf00;" x="429.443052" xlink:href="#mde6923c5fa" y="91.0482"/>
     <use style="fill:#bfbf00;stroke:#bfbf00;" x="429.462886" xlink:href="#mde6923c5fa" y="94.920297"/>
    </g>
   </g>
   <g id="line2d_50">
    <path clip-path="url(#paa63cd0283)" d="M 460.142356 124.353141 
L 460.056874 135.454516 
" style="fill:none;stroke:#bfbf00;stroke-linecap:square;stroke-width:1.5;"/>
    <g clip-path="url(#paa63cd0283)">
     <use style="fill:#bfbf00;stroke:#bfbf00;" x="460.142356" xlink:href="#mde6923c5fa" y="124.353141"/>
     <use style="fill:#bfbf00;stroke:#bfbf00;" x="460.056874" xlink:href="#mde6923c5fa" y="135.454516"/>
    </g>
   </g>
   <g id="line2d_51">
    <path clip-path="url(#paa63cd0283)" d="M 491.408208 133.24822 
L 491.174336 144.432802 
" style="fill:none;stroke:#bfbf00;stroke-linecap:square;stroke-width:1.5;"/>
    <g clip-path="url(#paa63cd0283)">
     <use style="fill:#bfbf00;stroke:#bfbf00;" x="491.408208" xlink:href="#mde6923c5fa" y="133.24822"/>
     <use style="fill:#bfbf00;stroke:#bfbf00;" x="491.174336" xlink:href="#mde6923c5fa" y="144.432802"/>
    </g>
   </g>
   <g id="line2d_52">
    <path clip-path="url(#paa63cd0283)" style="fill:none;stroke:#bfbf00;stroke-linecap:square;stroke-width:1.5;"/>
    <g clip-path="url(#paa63cd0283)"/>
   </g>
   <g id="patch_26">
    <path clip-path="url(#paa63cd0283)" d="M 447.779259 141.432133 
L 472.296439 148.590984 
L 472.492085 133.467497 
L 447.817229 126.397701 
L 447.779259 141.432133 
" style="fill:#bfbf00;opacity:0.5;"/>
   </g>
   <g id="text_25">
    <!-- $0.941$ -->
    <g transform="translate(526.49622 52.392447)scale(0.22 -0.22)">
     <defs>
      <path d="M 2150 4147 
C 2150 4281 2144 4288 2029 4288 
L 128 1254 
L 128 1088 
L 1779 1088 
L 1779 460 
C 1779 230 1766 166 1318 166 
L 1197 166 
L 1197 0 
C 1402 12 1747 12 1965 12 
C 2182 12 2528 12 2733 0 
L 2733 166 
L 2611 166 
C 2163 166 2150 230 2150 460 
L 2150 1088 
L 2803 1088 
L 2803 1254 
L 2150 1254 
L 2150 4147 
z
M 1798 3723 
L 1798 1254 
L 256 1254 
L 1798 3723 
z
" id="CMR17-34" transform="scale(0.015625)"/>
     </defs>
     <use transform="scale(0.996264)" xlink:href="#CMR17-30"/>
     <use transform="translate(45.690477 0)scale(0.996264)" xlink:href="#CMMI12-3a"/>
     <use transform="translate(72.787654 0)scale(0.996264)" xlink:href="#CMR17-39"/>
     <use transform="translate(118.478131 0)scale(0.996264)" xlink:href="#CMR17-34"/>
     <use transform="translate(164.168608 0)scale(0.996264)" xlink:href="#CMR17-31"/>
    </g>
   </g>
   <g id="text_26">
    <!-- $|\Upsilon_1^0|$ -->
    <g transform="translate(554.675675 25.439782)scale(0.28 -0.28)">
     <use transform="scale(0.996264)" xlink:href="#CMSY10-6a"/>
     <use transform="translate(27.674085 0)scale(0.996264)" xlink:href="#CMR17-7"/>
     <use transform="translate(99.388873 36.153639)scale(0.697382)" xlink:href="#CMR17-30"/>
     <use transform="translate(99.388873 -24.740171)scale(0.697382)" xlink:href="#CMR17-31"/>
     <use transform="translate(131.870187 0)scale(0.996264)" xlink:href="#CMSY10-6a"/>
    </g>
   </g>
   <g id="patch_27">
    <path clip-path="url(#paa63cd0283)" d="M 417.735881 132.65967 
L 441.717566 139.66216 
L 441.715886 96.372885 
L 417.299269 89.628882 
L 417.735881 132.65967 
" style="fill:#bfbf00;opacity:0.5;"/>
   </g>
   <g id="patch_28">
    <path clip-path="url(#paa63cd0283)" d="M 394.682189 152.163245 
L 419.050105 159.515737 
L 419.034343 157.891144 
L 394.649842 150.548174 
L 394.682189 152.163245 
" style="fill:#008000;opacity:0.5;"/>
   </g>
   <g id="patch_29">
    <path clip-path="url(#paa63cd0283)" d="M 478.494243 150.400701 
L 503.565057 157.721209 
L 503.965864 142.485307 
L 478.730193 135.254828 
L 478.494243 150.400701 
" style="fill:#bfbf00;opacity:0.5;"/>
   </g>
   <g id="patch_30">
    <path clip-path="url(#paa63cd0283)" d="M 425.211097 161.374683 
L 450.136796 168.895474 
L 450.139582 168.113857 
L 425.205595 160.597659 
L 425.211097 161.374683 
" style="fill:#008000;opacity:0.5;"/>
   </g>
   <g id="patch_31">
    <path clip-path="url(#paa63cd0283)" d="M 456.439622 170.797215 
L 481.942476 178.49215 
L 482.01942 174.031292 
L 456.467414 166.362708 
L 456.439622 170.797215 
" style="fill:#008000;opacity:0.5;"/>
   </g>
   <g id="patch_32">
    <path clip-path="url(#paa63cd0283)" d="M 370.466839 172.649591 
L 395.229859 180.378997 
L 395.196778 178.727881 
L 370.416637 171.008215 
L 370.466839 172.649591 
" style="fill:#0000ff;opacity:0.5;"/>
   </g>
   <g id="patch_33">
    <path clip-path="url(#paa63cd0283)" d="M 488.392091 180.438182 
L 514.492381 188.31338 
L 514.585557 185.343208 
L 488.451253 177.485585 
L 488.392091 180.438182 
" style="fill:#008000;opacity:0.5;"/>
   </g>
   <g id="patch_34">
    <path clip-path="url(#paa63cd0283)" d="M 401.492533 182.333797 
L 426.836978 190.244687 
L 426.80787 185.744102 
L 401.414883 177.859884 
L 401.492533 182.333797 
" style="fill:#0000ff;opacity:0.5;"/>
   </g>
   <g id="patch_35">
    <path clip-path="url(#paa63cd0283)" d="M 433.247562 192.245655 
L 459.194153 200.344495 
L 459.200189 199.544167 
L 433.244617 191.450069 
L 433.247562 192.245655 
" style="fill:#0000ff;opacity:0.5;"/>
   </g>
   <g id="patch_36">
    <path clip-path="url(#paa63cd0283)" d="M 344.99976 194.194908 
L 370.166591 202.330972 
L 370.068043 199.163199 
L 344.86785 191.045944 
L 344.99976 194.194908 
" style="fill:#ff0000;opacity:0.5;"/>
   </g>
   <g id="patch_37">
    <path clip-path="url(#paa63cd0283)" d="M 465.75795 202.393286 
L 492.328403 210.686856 
L 492.394874 207.667771 
L 465.78916 199.392157 
L 465.75795 202.393286 
" style="fill:#0000ff;opacity:0.5;"/>
   </g>
   <g id="patch_38">
    <path clip-path="url(#paa63cd0283)" d="M 376.533303 204.389236 
L 402.306663 212.721382 
L 402.171766 204.892693 
L 376.312526 196.607279 
L 376.533303 204.389236 
" style="fill:#ff0000;opacity:0.5;"/>
   </g>
   <g id="patch_39">
    <path clip-path="url(#paa63cd0283)" d="M 408.827741 214.82955 
L 435.229822 223.364953 
L 435.207079 215.477352 
L 408.71484 206.989123 
L 408.827741 214.82955 
" style="fill:#ff0000;opacity:0.5;"/>
   </g>
   <g id="patch_40">
    <path clip-path="url(#paa63cd0283)" d="M 441.910949 225.524862 
L 468.965043 234.271051 
L 469.288662 207.207487 
L 441.912148 198.625623 
L 441.910949 225.524862 
" style="fill:#ff0000;opacity:0.5;"/>
   </g>
   <g id="patch_41">
    <path clip-path="url(#paa63cd0283)" d="M 509.903608 159.572023 
L 535.547022 167.059727 
L 595.078463 -1317.887792 
L 552.513514 -1308.229995 
L 509.903608 159.572023 
" style="fill:#bfbf00;opacity:0.5;"/>
   </g>
  </g>
 </g>
 <defs>
  <clipPath id="pa47cce1fb0">
   <rect height="253.636364" width="253.636364" x="7.2" y="7.2"/>
  </clipPath>
  <clipPath id="paa63cd0283">
   <rect height="253.636364" width="253.636364" x="311.563636" y="7.2"/>
  </clipPath>
 </defs>
</svg>
