<?xml version="1.0" encoding="utf-8" standalone="no"?>
<!DOCTYPE svg PUBLIC "-//W3C//DTD SVG 1.1//EN"
  "http://www.w3.org/Graphics/SVG/1.1/DTD/svg11.dtd">
<svg height="292.535575pt" version="1.1" viewBox="0 0 610.569892 292.535575" width="610.569892pt" xmlns="http://www.w3.org/2000/svg" xmlns:xlink="http://www.w3.org/1999/xlink">
 <metadata>
  <rdf:RDF xmlns:cc="http://creativecommons.org/ns#" xmlns:dc="http://purl.org/dc/elements/1.1/" xmlns:rdf="http://www.w3.org/1999/02/22-rdf-syntax-ns#">
   <cc:Work>
    <dc:type rdf:resource="http://purl.org/dc/dcmitype/StillImage"/>
    <dc:date>2022-11-09T19:58:34.405837</dc:date>
    <dc:format>image/svg+xml</dc:format>
    <dc:creator>
     <cc:Agent>
      <dc:title>Matplotlib v3.4.2, https://matplotlib.org/</dc:title>
     </cc:Agent>
    </dc:creator>
   </cc:Work>
  </rdf:RDF>
 </metadata>
 <defs>
  <style type="text/css">*{stroke-linecap:butt;stroke-linejoin:round;}</style>
 </defs>
 <g id="figure_1">
  <g id="patch_1">
   <path d="M 0 292.535575 
L 610.569892 292.535575 
L 610.569892 0 
L 0 0 
z
" style="fill:none;"/>
  </g>
  <g id="patch_2">
   <path d="M 7.2 260.836364 
L 260.836364 260.836364 
L 260.836364 7.2 
L 7.2 7.2 
z
" style="fill:none;"/>
  </g>
  <g id="pane3d_1">
   <g id="patch_3">
    <path d="M 26.351295 198.297765 
L 110.110305 128.089301 
L 108.945975 26.836146 
L 21.178664 90.884732 
" style="fill:#f2f2f2;opacity:0.5;stroke:#f2f2f2;stroke-linejoin:miter;"/>
   </g>
  </g>
  <g id="pane3d_2">
   <g id="patch_4">
    <path d="M 110.110305 128.089301 
L 244.513632 167.155042 
L 249.310013 62.414338 
L 108.945975 26.836146 
" style="fill:#e6e6e6;opacity:0.5;stroke:#e6e6e6;stroke-linejoin:miter;"/>
   </g>
  </g>
  <g id="pane3d_3">
   <g id="patch_5">
    <path d="M 26.351295 198.297765 
L 168.825385 244.829803 
L 244.513632 167.155042 
L 110.110305 128.089301 
" style="fill:#ececec;opacity:0.5;stroke:#ececec;stroke-linejoin:miter;"/>
   </g>
  </g>
  <g id="axis3d_1">
   <g id="line2d_1">
    <path d="M 26.351295 198.297765 
L 168.825385 244.829803 
" style="fill:none;stroke:#000000;stroke-linecap:square;stroke-width:0.8;"/>
   </g>
   <g id="Line3DCollection_1">
    <path d="M 47.537457 205.217165 
L 130.171564 133.920317 
L 129.85934 32.137074 
" style="fill:none;stroke:#b0b0b0;stroke-width:0.8;"/>
    <path d="M 79.459419 215.642878 
L 160.34882 142.691654 
L 161.343199 40.117315 
" style="fill:none;stroke:#b0b0b0;stroke-width:0.8;"/>
    <path d="M 112.159199 226.322626 
L 191.199507 151.658731 
L 193.560505 48.283463 
" style="fill:none;stroke:#b0b0b0;stroke-width:0.8;"/>
    <path d="M 145.665574 237.265808 
L 222.746419 160.828173 
L 226.53719 56.642091 
" style="fill:none;stroke:#b0b0b0;stroke-width:0.8;"/>
   </g>
   <g id="xtick_1">
    <g id="line2d_2">
     <path d="M 48.257308 204.596076 
L 46.094651 206.462021 
" style="fill:none;stroke:#000000;stroke-linecap:square;stroke-width:0.8;"/>
    </g>
    <g id="text_1">
     <!-- $|00\rangle$ -->
     <g transform="translate(31.352298 248.24498)rotate(-45)scale(0.22 -0.22)">
      <defs>
       <path d="M 1018 4569 
C 1018 4684 1018 4800 890 4800 
C 762 4800 762 4684 762 4569 
L 762 -1370 
C 762 -1485 762 -1600 890 -1600 
C 1018 -1600 1018 -1485 1018 -1370 
L 1018 4569 
z
" id="CMSY10-6a" transform="scale(0.015625)"/>
       <path d="M 2688 2038 
C 2688 2430 2682 3099 2413 3613 
C 2176 4063 1798 4224 1466 4224 
C 1158 4224 768 4082 525 3620 
C 269 3137 243 2539 243 2038 
C 243 1671 250 1112 448 623 
C 723 -39 1216 -128 1466 -128 
C 1760 -128 2208 -7 2470 604 
C 2662 1048 2688 1568 2688 2038 
z
M 1466 -26 
C 1056 -26 813 328 723 816 
C 653 1196 653 1749 653 2109 
C 653 2604 653 3015 736 3407 
C 858 3954 1216 4121 1466 4121 
C 1728 4121 2067 3947 2189 3420 
C 2272 3054 2278 2623 2278 2109 
C 2278 1691 2278 1176 2202 797 
C 2067 96 1690 -26 1466 -26 
z
" id="CMR17-30" transform="scale(0.015625)"/>
       <path d="M 1747 1491 
C 1779 1568 1779 1580 1779 1600 
C 1779 1619 1779 1632 1747 1709 
L 627 4653 
C 589 4761 550 4800 480 4800 
C 410 4800 352 4742 352 4672 
C 352 4653 352 4640 384 4569 
L 1517 1600 
L 384 -1357 
C 352 -1428 352 -1440 352 -1472 
C 352 -1543 410 -1600 480 -1600 
C 563 -1600 589 -1536 614 -1472 
L 1747 1491 
z
" id="CMSY10-69" transform="scale(0.015625)"/>
      </defs>
      <use transform="scale(0.996264)" xlink:href="#CMSY10-6a"/>
      <use transform="translate(27.674085 0)scale(0.996264)" xlink:href="#CMR17-30"/>
      <use transform="translate(73.364562 0)scale(0.996264)" xlink:href="#CMR17-30"/>
      <use transform="translate(119.055039 0)scale(0.996264)" xlink:href="#CMSY10-69"/>
     </g>
    </g>
   </g>
   <g id="xtick_2">
    <g id="line2d_3">
     <path d="M 80.164764 215.006753 
L 78.045652 216.917904 
" style="fill:none;stroke:#000000;stroke-linecap:square;stroke-width:0.8;"/>
    </g>
    <g id="text_2">
     <!-- $|01\rangle$ -->
     <g transform="translate(63.289874 258.771303)rotate(-45)scale(0.22 -0.22)">
      <defs>
       <path d="M 1702 4083 
C 1702 4217 1696 4224 1606 4224 
C 1357 3927 979 3833 621 3820 
C 602 3820 570 3820 563 3808 
C 557 3795 557 3782 557 3648 
C 755 3648 1088 3686 1344 3839 
L 1344 467 
C 1344 243 1331 166 781 166 
L 589 166 
L 589 0 
C 896 6 1216 12 1523 12 
C 1830 12 2150 6 2458 0 
L 2458 166 
L 2266 166 
C 1715 166 1702 236 1702 467 
L 1702 4083 
z
" id="CMR17-31" transform="scale(0.015625)"/>
      </defs>
      <use transform="scale(0.996264)" xlink:href="#CMSY10-6a"/>
      <use transform="translate(27.674085 0)scale(0.996264)" xlink:href="#CMR17-30"/>
      <use transform="translate(73.364562 0)scale(0.996264)" xlink:href="#CMR17-31"/>
      <use transform="translate(119.055039 0)scale(0.996264)" xlink:href="#CMSY10-69"/>
     </g>
    </g>
   </g>
   <g id="xtick_3">
    <g id="line2d_4">
     <path d="M 112.849112 225.670913 
L 110.776325 227.628931 
" style="fill:none;stroke:#000000;stroke-linecap:square;stroke-width:0.8;"/>
    </g>
    <g id="text_3">
     <!-- $|10\rangle$ -->
     <g transform="translate(96.007002 269.554559)rotate(-45)scale(0.22 -0.22)">
      <use transform="scale(0.996264)" xlink:href="#CMSY10-6a"/>
      <use transform="translate(27.674085 0)scale(0.996264)" xlink:href="#CMR17-31"/>
      <use transform="translate(73.364562 0)scale(0.996264)" xlink:href="#CMR17-30"/>
      <use transform="translate(119.055039 0)scale(0.996264)" xlink:href="#CMSY10-69"/>
     </g>
    </g>
   </g>
   <g id="xtick_4">
    <g id="line2d_5">
     <path d="M 146.339076 236.597926 
L 144.315558 238.604559 
" style="fill:none;stroke:#000000;stroke-linecap:square;stroke-width:0.8;"/>
    </g>
    <g id="text_4">
     <!-- $|11\rangle$ -->
     <g transform="translate(129.532577 280.604272)rotate(-45)scale(0.22 -0.22)">
      <use transform="scale(0.996264)" xlink:href="#CMSY10-6a"/>
      <use transform="translate(27.674085 0)scale(0.996264)" xlink:href="#CMR17-31"/>
      <use transform="translate(73.364562 0)scale(0.996264)" xlink:href="#CMR17-31"/>
      <use transform="translate(119.055039 0)scale(0.996264)" xlink:href="#CMSY10-69"/>
     </g>
    </g>
   </g>
  </g>
  <g id="axis3d_2">
   <g id="line2d_6">
    <path d="M 244.513632 167.155042 
L 168.825385 244.829803 
" style="fill:none;stroke:#000000;stroke-linecap:square;stroke-width:0.8;"/>
   </g>
   <g id="Line3DCollection_2">
    <path d="M 27.247991 86.455614 
L 32.122998 193.459808 
L 174.062426 239.45531 
" style="fill:none;stroke:#b0b0b0;stroke-width:0.8;"/>
    <path d="M 54.106724 66.855333 
L 57.701022 172.019802 
L 197.232652 215.676959 
" style="fill:none;stroke:#b0b0b0;stroke-width:0.8;"/>
    <path d="M 79.592766 48.256781 
L 82.026808 151.629446 
L 219.210597 193.122181 
" style="fill:none;stroke:#b0b0b0;stroke-width:0.8;"/>
    <path d="M 103.808727 30.585075 
L 105.190118 132.2135 
L 240.085979 171.698903 
" style="fill:none;stroke:#b0b0b0;stroke-width:0.8;"/>
   </g>
   <g id="xtick_5">
    <g id="line2d_7">
     <path d="M 172.866299 239.067705 
L 176.457775 240.231524 
" style="fill:none;stroke:#000000;stroke-linecap:square;stroke-width:0.8;"/>
    </g>
    <g id="text_5">
     <!-- $\langle 00|$ -->
     <g transform="translate(168.037206 256.913298)rotate(-315)scale(0.22 -0.22)">
      <defs>
       <path d="M 2099 4557 
C 2131 4627 2131 4640 2131 4672 
C 2131 4742 2074 4800 2003 4800 
C 1946 4800 1901 4768 1856 4653 
L 736 1715 
C 723 1677 704 1638 704 1600 
C 704 1580 704 1568 736 1491 
L 1856 -1447 
C 1882 -1517 1914 -1600 2003 -1600 
C 2074 -1600 2131 -1543 2131 -1472 
C 2131 -1453 2131 -1440 2099 -1370 
L 966 1600 
L 2099 4557 
z
" id="CMSY10-68" transform="scale(0.015625)"/>
      </defs>
      <use transform="scale(0.996264)" xlink:href="#CMSY10-68"/>
      <use transform="translate(38.743734 0)scale(0.996264)" xlink:href="#CMR17-30"/>
      <use transform="translate(84.434211 0)scale(0.996264)" xlink:href="#CMR17-30"/>
      <use transform="translate(130.124688 0)scale(0.996264)" xlink:href="#CMSY10-6a"/>
     </g>
    </g>
   </g>
   <g id="xtick_6">
    <g id="line2d_8">
     <path d="M 196.058388 215.309551 
L 199.584137 216.4127 
" style="fill:none;stroke:#000000;stroke-linecap:square;stroke-width:0.8;"/>
    </g>
    <g id="text_6">
     <!-- $\langle 01|$ -->
     <g transform="translate(191.065707 232.97451)rotate(-315)scale(0.22 -0.22)">
      <use transform="scale(0.996264)" xlink:href="#CMSY10-68"/>
      <use transform="translate(38.743734 0)scale(0.996264)" xlink:href="#CMR17-30"/>
      <use transform="translate(84.434211 0)scale(0.996264)" xlink:href="#CMR17-31"/>
      <use transform="translate(130.124688 0)scale(0.996264)" xlink:href="#CMSY10-6a"/>
     </g>
    </g>
   </g>
   <g id="xtick_7">
    <g id="line2d_9">
     <path d="M 218.057558 192.773432 
L 221.519502 193.820535 
" style="fill:none;stroke:#000000;stroke-linecap:square;stroke-width:0.8;"/>
    </g>
    <g id="text_7">
     <!-- $\langle 10|$ -->
     <g transform="translate(212.908913 210.267872)rotate(-315)scale(0.22 -0.22)">
      <use transform="scale(0.996264)" xlink:href="#CMSY10-68"/>
      <use transform="translate(38.743734 0)scale(0.996264)" xlink:href="#CMR17-31"/>
      <use transform="translate(84.434211 0)scale(0.996264)" xlink:href="#CMR17-30"/>
      <use transform="translate(130.124688 0)scale(0.996264)" xlink:href="#CMSY10-6a"/>
     </g>
    </g>
   </g>
   <g id="xtick_8">
    <g id="line2d_10">
     <path d="M 238.953541 171.367426 
L 242.353564 172.362648 
" style="fill:none;stroke:#000000;stroke-linecap:square;stroke-width:0.8;"/>
    </g>
    <g id="text_8">
     <!-- $\langle 11|$ -->
     <g transform="translate(233.656039 188.700638)rotate(-315)scale(0.22 -0.22)">
      <use transform="scale(0.996264)" xlink:href="#CMSY10-68"/>
      <use transform="translate(38.743734 0)scale(0.996264)" xlink:href="#CMR17-31"/>
      <use transform="translate(84.434211 0)scale(0.996264)" xlink:href="#CMR17-31"/>
      <use transform="translate(130.124688 0)scale(0.996264)" xlink:href="#CMSY10-6a"/>
     </g>
    </g>
   </g>
  </g>
  <g id="axis3d_3">
   <g id="line2d_11">
    <path d="M 244.513632 167.155042 
L 249.310013 62.414338 
" style="fill:none;stroke:#000000;stroke-linecap:square;stroke-width:0.8;"/>
   </g>
   <g id="Line3DCollection_3">
    <path d="M 244.605525 165.148326 
L 110.087952 126.145382 
L 26.252356 196.24325 
" style="fill:none;stroke:#b0b0b0;stroke-width:0.8;"/>
    <path d="M 246.859283 115.932023 
L 109.54028 78.51844 
L 23.82382 145.813109 
" style="fill:none;stroke:#b0b0b0;stroke-width:0.8;"/>
    <path d="M 249.209878 64.601035 
L 108.970233 28.945668 
L 21.286832 93.130925 
" style="fill:none;stroke:#b0b0b0;stroke-width:0.8;"/>
   </g>
   <g id="xtick_9">
    <g id="line2d_12">
     <path d="M 243.476507 164.820971 
L 246.866249 165.803816 
" style="fill:none;stroke:#000000;stroke-linecap:square;stroke-width:0.8;"/>
    </g>
    <g id="text_9">
     <!-- $\mathdefault{0.00}$ -->
     <g transform="translate(254.277632 176.169361)rotate(-345)scale(0.22 -0.22)">
      <defs>
       <path d="M 1178 307 
C 1178 492 1024 620 870 620 
C 685 620 557 467 557 313 
C 557 128 710 0 864 0 
C 1050 0 1178 153 1178 307 
z
" id="CMMI12-3a" transform="scale(0.015625)"/>
      </defs>
      <use transform="scale(0.996264)" xlink:href="#CMR17-30"/>
      <use transform="translate(45.690477 0)scale(0.996264)" xlink:href="#CMMI12-3a"/>
      <use transform="translate(72.787654 0)scale(0.996264)" xlink:href="#CMR17-30"/>
      <use transform="translate(118.478131 0)scale(0.996264)" xlink:href="#CMR17-30"/>
     </g>
    </g>
   </g>
   <g id="xtick_10">
    <g id="line2d_13">
     <path d="M 245.705617 115.617698 
L 249.169418 116.561436 
" style="fill:none;stroke:#000000;stroke-linecap:square;stroke-width:0.8;"/>
    </g>
    <g id="text_10">
     <!-- $\mathdefault{0.05}$ -->
     <g transform="translate(257.117138 127.115164)rotate(-345)scale(0.22 -0.22)">
      <defs>
       <path d="M 730 3750 
C 794 3724 1056 3641 1325 3641 
C 1920 3641 2246 3961 2432 4140 
C 2432 4191 2432 4224 2394 4224 
C 2387 4224 2374 4224 2323 4198 
C 2099 4102 1837 4032 1517 4032 
C 1325 4032 1037 4055 723 4191 
C 653 4224 640 4224 634 4224 
C 602 4224 595 4217 595 4090 
L 595 2231 
C 595 2113 595 2080 659 2080 
C 691 2080 704 2093 736 2139 
C 941 2435 1222 2560 1542 2560 
C 1766 2560 2246 2415 2246 1293 
C 2246 1087 2246 716 2054 422 
C 1894 159 1645 25 1370 25 
C 947 25 518 319 403 812 
C 429 806 480 793 506 793 
C 589 793 749 838 749 1036 
C 749 1209 627 1280 506 1280 
C 358 1280 262 1190 262 1011 
C 262 454 704 -128 1382 -128 
C 2042 -128 2669 441 2669 1267 
C 2669 2054 2170 2662 1549 2662 
C 1222 2662 947 2540 730 2304 
L 730 3750 
z
" id="CMR17-35" transform="scale(0.015625)"/>
      </defs>
      <use transform="scale(0.996264)" xlink:href="#CMR17-30"/>
      <use transform="translate(45.690477 0)scale(0.996264)" xlink:href="#CMMI12-3a"/>
      <use transform="translate(72.787654 0)scale(0.996264)" xlink:href="#CMR17-30"/>
      <use transform="translate(118.478131 0)scale(0.996264)" xlink:href="#CMR17-35"/>
     </g>
    </g>
   </g>
   <g id="xtick_11">
    <g id="line2d_14">
     <path d="M 248.030466 64.301175 
L 251.57163 65.201501 
" style="fill:none;stroke:#000000;stroke-linecap:square;stroke-width:0.8;"/>
    </g>
    <g id="text_11">
     <!-- $\mathdefault{0.10}$ -->
     <g transform="translate(260.078025 75.964058)rotate(-345)scale(0.22 -0.22)">
      <use transform="scale(0.996264)" xlink:href="#CMR17-30"/>
      <use transform="translate(45.690477 0)scale(0.996264)" xlink:href="#CMMI12-3a"/>
      <use transform="translate(72.787654 0)scale(0.996264)" xlink:href="#CMR17-31"/>
      <use transform="translate(118.478131 0)scale(0.996264)" xlink:href="#CMR17-30"/>
     </g>
    </g>
   </g>
  </g>
  <g id="axes_1">
   <g id="line2d_15">
    <path clip-path="url(#pc35da50c77)" style="fill:none;stroke:#ff0000;stroke-linecap:square;stroke-width:1.5;"/>
    <defs>
     <path d="M 3 0 
L -3 -0 
" id="m4126b67e54" style="stroke:#ff0000;"/>
    </defs>
    <g clip-path="url(#pc35da50c77)"/>
   </g>
   <g id="line2d_16">
    <path clip-path="url(#pc35da50c77)" d="M 84.667544 194.214211 
L 85.094645 212.915963 
" style="fill:none;stroke:#ff0000;stroke-linecap:square;stroke-width:1.5;"/>
    <g clip-path="url(#pc35da50c77)">
     <use style="fill:#ff0000;stroke:#ff0000;" x="84.667544" xlink:href="#m4126b67e54" y="194.214211"/>
     <use style="fill:#ff0000;stroke:#ff0000;" x="85.094645" xlink:href="#m4126b67e54" y="212.915963"/>
    </g>
   </g>
   <g id="line2d_17">
    <path clip-path="url(#pc35da50c77)" d="M 117.475878 204.647234 
L 117.639437 223.489827 
" style="fill:none;stroke:#ff0000;stroke-linecap:square;stroke-width:1.5;"/>
    <g clip-path="url(#pc35da50c77)">
     <use style="fill:#ff0000;stroke:#ff0000;" x="117.475878" xlink:href="#m4126b67e54" y="204.647234"/>
     <use style="fill:#ff0000;stroke:#ff0000;" x="117.639437" xlink:href="#m4126b67e54" y="223.489827"/>
    </g>
   </g>
   <g id="line2d_18">
    <path clip-path="url(#pc35da50c77)" d="M 151.026901 226.698267 
L 151.002407 230.807739 
" style="fill:none;stroke:#ff0000;stroke-linecap:square;stroke-width:1.5;"/>
    <g clip-path="url(#pc35da50c77)">
     <use style="fill:#ff0000;stroke:#ff0000;" x="151.026901" xlink:href="#m4126b67e54" y="226.698267"/>
     <use style="fill:#ff0000;stroke:#ff0000;" x="151.002407" xlink:href="#m4126b67e54" y="230.807739"/>
    </g>
   </g>
   <g id="line2d_19">
    <path clip-path="url(#pc35da50c77)" d="M 78.106364 163.822042 
L 78.567771 182.028323 
" style="fill:none;stroke:#0000ff;stroke-linecap:square;stroke-width:1.5;"/>
    <defs>
     <path d="M 3 0 
L -3 -0 
" id="m96385fd98b" style="stroke:#0000ff;"/>
    </defs>
    <g clip-path="url(#pc35da50c77)">
     <use style="fill:#0000ff;stroke:#0000ff;" x="78.106364" xlink:href="#m96385fd98b" y="163.822042"/>
     <use style="fill:#0000ff;stroke:#0000ff;" x="78.567771" xlink:href="#m96385fd98b" y="182.028323"/>
    </g>
   </g>
   <g id="line2d_20">
    <path clip-path="url(#pc35da50c77)" d="M 109.623923 176.390561 
L 109.745913 186.601802 
" style="fill:none;stroke:#0000ff;stroke-linecap:square;stroke-width:1.5;"/>
    <g clip-path="url(#pc35da50c77)">
     <use style="fill:#0000ff;stroke:#0000ff;" x="109.623923" xlink:href="#m96385fd98b" y="176.390561"/>
     <use style="fill:#0000ff;stroke:#0000ff;" x="109.745913" xlink:href="#m96385fd98b" y="186.601802"/>
    </g>
   </g>
   <g id="line2d_21">
    <path clip-path="url(#pc35da50c77)" d="M 141.799177 194.55755 
L 141.794086 197.259654 
" style="fill:none;stroke:#0000ff;stroke-linecap:square;stroke-width:1.5;"/>
    <g clip-path="url(#pc35da50c77)">
     <use style="fill:#0000ff;stroke:#0000ff;" x="141.799177" xlink:href="#m96385fd98b" y="194.55755"/>
     <use style="fill:#0000ff;stroke:#0000ff;" x="141.794086" xlink:href="#m96385fd98b" y="197.259654"/>
    </g>
   </g>
   <g id="line2d_22">
    <path clip-path="url(#pc35da50c77)" d="M 102.261921 143.353345 
L 102.528762 161.266465 
" style="fill:none;stroke:#008000;stroke-linecap:square;stroke-width:1.5;"/>
    <defs>
     <path d="M 3 0 
L -3 -0 
" id="m63e9a8081e" style="stroke:#008000;"/>
    </defs>
    <g clip-path="url(#pc35da50c77)">
     <use style="fill:#008000;stroke:#008000;" x="102.261921" xlink:href="#m63e9a8081e" y="143.353345"/>
     <use style="fill:#008000;stroke:#008000;" x="102.528762" xlink:href="#m63e9a8081e" y="161.266465"/>
    </g>
   </g>
   <g id="line2d_23">
    <path clip-path="url(#pc35da50c77)" d="M 133.250573 163.439723 
L 133.255301 166.07872 
" style="fill:none;stroke:#008000;stroke-linecap:square;stroke-width:1.5;"/>
    <g clip-path="url(#pc35da50c77)">
     <use style="fill:#008000;stroke:#008000;" x="133.250573" xlink:href="#m63e9a8081e" y="163.439723"/>
     <use style="fill:#008000;stroke:#008000;" x="133.255301" xlink:href="#m63e9a8081e" y="166.07872"/>
    </g>
   </g>
   <g id="line2d_24">
    <path clip-path="url(#pc35da50c77)" d="M 164.883506 164.834186 
L 164.764853 174.955084 
" style="fill:none;stroke:#008000;stroke-linecap:square;stroke-width:1.5;"/>
    <g clip-path="url(#pc35da50c77)">
     <use style="fill:#008000;stroke:#008000;" x="164.883506" xlink:href="#m63e9a8081e" y="164.834186"/>
     <use style="fill:#008000;stroke:#008000;" x="164.764853" xlink:href="#m63e9a8081e" y="174.955084"/>
    </g>
   </g>
   <g id="patch_6">
    <path clip-path="url(#pc35da50c77)" d="M 113.372244 132.65967 
L 137.353929 139.66216 
L 137.353818 136.798834 
L 113.343361 129.813016 
L 113.372244 132.65967 
" style="fill:#bfbf00;opacity:0.5;"/>
   </g>
   <g id="text_12">
    <!-- $0.991$ -->
    <g transform="translate(48.990893 84.131255)scale(0.22 -0.22)">
     <defs>
      <path d="M 2253 1871 
C 2253 448 1670 25 1190 25 
C 1043 25 685 43 538 281 
C 704 256 826 345 826 505 
C 826 678 685 736 595 736 
C 538 736 365 710 365 492 
C 365 68 742 -128 1203 -128 
C 1939 -128 2688 665 2688 2090 
C 2688 3857 1971 4224 1485 4224 
C 851 4224 243 3664 243 2800 
C 243 2000 762 1408 1414 1408 
C 1952 1408 2189 1910 2253 2122 
L 2253 1871 
z
M 1427 1510 
C 1254 1510 1011 1542 813 1929 
C 678 2181 678 2477 678 2793 
C 678 3174 678 3438 858 3722 
C 947 3857 1114 4076 1485 4076 
C 2240 4076 2240 2909 2240 2651 
C 2240 2193 2035 1510 1427 1510 
z
" id="CMR17-39" transform="scale(0.015625)"/>
     </defs>
     <use transform="scale(0.996264)" xlink:href="#CMR17-30"/>
     <use transform="translate(45.690477 0)scale(0.996264)" xlink:href="#CMMI12-3a"/>
     <use transform="translate(72.787654 0)scale(0.996264)" xlink:href="#CMR17-39"/>
     <use transform="translate(118.478131 0)scale(0.996264)" xlink:href="#CMR17-39"/>
     <use transform="translate(164.168608 0)scale(0.996264)" xlink:href="#CMR17-31"/>
    </g>
   </g>
   <g id="text_13">
    <!-- $|\Upsilon_0^6|$ -->
    <g transform="translate(250.312039 25.439782)scale(0.28 -0.28)">
     <defs>
      <path d="M 2515 2262 
C 2515 2544 2554 3089 2726 3506 
C 2906 3922 3187 4115 3533 4115 
C 3738 4115 4115 3999 4173 3531 
C 4179 3480 4179 3461 4237 3461 
C 4301 3461 4307 3480 4307 3544 
C 4307 3884 4083 4480 3526 4480 
C 2554 4480 2355 3236 2310 2909 
L 2304 2909 
C 2253 3243 2048 4480 1075 4480 
C 512 4480 294 3877 294 3544 
C 294 3480 301 3461 365 3461 
C 422 3461 422 3480 429 3531 
C 486 4006 864 4115 1069 4115 
C 2029 4115 2093 2647 2093 2262 
L 2093 461 
C 2093 230 2080 166 1594 166 
L 1453 166 
L 1453 0 
C 1722 12 2035 12 2304 12 
C 2573 12 2886 12 3155 0 
L 3155 166 
L 3014 166 
C 2528 166 2515 230 2515 461 
L 2515 2262 
z
" id="CMR17-7" transform="scale(0.015625)"/>
      <path d="M 678 2198 
C 678 3712 1395 4076 1811 4076 
C 1946 4076 2272 4049 2400 3782 
C 2298 3782 2106 3782 2106 3558 
C 2106 3385 2246 3328 2336 3328 
C 2394 3328 2566 3353 2566 3571 
C 2566 3987 2246 4224 1805 4224 
C 1043 4224 243 3411 243 2011 
C 243 257 966 -128 1478 -128 
C 2099 -128 2688 431 2688 1295 
C 2688 2101 2170 2688 1517 2688 
C 1126 2688 838 2430 678 1979 
L 678 2198 
z
M 1478 25 
C 691 25 691 1212 691 1450 
C 691 1914 909 2585 1504 2585 
C 1613 2585 1926 2585 2138 2140 
C 2253 1889 2253 1624 2253 1302 
C 2253 954 2253 696 2118 438 
C 1978 173 1773 25 1478 25 
z
" id="CMR17-36" transform="scale(0.015625)"/>
     </defs>
     <use transform="scale(0.996264)" xlink:href="#CMSY10-6a"/>
     <use transform="translate(27.674085 0)scale(0.996264)" xlink:href="#CMR17-7"/>
     <use transform="translate(99.388873 36.153639)scale(0.697382)" xlink:href="#CMR17-36"/>
     <use transform="translate(99.388873 -24.740171)scale(0.697382)" xlink:href="#CMR17-30"/>
     <use transform="translate(131.870187 0)scale(0.996264)" xlink:href="#CMSY10-6a"/>
    </g>
   </g>
   <g id="patch_7">
    <path clip-path="url(#pc35da50c77)" d="M 143.415622 141.432133 
L 167.932803 148.590984 
L 167.93594 148.34848 
L 143.416231 141.191044 
L 143.415622 141.432133 
" style="fill:#bfbf00;opacity:0.5;"/>
   </g>
   <g id="patch_8">
    <path clip-path="url(#pc35da50c77)" d="M 174.130606 150.400701 
L 199.20142 157.721209 
L 199.207847 157.47692 
L 174.13439 150.157842 
L 174.130606 150.400701 
" style="fill:#bfbf00;opacity:0.5;"/>
   </g>
   <g id="patch_9">
    <path clip-path="url(#pc35da50c77)" d="M 90.318552 152.163245 
L 114.686469 159.515737 
L 114.652615 156.026531 
L 90.249081 148.694515 
L 90.318552 152.163245 
" style="fill:#008000;opacity:0.5;"/>
   </g>
   <g id="patch_10">
    <path clip-path="url(#pc35da50c77)" d="M 205.539972 159.572023 
L 231.183386 167.059727 
L 231.348466 162.941987 
L 205.658805 155.478517 
L 205.539972 159.572023 
" style="fill:#bfbf00;opacity:0.5;"/>
   </g>
   <g id="patch_11">
    <path clip-path="url(#pc35da50c77)" d="M 120.847461 161.374683 
L 145.77316 168.895474 
L 145.77444 168.536421 
L 120.844933 161.01774 
L 120.847461 161.374683 
" style="fill:#008000;opacity:0.5;"/>
   </g>
   <g id="patch_12">
    <path clip-path="url(#pc35da50c77)" d="M 152.075986 170.797215 
L 177.57884 178.49215 
L 177.660518 173.756765 
L 152.105488 166.089809 
L 152.075986 170.797215 
" style="fill:#008000;opacity:0.5;"/>
   </g>
   <g id="patch_13">
    <path clip-path="url(#pc35da50c77)" d="M 66.103203 172.649591 
L 90.866222 180.378997 
L 90.795172 176.832755 
L 65.995381 169.124296 
L 66.103203 172.649591 
" style="fill:#0000ff;opacity:0.5;"/>
   </g>
   <g id="patch_14">
    <path clip-path="url(#pc35da50c77)" d="M 184.028455 180.438182 
L 210.128745 188.31338 
L 210.133591 188.158898 
L 184.031532 180.284613 
L 184.028455 180.438182 
" style="fill:#008000;opacity:0.5;"/>
   </g>
   <g id="patch_15">
    <path clip-path="url(#pc35da50c77)" d="M 97.128897 182.333797 
L 122.473342 190.244687 
L 122.442442 185.467123 
L 97.046468 177.584552 
L 97.128897 182.333797 
" style="fill:#0000ff;opacity:0.5;"/>
   </g>
   <g id="patch_16">
    <path clip-path="url(#pc35da50c77)" d="M 128.883926 192.245655 
L 154.830517 200.344495 
L 154.83329 199.976849 
L 128.882573 191.880187 
L 128.883926 192.245655 
" style="fill:#0000ff;opacity:0.5;"/>
   </g>
   <g id="patch_17">
    <path clip-path="url(#pc35da50c77)" d="M 161.394313 202.393286 
L 187.964767 210.686856 
L 187.968224 210.529835 
L 161.395937 202.237197 
L 161.394313 202.393286 
" style="fill:#0000ff;opacity:0.5;"/>
   </g>
   <g id="patch_18">
    <path clip-path="url(#pc35da50c77)" d="M 72.169666 204.389236 
L 97.943026 212.721382 
L 97.857783 207.774346 
L 72.030153 199.471672 
L 72.169666 204.389236 
" style="fill:#ff0000;opacity:0.5;"/>
   </g>
   <g id="patch_19">
    <path clip-path="url(#pc35da50c77)" d="M 104.464104 214.82955 
L 130.866186 223.364953 
L 130.851815 218.380766 
L 104.392761 209.875111 
L 104.464104 214.82955 
" style="fill:#ff0000;opacity:0.5;"/>
   </g>
   <g id="patch_20">
    <path clip-path="url(#pc35da50c77)" d="M 137.547313 225.524862 
L 164.601406 234.271051 
L 164.614859 233.146059 
L 137.547363 224.406577 
L 137.547313 225.524862 
" style="fill:#ff0000;opacity:0.5;"/>
   </g>
   <g id="patch_21">
    <path clip-path="url(#pc35da50c77)" d="M 40.636123 194.194908 
L 65.802955 202.330972 
L 12.50687 -1510.840471 
L -30.206525 -1496.969552 
L 40.636123 194.194908 
" style="fill:#ff0000;opacity:0.5;"/>
   </g>
  </g>
  <g id="patch_22">
   <path d="M 311.563636 260.836364 
L 565.2 260.836364 
L 565.2 7.2 
L 311.563636 7.2 
z
" style="fill:none;"/>
  </g>
  <g id="pane3d_4">
   <g id="patch_23">
    <path d="M 330.714931 198.297765 
L 414.473942 128.089301 
L 413.309611 26.836146 
L 325.5423 90.884732 
" style="fill:#f2f2f2;opacity:0.5;stroke:#f2f2f2;stroke-linejoin:miter;"/>
   </g>
  </g>
  <g id="pane3d_5">
   <g id="patch_24">
    <path d="M 414.473942 128.089301 
L 548.877268 167.155042 
L 553.673649 62.414338 
L 413.309611 26.836146 
" style="fill:#e6e6e6;opacity:0.5;stroke:#e6e6e6;stroke-linejoin:miter;"/>
   </g>
  </g>
  <g id="pane3d_6">
   <g id="patch_25">
    <path d="M 330.714931 198.297765 
L 473.189022 244.829803 
L 548.877268 167.155042 
L 414.473942 128.089301 
" style="fill:#ececec;opacity:0.5;stroke:#ececec;stroke-linejoin:miter;"/>
   </g>
  </g>
  <g id="axis3d_4">
   <g id="line2d_25">
    <path d="M 330.714931 198.297765 
L 473.189022 244.829803 
" style="fill:none;stroke:#000000;stroke-linecap:square;stroke-width:0.8;"/>
   </g>
   <g id="Line3DCollection_4">
    <path d="M 351.901093 205.217165 
L 434.5352 133.920317 
L 434.222976 32.137074 
" style="fill:none;stroke:#b0b0b0;stroke-width:0.8;"/>
    <path d="M 383.823056 215.642878 
L 464.712457 142.691654 
L 465.706835 40.117315 
" style="fill:none;stroke:#b0b0b0;stroke-width:0.8;"/>
    <path d="M 416.522835 226.322626 
L 495.563143 151.658731 
L 497.924142 48.283463 
" style="fill:none;stroke:#b0b0b0;stroke-width:0.8;"/>
    <path d="M 450.029211 237.265808 
L 527.110056 160.828173 
L 530.900827 56.642091 
" style="fill:none;stroke:#b0b0b0;stroke-width:0.8;"/>
   </g>
   <g id="xtick_12">
    <g id="line2d_26">
     <path d="M 352.620944 204.596076 
L 350.458287 206.462021 
" style="fill:none;stroke:#000000;stroke-linecap:square;stroke-width:0.8;"/>
    </g>
    <g id="text_14">
     <!-- $|00\rangle$ -->
     <g transform="translate(335.715935 248.24498)rotate(-45)scale(0.22 -0.22)">
      <use transform="scale(0.996264)" xlink:href="#CMSY10-6a"/>
      <use transform="translate(27.674085 0)scale(0.996264)" xlink:href="#CMR17-30"/>
      <use transform="translate(73.364562 0)scale(0.996264)" xlink:href="#CMR17-30"/>
      <use transform="translate(119.055039 0)scale(0.996264)" xlink:href="#CMSY10-69"/>
     </g>
    </g>
   </g>
   <g id="xtick_13">
    <g id="line2d_27">
     <path d="M 384.5284 215.006753 
L 382.409289 216.917904 
" style="fill:none;stroke:#000000;stroke-linecap:square;stroke-width:0.8;"/>
    </g>
    <g id="text_15">
     <!-- $|01\rangle$ -->
     <g transform="translate(367.65351 258.771303)rotate(-45)scale(0.22 -0.22)">
      <use transform="scale(0.996264)" xlink:href="#CMSY10-6a"/>
      <use transform="translate(27.674085 0)scale(0.996264)" xlink:href="#CMR17-30"/>
      <use transform="translate(73.364562 0)scale(0.996264)" xlink:href="#CMR17-31"/>
      <use transform="translate(119.055039 0)scale(0.996264)" xlink:href="#CMSY10-69"/>
     </g>
    </g>
   </g>
   <g id="xtick_14">
    <g id="line2d_28">
     <path d="M 417.212749 225.670913 
L 415.139961 227.628931 
" style="fill:none;stroke:#000000;stroke-linecap:square;stroke-width:0.8;"/>
    </g>
    <g id="text_16">
     <!-- $|10\rangle$ -->
     <g transform="translate(400.370638 269.554559)rotate(-45)scale(0.22 -0.22)">
      <use transform="scale(0.996264)" xlink:href="#CMSY10-6a"/>
      <use transform="translate(27.674085 0)scale(0.996264)" xlink:href="#CMR17-31"/>
      <use transform="translate(73.364562 0)scale(0.996264)" xlink:href="#CMR17-30"/>
      <use transform="translate(119.055039 0)scale(0.996264)" xlink:href="#CMSY10-69"/>
     </g>
    </g>
   </g>
   <g id="xtick_15">
    <g id="line2d_29">
     <path d="M 450.702713 236.597926 
L 448.679195 238.604559 
" style="fill:none;stroke:#000000;stroke-linecap:square;stroke-width:0.8;"/>
    </g>
    <g id="text_17">
     <!-- $|11\rangle$ -->
     <g transform="translate(433.896214 280.604272)rotate(-45)scale(0.22 -0.22)">
      <use transform="scale(0.996264)" xlink:href="#CMSY10-6a"/>
      <use transform="translate(27.674085 0)scale(0.996264)" xlink:href="#CMR17-31"/>
      <use transform="translate(73.364562 0)scale(0.996264)" xlink:href="#CMR17-31"/>
      <use transform="translate(119.055039 0)scale(0.996264)" xlink:href="#CMSY10-69"/>
     </g>
    </g>
   </g>
  </g>
  <g id="axis3d_5">
   <g id="line2d_30">
    <path d="M 548.877268 167.155042 
L 473.189022 244.829803 
" style="fill:none;stroke:#000000;stroke-linecap:square;stroke-width:0.8;"/>
   </g>
   <g id="Line3DCollection_5">
    <path d="M 331.611627 86.455614 
L 336.486635 193.459808 
L 478.426063 239.45531 
" style="fill:none;stroke:#b0b0b0;stroke-width:0.8;"/>
    <path d="M 358.47036 66.855333 
L 362.064658 172.019802 
L 501.596288 215.676959 
" style="fill:none;stroke:#b0b0b0;stroke-width:0.8;"/>
    <path d="M 383.956402 48.256781 
L 386.390444 151.629446 
L 523.574233 193.122181 
" style="fill:none;stroke:#b0b0b0;stroke-width:0.8;"/>
    <path d="M 408.172363 30.585075 
L 409.553754 132.2135 
L 544.449616 171.698903 
" style="fill:none;stroke:#b0b0b0;stroke-width:0.8;"/>
   </g>
   <g id="xtick_16">
    <g id="line2d_31">
     <path d="M 477.229935 239.067705 
L 480.821412 240.231524 
" style="fill:none;stroke:#000000;stroke-linecap:square;stroke-width:0.8;"/>
    </g>
    <g id="text_18">
     <!-- $\langle 00|$ -->
     <g transform="translate(472.400842 256.913298)rotate(-315)scale(0.22 -0.22)">
      <use transform="scale(0.996264)" xlink:href="#CMSY10-68"/>
      <use transform="translate(38.743734 0)scale(0.996264)" xlink:href="#CMR17-30"/>
      <use transform="translate(84.434211 0)scale(0.996264)" xlink:href="#CMR17-30"/>
      <use transform="translate(130.124688 0)scale(0.996264)" xlink:href="#CMSY10-6a"/>
     </g>
    </g>
   </g>
   <g id="xtick_17">
    <g id="line2d_32">
     <path d="M 500.422024 215.309551 
L 503.947774 216.4127 
" style="fill:none;stroke:#000000;stroke-linecap:square;stroke-width:0.8;"/>
    </g>
    <g id="text_19">
     <!-- $\langle 01|$ -->
     <g transform="translate(495.429343 232.97451)rotate(-315)scale(0.22 -0.22)">
      <use transform="scale(0.996264)" xlink:href="#CMSY10-68"/>
      <use transform="translate(38.743734 0)scale(0.996264)" xlink:href="#CMR17-30"/>
      <use transform="translate(84.434211 0)scale(0.996264)" xlink:href="#CMR17-31"/>
      <use transform="translate(130.124688 0)scale(0.996264)" xlink:href="#CMSY10-6a"/>
     </g>
    </g>
   </g>
   <g id="xtick_18">
    <g id="line2d_33">
     <path d="M 522.421194 192.773432 
L 525.883139 193.820535 
" style="fill:none;stroke:#000000;stroke-linecap:square;stroke-width:0.8;"/>
    </g>
    <g id="text_20">
     <!-- $\langle 10|$ -->
     <g transform="translate(517.272549 210.267872)rotate(-315)scale(0.22 -0.22)">
      <use transform="scale(0.996264)" xlink:href="#CMSY10-68"/>
      <use transform="translate(38.743734 0)scale(0.996264)" xlink:href="#CMR17-31"/>
      <use transform="translate(84.434211 0)scale(0.996264)" xlink:href="#CMR17-30"/>
      <use transform="translate(130.124688 0)scale(0.996264)" xlink:href="#CMSY10-6a"/>
     </g>
    </g>
   </g>
   <g id="xtick_19">
    <g id="line2d_34">
     <path d="M 543.317177 171.367426 
L 546.717201 172.362648 
" style="fill:none;stroke:#000000;stroke-linecap:square;stroke-width:0.8;"/>
    </g>
    <g id="text_21">
     <!-- $\langle 11|$ -->
     <g transform="translate(538.019676 188.700638)rotate(-315)scale(0.22 -0.22)">
      <use transform="scale(0.996264)" xlink:href="#CMSY10-68"/>
      <use transform="translate(38.743734 0)scale(0.996264)" xlink:href="#CMR17-31"/>
      <use transform="translate(84.434211 0)scale(0.996264)" xlink:href="#CMR17-31"/>
      <use transform="translate(130.124688 0)scale(0.996264)" xlink:href="#CMSY10-6a"/>
     </g>
    </g>
   </g>
  </g>
  <g id="axis3d_6">
   <g id="line2d_35">
    <path d="M 548.877268 167.155042 
L 553.673649 62.414338 
" style="fill:none;stroke:#000000;stroke-linecap:square;stroke-width:0.8;"/>
   </g>
   <g id="Line3DCollection_6">
    <path d="M 548.969162 165.148326 
L 414.451588 126.145382 
L 330.615993 196.24325 
" style="fill:none;stroke:#b0b0b0;stroke-width:0.8;"/>
    <path d="M 551.222919 115.932023 
L 413.903916 78.51844 
L 328.187456 145.813109 
" style="fill:none;stroke:#b0b0b0;stroke-width:0.8;"/>
    <path d="M 553.573514 64.601035 
L 413.333869 28.945668 
L 325.650469 93.130925 
" style="fill:none;stroke:#b0b0b0;stroke-width:0.8;"/>
   </g>
   <g id="xtick_20">
    <g id="line2d_36">
     <path d="M 547.840143 164.820971 
L 551.229886 165.803816 
" style="fill:none;stroke:#000000;stroke-linecap:square;stroke-width:0.8;"/>
    </g>
    <g id="text_22">
     <!-- $\mathdefault{0.00}$ -->
     <g transform="translate(558.641268 176.169361)rotate(-345)scale(0.22 -0.22)">
      <use transform="scale(0.996264)" xlink:href="#CMR17-30"/>
      <use transform="translate(45.690477 0)scale(0.996264)" xlink:href="#CMMI12-3a"/>
      <use transform="translate(72.787654 0)scale(0.996264)" xlink:href="#CMR17-30"/>
      <use transform="translate(118.478131 0)scale(0.996264)" xlink:href="#CMR17-30"/>
     </g>
    </g>
   </g>
   <g id="xtick_21">
    <g id="line2d_37">
     <path d="M 550.069253 115.617698 
L 553.533055 116.561436 
" style="fill:none;stroke:#000000;stroke-linecap:square;stroke-width:0.8;"/>
    </g>
    <g id="text_23">
     <!-- $\mathdefault{0.05}$ -->
     <g transform="translate(561.480775 127.115164)rotate(-345)scale(0.22 -0.22)">
      <use transform="scale(0.996264)" xlink:href="#CMR17-30"/>
      <use transform="translate(45.690477 0)scale(0.996264)" xlink:href="#CMMI12-3a"/>
      <use transform="translate(72.787654 0)scale(0.996264)" xlink:href="#CMR17-30"/>
      <use transform="translate(118.478131 0)scale(0.996264)" xlink:href="#CMR17-35"/>
     </g>
    </g>
   </g>
   <g id="xtick_22">
    <g id="line2d_38">
     <path d="M 552.394102 64.301175 
L 555.935266 65.201501 
" style="fill:none;stroke:#000000;stroke-linecap:square;stroke-width:0.8;"/>
    </g>
    <g id="text_24">
     <!-- $\mathdefault{0.10}$ -->
     <g transform="translate(564.441661 75.964058)rotate(-345)scale(0.22 -0.22)">
      <use transform="scale(0.996264)" xlink:href="#CMR17-30"/>
      <use transform="translate(45.690477 0)scale(0.996264)" xlink:href="#CMMI12-3a"/>
      <use transform="translate(72.787654 0)scale(0.996264)" xlink:href="#CMR17-31"/>
      <use transform="translate(118.478131 0)scale(0.996264)" xlink:href="#CMR17-30"/>
     </g>
    </g>
   </g>
  </g>
  <g id="axes_2">
   <g id="line2d_39">
    <path clip-path="url(#p627777ac60)" d="M 455.431986 219.744429 
L 455.398192 225.414019 
" style="fill:none;stroke:#ff0000;stroke-linecap:square;stroke-width:1.5;"/>
    <g clip-path="url(#p627777ac60)">
     <use style="fill:#ff0000;stroke:#ff0000;" x="455.431986" xlink:href="#m4126b67e54" y="219.744429"/>
     <use style="fill:#ff0000;stroke:#ff0000;" x="455.398192" xlink:href="#m4126b67e54" y="225.414019"/>
    </g>
   </g>
   <g id="line2d_40">
    <path clip-path="url(#p627777ac60)" d="M 414.002858 177.671129 
L 414.088859 184.869893 
" style="fill:none;stroke:#0000ff;stroke-linecap:square;stroke-width:1.5;"/>
    <g clip-path="url(#p627777ac60)">
     <use style="fill:#0000ff;stroke:#0000ff;" x="414.002858" xlink:href="#m96385fd98b" y="177.671129"/>
     <use style="fill:#0000ff;stroke:#0000ff;" x="414.088859" xlink:href="#m96385fd98b" y="184.869893"/>
    </g>
   </g>
   <g id="line2d_41">
    <path clip-path="url(#p627777ac60)" d="M 446.166796 192.44381 
L 446.159051 196.554154 
" style="fill:none;stroke:#0000ff;stroke-linecap:square;stroke-width:1.5;"/>
    <g clip-path="url(#p627777ac60)">
     <use style="fill:#0000ff;stroke:#0000ff;" x="446.166796" xlink:href="#m96385fd98b" y="192.44381"/>
     <use style="fill:#0000ff;stroke:#0000ff;" x="446.159051" xlink:href="#m96385fd98b" y="196.554154"/>
    </g>
   </g>
   <g id="line2d_42">
    <path clip-path="url(#p627777ac60)" d="M 479.222727 191.488938 
L 478.868439 213.399203 
" style="fill:none;stroke:#0000ff;stroke-linecap:square;stroke-width:1.5;"/>
    <g clip-path="url(#p627777ac60)">
     <use style="fill:#0000ff;stroke:#0000ff;" x="479.222727" xlink:href="#m96385fd98b" y="191.488938"/>
     <use style="fill:#0000ff;stroke:#0000ff;" x="478.868439" xlink:href="#m96385fd98b" y="213.399203"/>
    </g>
   </g>
   <g id="line2d_43">
    <path clip-path="url(#p627777ac60)" d="M 437.610512 161.375505 
L 437.617703 165.389676 
" style="fill:none;stroke:#008000;stroke-linecap:square;stroke-width:1.5;"/>
    <g clip-path="url(#p627777ac60)">
     <use style="fill:#008000;stroke:#008000;" x="437.610512" xlink:href="#m63e9a8081e" y="161.375505"/>
     <use style="fill:#008000;stroke:#008000;" x="437.617703" xlink:href="#m63e9a8081e" y="165.389676"/>
    </g>
   </g>
   <g id="line2d_44">
    <path clip-path="url(#p627777ac60)" d="M 469.232263 166.103357 
L 469.148615 173.238412 
" style="fill:none;stroke:#008000;stroke-linecap:square;stroke-width:1.5;"/>
    <g clip-path="url(#p627777ac60)">
     <use style="fill:#008000;stroke:#008000;" x="469.232263" xlink:href="#m63e9a8081e" y="166.103357"/>
     <use style="fill:#008000;stroke:#008000;" x="469.148615" xlink:href="#m63e9a8081e" y="173.238412"/>
    </g>
   </g>
   <g id="line2d_45">
    <path clip-path="url(#p627777ac60)" d="M 501.760973 169.571406 
L 501.207719 191.125793 
" style="fill:none;stroke:#008000;stroke-linecap:square;stroke-width:1.5;"/>
    <g clip-path="url(#p627777ac60)">
     <use style="fill:#008000;stroke:#008000;" x="501.760973" xlink:href="#m63e9a8081e" y="169.571406"/>
     <use style="fill:#008000;stroke:#008000;" x="501.207719" xlink:href="#m63e9a8081e" y="191.125793"/>
    </g>
   </g>
   <g id="line2d_46">
    <path clip-path="url(#p627777ac60)" d="M 429.59183 120.093167 
L 429.608483 123.344336 
" style="fill:none;stroke:#bfbf00;stroke-linecap:square;stroke-width:1.5;"/>
    <defs>
     <path d="M 3 0 
L -3 -0 
" id="m8cbfcad832" style="stroke:#bfbf00;"/>
    </defs>
    <g clip-path="url(#p627777ac60)">
     <use style="fill:#bfbf00;stroke:#bfbf00;" x="429.59183" xlink:href="#m8cbfcad832" y="120.093167"/>
     <use style="fill:#bfbf00;stroke:#bfbf00;" x="429.608483" xlink:href="#m8cbfcad832" y="123.344336"/>
    </g>
   </g>
   <g id="line2d_47">
    <path clip-path="url(#p627777ac60)" d="M 460.094634 130.550692 
L 459.958236 148.264538 
" style="fill:none;stroke:#bfbf00;stroke-linecap:square;stroke-width:1.5;"/>
    <g clip-path="url(#p627777ac60)">
     <use style="fill:#bfbf00;stroke:#bfbf00;" x="460.094634" xlink:href="#m8cbfcad832" y="130.550692"/>
     <use style="fill:#bfbf00;stroke:#bfbf00;" x="459.958236" xlink:href="#m8cbfcad832" y="148.264538"/>
    </g>
   </g>
   <g id="line2d_48">
    <path clip-path="url(#p627777ac60)" d="M 491.277641 139.492368 
L 490.904499 157.33737 
" style="fill:none;stroke:#bfbf00;stroke-linecap:square;stroke-width:1.5;"/>
    <g clip-path="url(#p627777ac60)">
     <use style="fill:#bfbf00;stroke:#bfbf00;" x="491.277641" xlink:href="#m8cbfcad832" y="139.492368"/>
     <use style="fill:#bfbf00;stroke:#bfbf00;" x="490.904499" xlink:href="#m8cbfcad832" y="157.33737"/>
    </g>
   </g>
   <g id="line2d_49">
    <path clip-path="url(#p627777ac60)" style="fill:none;stroke:#bfbf00;stroke-linecap:square;stroke-width:1.5;"/>
    <g clip-path="url(#p627777ac60)"/>
   </g>
   <g id="patch_26">
    <path clip-path="url(#p627777ac60)" d="M 417.735881 132.65967 
L 441.717566 139.66216 
L 441.717004 125.193961 
L 417.58994 118.27633 
L 417.735881 132.65967 
" style="fill:#bfbf00;opacity:0.5;"/>
   </g>
   <g id="text_25">
    <!-- $0.978$ -->
    <g transform="translate(526.49622 52.392447)scale(0.22 -0.22)">
     <defs>
      <path d="M 2886 3955 
L 2886 4096 
L 1382 4096 
C 634 4096 621 4166 595 4288 
L 480 4288 
L 294 3104 
L 410 3104 
C 429 3226 474 3552 550 3673 
C 589 3724 1062 3724 1171 3724 
L 2579 3724 
L 1869 2670 
C 1395 1961 1069 1003 1069 166 
C 1069 89 1069 -128 1299 -128 
C 1530 -128 1530 89 1530 172 
L 1530 466 
C 1530 1514 1709 2204 2003 2644 
L 2886 3955 
z
" id="CMR17-37" transform="scale(0.015625)"/>
      <path d="M 1741 2289 
C 2144 2494 2554 2803 2554 3298 
C 2554 3884 1990 4224 1472 4224 
C 890 4224 378 3800 378 3215 
C 378 3054 416 2777 666 2533 
C 730 2469 998 2276 1171 2154 
C 883 2006 211 1652 211 945 
C 211 282 838 -128 1459 -128 
C 2144 -128 2720 366 2720 1022 
C 2720 1607 2330 1877 2074 2051 
L 1741 2289 
z
M 902 2855 
C 851 2887 595 3086 595 3388 
C 595 3781 998 4076 1459 4076 
C 1965 4076 2336 3716 2336 3298 
C 2336 2700 1670 2359 1638 2359 
C 1632 2359 1626 2359 1574 2398 
L 902 2855 
z
M 2080 1536 
C 2176 1466 2483 1253 2483 861 
C 2483 385 2010 25 1472 25 
C 890 25 448 443 448 951 
C 448 1459 838 1884 1280 2083 
L 2080 1536 
z
" id="CMR17-38" transform="scale(0.015625)"/>
     </defs>
     <use transform="scale(0.996264)" xlink:href="#CMR17-30"/>
     <use transform="translate(45.690477 0)scale(0.996264)" xlink:href="#CMMI12-3a"/>
     <use transform="translate(72.787654 0)scale(0.996264)" xlink:href="#CMR17-39"/>
     <use transform="translate(118.478131 0)scale(0.996264)" xlink:href="#CMR17-37"/>
     <use transform="translate(164.168608 0)scale(0.996264)" xlink:href="#CMR17-38"/>
    </g>
   </g>
   <g id="text_26">
    <!-- $|\Upsilon_1^6|$ -->
    <g transform="translate(554.675675 25.439782)scale(0.28 -0.28)">
     <use transform="scale(0.996264)" xlink:href="#CMSY10-6a"/>
     <use transform="translate(27.674085 0)scale(0.996264)" xlink:href="#CMR17-7"/>
     <use transform="translate(99.388873 36.153639)scale(0.697382)" xlink:href="#CMR17-36"/>
     <use transform="translate(99.388873 -24.740171)scale(0.697382)" xlink:href="#CMR17-31"/>
     <use transform="translate(131.870187 0)scale(0.996264)" xlink:href="#CMSY10-6a"/>
    </g>
   </g>
   <g id="patch_27">
    <path clip-path="url(#p627777ac60)" d="M 447.779259 141.432133 
L 472.296439 148.590984 
L 472.368512 143.019755 
L 447.793247 135.893512 
L 447.779259 141.432133 
" style="fill:#bfbf00;opacity:0.5;"/>
   </g>
   <g id="patch_28">
    <path clip-path="url(#p627777ac60)" d="M 478.494243 150.400701 
L 503.565057 157.721209 
L 503.7127 152.108825 
L 478.581162 144.821276 
L 478.494243 150.400701 
" style="fill:#bfbf00;opacity:0.5;"/>
   </g>
   <g id="patch_29">
    <path clip-path="url(#p627777ac60)" d="M 394.682189 152.163245 
L 419.050105 159.515737 
L 419.042725 158.755098 
L 394.667044 151.407061 
L 394.682189 152.163245 
" style="fill:#008000;opacity:0.5;"/>
   </g>
   <g id="patch_30">
    <path clip-path="url(#p627777ac60)" d="M 425.211097 161.374683 
L 450.136796 168.895474 
L 450.142994 167.156701 
L 425.198857 159.646134 
L 425.211097 161.374683 
" style="fill:#008000;opacity:0.5;"/>
   </g>
   <g id="patch_31">
    <path clip-path="url(#p627777ac60)" d="M 456.439622 170.797215 
L 481.942476 178.49215 
L 482.028121 173.526815 
L 456.470557 165.861222 
L 456.439622 170.797215 
" style="fill:#008000;opacity:0.5;"/>
   </g>
   <g id="patch_32">
    <path clip-path="url(#p627777ac60)" d="M 370.466839 172.649591 
L 395.229859 180.378997 
L 395.21437 179.605947 
L 370.443335 171.881098 
L 370.466839 172.649591 
" style="fill:#0000ff;opacity:0.5;"/>
   </g>
   <g id="patch_33">
    <path clip-path="url(#p627777ac60)" d="M 488.392091 180.438182 
L 514.492381 188.31338 
L 514.616942 184.342719 
L 488.471181 176.491032 
L 488.392091 180.438182 
" style="fill:#008000;opacity:0.5;"/>
   </g>
   <g id="patch_34">
    <path clip-path="url(#p627777ac60)" d="M 401.492533 182.333797 
L 426.836978 190.244687 
L 426.804578 185.235118 
L 401.406101 177.353926 
L 401.492533 182.333797 
" style="fill:#0000ff;opacity:0.5;"/>
   </g>
   <g id="patch_35">
    <path clip-path="url(#p627777ac60)" d="M 433.247562 192.245655 
L 459.194153 200.344495 
L 459.207582 198.56407 
L 433.241011 190.475786 
L 433.247562 192.245655 
" style="fill:#0000ff;opacity:0.5;"/>
   </g>
   <g id="patch_36">
    <path clip-path="url(#p627777ac60)" d="M 344.99976 194.194908 
L 370.166591 202.330972 
L 370.141174 201.513959 
L 344.965738 193.382738 
L 344.99976 194.194908 
" style="fill:#ff0000;opacity:0.5;"/>
   </g>
   <g id="patch_37">
    <path clip-path="url(#p627777ac60)" d="M 465.75795 202.393286 
L 492.328403 210.686856 
L 492.417266 206.650761 
L 465.799674 198.381212 
L 465.75795 202.393286 
" style="fill:#0000ff;opacity:0.5;"/>
   </g>
   <g id="patch_38">
    <path clip-path="url(#p627777ac60)" d="M 376.533303 204.389236 
L 402.306663 212.721382 
L 402.269922 210.589154 
L 376.47317 202.269686 
L 376.533303 204.389236 
" style="fill:#ff0000;opacity:0.5;"/>
   </g>
   <g id="patch_39">
    <path clip-path="url(#p627777ac60)" d="M 408.827741 214.82955 
L 435.229822 223.364953 
L 435.223628 221.216745 
L 408.796991 212.694138 
L 408.827741 214.82955 
" style="fill:#ff0000;opacity:0.5;"/>
   </g>
   <g id="patch_40">
    <path clip-path="url(#p627777ac60)" d="M 441.910949 225.524862 
L 468.965043 234.271051 
L 469.052522 226.955366 
L 441.911274 218.252979 
L 441.910949 225.524862 
" style="fill:#ff0000;opacity:0.5;"/>
   </g>
   <g id="patch_41">
    <path clip-path="url(#p627777ac60)" d="M 509.903608 159.572023 
L 535.547022 167.059727 
L 598.991013 -1415.482125 
L 555.296904 -1404.110651 
L 509.903608 159.572023 
" style="fill:#bfbf00;opacity:0.5;"/>
   </g>
  </g>
 </g>
 <defs>
  <clipPath id="pc35da50c77">
   <rect height="253.636364" width="253.636364" x="7.2" y="7.2"/>
  </clipPath>
  <clipPath id="p627777ac60">
   <rect height="253.636364" width="253.636364" x="311.563636" y="7.2"/>
  </clipPath>
 </defs>
</svg>
