<?xml version="1.0" encoding="utf-8" standalone="no"?>
<!DOCTYPE svg PUBLIC "-//W3C//DTD SVG 1.1//EN"
  "http://www.w3.org/Graphics/SVG/1.1/DTD/svg11.dtd">
<svg height="583.051022pt" version="1.1" viewBox="0 0 299.956801 583.051022" width="299.956801pt" xmlns="http://www.w3.org/2000/svg" xmlns:xlink="http://www.w3.org/1999/xlink">
 <metadata>
  <rdf:RDF xmlns:cc="http://creativecommons.org/ns#" xmlns:dc="http://purl.org/dc/elements/1.1/" xmlns:rdf="http://www.w3.org/1999/02/22-rdf-syntax-ns#">
   <cc:Work>
    <dc:type rdf:resource="http://purl.org/dc/dcmitype/StillImage"/>
    <dc:date>2022-11-16T15:22:22.850939</dc:date>
    <dc:format>image/svg+xml</dc:format>
    <dc:creator>
     <cc:Agent>
      <dc:title>Matplotlib v3.4.2, https://matplotlib.org/</dc:title>
     </cc:Agent>
    </dc:creator>
   </cc:Work>
  </rdf:RDF>
 </metadata>
 <defs>
  <style type="text/css">*{stroke-linecap:butt;stroke-linejoin:round;}</style>
 </defs>
 <g id="figure_1">
  <g id="patch_1">
   <path d="M 0 583.051022 
L 299.956801 583.051022 
L 299.956801 0 
L 0 0 
z
" style="fill:none;"/>
  </g>
  <g id="patch_2">
   <path d="M 7.2 254.290909 
L 254.290909 254.290909 
L 254.290909 7.2 
L 7.2 7.2 
z
" style="fill:none;"/>
  </g>
  <g id="pane3d_1">
   <g id="patch_3">
    <path d="M 25.857068 193.36621 
L 107.454555 124.969577 
L 106.320272 26.329407 
L 20.817924 88.725126 
" style="fill:#f2f2f2;opacity:0.5;stroke:#f2f2f2;stroke-linejoin:miter;"/>
   </g>
  </g>
  <g id="pane3d_2">
   <g id="patch_4">
    <path d="M 107.454555 124.969577 
L 238.389409 163.02717 
L 243.062013 60.989452 
L 106.320272 26.329407 
" style="fill:#e6e6e6;opacity:0.5;stroke:#e6e6e6;stroke-linejoin:miter;"/>
   </g>
  </g>
  <g id="pane3d_3">
   <g id="patch_5">
    <path d="M 25.857068 193.36621 
L 164.654408 238.697421 
L 238.389409 163.02717 
L 107.454555 124.969577 
" style="fill:#ececec;opacity:0.5;stroke:#ececec;stroke-linejoin:miter;"/>
   </g>
  </g>
  <g id="axis3d_1">
   <g id="line2d_1">
    <path d="M 25.857068 193.36621 
L 164.654408 238.697421 
" style="fill:none;stroke:#000000;stroke-linecap:square;stroke-width:0.8;"/>
   </g>
   <g id="Line3DCollection_1">
    <path d="M 46.49649 200.107045 
L 126.998104 130.650115 
L 126.693938 31.493537 
" style="fill:none;stroke:#b0b0b0;stroke-width:0.8;"/>
    <path d="M 77.59466 210.263707 
L 156.396593 139.195095 
L 157.36531 39.267836 
" style="fill:none;stroke:#b0b0b0;stroke-width:0.8;"/>
    <path d="M 109.450574 220.667849 
L 186.451132 147.930763 
L 188.751202 47.223244 
" style="fill:none;stroke:#b0b0b0;stroke-width:0.8;"/>
    <path d="M 142.092269 231.328626 
L 217.183931 156.863575 
L 220.876876 55.366166 
" style="fill:none;stroke:#b0b0b0;stroke-width:0.8;"/>
   </g>
   <g id="xtick_1">
    <g id="line2d_2">
     <path d="M 47.197764 199.501984 
L 45.090918 201.319775 
" style="fill:none;stroke:#000000;stroke-linecap:square;stroke-width:0.8;"/>
    </g>
    <g id="text_1">
     <!-- $|00\rangle$ -->
     <g transform="translate(30.311185 243.135168)rotate(-45)scale(0.22 -0.22)">
      <defs>
       <path d="M 1018 4569 
C 1018 4684 1018 4800 890 4800 
C 762 4800 762 4684 762 4569 
L 762 -1370 
C 762 -1485 762 -1600 890 -1600 
C 1018 -1600 1018 -1485 1018 -1370 
L 1018 4569 
z
" id="CMSY10-6a" transform="scale(0.015625)"/>
       <path d="M 2688 2038 
C 2688 2430 2682 3099 2413 3613 
C 2176 4063 1798 4224 1466 4224 
C 1158 4224 768 4082 525 3620 
C 269 3137 243 2539 243 2038 
C 243 1671 250 1112 448 623 
C 723 -39 1216 -128 1466 -128 
C 1760 -128 2208 -7 2470 604 
C 2662 1048 2688 1568 2688 2038 
z
M 1466 -26 
C 1056 -26 813 328 723 816 
C 653 1196 653 1749 653 2109 
C 653 2604 653 3015 736 3407 
C 858 3954 1216 4121 1466 4121 
C 1728 4121 2067 3947 2189 3420 
C 2272 3054 2278 2623 2278 2109 
C 2278 1691 2278 1176 2202 797 
C 2067 96 1690 -26 1466 -26 
z
" id="CMR17-30" transform="scale(0.015625)"/>
       <path d="M 1747 1491 
C 1779 1568 1779 1580 1779 1600 
C 1779 1619 1779 1632 1747 1709 
L 627 4653 
C 589 4761 550 4800 480 4800 
C 410 4800 352 4742 352 4672 
C 352 4653 352 4640 384 4569 
L 1517 1600 
L 384 -1357 
C 352 -1428 352 -1440 352 -1472 
C 352 -1543 410 -1600 480 -1600 
C 563 -1600 589 -1536 614 -1472 
L 1747 1491 
z
" id="CMSY10-69" transform="scale(0.015625)"/>
      </defs>
      <use transform="scale(0.996264)" xlink:href="#CMSY10-6a"/>
      <use transform="translate(27.674085 0)scale(0.996264)" xlink:href="#CMR17-30"/>
      <use transform="translate(73.364562 0)scale(0.996264)" xlink:href="#CMR17-30"/>
      <use transform="translate(119.055039 0)scale(0.996264)" xlink:href="#CMSY10-69"/>
     </g>
    </g>
   </g>
   <g id="xtick_2">
    <g id="line2d_3">
     <path d="M 78.281802 209.643998 
L 76.217377 211.505829 
" style="fill:none;stroke:#000000;stroke-linecap:square;stroke-width:0.8;"/>
    </g>
    <g id="text_2">
     <!-- $|01\rangle$ -->
     <g transform="translate(61.424967 253.392449)rotate(-45)scale(0.22 -0.22)">
      <defs>
       <path d="M 1702 4083 
C 1702 4217 1696 4224 1606 4224 
C 1357 3927 979 3833 621 3820 
C 602 3820 570 3820 563 3808 
C 557 3795 557 3782 557 3648 
C 755 3648 1088 3686 1344 3839 
L 1344 467 
C 1344 243 1331 166 781 166 
L 589 166 
L 589 0 
C 896 6 1216 12 1523 12 
C 1830 12 2150 6 2458 0 
L 2458 166 
L 2266 166 
C 1715 166 1702 236 1702 467 
L 1702 4083 
z
" id="CMR17-31" transform="scale(0.015625)"/>
      </defs>
      <use transform="scale(0.996264)" xlink:href="#CMSY10-6a"/>
      <use transform="translate(27.674085 0)scale(0.996264)" xlink:href="#CMR17-30"/>
      <use transform="translate(73.364562 0)scale(0.996264)" xlink:href="#CMR17-31"/>
      <use transform="translate(119.055039 0)scale(0.996264)" xlink:href="#CMSY10-69"/>
     </g>
    </g>
   </g>
   <g id="xtick_3">
    <g id="line2d_4">
     <path d="M 110.122684 220.032954 
L 108.103387 221.940443 
" style="fill:none;stroke:#000000;stroke-linecap:square;stroke-width:0.8;"/>
    </g>
    <g id="text_3">
     <!-- $|10\rangle$ -->
     <g transform="translate(93.298229 263.900107)rotate(-45)scale(0.22 -0.22)">
      <use transform="scale(0.996264)" xlink:href="#CMSY10-6a"/>
      <use transform="translate(27.674085 0)scale(0.996264)" xlink:href="#CMR17-31"/>
      <use transform="translate(73.364562 0)scale(0.996264)" xlink:href="#CMR17-30"/>
      <use transform="translate(119.055039 0)scale(0.996264)" xlink:href="#CMSY10-69"/>
     </g>
    </g>
   </g>
   <g id="xtick_4">
    <g id="line2d_5">
     <path d="M 142.748391 230.67798 
L 140.777092 232.632828 
" style="fill:none;stroke:#000000;stroke-linecap:square;stroke-width:0.8;"/>
    </g>
    <g id="text_4">
     <!-- $|11\rangle$ -->
     <g transform="translate(125.959122 274.667424)rotate(-45)scale(0.22 -0.22)">
      <use transform="scale(0.996264)" xlink:href="#CMSY10-6a"/>
      <use transform="translate(27.674085 0)scale(0.996264)" xlink:href="#CMR17-31"/>
      <use transform="translate(73.364562 0)scale(0.996264)" xlink:href="#CMR17-31"/>
      <use transform="translate(119.055039 0)scale(0.996264)" xlink:href="#CMSY10-69"/>
     </g>
    </g>
   </g>
  </g>
  <g id="axis3d_2">
   <g id="line2d_6">
    <path d="M 238.389409 163.02717 
L 164.654408 238.697421 
" style="fill:none;stroke:#000000;stroke-linecap:square;stroke-width:0.8;"/>
   </g>
   <g id="Line3DCollection_2">
    <path d="M 26.730623 84.410307 
L 31.479824 188.653104 
L 169.756299 233.461625 
" style="fill:none;stroke:#b0b0b0;stroke-width:0.8;"/>
    <path d="M 52.896228 65.315841 
L 56.39777 167.766387 
L 192.328584 210.296908 
" style="fill:none;stroke:#b0b0b0;stroke-width:0.8;"/>
    <path d="M 77.724565 47.197251 
L 80.095793 147.902234 
L 213.739355 188.324189 
" style="fill:none;stroke:#b0b0b0;stroke-width:0.8;"/>
    <path d="M 101.315598 29.98159 
L 102.661341 128.987345 
L 234.076019 167.45377 
" style="fill:none;stroke:#b0b0b0;stroke-width:0.8;"/>
   </g>
   <g id="xtick_5">
    <g id="line2d_7">
     <path d="M 168.591039 233.084022 
L 172.089833 234.217807 
" style="fill:none;stroke:#000000;stroke-linecap:square;stroke-width:0.8;"/>
    </g>
    <g id="text_5">
     <!-- $\langle 00|$ -->
     <g transform="translate(163.731119 250.919654)rotate(-315)scale(0.22 -0.22)">
      <defs>
       <path d="M 2099 4557 
C 2131 4627 2131 4640 2131 4672 
C 2131 4742 2074 4800 2003 4800 
C 1946 4800 1901 4768 1856 4653 
L 736 1715 
C 723 1677 704 1638 704 1600 
C 704 1580 704 1568 736 1491 
L 1856 -1447 
C 1882 -1517 1914 -1600 2003 -1600 
C 2074 -1600 2131 -1543 2131 -1472 
C 2131 -1453 2131 -1440 2099 -1370 
L 966 1600 
L 2099 4557 
z
" id="CMSY10-68" transform="scale(0.015625)"/>
      </defs>
      <use transform="scale(0.996264)" xlink:href="#CMSY10-68"/>
      <use transform="translate(38.743734 0)scale(0.996264)" xlink:href="#CMR17-30"/>
      <use transform="translate(84.434211 0)scale(0.996264)" xlink:href="#CMR17-30"/>
      <use transform="translate(130.124688 0)scale(0.996264)" xlink:href="#CMSY10-6a"/>
     </g>
    </g>
   </g>
   <g id="xtick_6">
    <g id="line2d_8">
     <path d="M 191.184623 209.938982 
L 194.619385 211.013663 
" style="fill:none;stroke:#000000;stroke-linecap:square;stroke-width:0.8;"/>
    </g>
    <g id="text_6">
     <!-- $\langle 01|$ -->
     <g transform="translate(186.161677 227.5945)rotate(-315)scale(0.22 -0.22)">
      <use transform="scale(0.996264)" xlink:href="#CMSY10-68"/>
      <use transform="translate(38.743734 0)scale(0.996264)" xlink:href="#CMR17-30"/>
      <use transform="translate(84.434211 0)scale(0.996264)" xlink:href="#CMR17-31"/>
      <use transform="translate(130.124688 0)scale(0.996264)" xlink:href="#CMSY10-6a"/>
     </g>
    </g>
   </g>
   <g id="xtick_7">
    <g id="line2d_9">
     <path d="M 212.616073 187.98444 
L 215.988676 189.004521 
" style="fill:none;stroke:#000000;stroke-linecap:square;stroke-width:0.8;"/>
    </g>
    <g id="text_7">
     <!-- $\langle 10|$ -->
     <g transform="translate(207.437708 205.469918)rotate(-315)scale(0.22 -0.22)">
      <use transform="scale(0.996264)" xlink:href="#CMSY10-68"/>
      <use transform="translate(38.743734 0)scale(0.996264)" xlink:href="#CMR17-31"/>
      <use transform="translate(84.434211 0)scale(0.996264)" xlink:href="#CMR17-30"/>
      <use transform="translate(130.124688 0)scale(0.996264)" xlink:href="#CMSY10-6a"/>
     </g>
    </g>
   </g>
   <g id="xtick_8">
    <g id="line2d_10">
     <path d="M 232.972804 167.130848 
L 236.285085 168.100386 
" style="fill:none;stroke:#000000;stroke-linecap:square;stroke-width:0.8;"/>
    </g>
    <g id="text_8">
     <!-- $\langle 11|$ -->
     <g transform="translate(227.646113 184.455541)rotate(-315)scale(0.22 -0.22)">
      <use transform="scale(0.996264)" xlink:href="#CMSY10-68"/>
      <use transform="translate(38.743734 0)scale(0.996264)" xlink:href="#CMR17-31"/>
      <use transform="translate(84.434211 0)scale(0.996264)" xlink:href="#CMR17-31"/>
      <use transform="translate(130.124688 0)scale(0.996264)" xlink:href="#CMSY10-6a"/>
     </g>
    </g>
   </g>
  </g>
  <g id="axis3d_3">
   <g id="line2d_11">
    <path d="M 238.389409 163.02717 
L 243.062013 60.989452 
" style="fill:none;stroke:#000000;stroke-linecap:square;stroke-width:0.8;"/>
   </g>
   <g id="Line3DCollection_3">
    <path d="M 238.478931 161.07224 
L 107.432779 123.075824 
L 25.760683 191.364715 
" style="fill:none;stroke:#b0b0b0;stroke-width:0.8;"/>
    <path d="M 240.674527 113.126035 
L 106.89924 76.677964 
L 23.394818 142.235996 
" style="fill:none;stroke:#b0b0b0;stroke-width:0.8;"/>
    <path d="M 242.964462 63.119718 
L 106.343904 28.384489 
L 20.923301 90.913353 
" style="fill:none;stroke:#b0b0b0;stroke-width:0.8;"/>
   </g>
   <g id="xtick_9">
    <g id="line2d_12">
     <path d="M 237.379049 160.753333 
L 240.681314 161.710814 
" style="fill:none;stroke:#000000;stroke-linecap:square;stroke-width:0.8;"/>
    </g>
    <g id="text_9">
     <!-- $\mathdefault{0.00}$ -->
     <g transform="translate(248.14732 172.093804)rotate(-345)scale(0.22 -0.22)">
      <defs>
       <path d="M 1178 307 
C 1178 492 1024 620 870 620 
C 685 620 557 467 557 313 
C 557 128 710 0 864 0 
C 1050 0 1178 153 1178 307 
z
" id="CMMI12-3a" transform="scale(0.015625)"/>
      </defs>
      <use transform="scale(0.996264)" xlink:href="#CMR17-30"/>
      <use transform="translate(45.690477 0)scale(0.996264)" xlink:href="#CMMI12-3a"/>
      <use transform="translate(72.787654 0)scale(0.996264)" xlink:href="#CMR17-30"/>
      <use transform="translate(118.478131 0)scale(0.996264)" xlink:href="#CMR17-30"/>
     </g>
    </g>
   </g>
   <g id="xtick_10">
    <g id="line2d_13">
     <path d="M 239.550633 112.819822 
L 242.925046 113.739206 
" style="fill:none;stroke:#000000;stroke-linecap:square;stroke-width:0.8;"/>
    </g>
    <g id="text_10">
     <!-- $\mathdefault{0.05}$ -->
     <g transform="translate(250.92851 124.309695)rotate(-345)scale(0.22 -0.22)">
      <defs>
       <path d="M 730 3750 
C 794 3724 1056 3641 1325 3641 
C 1920 3641 2246 3961 2432 4140 
C 2432 4191 2432 4224 2394 4224 
C 2387 4224 2374 4224 2323 4198 
C 2099 4102 1837 4032 1517 4032 
C 1325 4032 1037 4055 723 4191 
C 653 4224 640 4224 634 4224 
C 602 4224 595 4217 595 4090 
L 595 2231 
C 595 2113 595 2080 659 2080 
C 691 2080 704 2093 736 2139 
C 941 2435 1222 2560 1542 2560 
C 1766 2560 2246 2415 2246 1293 
C 2246 1087 2246 716 2054 422 
C 1894 159 1645 25 1370 25 
C 947 25 518 319 403 812 
C 429 806 480 793 506 793 
C 589 793 749 838 749 1036 
C 749 1209 627 1280 506 1280 
C 358 1280 262 1190 262 1011 
C 262 454 704 -128 1382 -128 
C 2042 -128 2669 441 2669 1267 
C 2669 2054 2170 2662 1549 2662 
C 1222 2662 947 2540 730 2304 
L 730 3750 
z
" id="CMR17-35" transform="scale(0.015625)"/>
      </defs>
      <use transform="scale(0.996264)" xlink:href="#CMR17-30"/>
      <use transform="translate(45.690477 0)scale(0.996264)" xlink:href="#CMMI12-3a"/>
      <use transform="translate(72.787654 0)scale(0.996264)" xlink:href="#CMR17-30"/>
      <use transform="translate(118.478131 0)scale(0.996264)" xlink:href="#CMR17-35"/>
     </g>
    </g>
   </g>
   <g id="xtick_11">
    <g id="line2d_14">
     <path d="M 241.815486 62.827596 
L 245.265265 63.704688 
" style="fill:none;stroke:#000000;stroke-linecap:square;stroke-width:0.8;"/>
    </g>
    <g id="text_11">
     <!-- $\mathdefault{0.10}$ -->
     <g transform="translate(253.82857 74.483246)rotate(-345)scale(0.22 -0.22)">
      <use transform="scale(0.996264)" xlink:href="#CMR17-30"/>
      <use transform="translate(45.690477 0)scale(0.996264)" xlink:href="#CMMI12-3a"/>
      <use transform="translate(72.787654 0)scale(0.996264)" xlink:href="#CMR17-31"/>
      <use transform="translate(118.478131 0)scale(0.996264)" xlink:href="#CMR17-30"/>
     </g>
    </g>
   </g>
  </g>
  <g id="axes_1">
   <g id="line2d_15">
    <path clip-path="url(#p557765cc58)" style="fill:none;stroke:#ff0000;stroke-linecap:square;stroke-width:1.5;"/>
    <defs>
     <path d="M 3 0 
L -3 -0 
" id="m1fa161acf1" style="stroke:#ff0000;"/>
    </defs>
    <g clip-path="url(#p557765cc58)"/>
   </g>
   <g id="line2d_16">
    <path clip-path="url(#p557765cc58)" d="M 82.566738 184.937284 
L 82.956468 202.002659 
" style="fill:none;stroke:#ff0000;stroke-linecap:square;stroke-width:1.5;"/>
    <g clip-path="url(#p557765cc58)">
     <use style="fill:#ff0000;stroke:#ff0000;" x="82.566738" xlink:href="#m1fa161acf1" y="184.937284"/>
     <use style="fill:#ff0000;stroke:#ff0000;" x="82.956468" xlink:href="#m1fa161acf1" y="202.002659"/>
    </g>
   </g>
   <g id="line2d_17">
    <path clip-path="url(#p557765cc58)" d="M 114.59112 195.066999 
L 114.740375 212.261829 
" style="fill:none;stroke:#ff0000;stroke-linecap:square;stroke-width:1.5;"/>
    <g clip-path="url(#p557765cc58)">
     <use style="fill:#ff0000;stroke:#ff0000;" x="114.59112" xlink:href="#m1fa161acf1" y="195.066999"/>
     <use style="fill:#ff0000;stroke:#ff0000;" x="114.740375" xlink:href="#m1fa161acf1" y="212.261829"/>
    </g>
   </g>
   <g id="line2d_18">
    <path clip-path="url(#p557765cc58)" d="M 147.314091 221.226364 
L 147.298872 223.779698 
" style="fill:none;stroke:#ff0000;stroke-linecap:square;stroke-width:1.5;"/>
    <g clip-path="url(#p557765cc58)">
     <use style="fill:#ff0000;stroke:#ff0000;" x="147.314091" xlink:href="#m1fa161acf1" y="221.226364"/>
     <use style="fill:#ff0000;stroke:#ff0000;" x="147.298872" xlink:href="#m1fa161acf1" y="223.779698"/>
    </g>
   </g>
   <g id="line2d_19">
    <path clip-path="url(#p557765cc58)" d="M 76.269891 159.518499 
L 76.65257 174.61833 
" style="fill:none;stroke:#0000ff;stroke-linecap:square;stroke-width:1.5;"/>
    <defs>
     <path d="M 3 0 
L -3 -0 
" id="m87549722eb" style="stroke:#0000ff;"/>
    </defs>
    <g clip-path="url(#p557765cc58)">
     <use style="fill:#0000ff;stroke:#0000ff;" x="76.269891" xlink:href="#m87549722eb" y="159.518499"/>
     <use style="fill:#0000ff;stroke:#0000ff;" x="76.65257" xlink:href="#m87549722eb" y="174.61833"/>
    </g>
   </g>
   <g id="line2d_20">
    <path clip-path="url(#p557765cc58)" d="M 106.981987 172.129978 
L 107.099196 181.941061 
" style="fill:none;stroke:#0000ff;stroke-linecap:square;stroke-width:1.5;"/>
    <g clip-path="url(#p557765cc58)">
     <use style="fill:#0000ff;stroke:#0000ff;" x="106.981987" xlink:href="#m87549722eb" y="172.129978"/>
     <use style="fill:#0000ff;stroke:#0000ff;" x="107.099196" xlink:href="#m87549722eb" y="181.941061"/>
    </g>
   </g>
   <g id="line2d_21">
    <path clip-path="url(#p557765cc58)" d="M 170.314865 200.186395 
L 170.28327 202.140334 
" style="fill:none;stroke:#0000ff;stroke-linecap:square;stroke-width:1.5;"/>
    <g clip-path="url(#p557765cc58)">
     <use style="fill:#0000ff;stroke:#0000ff;" x="170.314865" xlink:href="#m87549722eb" y="200.186395"/>
     <use style="fill:#0000ff;stroke:#0000ff;" x="170.28327" xlink:href="#m87549722eb" y="202.140334"/>
    </g>
   </g>
   <g id="line2d_22">
    <path clip-path="url(#p557765cc58)" d="M 99.804875 139.58229 
L 100.026179 154.43847 
" style="fill:none;stroke:#008000;stroke-linecap:square;stroke-width:1.5;"/>
    <defs>
     <path d="M 3 0 
L -3 -0 
" id="m07c46863e8" style="stroke:#008000;"/>
    </defs>
    <g clip-path="url(#p557765cc58)">
     <use style="fill:#008000;stroke:#008000;" x="99.804875" xlink:href="#m07c46863e8" y="139.58229"/>
     <use style="fill:#008000;stroke:#008000;" x="100.026179" xlink:href="#m07c46863e8" y="154.43847"/>
    </g>
   </g>
   <g id="line2d_23">
    <path clip-path="url(#p557765cc58)" d="M 160.813027 160.870891 
L 160.699024 170.595176 
" style="fill:none;stroke:#008000;stroke-linecap:square;stroke-width:1.5;"/>
    <g clip-path="url(#p557765cc58)">
     <use style="fill:#008000;stroke:#008000;" x="160.813027" xlink:href="#m07c46863e8" y="160.870891"/>
     <use style="fill:#008000;stroke:#008000;" x="160.699024" xlink:href="#m07c46863e8" y="170.595176"/>
    </g>
   </g>
   <g id="line2d_24">
    <path clip-path="url(#p557765cc58)" d="M 192.149341 178.61477 
L 192.099998 180.537136 
" style="fill:none;stroke:#008000;stroke-linecap:square;stroke-width:1.5;"/>
    <g clip-path="url(#p557765cc58)">
     <use style="fill:#008000;stroke:#008000;" x="192.149341" xlink:href="#m07c46863e8" y="178.61477"/>
     <use style="fill:#008000;stroke:#008000;" x="192.099998" xlink:href="#m07c46863e8" y="180.537136"/>
    </g>
   </g>
   <g id="line2d_25">
    <path clip-path="url(#p557765cc58)" d="M 122.244401 129.302592 
L 122.262204 132.778175 
" style="fill:none;stroke:#bfbf00;stroke-linecap:square;stroke-width:1.5;"/>
    <defs>
     <path d="M 3 0 
L -3 -0 
" id="m54a63e1efd" style="stroke:#bfbf00;"/>
    </defs>
    <g clip-path="url(#p557765cc58)">
     <use style="fill:#bfbf00;stroke:#bfbf00;" x="122.244401" xlink:href="#m54a63e1efd" y="129.302592"/>
     <use style="fill:#bfbf00;stroke:#bfbf00;" x="122.262204" xlink:href="#m54a63e1efd" y="132.778175"/>
    </g>
   </g>
   <g id="line2d_26">
    <path clip-path="url(#p557765cc58)" d="M 213.029408 154.236722 
L 212.918025 157.462799 
" style="fill:none;stroke:#bfbf00;stroke-linecap:square;stroke-width:1.5;"/>
    <g clip-path="url(#p557765cc58)">
     <use style="fill:#bfbf00;stroke:#bfbf00;" x="213.029408" xlink:href="#m54a63e1efd" y="154.236722"/>
     <use style="fill:#bfbf00;stroke:#bfbf00;" x="212.918025" xlink:href="#m54a63e1efd" y="157.462799"/>
    </g>
   </g>
   <g id="patch_6">
    <path clip-path="url(#p557765cc58)" d="M 110.632316 129.422001 
L 133.995118 136.243781 
L 133.995049 134.462369 
L 110.614346 127.650954 
L 110.632316 129.422001 
" style="fill:#bfbf00;opacity:0.5;"/>
   </g>
   <g id="text_12">
    <!-- $0.99$ -->
    <g transform="translate(47.912418 82.145932)scale(0.22 -0.22)">
     <defs>
      <path d="M 2253 1871 
C 2253 448 1670 25 1190 25 
C 1043 25 685 43 538 281 
C 704 256 826 345 826 505 
C 826 678 685 736 595 736 
C 538 736 365 710 365 492 
C 365 68 742 -128 1203 -128 
C 1939 -128 2688 665 2688 2090 
C 2688 3857 1971 4224 1485 4224 
C 851 4224 243 3664 243 2800 
C 243 2000 762 1408 1414 1408 
C 1952 1408 2189 1910 2253 2122 
L 2253 1871 
z
M 1427 1510 
C 1254 1510 1011 1542 813 1929 
C 678 2181 678 2477 678 2793 
C 678 3174 678 3438 858 3722 
C 947 3857 1114 4076 1485 4076 
C 2240 4076 2240 2909 2240 2651 
C 2240 2193 2035 1510 1427 1510 
z
" id="CMR17-39" transform="scale(0.015625)"/>
     </defs>
     <use transform="scale(0.996264)" xlink:href="#CMR17-30"/>
     <use transform="translate(45.690477 0)scale(0.996264)" xlink:href="#CMMI12-3a"/>
     <use transform="translate(72.787654 0)scale(0.996264)" xlink:href="#CMR17-39"/>
     <use transform="translate(118.478131 0)scale(0.996264)" xlink:href="#CMR17-39"/>
    </g>
   </g>
   <g id="text_13">
    <!-- $|\Upsilon_0^6|$ -->
    <g transform="translate(244.03818 24.969078)scale(0.28 -0.28)">
     <defs>
      <path d="M 2515 2262 
C 2515 2544 2554 3089 2726 3506 
C 2906 3922 3187 4115 3533 4115 
C 3738 4115 4115 3999 4173 3531 
C 4179 3480 4179 3461 4237 3461 
C 4301 3461 4307 3480 4307 3544 
C 4307 3884 4083 4480 3526 4480 
C 2554 4480 2355 3236 2310 2909 
L 2304 2909 
C 2253 3243 2048 4480 1075 4480 
C 512 4480 294 3877 294 3544 
C 294 3480 301 3461 365 3461 
C 422 3461 422 3480 429 3531 
C 486 4006 864 4115 1069 4115 
C 2029 4115 2093 2647 2093 2262 
L 2093 461 
C 2093 230 2080 166 1594 166 
L 1453 166 
L 1453 0 
C 1722 12 2035 12 2304 12 
C 2573 12 2886 12 3155 0 
L 3155 166 
L 3014 166 
C 2528 166 2515 230 2515 461 
L 2515 2262 
z
" id="CMR17-7" transform="scale(0.015625)"/>
      <path d="M 678 2198 
C 678 3712 1395 4076 1811 4076 
C 1946 4076 2272 4049 2400 3782 
C 2298 3782 2106 3782 2106 3558 
C 2106 3385 2246 3328 2336 3328 
C 2394 3328 2566 3353 2566 3571 
C 2566 3987 2246 4224 1805 4224 
C 1043 4224 243 3411 243 2011 
C 243 257 966 -128 1478 -128 
C 2099 -128 2688 431 2688 1295 
C 2688 2101 2170 2688 1517 2688 
C 1126 2688 838 2430 678 1979 
L 678 2198 
z
M 1478 25 
C 691 25 691 1212 691 1450 
C 691 1914 909 2585 1504 2585 
C 1613 2585 1926 2585 2138 2140 
C 2253 1889 2253 1624 2253 1302 
C 2253 954 2253 696 2118 438 
C 1978 173 1773 25 1478 25 
z
" id="CMR17-36" transform="scale(0.015625)"/>
     </defs>
     <use transform="scale(0.996264)" xlink:href="#CMSY10-6a"/>
     <use transform="translate(27.674085 0)scale(0.996264)" xlink:href="#CMR17-7"/>
     <use transform="translate(99.388873 36.153639)scale(0.697382)" xlink:href="#CMR17-36"/>
     <use transform="translate(99.388873 -24.740171)scale(0.697382)" xlink:href="#CMR17-30"/>
     <use transform="translate(131.870187 0)scale(0.996264)" xlink:href="#CMSY10-6a"/>
    </g>
   </g>
   <g id="patch_7">
    <path clip-path="url(#p557765cc58)" d="M 139.90038 137.968078 
L 163.784859 144.942184 
L 163.792844 144.324987 
L 139.90193 137.354482 
L 139.90038 137.968078 
" style="fill:#bfbf00;opacity:0.5;"/>
   </g>
   <g id="patch_8">
    <path clip-path="url(#p557765cc58)" d="M 169.82272 146.705199 
L 194.246545 153.836791 
L 194.262901 153.215049 
L 169.832349 146.087097 
L 169.82272 146.705199 
" style="fill:#bfbf00;opacity:0.5;"/>
   </g>
   <g id="patch_9">
    <path clip-path="url(#p557765cc58)" d="M 88.173557 148.422258 
L 111.912625 155.585009 
L 111.864426 150.617307 
L 88.07465 143.483739 
L 88.173557 148.422258 
" style="fill:#008000;opacity:0.5;"/>
   </g>
   <g id="patch_10">
    <path clip-path="url(#p557765cc58)" d="M 200.421521 155.639842 
L 225.40317 162.934314 
L 225.540667 159.504592 
L 200.520499 152.230296 
L 200.421521 155.639842 
" style="fill:#bfbf00;opacity:0.5;"/>
   </g>
   <g id="patch_11">
    <path clip-path="url(#p557765cc58)" d="M 117.914623 157.395982 
L 142.197078 164.722688 
L 142.198248 164.394374 
L 117.912312 157.069597 
L 117.914623 157.395982 
" style="fill:#008000;opacity:0.5;"/>
   </g>
   <g id="patch_12">
    <path clip-path="url(#p557765cc58)" d="M 148.337251 166.575352 
L 173.181967 174.071708 
L 173.260903 169.495314 
L 148.365762 162.025996 
L 148.337251 166.575352 
" style="fill:#008000;opacity:0.5;"/>
   </g>
   <g id="patch_13">
    <path clip-path="url(#p557765cc58)" d="M 64.58312 168.379924 
L 88.707094 175.909862 
L 88.605936 170.860869 
L 64.429609 163.360787 
L 64.58312 168.379924 
" style="fill:#0000ff;opacity:0.5;"/>
   </g>
   <g id="patch_14">
    <path clip-path="url(#p557765cc58)" d="M 179.46514 175.967519 
L 204.891874 183.639486 
L 204.898458 183.429592 
L 179.469321 175.758865 
L 179.46514 175.967519 
" style="fill:#008000;opacity:0.5;"/>
   </g>
   <g id="patch_15">
    <path clip-path="url(#p557765cc58)" d="M 94.808151 177.814215 
L 119.498546 185.520953 
L 119.468684 180.903797 
L 94.72849 173.224427 
L 94.808151 177.814215 
" style="fill:#0000ff;opacity:0.5;"/>
   </g>
   <g id="patch_16">
    <path clip-path="url(#p557765cc58)" d="M 125.743695 187.470283 
L 151.020697 195.360121 
L 151.023232 195.023951 
L 125.742458 187.136104 
L 125.743695 187.470283 
" style="fill:#0000ff;opacity:0.5;"/>
   </g>
   <g id="patch_17">
    <path clip-path="url(#p557765cc58)" d="M 157.415105 197.35604 
L 183.29987 205.435582 
L 183.304567 205.222238 
L 157.417311 197.143962 
L 157.415105 197.35604 
" style="fill:#0000ff;opacity:0.5;"/>
   </g>
   <g id="patch_18">
    <path clip-path="url(#p557765cc58)" d="M 70.49303 199.300481 
L 95.601271 207.417605 
L 95.431255 197.550824 
L 70.21478 189.492693 
L 70.49303 199.300481 
" style="fill:#ff0000;opacity:0.5;"/>
   </g>
   <g id="patch_19">
    <path clip-path="url(#p557765cc58)" d="M 101.954063 209.471368 
L 127.6748 217.786502 
L 127.646136 207.845352 
L 101.811769 199.589769 
L 101.954063 209.471368 
" style="fill:#ff0000;opacity:0.5;"/>
   </g>
   <g id="patch_20">
    <path clip-path="url(#p557765cc58)" d="M 134.183511 219.890672 
L 160.539435 228.411153 
L 160.558939 226.780047 
L 134.183584 218.269293 
L 134.183511 219.890672 
" style="fill:#ff0000;opacity:0.5;"/>
   </g>
   <g id="patch_21">
    <path clip-path="url(#p557765cc58)" d="M 39.773256 189.369233 
L 64.290621 197.295334 
L 12.438607 -1469.457294 
L -29.150528 -1455.987852 
L 39.773256 189.369233 
" style="fill:#ff0000;opacity:0.5;"/>
   </g>
  </g>
  <g id="patch_22">
   <path d="M 7.2 550.8 
L 254.290909 550.8 
L 254.290909 303.709091 
L 7.2 303.709091 
z
" style="fill:none;"/>
  </g>
  <g id="pane3d_4">
   <g id="patch_23">
    <path d="M 25.857068 489.8753 
L 107.454555 421.478668 
L 106.320272 322.838498 
L 20.817924 385.234217 
" style="fill:#f2f2f2;opacity:0.5;stroke:#f2f2f2;stroke-linejoin:miter;"/>
   </g>
  </g>
  <g id="pane3d_5">
   <g id="patch_24">
    <path d="M 107.454555 421.478668 
L 238.389409 459.536261 
L 243.062013 357.498543 
L 106.320272 322.838498 
" style="fill:#e6e6e6;opacity:0.5;stroke:#e6e6e6;stroke-linejoin:miter;"/>
   </g>
  </g>
  <g id="pane3d_6">
   <g id="patch_25">
    <path d="M 25.857068 489.8753 
L 164.654408 535.206511 
L 238.389409 459.536261 
L 107.454555 421.478668 
" style="fill:#ececec;opacity:0.5;stroke:#ececec;stroke-linejoin:miter;"/>
   </g>
  </g>
  <g id="axis3d_4">
   <g id="line2d_27">
    <path d="M 25.857068 489.8753 
L 164.654408 535.206511 
" style="fill:none;stroke:#000000;stroke-linecap:square;stroke-width:0.8;"/>
   </g>
   <g id="Line3DCollection_4">
    <path d="M 46.49649 496.616136 
L 126.998104 427.159206 
L 126.693938 328.002628 
" style="fill:none;stroke:#b0b0b0;stroke-width:0.8;"/>
    <path d="M 77.59466 506.772798 
L 156.396593 435.704186 
L 157.36531 335.776927 
" style="fill:none;stroke:#b0b0b0;stroke-width:0.8;"/>
    <path d="M 109.450574 517.17694 
L 186.451132 444.439854 
L 188.751202 343.732335 
" style="fill:none;stroke:#b0b0b0;stroke-width:0.8;"/>
    <path d="M 142.092269 527.837717 
L 217.183931 453.372666 
L 220.876876 351.875257 
" style="fill:none;stroke:#b0b0b0;stroke-width:0.8;"/>
   </g>
   <g id="xtick_12">
    <g id="line2d_28">
     <path d="M 47.197764 496.011075 
L 45.090918 497.828866 
" style="fill:none;stroke:#000000;stroke-linecap:square;stroke-width:0.8;"/>
    </g>
    <g id="text_14">
     <!-- $|00\rangle$ -->
     <g transform="translate(30.311185 539.644259)rotate(-45)scale(0.22 -0.22)">
      <use transform="scale(0.996264)" xlink:href="#CMSY10-6a"/>
      <use transform="translate(27.674085 0)scale(0.996264)" xlink:href="#CMR17-30"/>
      <use transform="translate(73.364562 0)scale(0.996264)" xlink:href="#CMR17-30"/>
      <use transform="translate(119.055039 0)scale(0.996264)" xlink:href="#CMSY10-69"/>
     </g>
    </g>
   </g>
   <g id="xtick_13">
    <g id="line2d_29">
     <path d="M 78.281802 506.153089 
L 76.217377 508.014919 
" style="fill:none;stroke:#000000;stroke-linecap:square;stroke-width:0.8;"/>
    </g>
    <g id="text_15">
     <!-- $|01\rangle$ -->
     <g transform="translate(61.424967 549.90154)rotate(-45)scale(0.22 -0.22)">
      <use transform="scale(0.996264)" xlink:href="#CMSY10-6a"/>
      <use transform="translate(27.674085 0)scale(0.996264)" xlink:href="#CMR17-30"/>
      <use transform="translate(73.364562 0)scale(0.996264)" xlink:href="#CMR17-31"/>
      <use transform="translate(119.055039 0)scale(0.996264)" xlink:href="#CMSY10-69"/>
     </g>
    </g>
   </g>
   <g id="xtick_14">
    <g id="line2d_30">
     <path d="M 110.122684 516.542045 
L 108.103387 518.449534 
" style="fill:none;stroke:#000000;stroke-linecap:square;stroke-width:0.8;"/>
    </g>
    <g id="text_16">
     <!-- $|10\rangle$ -->
     <g transform="translate(93.298229 560.409198)rotate(-45)scale(0.22 -0.22)">
      <use transform="scale(0.996264)" xlink:href="#CMSY10-6a"/>
      <use transform="translate(27.674085 0)scale(0.996264)" xlink:href="#CMR17-31"/>
      <use transform="translate(73.364562 0)scale(0.996264)" xlink:href="#CMR17-30"/>
      <use transform="translate(119.055039 0)scale(0.996264)" xlink:href="#CMSY10-69"/>
     </g>
    </g>
   </g>
   <g id="xtick_15">
    <g id="line2d_31">
     <path d="M 142.748391 527.187071 
L 140.777092 529.141919 
" style="fill:none;stroke:#000000;stroke-linecap:square;stroke-width:0.8;"/>
    </g>
    <g id="text_17">
     <!-- $|11\rangle$ -->
     <g transform="translate(125.959122 571.176515)rotate(-45)scale(0.22 -0.22)">
      <use transform="scale(0.996264)" xlink:href="#CMSY10-6a"/>
      <use transform="translate(27.674085 0)scale(0.996264)" xlink:href="#CMR17-31"/>
      <use transform="translate(73.364562 0)scale(0.996264)" xlink:href="#CMR17-31"/>
      <use transform="translate(119.055039 0)scale(0.996264)" xlink:href="#CMSY10-69"/>
     </g>
    </g>
   </g>
  </g>
  <g id="axis3d_5">
   <g id="line2d_32">
    <path d="M 238.389409 459.536261 
L 164.654408 535.206511 
" style="fill:none;stroke:#000000;stroke-linecap:square;stroke-width:0.8;"/>
   </g>
   <g id="Line3DCollection_5">
    <path d="M 26.730623 380.919398 
L 31.479824 485.162194 
L 169.756299 529.970716 
" style="fill:none;stroke:#b0b0b0;stroke-width:0.8;"/>
    <path d="M 52.896228 361.824932 
L 56.39777 464.275478 
L 192.328584 506.805999 
" style="fill:none;stroke:#b0b0b0;stroke-width:0.8;"/>
    <path d="M 77.724565 343.706342 
L 80.095793 444.411325 
L 213.739355 484.83328 
" style="fill:none;stroke:#b0b0b0;stroke-width:0.8;"/>
    <path d="M 101.315598 326.49068 
L 102.661341 425.496436 
L 234.076019 463.962861 
" style="fill:none;stroke:#b0b0b0;stroke-width:0.8;"/>
   </g>
   <g id="xtick_16">
    <g id="line2d_33">
     <path d="M 168.591039 529.593113 
L 172.089833 530.726898 
" style="fill:none;stroke:#000000;stroke-linecap:square;stroke-width:0.8;"/>
    </g>
    <g id="text_18">
     <!-- $\langle 00|$ -->
     <g transform="translate(163.731119 547.428745)rotate(-315)scale(0.22 -0.22)">
      <use transform="scale(0.996264)" xlink:href="#CMSY10-68"/>
      <use transform="translate(38.743734 0)scale(0.996264)" xlink:href="#CMR17-30"/>
      <use transform="translate(84.434211 0)scale(0.996264)" xlink:href="#CMR17-30"/>
      <use transform="translate(130.124688 0)scale(0.996264)" xlink:href="#CMSY10-6a"/>
     </g>
    </g>
   </g>
   <g id="xtick_17">
    <g id="line2d_34">
     <path d="M 191.184623 506.448073 
L 194.619385 507.522754 
" style="fill:none;stroke:#000000;stroke-linecap:square;stroke-width:0.8;"/>
    </g>
    <g id="text_19">
     <!-- $\langle 01|$ -->
     <g transform="translate(186.161677 524.103591)rotate(-315)scale(0.22 -0.22)">
      <use transform="scale(0.996264)" xlink:href="#CMSY10-68"/>
      <use transform="translate(38.743734 0)scale(0.996264)" xlink:href="#CMR17-30"/>
      <use transform="translate(84.434211 0)scale(0.996264)" xlink:href="#CMR17-31"/>
      <use transform="translate(130.124688 0)scale(0.996264)" xlink:href="#CMSY10-6a"/>
     </g>
    </g>
   </g>
   <g id="xtick_18">
    <g id="line2d_35">
     <path d="M 212.616073 484.493531 
L 215.988676 485.513612 
" style="fill:none;stroke:#000000;stroke-linecap:square;stroke-width:0.8;"/>
    </g>
    <g id="text_20">
     <!-- $\langle 10|$ -->
     <g transform="translate(207.437708 501.979009)rotate(-315)scale(0.22 -0.22)">
      <use transform="scale(0.996264)" xlink:href="#CMSY10-68"/>
      <use transform="translate(38.743734 0)scale(0.996264)" xlink:href="#CMR17-31"/>
      <use transform="translate(84.434211 0)scale(0.996264)" xlink:href="#CMR17-30"/>
      <use transform="translate(130.124688 0)scale(0.996264)" xlink:href="#CMSY10-6a"/>
     </g>
    </g>
   </g>
   <g id="xtick_19">
    <g id="line2d_36">
     <path d="M 232.972804 463.639939 
L 236.285085 464.609477 
" style="fill:none;stroke:#000000;stroke-linecap:square;stroke-width:0.8;"/>
    </g>
    <g id="text_21">
     <!-- $\langle 11|$ -->
     <g transform="translate(227.646113 480.964632)rotate(-315)scale(0.22 -0.22)">
      <use transform="scale(0.996264)" xlink:href="#CMSY10-68"/>
      <use transform="translate(38.743734 0)scale(0.996264)" xlink:href="#CMR17-31"/>
      <use transform="translate(84.434211 0)scale(0.996264)" xlink:href="#CMR17-31"/>
      <use transform="translate(130.124688 0)scale(0.996264)" xlink:href="#CMSY10-6a"/>
     </g>
    </g>
   </g>
  </g>
  <g id="axis3d_6">
   <g id="line2d_37">
    <path d="M 238.389409 459.536261 
L 243.062013 357.498543 
" style="fill:none;stroke:#000000;stroke-linecap:square;stroke-width:0.8;"/>
   </g>
   <g id="Line3DCollection_6">
    <path d="M 238.478931 457.581331 
L 107.432779 419.584914 
L 25.760683 487.873806 
" style="fill:none;stroke:#b0b0b0;stroke-width:0.8;"/>
    <path d="M 240.674527 409.635126 
L 106.89924 373.187055 
L 23.394818 438.745087 
" style="fill:none;stroke:#b0b0b0;stroke-width:0.8;"/>
    <path d="M 242.964462 359.628809 
L 106.343904 324.89358 
L 20.923301 387.422444 
" style="fill:none;stroke:#b0b0b0;stroke-width:0.8;"/>
   </g>
   <g id="xtick_20">
    <g id="line2d_38">
     <path d="M 237.379049 457.262424 
L 240.681314 458.219905 
" style="fill:none;stroke:#000000;stroke-linecap:square;stroke-width:0.8;"/>
    </g>
    <g id="text_22">
     <!-- $\mathdefault{0.00}$ -->
     <g transform="translate(248.14732 468.602895)rotate(-345)scale(0.22 -0.22)">
      <use transform="scale(0.996264)" xlink:href="#CMR17-30"/>
      <use transform="translate(45.690477 0)scale(0.996264)" xlink:href="#CMMI12-3a"/>
      <use transform="translate(72.787654 0)scale(0.996264)" xlink:href="#CMR17-30"/>
      <use transform="translate(118.478131 0)scale(0.996264)" xlink:href="#CMR17-30"/>
     </g>
    </g>
   </g>
   <g id="xtick_21">
    <g id="line2d_39">
     <path d="M 239.550633 409.328913 
L 242.925046 410.248297 
" style="fill:none;stroke:#000000;stroke-linecap:square;stroke-width:0.8;"/>
    </g>
    <g id="text_23">
     <!-- $\mathdefault{0.05}$ -->
     <g transform="translate(250.92851 420.818786)rotate(-345)scale(0.22 -0.22)">
      <use transform="scale(0.996264)" xlink:href="#CMR17-30"/>
      <use transform="translate(45.690477 0)scale(0.996264)" xlink:href="#CMMI12-3a"/>
      <use transform="translate(72.787654 0)scale(0.996264)" xlink:href="#CMR17-30"/>
      <use transform="translate(118.478131 0)scale(0.996264)" xlink:href="#CMR17-35"/>
     </g>
    </g>
   </g>
   <g id="xtick_22">
    <g id="line2d_40">
     <path d="M 241.815486 359.336687 
L 245.265265 360.213779 
" style="fill:none;stroke:#000000;stroke-linecap:square;stroke-width:0.8;"/>
    </g>
    <g id="text_24">
     <!-- $\mathdefault{0.10}$ -->
     <g transform="translate(253.82857 370.992337)rotate(-345)scale(0.22 -0.22)">
      <use transform="scale(0.996264)" xlink:href="#CMR17-30"/>
      <use transform="translate(45.690477 0)scale(0.996264)" xlink:href="#CMMI12-3a"/>
      <use transform="translate(72.787654 0)scale(0.996264)" xlink:href="#CMR17-31"/>
      <use transform="translate(118.478131 0)scale(0.996264)" xlink:href="#CMR17-30"/>
     </g>
    </g>
   </g>
  </g>
  <g id="axes_2">
   <g id="line2d_41">
    <path clip-path="url(#pe771b7f082)" d="M 82.92397 497.088745 
L 82.980664 499.571251 
" style="fill:none;stroke:#ff0000;stroke-linecap:square;stroke-width:1.5;"/>
    <g clip-path="url(#pe771b7f082)">
     <use style="fill:#ff0000;stroke:#ff0000;" x="82.92397" xlink:href="#m1fa161acf1" y="497.088745"/>
     <use style="fill:#ff0000;stroke:#ff0000;" x="82.980664" xlink:href="#m1fa161acf1" y="499.571251"/>
    </g>
   </g>
   <g id="line2d_42">
    <path clip-path="url(#pe771b7f082)" d="M 114.727931 507.337241 
L 114.749641 509.838352 
" style="fill:none;stroke:#ff0000;stroke-linecap:square;stroke-width:1.5;"/>
    <g clip-path="url(#pe771b7f082)">
     <use style="fill:#ff0000;stroke:#ff0000;" x="114.727931" xlink:href="#m1fa161acf1" y="507.337241"/>
     <use style="fill:#ff0000;stroke:#ff0000;" x="114.749641" xlink:href="#m1fa161acf1" y="509.838352"/>
    </g>
   </g>
   <g id="line2d_43">
    <path clip-path="url(#pe771b7f082)" d="M 147.361866 509.720214 
L 147.321503 516.491922 
" style="fill:none;stroke:#ff0000;stroke-linecap:square;stroke-width:1.5;"/>
    <g clip-path="url(#pe771b7f082)">
     <use style="fill:#ff0000;stroke:#ff0000;" x="147.361866" xlink:href="#m1fa161acf1" y="509.720214"/>
     <use style="fill:#ff0000;stroke:#ff0000;" x="147.321503" xlink:href="#m1fa161acf1" y="516.491922"/>
    </g>
   </g>
   <g id="line2d_44">
    <path clip-path="url(#pe771b7f082)" d="M 76.546774 466.952898 
L 76.601532 469.11357 
" style="fill:none;stroke:#0000ff;stroke-linecap:square;stroke-width:1.5;"/>
    <g clip-path="url(#pe771b7f082)">
     <use style="fill:#0000ff;stroke:#0000ff;" x="76.546774" xlink:href="#m87549722eb" y="466.952898"/>
     <use style="fill:#0000ff;stroke:#0000ff;" x="76.601532" xlink:href="#m87549722eb" y="469.11357"/>
    </g>
   </g>
   <g id="line2d_45">
    <path clip-path="url(#pe771b7f082)" d="M 106.99458 469.693124 
L 107.096543 478.22806 
" style="fill:none;stroke:#0000ff;stroke-linecap:square;stroke-width:1.5;"/>
    <g clip-path="url(#pe771b7f082)">
     <use style="fill:#0000ff;stroke:#0000ff;" x="106.99458" xlink:href="#m87549722eb" y="469.693124"/>
     <use style="fill:#0000ff;stroke:#0000ff;" x="107.096543" xlink:href="#m87549722eb" y="478.22806"/>
    </g>
   </g>
   <g id="line2d_46">
    <path clip-path="url(#pe771b7f082)" d="M 138.331085 483.346902 
L 138.320045 489.206167 
" style="fill:none;stroke:#0000ff;stroke-linecap:square;stroke-width:1.5;"/>
    <g clip-path="url(#pe771b7f082)">
     <use style="fill:#0000ff;stroke:#0000ff;" x="138.331085" xlink:href="#m87549722eb" y="483.346902"/>
     <use style="fill:#0000ff;stroke:#0000ff;" x="138.320045" xlink:href="#m87549722eb" y="489.206167"/>
    </g>
   </g>
   <g id="line2d_47">
    <path clip-path="url(#pe771b7f082)" d="M 170.530054 483.387532 
L 170.22509 502.247459 
" style="fill:none;stroke:#0000ff;stroke-linecap:square;stroke-width:1.5;"/>
    <g clip-path="url(#pe771b7f082)">
     <use style="fill:#0000ff;stroke:#0000ff;" x="170.530054" xlink:href="#m87549722eb" y="483.387532"/>
     <use style="fill:#0000ff;stroke:#0000ff;" x="170.22509" xlink:href="#m87549722eb" y="502.247459"/>
    </g>
   </g>
   <g id="line2d_48">
    <path clip-path="url(#pe771b7f082)" d="M 99.96499 446.839911 
L 99.99666 448.965923 
" style="fill:none;stroke:#008000;stroke-linecap:square;stroke-width:1.5;"/>
    <g clip-path="url(#pe771b7f082)">
     <use style="fill:#008000;stroke:#008000;" x="99.96499" xlink:href="#m07c46863e8" y="446.839911"/>
     <use style="fill:#008000;stroke:#008000;" x="99.99666" xlink:href="#m07c46863e8" y="448.965923"/>
    </g>
   </g>
   <g id="line2d_49">
    <path clip-path="url(#pe771b7f082)" d="M 129.992608 453.099738 
L 130.002859 458.821928 
" style="fill:none;stroke:#008000;stroke-linecap:square;stroke-width:1.5;"/>
    <g clip-path="url(#pe771b7f082)">
     <use style="fill:#008000;stroke:#008000;" x="129.992608" xlink:href="#m07c46863e8" y="453.099738"/>
     <use style="fill:#008000;stroke:#008000;" x="130.002859" xlink:href="#m07c46863e8" y="458.821928"/>
    </g>
   </g>
   <g id="line2d_50">
    <path clip-path="url(#pe771b7f082)" d="M 160.800779 458.424656 
L 160.701605 466.884127 
" style="fill:none;stroke:#008000;stroke-linecap:square;stroke-width:1.5;"/>
    <g clip-path="url(#pe771b7f082)">
     <use style="fill:#008000;stroke:#008000;" x="160.800779" xlink:href="#m07c46863e8" y="458.424656"/>
     <use style="fill:#008000;stroke:#008000;" x="160.701605" xlink:href="#m07c46863e8" y="466.884127"/>
    </g>
   </g>
   <g id="line2d_51">
    <path clip-path="url(#pe771b7f082)" d="M 192.485349 462.033218 
L 192.009131 480.586347 
" style="fill:none;stroke:#008000;stroke-linecap:square;stroke-width:1.5;"/>
    <g clip-path="url(#pe771b7f082)">
     <use style="fill:#008000;stroke:#008000;" x="192.485349" xlink:href="#m07c46863e8" y="462.033218"/>
     <use style="fill:#008000;stroke:#008000;" x="192.009131" xlink:href="#m07c46863e8" y="480.586347"/>
    </g>
   </g>
   <g id="line2d_52">
    <path clip-path="url(#pe771b7f082)" d="M 122.172458 411.766598 
L 122.189106 415.016684 
" style="fill:none;stroke:#bfbf00;stroke-linecap:square;stroke-width:1.5;"/>
    <g clip-path="url(#pe771b7f082)">
     <use style="fill:#bfbf00;stroke:#bfbf00;" x="122.172458" xlink:href="#m54a63e1efd" y="411.766598"/>
     <use style="fill:#bfbf00;stroke:#bfbf00;" x="122.189106" xlink:href="#m54a63e1efd" y="415.016684"/>
    </g>
   </g>
   <g id="line2d_53">
    <path clip-path="url(#pe771b7f082)" d="M 151.88234 425.902428 
L 151.755603 442.361679 
" style="fill:none;stroke:#bfbf00;stroke-linecap:square;stroke-width:1.5;"/>
    <g clip-path="url(#pe771b7f082)">
     <use style="fill:#bfbf00;stroke:#bfbf00;" x="151.88234" xlink:href="#m54a63e1efd" y="425.902428"/>
     <use style="fill:#bfbf00;stroke:#bfbf00;" x="151.755603" xlink:href="#m54a63e1efd" y="442.361679"/>
    </g>
   </g>
   <g id="line2d_54">
    <path clip-path="url(#pe771b7f082)" d="M 182.233546 434.628503 
L 181.886837 451.209357 
" style="fill:none;stroke:#bfbf00;stroke-linecap:square;stroke-width:1.5;"/>
    <g clip-path="url(#pe771b7f082)">
     <use style="fill:#bfbf00;stroke:#bfbf00;" x="182.233546" xlink:href="#m54a63e1efd" y="434.628503"/>
     <use style="fill:#bfbf00;stroke:#bfbf00;" x="181.886837" xlink:href="#m54a63e1efd" y="451.209357"/>
    </g>
   </g>
   <g id="line2d_55">
    <path clip-path="url(#pe771b7f082)" style="fill:none;stroke:#bfbf00;stroke-linecap:square;stroke-width:1.5;"/>
    <g clip-path="url(#pe771b7f082)"/>
   </g>
   <g id="patch_26">
    <path clip-path="url(#pe771b7f082)" d="M 110.632316 425.931092 
L 133.995118 432.752872 
L 133.994498 416.771622 
L 110.471114 410.043689 
L 110.632316 425.931092 
" style="fill:#bfbf00;opacity:0.5;"/>
   </g>
   <g id="text_25">
    <!-- $0.977$ -->
    <g transform="translate(216.585937 347.735281)scale(0.22 -0.22)">
     <defs>
      <path d="M 2886 3955 
L 2886 4096 
L 1382 4096 
C 634 4096 621 4166 595 4288 
L 480 4288 
L 294 3104 
L 410 3104 
C 429 3226 474 3552 550 3673 
C 589 3724 1062 3724 1171 3724 
L 2579 3724 
L 1869 2670 
C 1395 1961 1069 1003 1069 166 
C 1069 89 1069 -128 1299 -128 
C 1530 -128 1530 89 1530 172 
L 1530 466 
C 1530 1514 1709 2204 2003 2644 
L 2886 3955 
z
" id="CMR17-37" transform="scale(0.015625)"/>
     </defs>
     <use transform="scale(0.996264)" xlink:href="#CMR17-30"/>
     <use transform="translate(45.690477 0)scale(0.996264)" xlink:href="#CMMI12-3a"/>
     <use transform="translate(72.787654 0)scale(0.996264)" xlink:href="#CMR17-39"/>
     <use transform="translate(118.478131 0)scale(0.996264)" xlink:href="#CMR17-37"/>
     <use transform="translate(164.168608 0)scale(0.996264)" xlink:href="#CMR17-37"/>
    </g>
   </g>
   <g id="text_26">
    <!-- $|\Upsilon_1^6|$ -->
    <g transform="translate(244.03818 321.478169)scale(0.28 -0.28)">
     <use transform="scale(0.996264)" xlink:href="#CMSY10-6a"/>
     <use transform="translate(27.674085 0)scale(0.996264)" xlink:href="#CMR17-7"/>
     <use transform="translate(99.388873 36.153639)scale(0.697382)" xlink:href="#CMR17-36"/>
     <use transform="translate(99.388873 -24.740171)scale(0.697382)" xlink:href="#CMR17-31"/>
     <use transform="translate(131.870187 0)scale(0.996264)" xlink:href="#CMSY10-6a"/>
    </g>
   </g>
   <g id="patch_27">
    <path clip-path="url(#pe771b7f082)" d="M 139.90038 434.477169 
L 163.784859 441.451275 
L 163.833998 437.652871 
L 139.909917 430.700973 
L 139.90038 434.477169 
" style="fill:#bfbf00;opacity:0.5;"/>
   </g>
   <g id="patch_28">
    <path clip-path="url(#pe771b7f082)" d="M 169.82272 443.21429 
L 194.246545 450.345882 
L 194.347206 446.519449 
L 169.88198 439.410304 
L 169.82272 443.21429 
" style="fill:#bfbf00;opacity:0.5;"/>
   </g>
   <g id="patch_29">
    <path clip-path="url(#pe771b7f082)" d="M 88.173557 444.931349 
L 111.912625 452.094099 
L 111.906852 451.499159 
L 88.161712 444.339893 
L 88.173557 444.931349 
" style="fill:#008000;opacity:0.5;"/>
   </g>
   <g id="patch_30">
    <path clip-path="url(#pe771b7f082)" d="M 117.914623 453.905073 
L 142.197078 461.231778 
L 142.202753 459.63976 
L 117.903416 452.322414 
L 117.914623 453.905073 
" style="fill:#008000;opacity:0.5;"/>
   </g>
   <g id="patch_31">
    <path clip-path="url(#pe771b7f082)" d="M 148.337251 463.084443 
L 173.181967 470.580798 
L 173.253814 466.415366 
L 148.363202 458.943613 
L 148.337251 463.084443 
" style="fill:#008000;opacity:0.5;"/>
   </g>
   <g id="patch_32">
    <path clip-path="url(#pe771b7f082)" d="M 64.58312 464.889015 
L 88.707094 472.418953 
L 88.69498 471.814306 
L 64.564736 464.287932 
L 64.58312 464.889015 
" style="fill:#0000ff;opacity:0.5;"/>
   </g>
   <g id="patch_33">
    <path clip-path="url(#pe771b7f082)" d="M 179.46514 472.47661 
L 204.891874 480.148577 
L 205.047524 475.186881 
L 179.563969 467.544315 
L 179.46514 472.47661 
" style="fill:#008000;opacity:0.5;"/>
   </g>
   <g id="patch_34">
    <path clip-path="url(#pe771b7f082)" d="M 94.808151 474.323306 
L 119.498546 482.030044 
L 119.471366 477.827521 
L 94.735643 470.145685 
L 94.808151 474.323306 
" style="fill:#0000ff;opacity:0.5;"/>
   </g>
   <g id="patch_35">
    <path clip-path="url(#pe771b7f082)" d="M 125.743695 483.979374 
L 151.020697 491.869212 
L 151.032992 490.239059 
L 125.737697 482.358887 
L 125.743695 483.979374 
" style="fill:#0000ff;opacity:0.5;"/>
   </g>
   <g id="patch_36">
    <path clip-path="url(#pe771b7f082)" d="M 39.773256 485.878324 
L 64.290621 493.804425 
L 64.271867 493.201599 
L 39.748153 485.279071 
L 39.773256 485.878324 
" style="fill:#ff0000;opacity:0.5;"/>
   </g>
   <g id="patch_37">
    <path clip-path="url(#pe771b7f082)" d="M 157.415105 493.865131 
L 183.29987 501.944673 
L 183.410913 496.901148 
L 157.467243 488.851645 
L 157.415105 493.865131 
" style="fill:#0000ff;opacity:0.5;"/>
   </g>
   <g id="patch_38">
    <path clip-path="url(#pe771b7f082)" d="M 70.49303 495.809572 
L 95.601271 503.926695 
L 95.575036 502.40416 
L 70.450092 494.296086 
L 70.49303 495.809572 
" style="fill:#ff0000;opacity:0.5;"/>
   </g>
   <g id="patch_39">
    <path clip-path="url(#pe771b7f082)" d="M 101.954063 505.980459 
L 127.6748 514.295593 
L 127.670378 512.761652 
L 101.932106 504.455651 
L 101.954063 505.980459 
" style="fill:#ff0000;opacity:0.5;"/>
   </g>
   <g id="patch_40">
    <path clip-path="url(#pe771b7f082)" d="M 134.183511 516.399763 
L 160.539435 524.920244 
L 160.629722 517.369724 
L 134.183846 508.894466 
L 134.183511 516.399763 
" style="fill:#ff0000;opacity:0.5;"/>
   </g>
   <g id="patch_41">
    <path clip-path="url(#pe771b7f082)" d="M 200.421521 452.148933 
L 225.40317 459.443405 
L 287.175004 -1081.388306 
L 244.618564 -1070.32589 
L 200.421521 452.148933 
" style="fill:#bfbf00;opacity:0.5;"/>
   </g>
  </g>
 </g>
 <defs>
  <clipPath id="p557765cc58">
   <rect height="247.090909" width="247.090909" x="7.2" y="7.2"/>
  </clipPath>
  <clipPath id="pe771b7f082">
   <rect height="247.090909" width="247.090909" x="7.2" y="303.709091"/>
  </clipPath>
 </defs>
</svg>
