<?xml version="1.0" encoding="utf-8" standalone="no"?>
<!DOCTYPE svg PUBLIC "-//W3C//DTD SVG 1.1//EN"
  "http://www.w3.org/Graphics/SVG/1.1/DTD/svg11.dtd">
<svg height="286.605411pt" version="1.1" viewBox="0 0 403.150761 286.605411" width="403.150761pt" xmlns="http://www.w3.org/2000/svg" xmlns:xlink="http://www.w3.org/1999/xlink">
 <metadata>
  <rdf:RDF xmlns:cc="http://creativecommons.org/ns#" xmlns:dc="http://purl.org/dc/elements/1.1/" xmlns:rdf="http://www.w3.org/1999/02/22-rdf-syntax-ns#">
   <cc:Work>
    <dc:type rdf:resource="http://purl.org/dc/dcmitype/StillImage"/>
    <dc:date>2022-11-18T11:48:59.174820</dc:date>
    <dc:format>image/svg+xml</dc:format>
    <dc:creator>
     <cc:Agent>
      <dc:title>Matplotlib v3.4.2, https://matplotlib.org/</dc:title>
     </cc:Agent>
    </dc:creator>
   </cc:Work>
  </rdf:RDF>
 </metadata>
 <defs>
  <style type="text/css">*{stroke-linecap:butt;stroke-linejoin:round;}</style>
 </defs>
 <g id="figure_1">
  <g id="patch_1">
   <path d="M 0 286.605411 
L 403.150761 286.605411 
L 403.150761 0 
L 0 0 
z
" style="fill:none;"/>
  </g>
  <g id="axes_1">
   <g id="patch_2">
    <path d="M 53.748121 225.835404 
L 388.548121 225.835404 
L 388.548121 8.395404 
L 53.748121 8.395404 
z
" style="fill:none;"/>
   </g>
   <g id="matplotlib.axis_1">
    <g id="xtick_1">
     <g id="line2d_1">
      <path clip-path="url(#p6d483ad886)" d="M 68.966303 225.835404 
L 68.966303 8.395404 
" style="fill:none;stroke:#b0b0b0;stroke-linecap:square;stroke-width:0.8;"/>
     </g>
     <g id="line2d_2">
      <defs>
       <path d="M 0 0 
L 0 3.5 
" id="maf3b27aab1" style="stroke:#000000;stroke-width:0.8;"/>
      </defs>
      <g>
       <use style="stroke:#000000;stroke-width:0.8;" x="68.966303" xlink:href="#maf3b27aab1" y="225.835404"/>
      </g>
     </g>
     <g id="text_1">
      <!-- $(0,1)$ -->
      <g transform="translate(46.345481 249.254028)scale(0.22 -0.22)">
       <defs>
        <path d="M 1958 -1562 
C 1958 -1556 1958 -1543 1939 -1524 
C 1645 -1223 858 -403 858 1596 
C 858 3595 1632 4408 1946 4729 
C 1946 4735 1958 4748 1958 4767 
C 1958 4787 1939 4800 1914 4800 
C 1843 4800 1299 4325 986 3620 
C 666 2909 576 2218 576 1603 
C 576 1141 621 360 1005 -467 
C 1312 -1133 1837 -1600 1914 -1600 
C 1946 -1600 1958 -1588 1958 -1562 
z
" id="CMR17-28" transform="scale(0.015625)"/>
        <path d="M 2688 2038 
C 2688 2430 2682 3099 2413 3613 
C 2176 4063 1798 4224 1466 4224 
C 1158 4224 768 4082 525 3620 
C 269 3137 243 2539 243 2038 
C 243 1671 250 1112 448 623 
C 723 -39 1216 -128 1466 -128 
C 1760 -128 2208 -7 2470 604 
C 2662 1048 2688 1568 2688 2038 
z
M 1466 -26 
C 1056 -26 813 328 723 816 
C 653 1196 653 1749 653 2109 
C 653 2604 653 3015 736 3407 
C 858 3954 1216 4121 1466 4121 
C 1728 4121 2067 3947 2189 3420 
C 2272 3054 2278 2623 2278 2109 
C 2278 1691 2278 1176 2202 797 
C 2067 96 1690 -26 1466 -26 
z
" id="CMR17-30" transform="scale(0.015625)"/>
        <path d="M 1248 -26 
C 1248 345 1126 620 864 620 
C 659 620 557 454 557 313 
C 557 172 653 0 870 0 
C 954 0 1024 25 1082 83 
C 1094 96 1101 96 1107 96 
C 1120 96 1120 6 1120 -26 
C 1120 -233 1082 -642 710 -1051 
C 640 -1127 640 -1140 640 -1152 
C 640 -1184 672 -1216 704 -1216 
C 755 -1216 1248 -749 1248 -26 
z
" id="CMMI12-3b" transform="scale(0.015625)"/>
        <path d="M 1702 4083 
C 1702 4217 1696 4224 1606 4224 
C 1357 3927 979 3833 621 3820 
C 602 3820 570 3820 563 3808 
C 557 3795 557 3782 557 3648 
C 755 3648 1088 3686 1344 3839 
L 1344 467 
C 1344 243 1331 166 781 166 
L 589 166 
L 589 0 
C 896 6 1216 12 1523 12 
C 1830 12 2150 6 2458 0 
L 2458 166 
L 2266 166 
C 1715 166 1702 236 1702 467 
L 1702 4083 
z
" id="CMR17-31" transform="scale(0.015625)"/>
        <path d="M 1683 1596 
C 1683 2057 1638 2839 1254 3665 
C 947 4332 422 4800 346 4800 
C 326 4800 301 4793 301 4761 
C 301 4748 307 4742 314 4729 
C 621 4408 1402 3595 1402 1603 
C 1402 -396 627 -1210 314 -1530 
C 307 -1543 301 -1549 301 -1562 
C 301 -1594 326 -1600 346 -1600 
C 416 -1600 960 -1127 1274 -422 
C 1594 289 1683 981 1683 1596 
z
" id="CMR17-29" transform="scale(0.015625)"/>
       </defs>
       <use transform="scale(0.996264)" xlink:href="#CMR17-28"/>
       <use transform="translate(35.280768 0)scale(0.996264)" xlink:href="#CMR17-30"/>
       <use transform="translate(80.971245 0)scale(0.996264)" xlink:href="#CMMI12-3b"/>
       <use transform="translate(124.672827 0)scale(0.996264)" xlink:href="#CMR17-31"/>
       <use transform="translate(170.363304 0)scale(0.996264)" xlink:href="#CMR17-29"/>
      </g>
     </g>
    </g>
    <g id="xtick_2">
     <g id="line2d_3">
      <path clip-path="url(#p6d483ad886)" d="M 129.83903 225.835404 
L 129.83903 8.395404 
" style="fill:none;stroke:#b0b0b0;stroke-linecap:square;stroke-width:0.8;"/>
     </g>
     <g id="line2d_4">
      <g>
       <use style="stroke:#000000;stroke-width:0.8;" x="129.83903" xlink:href="#maf3b27aab1" y="225.835404"/>
      </g>
     </g>
     <g id="text_2">
      <!-- $(1,2)$ -->
      <g transform="translate(107.218208 249.254028)scale(0.22 -0.22)">
       <defs>
        <path d="M 2669 990 
L 2554 990 
C 2490 537 2438 460 2413 422 
C 2381 371 1920 371 1830 371 
L 602 371 
C 832 620 1280 1073 1824 1596 
C 2214 1966 2669 2400 2669 3033 
C 2669 3788 2067 4224 1395 4224 
C 691 4224 262 3603 262 3027 
C 262 2777 448 2745 525 2745 
C 589 2745 781 2783 781 3007 
C 781 3206 614 3264 525 3264 
C 486 3264 448 3257 422 3244 
C 544 3788 915 4057 1306 4057 
C 1862 4057 2227 3616 2227 3033 
C 2227 2477 1901 1998 1536 1583 
L 262 147 
L 262 0 
L 2515 0 
L 2669 990 
z
" id="CMR17-32" transform="scale(0.015625)"/>
       </defs>
       <use transform="scale(0.996264)" xlink:href="#CMR17-28"/>
       <use transform="translate(35.280768 0)scale(0.996264)" xlink:href="#CMR17-31"/>
       <use transform="translate(80.971245 0)scale(0.996264)" xlink:href="#CMMI12-3b"/>
       <use transform="translate(124.672827 0)scale(0.996264)" xlink:href="#CMR17-32"/>
       <use transform="translate(170.363304 0)scale(0.996264)" xlink:href="#CMR17-29"/>
      </g>
     </g>
    </g>
    <g id="xtick_3">
     <g id="line2d_5">
      <path clip-path="url(#p6d483ad886)" d="M 190.711757 225.835404 
L 190.711757 8.395404 
" style="fill:none;stroke:#b0b0b0;stroke-linecap:square;stroke-width:0.8;"/>
     </g>
     <g id="line2d_6">
      <g>
       <use style="stroke:#000000;stroke-width:0.8;" x="190.711757" xlink:href="#maf3b27aab1" y="225.835404"/>
      </g>
     </g>
     <g id="text_3">
      <!-- $(1,3)$ -->
      <g transform="translate(168.090935 249.254028)scale(0.22 -0.22)">
       <defs>
        <path d="M 1414 2176 
C 1984 2176 2234 1673 2234 1094 
C 2234 322 1824 25 1453 25 
C 1114 25 563 193 390 691 
C 422 678 454 678 486 678 
C 640 678 755 780 755 947 
C 755 1132 614 1216 486 1216 
C 378 1216 211 1164 211 927 
C 211 335 787 -128 1466 -128 
C 2176 -128 2720 432 2720 1087 
C 2720 1718 2208 2176 1600 2246 
C 2086 2347 2554 2776 2554 3353 
C 2554 3856 2048 4224 1472 4224 
C 890 4224 378 3862 378 3347 
C 378 3123 544 3084 627 3084 
C 762 3084 877 3167 877 3334 
C 877 3500 762 3584 627 3584 
C 602 3584 570 3584 544 3571 
C 730 3999 1235 4076 1459 4076 
C 1683 4076 2106 3966 2106 3347 
C 2106 3167 2080 2851 1862 2574 
C 1670 2329 1453 2316 1242 2297 
C 1210 2297 1062 2284 1037 2284 
C 992 2278 966 2272 966 2227 
C 966 2182 973 2176 1101 2176 
L 1414 2176 
z
" id="CMR17-33" transform="scale(0.015625)"/>
       </defs>
       <use transform="scale(0.996264)" xlink:href="#CMR17-28"/>
       <use transform="translate(35.280768 0)scale(0.996264)" xlink:href="#CMR17-31"/>
       <use transform="translate(80.971245 0)scale(0.996264)" xlink:href="#CMMI12-3b"/>
       <use transform="translate(124.672827 0)scale(0.996264)" xlink:href="#CMR17-33"/>
       <use transform="translate(170.363304 0)scale(0.996264)" xlink:href="#CMR17-29"/>
      </g>
     </g>
    </g>
    <g id="xtick_4">
     <g id="line2d_7">
      <path clip-path="url(#p6d483ad886)" d="M 251.584485 225.835404 
L 251.584485 8.395404 
" style="fill:none;stroke:#b0b0b0;stroke-linecap:square;stroke-width:0.8;"/>
     </g>
     <g id="line2d_8">
      <g>
       <use style="stroke:#000000;stroke-width:0.8;" x="251.584485" xlink:href="#maf3b27aab1" y="225.835404"/>
      </g>
     </g>
     <g id="text_4">
      <!-- $(3,5)$ -->
      <g transform="translate(228.963662 249.254028)scale(0.22 -0.22)">
       <defs>
        <path d="M 730 3750 
C 794 3724 1056 3641 1325 3641 
C 1920 3641 2246 3961 2432 4140 
C 2432 4191 2432 4224 2394 4224 
C 2387 4224 2374 4224 2323 4198 
C 2099 4102 1837 4032 1517 4032 
C 1325 4032 1037 4055 723 4191 
C 653 4224 640 4224 634 4224 
C 602 4224 595 4217 595 4090 
L 595 2231 
C 595 2113 595 2080 659 2080 
C 691 2080 704 2093 736 2139 
C 941 2435 1222 2560 1542 2560 
C 1766 2560 2246 2415 2246 1293 
C 2246 1087 2246 716 2054 422 
C 1894 159 1645 25 1370 25 
C 947 25 518 319 403 812 
C 429 806 480 793 506 793 
C 589 793 749 838 749 1036 
C 749 1209 627 1280 506 1280 
C 358 1280 262 1190 262 1011 
C 262 454 704 -128 1382 -128 
C 2042 -128 2669 441 2669 1267 
C 2669 2054 2170 2662 1549 2662 
C 1222 2662 947 2540 730 2304 
L 730 3750 
z
" id="CMR17-35" transform="scale(0.015625)"/>
       </defs>
       <use transform="scale(0.996264)" xlink:href="#CMR17-28"/>
       <use transform="translate(35.280768 0)scale(0.996264)" xlink:href="#CMR17-33"/>
       <use transform="translate(80.971245 0)scale(0.996264)" xlink:href="#CMMI12-3b"/>
       <use transform="translate(124.672827 0)scale(0.996264)" xlink:href="#CMR17-35"/>
       <use transform="translate(170.363304 0)scale(0.996264)" xlink:href="#CMR17-29"/>
      </g>
     </g>
    </g>
    <g id="xtick_5">
     <g id="line2d_9">
      <path clip-path="url(#p6d483ad886)" d="M 312.457212 225.835404 
L 312.457212 8.395404 
" style="fill:none;stroke:#b0b0b0;stroke-linecap:square;stroke-width:0.8;"/>
     </g>
     <g id="line2d_10">
      <g>
       <use style="stroke:#000000;stroke-width:0.8;" x="312.457212" xlink:href="#maf3b27aab1" y="225.835404"/>
      </g>
     </g>
     <g id="text_5">
      <!-- $(4,5)$ -->
      <g transform="translate(289.83639 249.254028)scale(0.22 -0.22)">
       <defs>
        <path d="M 2150 4147 
C 2150 4281 2144 4288 2029 4288 
L 128 1254 
L 128 1088 
L 1779 1088 
L 1779 460 
C 1779 230 1766 166 1318 166 
L 1197 166 
L 1197 0 
C 1402 12 1747 12 1965 12 
C 2182 12 2528 12 2733 0 
L 2733 166 
L 2611 166 
C 2163 166 2150 230 2150 460 
L 2150 1088 
L 2803 1088 
L 2803 1254 
L 2150 1254 
L 2150 4147 
z
M 1798 3723 
L 1798 1254 
L 256 1254 
L 1798 3723 
z
" id="CMR17-34" transform="scale(0.015625)"/>
       </defs>
       <use transform="scale(0.996264)" xlink:href="#CMR17-28"/>
       <use transform="translate(35.280768 0)scale(0.996264)" xlink:href="#CMR17-34"/>
       <use transform="translate(80.971245 0)scale(0.996264)" xlink:href="#CMMI12-3b"/>
       <use transform="translate(124.672827 0)scale(0.996264)" xlink:href="#CMR17-35"/>
       <use transform="translate(170.363304 0)scale(0.996264)" xlink:href="#CMR17-29"/>
      </g>
     </g>
    </g>
    <g id="xtick_6">
     <g id="line2d_11">
      <path clip-path="url(#p6d483ad886)" d="M 373.329939 225.835404 
L 373.329939 8.395404 
" style="fill:none;stroke:#b0b0b0;stroke-linecap:square;stroke-width:0.8;"/>
     </g>
     <g id="line2d_12">
      <g>
       <use style="stroke:#000000;stroke-width:0.8;" x="373.329939" xlink:href="#maf3b27aab1" y="225.835404"/>
      </g>
     </g>
     <g id="text_6">
      <!-- $(5,6)$ -->
      <g transform="translate(350.709117 249.254028)scale(0.22 -0.22)">
       <defs>
        <path d="M 678 2198 
C 678 3712 1395 4076 1811 4076 
C 1946 4076 2272 4049 2400 3782 
C 2298 3782 2106 3782 2106 3558 
C 2106 3385 2246 3328 2336 3328 
C 2394 3328 2566 3353 2566 3571 
C 2566 3987 2246 4224 1805 4224 
C 1043 4224 243 3411 243 2011 
C 243 257 966 -128 1478 -128 
C 2099 -128 2688 431 2688 1295 
C 2688 2101 2170 2688 1517 2688 
C 1126 2688 838 2430 678 1979 
L 678 2198 
z
M 1478 25 
C 691 25 691 1212 691 1450 
C 691 1914 909 2585 1504 2585 
C 1613 2585 1926 2585 2138 2140 
C 2253 1889 2253 1624 2253 1302 
C 2253 954 2253 696 2118 438 
C 1978 173 1773 25 1478 25 
z
" id="CMR17-36" transform="scale(0.015625)"/>
       </defs>
       <use transform="scale(0.996264)" xlink:href="#CMR17-28"/>
       <use transform="translate(35.280768 0)scale(0.996264)" xlink:href="#CMR17-35"/>
       <use transform="translate(80.971245 0)scale(0.996264)" xlink:href="#CMMI12-3b"/>
       <use transform="translate(124.672827 0)scale(0.996264)" xlink:href="#CMR17-36"/>
       <use transform="translate(170.363304 0)scale(0.996264)" xlink:href="#CMR17-29"/>
      </g>
     </g>
    </g>
    <g id="text_7">
     <!-- pair of qubits index ($\alpha,\beta$) -->
     <g transform="translate(100.787652 274.73705)scale(0.22 -0.22)">
      <defs>
       <path d="M 346 -1408 
L 883 -1408 
L 883 371 
C 1165 25 1478 -128 1914 -128 
C 2778 -128 3347 568 3347 1632 
C 3347 2752 2797 3456 1907 3456 
C 1453 3456 1088 3251 838 2854 
L 838 3359 
L 346 3359 
L 346 -1408 
z
M 1818 2956 
C 2406 2956 2790 2440 2790 1644 
C 2790 887 2400 371 1818 371 
C 1254 371 883 880 883 1663 
C 883 2447 1254 2956 1818 2956 
z
" id="NimbusSanL-Regu-70" transform="scale(0.015625)"/>
       <path d="M 3424 332 
C 3366 320 3341 320 3309 320 
C 3123 320 3021 415 3021 581 
L 3021 2542 
C 3021 3135 2586 3456 1760 3456 
C 1274 3456 870 3315 646 3065 
C 493 2893 429 2702 416 2370 
L 954 2370 
C 998 2778 1242 2963 1741 2963 
C 2221 2963 2490 2784 2490 2466 
L 2490 2326 
C 2490 2103 2355 2007 1933 1956 
C 1178 1861 1062 1835 858 1753 
C 467 1593 269 1294 269 861 
C 269 256 691 -128 1370 -128 
C 1792 -128 2131 19 2509 364 
C 2547 25 2714 -128 3059 -128 
C 3168 -128 3251 -116 3424 -71 
L 3424 332 
z
M 2490 1071 
C 2490 893 2438 785 2278 638 
C 2061 441 1798 339 1485 339 
C 1069 339 826 536 826 874 
C 826 1224 1062 1402 1632 1485 
C 2195 1562 2310 1587 2490 1670 
L 2490 1071 
z
" id="NimbusSanL-Regu-61" transform="scale(0.015625)"/>
       <path d="M 960 3358 
L 429 3358 
L 429 0 
L 960 0 
L 960 3358 
z
M 960 4672 
L 422 4672 
L 422 3999 
L 960 3999 
L 960 4672 
z
" id="NimbusSanL-Regu-69" transform="scale(0.015625)"/>
       <path d="M 442 3328 
L 442 0 
L 979 0 
L 979 1727 
C 979 2203 1101 2514 1357 2698 
C 1523 2819 1683 2857 2054 2863 
L 2054 3404 
C 1965 3449 1920 3456 1850 3456 
C 1504 3456 1242 3251 934 2750 
L 934 3328 
L 442 3328 
z
" id="NimbusSanL-Regu-72" transform="scale(0.015625)"/>
       <path d="M 1741 3456 
C 800 3456 230 2784 230 1663 
C 230 543 794 -128 1747 -128 
C 2688 -128 3264 543 3264 1638 
C 3264 2791 2707 3456 1741 3456 
z
M 1747 2963 
C 2349 2963 2707 2472 2707 1644 
C 2707 861 2336 364 1747 364 
C 1152 364 787 855 787 1663 
C 787 2466 1152 2963 1747 2963 
z
" id="NimbusSanL-Regu-6f" transform="scale(0.015625)"/>
       <path d="M 1651 3328 
L 1094 3328 
L 1094 3860 
C 1094 4087 1222 4204 1466 4204 
C 1510 4204 1530 4204 1651 4198 
L 1651 4639 
C 1530 4665 1459 4672 1350 4672 
C 858 4672 563 4390 563 3905 
L 563 3328 
L 115 3328 
L 115 2892 
L 563 2892 
L 563 0 
L 1094 0 
L 1094 2892 
L 1651 2892 
L 1651 3328 
z
" id="NimbusSanL-Regu-66" transform="scale(0.015625)"/>
       <path d="M 3168 -1408 
L 3168 3359 
L 2694 3359 
L 2694 2912 
C 2445 3263 2067 3456 1626 3456 
C 742 3456 166 2733 166 1625 
C 166 543 717 -128 1600 -128 
C 2067 -128 2387 38 2637 403 
L 2637 -1408 
L 3168 -1408 
z
M 1702 2956 
C 2272 2956 2637 2447 2637 1644 
C 2637 880 2266 371 1702 371 
C 1114 371 723 887 723 1663 
C 723 2434 1114 2956 1702 2956 
z
" id="NimbusSanL-Regu-71" transform="scale(0.015625)"/>
       <path d="M 3085 19 
L 3085 3328 
L 2554 3328 
L 2554 1454 
C 2554 780 2195 339 1638 339 
C 1216 339 947 591 947 988 
L 947 3328 
L 416 3328 
L 416 780 
C 416 230 832 -128 1485 -128 
C 1978 -128 2291 44 2605 484 
L 2605 19 
L 3085 19 
z
" id="NimbusSanL-Regu-75" transform="scale(0.015625)"/>
       <path d="M 346 4672 
L 346 19 
L 826 19 
L 826 447 
C 1082 57 1421 -128 1888 -128 
C 2771 -128 3347 594 3347 1702 
C 3347 2784 2797 3456 1914 3456 
C 1453 3456 1126 3283 877 2905 
L 877 4672 
L 346 4672 
z
M 1811 2956 
C 2406 2956 2790 2440 2790 1644 
C 2790 887 2394 371 1811 371 
C 1248 371 877 880 877 1663 
C 877 2447 1248 2956 1811 2956 
z
" id="NimbusSanL-Regu-62" transform="scale(0.015625)"/>
       <path d="M 1626 3328 
L 1075 3328 
L 1075 4249 
L 544 4249 
L 544 3328 
L 90 3328 
L 90 2892 
L 544 2892 
L 544 402 
C 544 64 774 -128 1190 -128 
C 1318 -128 1446 -116 1626 -84 
L 1626 364 
C 1555 345 1472 339 1370 339 
C 1139 339 1075 402 1075 634 
L 1075 2892 
L 1626 2892 
L 1626 3328 
z
" id="NimbusSanL-Regu-74" transform="scale(0.015625)"/>
       <path d="M 2803 2428 
C 2797 3084 2362 3456 1587 3456 
C 806 3456 301 3052 301 2434 
C 301 1912 570 1663 1363 1472 
L 1862 1351 
C 2234 1262 2381 1129 2381 887 
C 2381 574 2067 364 1600 364 
C 1312 364 1069 447 934 587 
C 851 683 813 778 781 1014 
L 218 1014 
C 243 243 678 -128 1555 -128 
C 2400 -128 2938 288 2938 931 
C 2938 1428 2656 1702 1990 1861 
L 1478 1982 
C 1043 2084 858 2224 858 2459 
C 858 2765 1133 2963 1568 2963 
C 1997 2963 2227 2778 2240 2428 
L 2803 2428 
z
" id="NimbusSanL-Regu-73" transform="scale(0.015625)"/>
       <path d="M 448 3328 
L 448 0 
L 986 0 
L 986 1835 
C 986 2539 1344 2988 1894 2988 
C 2317 2988 2586 2732 2586 2328 
L 2586 0 
L 3117 0 
L 3117 2539 
C 3117 3097 2701 3456 2054 3456 
C 1555 3456 1235 3263 941 2796 
L 941 3328 
L 448 3328 
z
" id="NimbusSanL-Regu-6e" transform="scale(0.015625)"/>
       <path d="M 3168 4672 
L 2637 4672 
L 2637 2937 
C 2413 3276 2054 3456 1606 3456 
C 736 3456 166 2759 166 1695 
C 166 568 723 -128 1626 -128 
C 2086 -128 2406 44 2694 460 
L 2694 19 
L 3168 19 
L 3168 4672 
z
M 1696 2956 
C 2272 2956 2637 2447 2637 1651 
C 2637 880 2266 371 1702 371 
C 1114 371 723 887 723 1663 
C 723 2440 1114 2956 1696 2956 
z
" id="NimbusSanL-Regu-64" transform="scale(0.015625)"/>
       <path d="M 3283 1484 
C 3283 1998 3245 2311 3149 2565 
C 2931 3123 2419 3456 1792 3456 
C 858 3456 256 2734 256 1619 
C 256 545 838 -128 1779 -128 
C 2547 -128 3078 307 3213 1018 
L 2675 1018 
C 2528 588 2227 364 1798 364 
C 1459 364 1171 514 992 787 
C 864 974 819 1161 813 1484 
L 3283 1484 
z
M 826 1920 
C 870 2552 1248 2963 1786 2963 
C 2310 2963 2714 2519 2714 1959 
C 2714 1946 2714 1933 2707 1920 
L 826 1920 
z
" id="NimbusSanL-Regu-65" transform="scale(0.015625)"/>
       <path d="M 1869 1721 
L 2995 3328 
L 2394 3328 
L 1587 2120 
L 781 3328 
L 173 3328 
L 1293 1695 
L 109 0 
L 717 0 
L 1568 1276 
L 2406 0 
L 3027 0 
L 1869 1721 
z
" id="NimbusSanL-Regu-78" transform="scale(0.015625)"/>
       <path d="M 1510 4672 
C 870 3833 467 2668 467 1663 
C 467 652 870 -513 1510 -1351 
L 1862 -1351 
C 1299 -436 986 639 986 1663 
C 986 2681 1299 3763 1862 4672 
L 1510 4672 
z
" id="NimbusSanL-Regu-28" transform="scale(0.015625)"/>
       <path d="M 2963 1615 
C 2963 2234 2611 2816 1933 2816 
C 1094 2816 256 1902 256 996 
C 256 440 602 -64 1254 -64 
C 1651 -64 2125 89 2579 472 
C 2669 115 2867 -64 3142 -64 
C 3488 -64 3661 293 3661 376 
C 3661 434 3616 434 3597 434 
C 3546 434 3539 415 3520 364 
C 3462 204 3315 64 3162 64 
C 2963 64 2963 472 2963 862 
C 3616 1641 3770 2445 3770 2451 
C 3770 2509 3718 2509 3699 2509 
C 3642 2509 3635 2490 3610 2375 
C 3526 2094 3360 1596 2963 1072 
L 2963 1615 
z
M 2560 625 
C 1997 121 1491 64 1267 64 
C 813 64 685 466 685 766 
C 685 1040 826 1692 1024 2043 
C 1286 2490 1645 2687 1933 2687 
C 2554 2687 2554 1877 2554 1340 
C 2554 1181 2547 1015 2547 855 
C 2547 728 2554 696 2560 625 
z
" id="CMMI12-b" transform="scale(0.015625)"/>
       <path d="M 3622 3739 
C 3622 4131 3296 4544 2714 4544 
C 1888 4544 1363 3510 1197 2830 
L 186 -1152 
C 173 -1204 211 -1216 243 -1216 
C 288 -1216 320 -1210 326 -1178 
L 774 592 
C 838 231 1190 -64 1568 -64 
C 2483 -64 3347 657 3347 1618 
C 3347 1863 3290 2108 3155 2314 
C 3078 2437 2982 2527 2880 2599 
C 3341 2823 3622 3222 3622 3739 
z
M 2509 2605 
C 2406 2571 2304 2560 2182 2560 
C 2093 2560 2010 2553 1894 2588 
C 1958 2627 2054 2639 2189 2639 
C 2304 2639 2419 2627 2509 2605 
z
M 3290 3798 
C 3290 3438 3117 2915 2701 2684 
C 2579 2723 2413 2752 2272 2752 
C 2138 2752 1754 2765 1754 2582 
C 1754 2411 2106 2430 2214 2430 
C 2381 2430 2528 2469 2682 2514 
C 2886 2347 2976 2127 2976 1805 
C 2976 1431 2874 1128 2752 850 
C 2541 373 2042 64 1600 64 
C 1133 64 890 438 890 876 
C 890 934 890 1018 915 1115 
L 1331 2784 
C 1542 3641 2080 4413 2701 4413 
C 3162 4413 3290 4086 3290 3798 
z
" id="CMMI12-c" transform="scale(0.015625)"/>
       <path d="M 595 -1351 
C 1235 -513 1638 652 1638 1657 
C 1638 2668 1235 3833 595 4672 
L 243 4672 
C 806 3756 1120 2681 1120 1657 
C 1120 639 806 -442 243 -1351 
L 595 -1351 
z
" id="NimbusSanL-Regu-29" transform="scale(0.015625)"/>
      </defs>
      <use transform="scale(0.996264)" xlink:href="#NimbusSanL-Regu-70"/>
      <use transform="translate(55.391677 0)scale(0.996264)" xlink:href="#NimbusSanL-Regu-61"/>
      <use transform="translate(110.783354 0)scale(0.996264)" xlink:href="#NimbusSanL-Regu-69"/>
      <use transform="translate(132.900138 0)scale(0.996264)" xlink:href="#NimbusSanL-Regu-72"/>
      <use transform="translate(193.770538 0)scale(0.996264)" xlink:href="#NimbusSanL-Regu-6f"/>
      <use transform="translate(249.162215 0)scale(0.996264)" xlink:href="#NimbusSanL-Regu-66"/>
      <use transform="translate(304.552554 0)scale(0.996264)" xlink:href="#NimbusSanL-Regu-71"/>
      <use transform="translate(359.944231 0)scale(0.996264)" xlink:href="#NimbusSanL-Regu-75"/>
      <use transform="translate(415.335908 0)scale(0.996264)" xlink:href="#NimbusSanL-Regu-62"/>
      <use transform="translate(470.727585 0)scale(0.996264)" xlink:href="#NimbusSanL-Regu-69"/>
      <use transform="translate(492.844369 0)scale(0.996264)" xlink:href="#NimbusSanL-Regu-74"/>
      <use transform="translate(520.539539 0)scale(0.996264)" xlink:href="#NimbusSanL-Regu-73"/>
      <use transform="translate(598.047909 0)scale(0.996264)" xlink:href="#NimbusSanL-Regu-69"/>
      <use transform="translate(620.164693 0)scale(0.996264)" xlink:href="#NimbusSanL-Regu-6e"/>
      <use transform="translate(675.55637 0)scale(0.996264)" xlink:href="#NimbusSanL-Regu-64"/>
      <use transform="translate(730.948047 0)scale(0.996264)" xlink:href="#NimbusSanL-Regu-65"/>
      <use transform="translate(783.351616 0)scale(0.996264)" xlink:href="#NimbusSanL-Regu-78"/>
      <use transform="translate(860.859986 0)scale(0.996264)" xlink:href="#NimbusSanL-Regu-28"/>
      <use transform="translate(894.035216 0)scale(0.996264)" xlink:href="#CMMI12-b"/>
      <use transform="translate(956.716239 0)scale(0.996264)" xlink:href="#CMMI12-3b"/>
      <use transform="translate(1000.417821 0)scale(0.996264)" xlink:href="#CMMI12-c"/>
      <use transform="translate(1061.011837 0)scale(0.996264)" xlink:href="#NimbusSanL-Regu-29"/>
     </g>
    </g>
   </g>
   <g id="matplotlib.axis_2">
    <g id="ytick_1">
     <g id="line2d_13">
      <path clip-path="url(#p6d483ad886)" d="M 53.748121 220.974042 
L 388.548121 220.974042 
" style="fill:none;stroke:#b0b0b0;stroke-linecap:square;stroke-width:0.8;"/>
     </g>
     <g id="line2d_14">
      <defs>
       <path d="M 0 0 
L -3.5 0 
" id="ma33d01dc60" style="stroke:#000000;stroke-width:0.8;"/>
      </defs>
      <g>
       <use style="stroke:#000000;stroke-width:0.8;" x="53.748121" xlink:href="#ma33d01dc60" y="220.974042"/>
      </g>
     </g>
     <g id="text_8">
      <!-- $\mathdefault{10^{-4}}$ -->
      <g transform="translate(7.2 228.782194)scale(0.22 -0.22)">
       <defs>
        <path d="M 4218 1472 
C 4326 1472 4442 1472 4442 1600 
C 4442 1728 4326 1728 4218 1728 
L 755 1728 
C 646 1728 531 1728 531 1600 
C 531 1472 646 1472 755 1472 
L 4218 1472 
z
" id="CMSY10-0" transform="scale(0.015625)"/>
       </defs>
       <use transform="scale(0.996264)" xlink:href="#CMR17-31"/>
       <use transform="translate(45.690477 0)scale(0.996264)" xlink:href="#CMR17-30"/>
       <use transform="translate(91.380954 36.153639)scale(0.697382)" xlink:href="#CMSY10-0"/>
       <use transform="translate(145.621947 36.153639)scale(0.697382)" xlink:href="#CMR17-34"/>
      </g>
     </g>
    </g>
    <g id="ytick_2">
     <g id="line2d_15">
      <path clip-path="url(#p6d483ad886)" d="M 53.748121 141.302763 
L 388.548121 141.302763 
" style="fill:none;stroke:#b0b0b0;stroke-linecap:square;stroke-width:0.8;"/>
     </g>
     <g id="line2d_16">
      <g>
       <use style="stroke:#000000;stroke-width:0.8;" x="53.748121" xlink:href="#ma33d01dc60" y="141.302763"/>
      </g>
     </g>
     <g id="text_9">
      <!-- $\mathdefault{10^{-3}}$ -->
      <g transform="translate(7.2 149.110915)scale(0.22 -0.22)">
       <use transform="scale(0.996264)" xlink:href="#CMR17-31"/>
       <use transform="translate(45.690477 0)scale(0.996264)" xlink:href="#CMR17-30"/>
       <use transform="translate(91.380954 36.153639)scale(0.697382)" xlink:href="#CMSY10-0"/>
       <use transform="translate(145.621947 36.153639)scale(0.697382)" xlink:href="#CMR17-33"/>
      </g>
     </g>
    </g>
    <g id="ytick_3">
     <g id="line2d_17">
      <path clip-path="url(#p6d483ad886)" d="M 53.748121 61.631485 
L 388.548121 61.631485 
" style="fill:none;stroke:#b0b0b0;stroke-linecap:square;stroke-width:0.8;"/>
     </g>
     <g id="line2d_18">
      <g>
       <use style="stroke:#000000;stroke-width:0.8;" x="53.748121" xlink:href="#ma33d01dc60" y="61.631485"/>
      </g>
     </g>
     <g id="text_10">
      <!-- $\mathdefault{10^{-2}}$ -->
      <g transform="translate(7.2 69.439637)scale(0.22 -0.22)">
       <use transform="scale(0.996264)" xlink:href="#CMR17-31"/>
       <use transform="translate(45.690477 0)scale(0.996264)" xlink:href="#CMR17-30"/>
       <use transform="translate(91.380954 36.153639)scale(0.697382)" xlink:href="#CMSY10-0"/>
       <use transform="translate(145.621947 36.153639)scale(0.697382)" xlink:href="#CMR17-32"/>
      </g>
     </g>
    </g>
    <g id="ytick_4">
     <g id="line2d_19">
      <defs>
       <path d="M 0 0 
L -2 0 
" id="m4878b92909" style="stroke:#000000;stroke-width:0.6;"/>
      </defs>
      <g>
       <use style="stroke:#000000;stroke-width:0.6;" x="53.748121" xlink:href="#m4878b92909" y="224.619599"/>
      </g>
     </g>
    </g>
    <g id="ytick_5">
     <g id="line2d_20">
      <g>
       <use style="stroke:#000000;stroke-width:0.6;" x="53.748121" xlink:href="#m4878b92909" y="196.990597"/>
      </g>
     </g>
    </g>
    <g id="ytick_6">
     <g id="line2d_21">
      <g>
       <use style="stroke:#000000;stroke-width:0.6;" x="53.748121" xlink:href="#m4878b92909" y="182.961181"/>
      </g>
     </g>
    </g>
    <g id="ytick_7">
     <g id="line2d_22">
      <g>
       <use style="stroke:#000000;stroke-width:0.6;" x="53.748121" xlink:href="#m4878b92909" y="173.007152"/>
      </g>
     </g>
    </g>
    <g id="ytick_8">
     <g id="line2d_23">
      <g>
       <use style="stroke:#000000;stroke-width:0.6;" x="53.748121" xlink:href="#m4878b92909" y="165.286208"/>
      </g>
     </g>
    </g>
    <g id="ytick_9">
     <g id="line2d_24">
      <g>
       <use style="stroke:#000000;stroke-width:0.6;" x="53.748121" xlink:href="#m4878b92909" y="158.977737"/>
      </g>
     </g>
    </g>
    <g id="ytick_10">
     <g id="line2d_25">
      <g>
       <use style="stroke:#000000;stroke-width:0.6;" x="53.748121" xlink:href="#m4878b92909" y="153.644"/>
      </g>
     </g>
    </g>
    <g id="ytick_11">
     <g id="line2d_26">
      <g>
       <use style="stroke:#000000;stroke-width:0.6;" x="53.748121" xlink:href="#m4878b92909" y="149.023708"/>
      </g>
     </g>
    </g>
    <g id="ytick_12">
     <g id="line2d_27">
      <g>
       <use style="stroke:#000000;stroke-width:0.6;" x="53.748121" xlink:href="#m4878b92909" y="144.948321"/>
      </g>
     </g>
    </g>
    <g id="ytick_13">
     <g id="line2d_28">
      <g>
       <use style="stroke:#000000;stroke-width:0.6;" x="53.748121" xlink:href="#m4878b92909" y="117.319319"/>
      </g>
     </g>
    </g>
    <g id="ytick_14">
     <g id="line2d_29">
      <g>
       <use style="stroke:#000000;stroke-width:0.6;" x="53.748121" xlink:href="#m4878b92909" y="103.289903"/>
      </g>
     </g>
    </g>
    <g id="ytick_15">
     <g id="line2d_30">
      <g>
       <use style="stroke:#000000;stroke-width:0.6;" x="53.748121" xlink:href="#m4878b92909" y="93.335874"/>
      </g>
     </g>
    </g>
    <g id="ytick_16">
     <g id="line2d_31">
      <g>
       <use style="stroke:#000000;stroke-width:0.6;" x="53.748121" xlink:href="#m4878b92909" y="85.614929"/>
      </g>
     </g>
    </g>
    <g id="ytick_17">
     <g id="line2d_32">
      <g>
       <use style="stroke:#000000;stroke-width:0.6;" x="53.748121" xlink:href="#m4878b92909" y="79.306458"/>
      </g>
     </g>
    </g>
    <g id="ytick_18">
     <g id="line2d_33">
      <g>
       <use style="stroke:#000000;stroke-width:0.6;" x="53.748121" xlink:href="#m4878b92909" y="73.972722"/>
      </g>
     </g>
    </g>
    <g id="ytick_19">
     <g id="line2d_34">
      <g>
       <use style="stroke:#000000;stroke-width:0.6;" x="53.748121" xlink:href="#m4878b92909" y="69.352429"/>
      </g>
     </g>
    </g>
    <g id="ytick_20">
     <g id="line2d_35">
      <g>
       <use style="stroke:#000000;stroke-width:0.6;" x="53.748121" xlink:href="#m4878b92909" y="65.277042"/>
      </g>
     </g>
    </g>
    <g id="ytick_21">
     <g id="line2d_36">
      <g>
       <use style="stroke:#000000;stroke-width:0.6;" x="53.748121" xlink:href="#m4878b92909" y="37.64804"/>
      </g>
     </g>
    </g>
    <g id="ytick_22">
     <g id="line2d_37">
      <g>
       <use style="stroke:#000000;stroke-width:0.6;" x="53.748121" xlink:href="#m4878b92909" y="23.618624"/>
      </g>
     </g>
    </g>
    <g id="ytick_23">
     <g id="line2d_38">
      <g>
       <use style="stroke:#000000;stroke-width:0.6;" x="53.748121" xlink:href="#m4878b92909" y="13.664595"/>
      </g>
     </g>
    </g>
   </g>
   <g id="LineCollection_1">
    <path clip-path="url(#p6d483ad886)" d="M 68.966303 101.83358 
L 68.966303 75.031311 
" style="fill:none;stroke:#2ca02c;stroke-width:1.5;"/>
    <path clip-path="url(#p6d483ad886)" d="M 129.83903 287.605411 
L 129.83903 37.246642 
" style="fill:none;stroke:#2ca02c;stroke-width:1.5;"/>
    <path clip-path="url(#p6d483ad886)" d="M 190.711757 119.238029 
L 190.711757 81.964731 
" style="fill:none;stroke:#2ca02c;stroke-width:1.5;"/>
    <path clip-path="url(#p6d483ad886)" d="M 251.584485 149.803497 
L 251.584485 117.833511 
" style="fill:none;stroke:#2ca02c;stroke-width:1.5;"/>
    <path clip-path="url(#p6d483ad886)" d="M 312.457212 178.265521 
L 312.457212 101.79695 
" style="fill:none;stroke:#2ca02c;stroke-width:1.5;"/>
    <path clip-path="url(#p6d483ad886)" d="M 373.329939 150.123112 
L 373.329939 102.258625 
" style="fill:none;stroke:#2ca02c;stroke-width:1.5;"/>
   </g>
   <g id="LineCollection_2">
    <path clip-path="url(#p6d483ad886)" d="M 68.966303 111.831778 
L 68.966303 62.884415 
" style="fill:none;stroke:#ff7f0e;stroke-width:1.5;"/>
    <path clip-path="url(#p6d483ad886)" d="M 129.83903 287.605411 
L 129.83903 43.39216 
" style="fill:none;stroke:#ff7f0e;stroke-width:1.5;"/>
    <path clip-path="url(#p6d483ad886)" d="M 190.711757 127.963176 
L 190.711757 68.180207 
" style="fill:none;stroke:#ff7f0e;stroke-width:1.5;"/>
    <path clip-path="url(#p6d483ad886)" d="M 251.584485 215.951768 
L 251.584485 64.92358 
" style="fill:none;stroke:#ff7f0e;stroke-width:1.5;"/>
    <path clip-path="url(#p6d483ad886)" d="M 312.457212 136.595993 
L 312.457212 86.81255 
" style="fill:none;stroke:#ff7f0e;stroke-width:1.5;"/>
    <path clip-path="url(#p6d483ad886)" d="M 373.329939 164.716585 
L 373.329939 65.426747 
" style="fill:none;stroke:#ff7f0e;stroke-width:1.5;"/>
   </g>
   <g id="LineCollection_3">
    <path clip-path="url(#p6d483ad886)" d="M 68.966303 67.836891 
L 68.966303 56.916168 
" style="fill:none;stroke:#9467bd;stroke-width:1.5;"/>
    <path clip-path="url(#p6d483ad886)" d="M 129.83903 128.789979 
L 129.83903 18.279041 
" style="fill:none;stroke:#9467bd;stroke-width:1.5;"/>
    <path clip-path="url(#p6d483ad886)" d="M 190.711757 64.006144 
L 190.711757 49.634757 
" style="fill:none;stroke:#9467bd;stroke-width:1.5;"/>
    <path clip-path="url(#p6d483ad886)" d="M 251.584485 79.044841 
L 251.584485 68.697404 
" style="fill:none;stroke:#9467bd;stroke-width:1.5;"/>
    <path clip-path="url(#p6d483ad886)" d="M 312.457212 84.715308 
L 312.457212 71.566069 
" style="fill:none;stroke:#9467bd;stroke-width:1.5;"/>
    <path clip-path="url(#p6d483ad886)" d="M 373.329939 86.404349 
L 373.329939 66.206317 
" style="fill:none;stroke:#9467bd;stroke-width:1.5;"/>
   </g>
   <g id="LineCollection_4">
    <path clip-path="url(#p6d483ad886)" d="M 68.966303 70.732089 
L 68.966303 58.428884 
" style="fill:none;stroke:#d62728;stroke-width:1.5;"/>
    <path clip-path="url(#p6d483ad886)" d="M 129.83903 105.140994 
L 129.83903 18.478169 
" style="fill:none;stroke:#d62728;stroke-width:1.5;"/>
    <path clip-path="url(#p6d483ad886)" d="M 190.711757 79.834603 
L 190.711757 62.882372 
" style="fill:none;stroke:#d62728;stroke-width:1.5;"/>
    <path clip-path="url(#p6d483ad886)" d="M 251.584485 73.38451 
L 251.584485 48.84326 
" style="fill:none;stroke:#d62728;stroke-width:1.5;"/>
    <path clip-path="url(#p6d483ad886)" d="M 312.457212 66.697247 
L 312.457212 47.830732 
" style="fill:none;stroke:#d62728;stroke-width:1.5;"/>
    <path clip-path="url(#p6d483ad886)" d="M 373.329939 63.866936 
L 373.329939 43.645131 
" style="fill:none;stroke:#d62728;stroke-width:1.5;"/>
   </g>
   <g id="line2d_39">
    <defs>
     <path d="M 6 0 
L -6 -0 
" id="mc478522aae" style="stroke:#2ca02c;"/>
    </defs>
    <g clip-path="url(#p6d483ad886)">
     <use style="fill:#2ca02c;stroke:#2ca02c;" x="68.966303" xlink:href="#mc478522aae" y="101.83358"/>
     <use style="fill:#2ca02c;stroke:#2ca02c;" x="84.695249" xlink:href="#mc478522aae" y="20636.58962"/>
     <use style="fill:#2ca02c;stroke:#2ca02c;" x="174.9927" xlink:href="#mc478522aae" y="20636.58962"/>
     <use style="fill:#2ca02c;stroke:#2ca02c;" x="190.711757" xlink:href="#mc478522aae" y="119.238029"/>
     <use style="fill:#2ca02c;stroke:#2ca02c;" x="251.584485" xlink:href="#mc478522aae" y="149.803497"/>
     <use style="fill:#2ca02c;stroke:#2ca02c;" x="312.457212" xlink:href="#mc478522aae" y="178.265521"/>
     <use style="fill:#2ca02c;stroke:#2ca02c;" x="373.329939" xlink:href="#mc478522aae" y="150.123112"/>
    </g>
   </g>
   <g id="line2d_40">
    <g clip-path="url(#p6d483ad886)">
     <use style="fill:#2ca02c;stroke:#2ca02c;" x="68.966303" xlink:href="#mc478522aae" y="75.031311"/>
     <use style="fill:#2ca02c;stroke:#2ca02c;" x="129.83903" xlink:href="#mc478522aae" y="37.246642"/>
     <use style="fill:#2ca02c;stroke:#2ca02c;" x="190.711757" xlink:href="#mc478522aae" y="81.964731"/>
     <use style="fill:#2ca02c;stroke:#2ca02c;" x="251.584485" xlink:href="#mc478522aae" y="117.833511"/>
     <use style="fill:#2ca02c;stroke:#2ca02c;" x="312.457212" xlink:href="#mc478522aae" y="101.79695"/>
     <use style="fill:#2ca02c;stroke:#2ca02c;" x="373.329939" xlink:href="#mc478522aae" y="102.258625"/>
    </g>
   </g>
   <g id="line2d_41">
    <defs>
     <path d="M 6 0 
L -6 -0 
" id="m5ea07d26ff" style="stroke:#ff7f0e;"/>
    </defs>
    <g clip-path="url(#p6d483ad886)">
     <use style="fill:#ff7f0e;stroke:#ff7f0e;" x="68.966303" xlink:href="#m5ea07d26ff" y="111.831778"/>
     <use style="fill:#ff7f0e;stroke:#ff7f0e;" x="84.689569" xlink:href="#m5ea07d26ff" y="20636.58962"/>
     <use style="fill:#ff7f0e;stroke:#ff7f0e;" x="174.997659" xlink:href="#m5ea07d26ff" y="20636.58962"/>
     <use style="fill:#ff7f0e;stroke:#ff7f0e;" x="190.711757" xlink:href="#m5ea07d26ff" y="127.963176"/>
     <use style="fill:#ff7f0e;stroke:#ff7f0e;" x="251.584485" xlink:href="#m5ea07d26ff" y="215.951768"/>
     <use style="fill:#ff7f0e;stroke:#ff7f0e;" x="312.457212" xlink:href="#m5ea07d26ff" y="136.595993"/>
     <use style="fill:#ff7f0e;stroke:#ff7f0e;" x="373.329939" xlink:href="#m5ea07d26ff" y="164.716585"/>
    </g>
   </g>
   <g id="line2d_42">
    <g clip-path="url(#p6d483ad886)">
     <use style="fill:#ff7f0e;stroke:#ff7f0e;" x="68.966303" xlink:href="#m5ea07d26ff" y="62.884415"/>
     <use style="fill:#ff7f0e;stroke:#ff7f0e;" x="129.83903" xlink:href="#m5ea07d26ff" y="43.39216"/>
     <use style="fill:#ff7f0e;stroke:#ff7f0e;" x="190.711757" xlink:href="#m5ea07d26ff" y="68.180207"/>
     <use style="fill:#ff7f0e;stroke:#ff7f0e;" x="251.584485" xlink:href="#m5ea07d26ff" y="64.92358"/>
     <use style="fill:#ff7f0e;stroke:#ff7f0e;" x="312.457212" xlink:href="#m5ea07d26ff" y="86.81255"/>
     <use style="fill:#ff7f0e;stroke:#ff7f0e;" x="373.329939" xlink:href="#m5ea07d26ff" y="65.426747"/>
    </g>
   </g>
   <g id="line2d_43">
    <defs>
     <path d="M 6 0 
L -6 -0 
" id="mb4b6db5e11" style="stroke:#9467bd;"/>
    </defs>
    <g clip-path="url(#p6d483ad886)">
     <use style="fill:#9467bd;stroke:#9467bd;" x="68.966303" xlink:href="#mb4b6db5e11" y="67.836891"/>
     <use style="fill:#9467bd;stroke:#9467bd;" x="129.83903" xlink:href="#mb4b6db5e11" y="128.789979"/>
     <use style="fill:#9467bd;stroke:#9467bd;" x="190.711757" xlink:href="#mb4b6db5e11" y="64.006144"/>
     <use style="fill:#9467bd;stroke:#9467bd;" x="251.584485" xlink:href="#mb4b6db5e11" y="79.044841"/>
     <use style="fill:#9467bd;stroke:#9467bd;" x="312.457212" xlink:href="#mb4b6db5e11" y="84.715308"/>
     <use style="fill:#9467bd;stroke:#9467bd;" x="373.329939" xlink:href="#mb4b6db5e11" y="86.404349"/>
    </g>
   </g>
   <g id="line2d_44">
    <g clip-path="url(#p6d483ad886)">
     <use style="fill:#9467bd;stroke:#9467bd;" x="68.966303" xlink:href="#mb4b6db5e11" y="56.916168"/>
     <use style="fill:#9467bd;stroke:#9467bd;" x="129.83903" xlink:href="#mb4b6db5e11" y="18.279041"/>
     <use style="fill:#9467bd;stroke:#9467bd;" x="190.711757" xlink:href="#mb4b6db5e11" y="49.634757"/>
     <use style="fill:#9467bd;stroke:#9467bd;" x="251.584485" xlink:href="#mb4b6db5e11" y="68.697404"/>
     <use style="fill:#9467bd;stroke:#9467bd;" x="312.457212" xlink:href="#mb4b6db5e11" y="71.566069"/>
     <use style="fill:#9467bd;stroke:#9467bd;" x="373.329939" xlink:href="#mb4b6db5e11" y="66.206317"/>
    </g>
   </g>
   <g id="line2d_45">
    <defs>
     <path d="M 6 0 
L -6 -0 
" id="m1b59605c83" style="stroke:#d62728;"/>
    </defs>
    <g clip-path="url(#p6d483ad886)">
     <use style="fill:#d62728;stroke:#d62728;" x="68.966303" xlink:href="#m1b59605c83" y="70.732089"/>
     <use style="fill:#d62728;stroke:#d62728;" x="129.83903" xlink:href="#m1b59605c83" y="105.140994"/>
     <use style="fill:#d62728;stroke:#d62728;" x="190.711757" xlink:href="#m1b59605c83" y="79.834603"/>
     <use style="fill:#d62728;stroke:#d62728;" x="251.584485" xlink:href="#m1b59605c83" y="73.38451"/>
     <use style="fill:#d62728;stroke:#d62728;" x="312.457212" xlink:href="#m1b59605c83" y="66.697247"/>
     <use style="fill:#d62728;stroke:#d62728;" x="373.329939" xlink:href="#m1b59605c83" y="63.866936"/>
    </g>
   </g>
   <g id="line2d_46">
    <g clip-path="url(#p6d483ad886)">
     <use style="fill:#d62728;stroke:#d62728;" x="68.966303" xlink:href="#m1b59605c83" y="58.428884"/>
     <use style="fill:#d62728;stroke:#d62728;" x="129.83903" xlink:href="#m1b59605c83" y="18.478169"/>
     <use style="fill:#d62728;stroke:#d62728;" x="190.711757" xlink:href="#m1b59605c83" y="62.882372"/>
     <use style="fill:#d62728;stroke:#d62728;" x="251.584485" xlink:href="#m1b59605c83" y="48.84326"/>
     <use style="fill:#d62728;stroke:#d62728;" x="312.457212" xlink:href="#m1b59605c83" y="47.830732"/>
     <use style="fill:#d62728;stroke:#d62728;" x="373.329939" xlink:href="#m1b59605c83" y="43.645131"/>
    </g>
   </g>
   <g id="line2d_47">
    <path clip-path="url(#p6d483ad886)" d="M 68.966303 85.899668 
L 129.83903 69.340593 
L 190.711757 95.807769 
L 251.584485 130.250425 
L 312.457212 122.178867 
L 373.329939 118.50062 
" style="fill:none;stroke:#2ca02c;stroke-linecap:square;stroke-width:1.5;"/>
    <defs>
     <path d="M 0 3 
C 0.795609 3 1.55874 2.683901 2.12132 2.12132 
C 2.683901 1.55874 3 0.795609 3 0 
C 3 -0.795609 2.683901 -1.55874 2.12132 -2.12132 
C 1.55874 -2.683901 0.795609 -3 0 -3 
C -0.795609 -3 -1.55874 -2.683901 -2.12132 -2.12132 
C -2.683901 -1.55874 -3 -0.795609 -3 0 
C -3 0.795609 -2.683901 1.55874 -2.12132 2.12132 
C -1.55874 2.683901 -0.795609 3 0 3 
z
" id="md90aae24fb" style="stroke:#2ca02c;"/>
    </defs>
    <g clip-path="url(#p6d483ad886)">
     <use style="fill:#2ca02c;stroke:#2ca02c;" x="68.966303" xlink:href="#md90aae24fb" y="85.899668"/>
     <use style="fill:#2ca02c;stroke:#2ca02c;" x="129.83903" xlink:href="#md90aae24fb" y="69.340593"/>
     <use style="fill:#2ca02c;stroke:#2ca02c;" x="190.711757" xlink:href="#md90aae24fb" y="95.807769"/>
     <use style="fill:#2ca02c;stroke:#2ca02c;" x="251.584485" xlink:href="#md90aae24fb" y="130.250425"/>
     <use style="fill:#2ca02c;stroke:#2ca02c;" x="312.457212" xlink:href="#md90aae24fb" y="122.178867"/>
     <use style="fill:#2ca02c;stroke:#2ca02c;" x="373.329939" xlink:href="#md90aae24fb" y="118.50062"/>
    </g>
   </g>
   <g id="line2d_48">
    <path clip-path="url(#p6d483ad886)" d="M 68.966303 79.3408 
L 129.83903 68.274418 
L 190.711757 86.504923 
L 251.584485 88.469807 
L 312.457212 103.430811 
L 373.329939 87.501188 
" style="fill:none;stroke:#ff7f0e;stroke-linecap:square;stroke-width:1.5;"/>
    <defs>
     <path d="M 0 3 
C 0.795609 3 1.55874 2.683901 2.12132 2.12132 
C 2.683901 1.55874 3 0.795609 3 0 
C 3 -0.795609 2.683901 -1.55874 2.12132 -2.12132 
C 1.55874 -2.683901 0.795609 -3 0 -3 
C -0.795609 -3 -1.55874 -2.683901 -2.12132 -2.12132 
C -2.683901 -1.55874 -3 -0.795609 -3 0 
C -3 0.795609 -2.683901 1.55874 -2.12132 2.12132 
C -1.55874 2.683901 -0.795609 3 0 3 
z
" id="me9b10534f6" style="stroke:#ff7f0e;"/>
    </defs>
    <g clip-path="url(#p6d483ad886)">
     <use style="fill:#ff7f0e;stroke:#ff7f0e;" x="68.966303" xlink:href="#me9b10534f6" y="79.3408"/>
     <use style="fill:#ff7f0e;stroke:#ff7f0e;" x="129.83903" xlink:href="#me9b10534f6" y="68.274418"/>
     <use style="fill:#ff7f0e;stroke:#ff7f0e;" x="190.711757" xlink:href="#me9b10534f6" y="86.504923"/>
     <use style="fill:#ff7f0e;stroke:#ff7f0e;" x="251.584485" xlink:href="#me9b10534f6" y="88.469807"/>
     <use style="fill:#ff7f0e;stroke:#ff7f0e;" x="312.457212" xlink:href="#me9b10534f6" y="103.430811"/>
     <use style="fill:#ff7f0e;stroke:#ff7f0e;" x="373.329939" xlink:href="#me9b10534f6" y="87.501188"/>
    </g>
   </g>
   <g id="line2d_49">
    <path clip-path="url(#p6d483ad886)" d="M 68.966303 61.947455 
L 129.83903 40.871756 
L 190.711757 56.079612 
L 251.584485 73.485753 
L 312.457212 77.519778 
L 373.329939 74.851984 
" style="fill:none;stroke:#9467bd;stroke-linecap:square;stroke-width:1.5;"/>
    <defs>
     <path d="M 0 3 
C 0.795609 3 1.55874 2.683901 2.12132 2.12132 
C 2.683901 1.55874 3 0.795609 3 0 
C 3 -0.795609 2.683901 -1.55874 2.12132 -2.12132 
C 1.55874 -2.683901 0.795609 -3 0 -3 
C -0.795609 -3 -1.55874 -2.683901 -2.12132 -2.12132 
C -2.683901 -1.55874 -3 -0.795609 -3 0 
C -3 0.795609 -2.683901 1.55874 -2.12132 2.12132 
C -1.55874 2.683901 -0.795609 3 0 3 
z
" id="meca4c0b9f5" style="stroke:#9467bd;"/>
    </defs>
    <g clip-path="url(#p6d483ad886)">
     <use style="fill:#9467bd;stroke:#9467bd;" x="68.966303" xlink:href="#meca4c0b9f5" y="61.947455"/>
     <use style="fill:#9467bd;stroke:#9467bd;" x="129.83903" xlink:href="#meca4c0b9f5" y="40.871756"/>
     <use style="fill:#9467bd;stroke:#9467bd;" x="190.711757" xlink:href="#meca4c0b9f5" y="56.079612"/>
     <use style="fill:#9467bd;stroke:#9467bd;" x="251.584485" xlink:href="#meca4c0b9f5" y="73.485753"/>
     <use style="fill:#9467bd;stroke:#9467bd;" x="312.457212" xlink:href="#meca4c0b9f5" y="77.519778"/>
     <use style="fill:#9467bd;stroke:#9467bd;" x="373.329939" xlink:href="#meca4c0b9f5" y="74.851984"/>
    </g>
   </g>
   <g id="line2d_50">
    <path clip-path="url(#p6d483ad886)" d="M 68.966303 64.036503 
L 129.83903 39.74414 
L 190.711757 70.330516 
L 251.584485 58.982227 
L 312.457212 55.99371 
L 373.329939 52.299308 
" style="fill:none;stroke:#d62728;stroke-linecap:square;stroke-width:1.5;"/>
    <defs>
     <path d="M 0 3 
C 0.795609 3 1.55874 2.683901 2.12132 2.12132 
C 2.683901 1.55874 3 0.795609 3 0 
C 3 -0.795609 2.683901 -1.55874 2.12132 -2.12132 
C 1.55874 -2.683901 0.795609 -3 0 -3 
C -0.795609 -3 -1.55874 -2.683901 -2.12132 -2.12132 
C -2.683901 -1.55874 -3 -0.795609 -3 0 
C -3 0.795609 -2.683901 1.55874 -2.12132 2.12132 
C -1.55874 2.683901 -0.795609 3 0 3 
z
" id="m3a6020e388" style="stroke:#d62728;"/>
    </defs>
    <g clip-path="url(#p6d483ad886)">
     <use style="fill:#d62728;stroke:#d62728;" x="68.966303" xlink:href="#m3a6020e388" y="64.036503"/>
     <use style="fill:#d62728;stroke:#d62728;" x="129.83903" xlink:href="#m3a6020e388" y="39.74414"/>
     <use style="fill:#d62728;stroke:#d62728;" x="190.711757" xlink:href="#m3a6020e388" y="70.330516"/>
     <use style="fill:#d62728;stroke:#d62728;" x="251.584485" xlink:href="#m3a6020e388" y="58.982227"/>
     <use style="fill:#d62728;stroke:#d62728;" x="312.457212" xlink:href="#m3a6020e388" y="55.99371"/>
     <use style="fill:#d62728;stroke:#d62728;" x="373.329939" xlink:href="#m3a6020e388" y="52.299308"/>
    </g>
   </g>
   <g id="patch_3">
    <path d="M 53.748121 225.835404 
L 53.748121 8.395404 
" style="fill:none;stroke:#000000;stroke-linecap:square;stroke-linejoin:miter;stroke-width:0.8;"/>
   </g>
   <g id="patch_4">
    <path d="M 388.548121 225.835404 
L 388.548121 8.395404 
" style="fill:none;stroke:#000000;stroke-linecap:square;stroke-linejoin:miter;stroke-width:0.8;"/>
   </g>
   <g id="patch_5">
    <path d="M 53.748121 225.835404 
L 388.548121 225.835404 
" style="fill:none;stroke:#000000;stroke-linecap:square;stroke-linejoin:miter;stroke-width:0.8;"/>
   </g>
   <g id="patch_6">
    <path d="M 53.748121 8.395404 
L 388.548121 8.395404 
" style="fill:none;stroke:#000000;stroke-linecap:square;stroke-linejoin:miter;stroke-width:0.8;"/>
   </g>
   <g id="text_11">
    <!-- $C[F]$ -->
    <g style="fill:#2ca02c;" transform="translate(178.537212 141.302763)scale(0.22 -0.22)">
     <defs>
      <path d="M 4781 4422 
C 4781 4480 4736 4480 4723 4480 
C 4710 4480 4685 4480 4634 4415 
L 4192 3881 
C 3968 4262 3616 4480 3136 4480 
C 1754 4480 320 3087 320 1594 
C 320 533 1069 -128 2003 -128 
C 2515 -128 2963 89 3334 400 
C 3891 864 4058 1480 4058 1531 
C 4058 1588 4006 1588 3987 1588 
C 3930 1588 3923 1550 3910 1524 
C 3616 533 2752 57 2112 57 
C 1434 57 845 489 845 1391 
C 845 1594 909 2699 1632 3531 
C 1984 3938 2586 4294 3194 4294 
C 3898 4294 4211 3716 4211 3068 
C 4211 2903 4192 2763 4192 2737 
C 4192 2680 4256 2680 4275 2680 
C 4346 2680 4352 2687 4378 2801 
L 4781 4422 
z
" id="CMMI12-43" transform="scale(0.015625)"/>
      <path d="M 1504 -1600 
L 1504 -1376 
L 902 -1376 
L 902 4575 
L 1504 4575 
L 1504 4800 
L 678 4800 
L 678 -1600 
L 1504 -1600 
z
" id="CMR17-5b" transform="scale(0.015625)"/>
      <path d="M 1901 2054 
L 2515 2054 
C 3002 2054 3040 1947 3040 1764 
C 3040 1683 3027 1595 2995 1456 
C 2982 1431 2976 1399 2976 1387 
C 2976 1343 3002 1318 3046 1318 
C 3098 1318 3104 1343 3130 1444 
L 3501 2929 
C 3501 2955 3482 2993 3437 2993 
C 3379 2993 3373 2968 3347 2858 
C 3213 2375 3085 2240 2528 2240 
L 1946 2240 
L 2362 3908 
C 2419 4134 2432 4153 2694 4153 
L 3552 4153 
C 4352 4153 4467 3915 4467 3457 
C 4467 3419 4467 3277 4448 3109 
C 4442 3084 4429 3000 4429 2974 
C 4429 2922 4461 2903 4499 2903 
C 4544 2903 4570 2929 4582 3045 
L 4717 4172 
C 4717 4191 4730 4255 4730 4268 
C 4730 4339 4672 4339 4557 4339 
L 1523 4339 
C 1402 4339 1338 4339 1338 4223 
C 1338 4153 1382 4153 1491 4153 
C 1888 4153 1888 4108 1888 4037 
C 1888 4005 1882 3979 1862 3908 
L 998 468 
C 941 248 928 185 480 185 
C 358 185 294 185 294 70 
C 294 0 352 0 390 0 
C 512 0 640 12 762 12 
L 1594 12 
C 1734 12 1888 0 2029 0 
C 2086 0 2163 0 2163 115 
C 2163 185 2125 185 1984 185 
C 1478 185 1466 229 1466 324 
C 1466 355 1478 405 1491 449 
L 1901 2054 
z
" id="CMMI12-46" transform="scale(0.015625)"/>
      <path d="M 915 4800 
L 90 4800 
L 90 4575 
L 691 4575 
L 691 -1376 
L 90 -1376 
L 90 -1600 
L 915 -1600 
L 915 4800 
z
" id="CMR17-5d" transform="scale(0.015625)"/>
     </defs>
     <use transform="scale(0.996264)" xlink:href="#CMMI12-43"/>
     <use transform="translate(76.946847 0)scale(0.996264)" xlink:href="#CMR17-5b"/>
     <use transform="translate(101.817905 0)scale(0.996264)" xlink:href="#CMMI12-46"/>
     <use transform="translate(178.514698 0)scale(0.996264)" xlink:href="#CMR17-5d"/>
    </g>
   </g>
   <g id="text_12">
    <!-- $C[Q]$ -->
    <g style="fill:#ff7f0e;" transform="translate(263.75903 117.319319)scale(0.22 -0.22)">
     <defs>
      <path d="M 2726 45 
C 3827 493 4646 1654 4646 2798 
C 4646 3840 3955 4480 3059 4480 
C 1690 4480 307 3025 307 1566 
C 307 565 973 -128 1901 -128 
C 2118 -128 2330 -96 2534 -32 
C 2496 -406 2496 -437 2496 -554 
C 2496 -736 2496 -1216 3008 -1216 
C 3770 -1216 4051 -39 4051 0 
C 4051 38 4026 64 3994 64 
C 3955 64 3942 32 3923 -39 
C 3782 -431 3450 -653 3168 -653 
C 2842 -653 2758 -437 2726 45 
z
M 1574 77 
C 1069 253 826 792 826 1376 
C 826 1819 992 2659 1414 3297 
C 1888 4017 2522 4339 3021 4339 
C 3686 4339 4134 3808 4134 2987 
C 4134 2520 3910 953 2707 240 
C 2675 571 2586 960 2163 960 
C 1818 960 1523 610 1523 292 
C 1523 220 1549 123 1574 77 
z
M 2547 155 
C 2317 51 2118 12 1939 12 
C 1875 12 1651 12 1651 298 
C 1651 532 1875 831 2163 831 
C 2483 831 2554 610 2554 285 
C 2554 246 2554 194 2547 155 
z
" id="CMMI12-51" transform="scale(0.015625)"/>
     </defs>
     <use transform="scale(0.996264)" xlink:href="#CMMI12-43"/>
     <use transform="translate(76.946847 0)scale(0.996264)" xlink:href="#CMR17-5b"/>
     <use transform="translate(101.817905 0)scale(0.996264)" xlink:href="#CMMI12-51"/>
     <use transform="translate(179.078304 0)scale(0.996264)" xlink:href="#CMR17-5d"/>
    </g>
   </g>
   <g id="text_13">
    <!-- $C[\Pi]$ -->
    <g style="fill:#9467bd;" transform="translate(142.013575 23.618624)scale(0.22 -0.22)">
     <defs>
      <path d="M 3590 3897 
C 3590 4185 3661 4185 4102 4185 
L 4102 4352 
L 326 4352 
L 326 4185 
C 768 4185 838 4185 838 3897 
L 838 453 
C 838 166 768 166 326 166 
L 326 0 
C 512 12 851 12 1050 12 
C 1248 12 1587 12 1773 0 
L 1773 166 
C 1331 166 1261 166 1261 453 
L 1261 4185 
L 3168 4185 
L 3168 453 
C 3168 166 3098 166 2656 166 
L 2656 0 
C 2842 12 3181 12 3379 12 
C 3578 12 3917 12 4102 0 
L 4102 166 
C 3661 166 3590 166 3590 453 
L 3590 3897 
z
" id="CMR17-5" transform="scale(0.015625)"/>
     </defs>
     <use transform="scale(0.996264)" xlink:href="#CMMI12-43"/>
     <use transform="translate(76.946847 0)scale(0.996264)" xlink:href="#CMR17-5b"/>
     <use transform="translate(101.817905 0)scale(0.996264)" xlink:href="#CMR17-5"/>
     <use transform="translate(170.890335 0)scale(0.996264)" xlink:href="#CMR17-5d"/>
    </g>
   </g>
   <g id="text_14">
    <!-- $C[\Upsilon]$ -->
    <g style="fill:#d62728;" transform="translate(318.544485 55.323014)scale(0.22 -0.22)">
     <defs>
      <path d="M 2515 2262 
C 2515 2544 2554 3089 2726 3506 
C 2906 3922 3187 4115 3533 4115 
C 3738 4115 4115 3999 4173 3531 
C 4179 3480 4179 3461 4237 3461 
C 4301 3461 4307 3480 4307 3544 
C 4307 3884 4083 4480 3526 4480 
C 2554 4480 2355 3236 2310 2909 
L 2304 2909 
C 2253 3243 2048 4480 1075 4480 
C 512 4480 294 3877 294 3544 
C 294 3480 301 3461 365 3461 
C 422 3461 422 3480 429 3531 
C 486 4006 864 4115 1069 4115 
C 2029 4115 2093 2647 2093 2262 
L 2093 461 
C 2093 230 2080 166 1594 166 
L 1453 166 
L 1453 0 
C 1722 12 2035 12 2304 12 
C 2573 12 2886 12 3155 0 
L 3155 166 
L 3014 166 
C 2528 166 2515 230 2515 461 
L 2515 2262 
z
" id="CMR17-7" transform="scale(0.015625)"/>
     </defs>
     <use transform="scale(0.996264)" xlink:href="#CMMI12-43"/>
     <use transform="translate(76.946847 0)scale(0.996264)" xlink:href="#CMR17-5b"/>
     <use transform="translate(101.817905 0)scale(0.996264)" xlink:href="#CMR17-7"/>
     <use transform="translate(173.532694 0)scale(0.996264)" xlink:href="#CMR17-5d"/>
    </g>
   </g>
  </g>
 </g>
 <defs>
  <clipPath id="p6d483ad886">
   <rect height="217.44" width="334.8" x="53.748121" y="8.395404"/>
  </clipPath>
 </defs>
</svg>
