<?xml version="1.0" encoding="utf-8" standalone="no"?>
<!DOCTYPE svg PUBLIC "-//W3C//DTD SVG 1.1//EN"
  "http://www.w3.org/Graphics/SVG/1.1/DTD/svg11.dtd">
<svg height="283.409331pt" version="1.1" viewBox="0 0 402.4067 283.409331" width="402.4067pt" xmlns="http://www.w3.org/2000/svg" xmlns:xlink="http://www.w3.org/1999/xlink">
 <metadata>
  <rdf:RDF xmlns:cc="http://creativecommons.org/ns#" xmlns:dc="http://purl.org/dc/elements/1.1/" xmlns:rdf="http://www.w3.org/1999/02/22-rdf-syntax-ns#">
   <cc:Work>
    <dc:type rdf:resource="http://purl.org/dc/dcmitype/StillImage"/>
    <dc:date>2022-11-19T02:19:04.004196</dc:date>
    <dc:format>image/svg+xml</dc:format>
    <dc:creator>
     <cc:Agent>
      <dc:title>Matplotlib v3.4.2, https://matplotlib.org/</dc:title>
     </cc:Agent>
    </dc:creator>
   </cc:Work>
  </rdf:RDF>
 </metadata>
 <defs>
  <style type="text/css">*{stroke-linecap:butt;stroke-linejoin:round;}</style>
 </defs>
 <g id="figure_1">
  <g id="patch_1">
   <path d="M 0 283.409331 
L 402.4067 283.409331 
L 402.4067 0 
L 0 0 
z
" style="fill:none;"/>
  </g>
  <g id="axes_1">
   <g id="patch_2">
    <path d="M 60.4067 224.64 
L 395.2067 224.64 
L 395.2067 7.2 
L 60.4067 7.2 
z
" style="fill:none;"/>
   </g>
   <g id="matplotlib.axis_1">
    <g id="xtick_1">
     <g id="line2d_1">
      <path clip-path="url(#p11dfe61731)" d="M 75.624882 224.64 
L 75.624882 7.2 
" style="fill:none;stroke:#b0b0b0;stroke-linecap:square;stroke-width:0.8;"/>
     </g>
     <g id="line2d_2">
      <defs>
       <path d="M 0 0 
L 0 3.5 
" id="m01682ff18b" style="stroke:#000000;stroke-width:0.8;"/>
      </defs>
      <g>
       <use style="stroke:#000000;stroke-width:0.8;" x="75.624882" xlink:href="#m01682ff18b" y="224.64"/>
      </g>
     </g>
     <g id="text_1">
      <!-- $\mathdefault{0}$ -->
      <g transform="translate(70.598929 247.256305)scale(0.22 -0.22)">
       <defs>
        <path d="M 2688 2038 
C 2688 2430 2682 3099 2413 3613 
C 2176 4063 1798 4224 1466 4224 
C 1158 4224 768 4082 525 3620 
C 269 3137 243 2539 243 2038 
C 243 1671 250 1112 448 623 
C 723 -39 1216 -128 1466 -128 
C 1760 -128 2208 -7 2470 604 
C 2662 1048 2688 1568 2688 2038 
z
M 1466 -26 
C 1056 -26 813 328 723 816 
C 653 1196 653 1749 653 2109 
C 653 2604 653 3015 736 3407 
C 858 3954 1216 4121 1466 4121 
C 1728 4121 2067 3947 2189 3420 
C 2272 3054 2278 2623 2278 2109 
C 2278 1691 2278 1176 2202 797 
C 2067 96 1690 -26 1466 -26 
z
" id="CMR17-30" transform="scale(0.015625)"/>
       </defs>
       <use transform="scale(0.996264)" xlink:href="#CMR17-30"/>
      </g>
     </g>
    </g>
    <g id="xtick_2">
     <g id="line2d_3">
      <path clip-path="url(#p11dfe61731)" d="M 126.352154 224.64 
L 126.352154 7.2 
" style="fill:none;stroke:#b0b0b0;stroke-linecap:square;stroke-width:0.8;"/>
     </g>
     <g id="line2d_4">
      <g>
       <use style="stroke:#000000;stroke-width:0.8;" x="126.352154" xlink:href="#m01682ff18b" y="224.64"/>
      </g>
     </g>
     <g id="text_2">
      <!-- $\mathdefault{1}$ -->
      <g transform="translate(121.326202 247.256305)scale(0.22 -0.22)">
       <defs>
        <path d="M 1702 4083 
C 1702 4217 1696 4224 1606 4224 
C 1357 3927 979 3833 621 3820 
C 602 3820 570 3820 563 3808 
C 557 3795 557 3782 557 3648 
C 755 3648 1088 3686 1344 3839 
L 1344 467 
C 1344 243 1331 166 781 166 
L 589 166 
L 589 0 
C 896 6 1216 12 1523 12 
C 1830 12 2150 6 2458 0 
L 2458 166 
L 2266 166 
C 1715 166 1702 236 1702 467 
L 1702 4083 
z
" id="CMR17-31" transform="scale(0.015625)"/>
       </defs>
       <use transform="scale(0.996264)" xlink:href="#CMR17-31"/>
      </g>
     </g>
    </g>
    <g id="xtick_3">
     <g id="line2d_5">
      <path clip-path="url(#p11dfe61731)" d="M 177.079427 224.64 
L 177.079427 7.2 
" style="fill:none;stroke:#b0b0b0;stroke-linecap:square;stroke-width:0.8;"/>
     </g>
     <g id="line2d_6">
      <g>
       <use style="stroke:#000000;stroke-width:0.8;" x="177.079427" xlink:href="#m01682ff18b" y="224.64"/>
      </g>
     </g>
     <g id="text_3">
      <!-- $\mathdefault{2}$ -->
      <g transform="translate(172.053475 247.256305)scale(0.22 -0.22)">
       <defs>
        <path d="M 2669 990 
L 2554 990 
C 2490 537 2438 460 2413 422 
C 2381 371 1920 371 1830 371 
L 602 371 
C 832 620 1280 1073 1824 1596 
C 2214 1966 2669 2400 2669 3033 
C 2669 3788 2067 4224 1395 4224 
C 691 4224 262 3603 262 3027 
C 262 2777 448 2745 525 2745 
C 589 2745 781 2783 781 3007 
C 781 3206 614 3264 525 3264 
C 486 3264 448 3257 422 3244 
C 544 3788 915 4057 1306 4057 
C 1862 4057 2227 3616 2227 3033 
C 2227 2477 1901 1998 1536 1583 
L 262 147 
L 262 0 
L 2515 0 
L 2669 990 
z
" id="CMR17-32" transform="scale(0.015625)"/>
       </defs>
       <use transform="scale(0.996264)" xlink:href="#CMR17-32"/>
      </g>
     </g>
    </g>
    <g id="xtick_4">
     <g id="line2d_7">
      <path clip-path="url(#p11dfe61731)" d="M 227.8067 224.64 
L 227.8067 7.2 
" style="fill:none;stroke:#b0b0b0;stroke-linecap:square;stroke-width:0.8;"/>
     </g>
     <g id="line2d_8">
      <g>
       <use style="stroke:#000000;stroke-width:0.8;" x="227.8067" xlink:href="#m01682ff18b" y="224.64"/>
      </g>
     </g>
     <g id="text_4">
      <!-- $\mathdefault{3}$ -->
      <g transform="translate(222.780747 247.256305)scale(0.22 -0.22)">
       <defs>
        <path d="M 1414 2176 
C 1984 2176 2234 1673 2234 1094 
C 2234 322 1824 25 1453 25 
C 1114 25 563 193 390 691 
C 422 678 454 678 486 678 
C 640 678 755 780 755 947 
C 755 1132 614 1216 486 1216 
C 378 1216 211 1164 211 927 
C 211 335 787 -128 1466 -128 
C 2176 -128 2720 432 2720 1087 
C 2720 1718 2208 2176 1600 2246 
C 2086 2347 2554 2776 2554 3353 
C 2554 3856 2048 4224 1472 4224 
C 890 4224 378 3862 378 3347 
C 378 3123 544 3084 627 3084 
C 762 3084 877 3167 877 3334 
C 877 3500 762 3584 627 3584 
C 602 3584 570 3584 544 3571 
C 730 3999 1235 4076 1459 4076 
C 1683 4076 2106 3966 2106 3347 
C 2106 3167 2080 2851 1862 2574 
C 1670 2329 1453 2316 1242 2297 
C 1210 2297 1062 2284 1037 2284 
C 992 2278 966 2272 966 2227 
C 966 2182 973 2176 1101 2176 
L 1414 2176 
z
" id="CMR17-33" transform="scale(0.015625)"/>
       </defs>
       <use transform="scale(0.996264)" xlink:href="#CMR17-33"/>
      </g>
     </g>
    </g>
    <g id="xtick_5">
     <g id="line2d_9">
      <path clip-path="url(#p11dfe61731)" d="M 278.533973 224.64 
L 278.533973 7.2 
" style="fill:none;stroke:#b0b0b0;stroke-linecap:square;stroke-width:0.8;"/>
     </g>
     <g id="line2d_10">
      <g>
       <use style="stroke:#000000;stroke-width:0.8;" x="278.533973" xlink:href="#m01682ff18b" y="224.64"/>
      </g>
     </g>
     <g id="text_5">
      <!-- $\mathdefault{4}$ -->
      <g transform="translate(273.50802 247.256305)scale(0.22 -0.22)">
       <defs>
        <path d="M 2150 4147 
C 2150 4281 2144 4288 2029 4288 
L 128 1254 
L 128 1088 
L 1779 1088 
L 1779 460 
C 1779 230 1766 166 1318 166 
L 1197 166 
L 1197 0 
C 1402 12 1747 12 1965 12 
C 2182 12 2528 12 2733 0 
L 2733 166 
L 2611 166 
C 2163 166 2150 230 2150 460 
L 2150 1088 
L 2803 1088 
L 2803 1254 
L 2150 1254 
L 2150 4147 
z
M 1798 3723 
L 1798 1254 
L 256 1254 
L 1798 3723 
z
" id="CMR17-34" transform="scale(0.015625)"/>
       </defs>
       <use transform="scale(0.996264)" xlink:href="#CMR17-34"/>
      </g>
     </g>
    </g>
    <g id="xtick_6">
     <g id="line2d_11">
      <path clip-path="url(#p11dfe61731)" d="M 329.261245 224.64 
L 329.261245 7.2 
" style="fill:none;stroke:#b0b0b0;stroke-linecap:square;stroke-width:0.8;"/>
     </g>
     <g id="line2d_12">
      <g>
       <use style="stroke:#000000;stroke-width:0.8;" x="329.261245" xlink:href="#m01682ff18b" y="224.64"/>
      </g>
     </g>
     <g id="text_6">
      <!-- $\mathdefault{5}$ -->
      <g transform="translate(324.235293 247.256305)scale(0.22 -0.22)">
       <defs>
        <path d="M 730 3750 
C 794 3724 1056 3641 1325 3641 
C 1920 3641 2246 3961 2432 4140 
C 2432 4191 2432 4224 2394 4224 
C 2387 4224 2374 4224 2323 4198 
C 2099 4102 1837 4032 1517 4032 
C 1325 4032 1037 4055 723 4191 
C 653 4224 640 4224 634 4224 
C 602 4224 595 4217 595 4090 
L 595 2231 
C 595 2113 595 2080 659 2080 
C 691 2080 704 2093 736 2139 
C 941 2435 1222 2560 1542 2560 
C 1766 2560 2246 2415 2246 1293 
C 2246 1087 2246 716 2054 422 
C 1894 159 1645 25 1370 25 
C 947 25 518 319 403 812 
C 429 806 480 793 506 793 
C 589 793 749 838 749 1036 
C 749 1209 627 1280 506 1280 
C 358 1280 262 1190 262 1011 
C 262 454 704 -128 1382 -128 
C 2042 -128 2669 441 2669 1267 
C 2669 2054 2170 2662 1549 2662 
C 1222 2662 947 2540 730 2304 
L 730 3750 
z
" id="CMR17-35" transform="scale(0.015625)"/>
       </defs>
       <use transform="scale(0.996264)" xlink:href="#CMR17-35"/>
      </g>
     </g>
    </g>
    <g id="xtick_7">
     <g id="line2d_13">
      <path clip-path="url(#p11dfe61731)" d="M 379.988518 224.64 
L 379.988518 7.2 
" style="fill:none;stroke:#b0b0b0;stroke-linecap:square;stroke-width:0.8;"/>
     </g>
     <g id="line2d_14">
      <g>
       <use style="stroke:#000000;stroke-width:0.8;" x="379.988518" xlink:href="#m01682ff18b" y="224.64"/>
      </g>
     </g>
     <g id="text_7">
      <!-- $\mathdefault{6}$ -->
      <g transform="translate(374.962566 247.256305)scale(0.22 -0.22)">
       <defs>
        <path d="M 678 2198 
C 678 3712 1395 4076 1811 4076 
C 1946 4076 2272 4049 2400 3782 
C 2298 3782 2106 3782 2106 3558 
C 2106 3385 2246 3328 2336 3328 
C 2394 3328 2566 3353 2566 3571 
C 2566 3987 2246 4224 1805 4224 
C 1043 4224 243 3411 243 2011 
C 243 257 966 -128 1478 -128 
C 2099 -128 2688 431 2688 1295 
C 2688 2101 2170 2688 1517 2688 
C 1126 2688 838 2430 678 1979 
L 678 2198 
z
M 1478 25 
C 691 25 691 1212 691 1450 
C 691 1914 909 2585 1504 2585 
C 1613 2585 1926 2585 2138 2140 
C 2253 1889 2253 1624 2253 1302 
C 2253 954 2253 696 2118 438 
C 1978 173 1773 25 1478 25 
z
" id="CMR17-36" transform="scale(0.015625)"/>
       </defs>
       <use transform="scale(0.996264)" xlink:href="#CMR17-36"/>
      </g>
     </g>
    </g>
    <g id="text_8">
     <!-- qubit index -->
     <g transform="translate(175.138848 271.54097)scale(0.22 -0.22)">
      <defs>
       <path d="M 3168 -1408 
L 3168 3359 
L 2694 3359 
L 2694 2912 
C 2445 3263 2067 3456 1626 3456 
C 742 3456 166 2733 166 1625 
C 166 543 717 -128 1600 -128 
C 2067 -128 2387 38 2637 403 
L 2637 -1408 
L 3168 -1408 
z
M 1702 2956 
C 2272 2956 2637 2447 2637 1644 
C 2637 880 2266 371 1702 371 
C 1114 371 723 887 723 1663 
C 723 2434 1114 2956 1702 2956 
z
" id="NimbusSanL-Regu-71" transform="scale(0.015625)"/>
       <path d="M 3085 19 
L 3085 3328 
L 2554 3328 
L 2554 1454 
C 2554 780 2195 339 1638 339 
C 1216 339 947 591 947 988 
L 947 3328 
L 416 3328 
L 416 780 
C 416 230 832 -128 1485 -128 
C 1978 -128 2291 44 2605 484 
L 2605 19 
L 3085 19 
z
" id="NimbusSanL-Regu-75" transform="scale(0.015625)"/>
       <path d="M 346 4672 
L 346 19 
L 826 19 
L 826 447 
C 1082 57 1421 -128 1888 -128 
C 2771 -128 3347 594 3347 1702 
C 3347 2784 2797 3456 1914 3456 
C 1453 3456 1126 3283 877 2905 
L 877 4672 
L 346 4672 
z
M 1811 2956 
C 2406 2956 2790 2440 2790 1644 
C 2790 887 2394 371 1811 371 
C 1248 371 877 880 877 1663 
C 877 2447 1248 2956 1811 2956 
z
" id="NimbusSanL-Regu-62" transform="scale(0.015625)"/>
       <path d="M 960 3358 
L 429 3358 
L 429 0 
L 960 0 
L 960 3358 
z
M 960 4672 
L 422 4672 
L 422 3999 
L 960 3999 
L 960 4672 
z
" id="NimbusSanL-Regu-69" transform="scale(0.015625)"/>
       <path d="M 1626 3328 
L 1075 3328 
L 1075 4249 
L 544 4249 
L 544 3328 
L 90 3328 
L 90 2892 
L 544 2892 
L 544 402 
C 544 64 774 -128 1190 -128 
C 1318 -128 1446 -116 1626 -84 
L 1626 364 
C 1555 345 1472 339 1370 339 
C 1139 339 1075 402 1075 634 
L 1075 2892 
L 1626 2892 
L 1626 3328 
z
" id="NimbusSanL-Regu-74" transform="scale(0.015625)"/>
       <path d="M 448 3328 
L 448 0 
L 986 0 
L 986 1835 
C 986 2539 1344 2988 1894 2988 
C 2317 2988 2586 2732 2586 2328 
L 2586 0 
L 3117 0 
L 3117 2539 
C 3117 3097 2701 3456 2054 3456 
C 1555 3456 1235 3263 941 2796 
L 941 3328 
L 448 3328 
z
" id="NimbusSanL-Regu-6e" transform="scale(0.015625)"/>
       <path d="M 3168 4672 
L 2637 4672 
L 2637 2937 
C 2413 3276 2054 3456 1606 3456 
C 736 3456 166 2759 166 1695 
C 166 568 723 -128 1626 -128 
C 2086 -128 2406 44 2694 460 
L 2694 19 
L 3168 19 
L 3168 4672 
z
M 1696 2956 
C 2272 2956 2637 2447 2637 1651 
C 2637 880 2266 371 1702 371 
C 1114 371 723 887 723 1663 
C 723 2440 1114 2956 1696 2956 
z
" id="NimbusSanL-Regu-64" transform="scale(0.015625)"/>
       <path d="M 3283 1484 
C 3283 1998 3245 2311 3149 2565 
C 2931 3123 2419 3456 1792 3456 
C 858 3456 256 2734 256 1619 
C 256 545 838 -128 1779 -128 
C 2547 -128 3078 307 3213 1018 
L 2675 1018 
C 2528 588 2227 364 1798 364 
C 1459 364 1171 514 992 787 
C 864 974 819 1161 813 1484 
L 3283 1484 
z
M 826 1920 
C 870 2552 1248 2963 1786 2963 
C 2310 2963 2714 2519 2714 1959 
C 2714 1946 2714 1933 2707 1920 
L 826 1920 
z
" id="NimbusSanL-Regu-65" transform="scale(0.015625)"/>
       <path d="M 1869 1721 
L 2995 3328 
L 2394 3328 
L 1587 2120 
L 781 3328 
L 173 3328 
L 1293 1695 
L 109 0 
L 717 0 
L 1568 1276 
L 2406 0 
L 3027 0 
L 1869 1721 
z
" id="NimbusSanL-Regu-78" transform="scale(0.015625)"/>
      </defs>
      <use transform="scale(0.996264)" xlink:href="#NimbusSanL-Regu-71"/>
      <use transform="translate(55.391677 0)scale(0.996264)" xlink:href="#NimbusSanL-Regu-75"/>
      <use transform="translate(110.783354 0)scale(0.996264)" xlink:href="#NimbusSanL-Regu-62"/>
      <use transform="translate(166.175031 0)scale(0.996264)" xlink:href="#NimbusSanL-Regu-69"/>
      <use transform="translate(188.291815 0)scale(0.996264)" xlink:href="#NimbusSanL-Regu-74"/>
      <use transform="translate(243.682154 0)scale(0.996264)" xlink:href="#NimbusSanL-Regu-69"/>
      <use transform="translate(265.798939 0)scale(0.996264)" xlink:href="#NimbusSanL-Regu-6e"/>
      <use transform="translate(321.190616 0)scale(0.996264)" xlink:href="#NimbusSanL-Regu-64"/>
      <use transform="translate(376.582293 0)scale(0.996264)" xlink:href="#NimbusSanL-Regu-65"/>
      <use transform="translate(428.985862 0)scale(0.996264)" xlink:href="#NimbusSanL-Regu-78"/>
     </g>
    </g>
   </g>
   <g id="matplotlib.axis_2">
    <g id="ytick_1">
     <g id="line2d_15">
      <path clip-path="url(#p11dfe61731)" d="M 60.4067 182.171952 
L 395.2067 182.171952 
" style="fill:none;stroke:#b0b0b0;stroke-linecap:square;stroke-width:0.8;"/>
     </g>
     <g id="line2d_16">
      <defs>
       <path d="M 0 0 
L -3.5 0 
" id="mc9e00c9b7b" style="stroke:#000000;stroke-width:0.8;"/>
      </defs>
      <g>
       <use style="stroke:#000000;stroke-width:0.8;" x="60.4067" xlink:href="#mc9e00c9b7b" y="182.171952"/>
      </g>
     </g>
     <g id="text_9">
      <!-- $\mathdefault{10}$ -->
      <g transform="translate(33.30289 189.980104)scale(0.22 -0.22)">
       <use transform="scale(0.996264)" xlink:href="#CMR17-31"/>
       <use transform="translate(45.690477 0)scale(0.996264)" xlink:href="#CMR17-30"/>
      </g>
     </g>
    </g>
    <g id="ytick_2">
     <g id="line2d_17">
      <path clip-path="url(#p11dfe61731)" d="M 60.4067 126.669497 
L 395.2067 126.669497 
" style="fill:none;stroke:#b0b0b0;stroke-linecap:square;stroke-width:0.8;"/>
     </g>
     <g id="line2d_18">
      <g>
       <use style="stroke:#000000;stroke-width:0.8;" x="60.4067" xlink:href="#mc9e00c9b7b" y="126.669497"/>
      </g>
     </g>
     <g id="text_10">
      <!-- $\mathdefault{20}$ -->
      <g transform="translate(33.30289 134.47765)scale(0.22 -0.22)">
       <use transform="scale(0.996264)" xlink:href="#CMR17-32"/>
       <use transform="translate(45.690477 0)scale(0.996264)" xlink:href="#CMR17-30"/>
      </g>
     </g>
    </g>
    <g id="ytick_3">
     <g id="line2d_19">
      <path clip-path="url(#p11dfe61731)" d="M 60.4067 71.167043 
L 395.2067 71.167043 
" style="fill:none;stroke:#b0b0b0;stroke-linecap:square;stroke-width:0.8;"/>
     </g>
     <g id="line2d_20">
      <g>
       <use style="stroke:#000000;stroke-width:0.8;" x="60.4067" xlink:href="#mc9e00c9b7b" y="71.167043"/>
      </g>
     </g>
     <g id="text_11">
      <!-- $\mathdefault{30}$ -->
      <g transform="translate(33.30289 78.975195)scale(0.22 -0.22)">
       <use transform="scale(0.996264)" xlink:href="#CMR17-33"/>
       <use transform="translate(45.690477 0)scale(0.996264)" xlink:href="#CMR17-30"/>
      </g>
     </g>
    </g>
    <g id="ytick_4">
     <g id="line2d_21">
      <path clip-path="url(#p11dfe61731)" d="M 60.4067 15.664588 
L 395.2067 15.664588 
" style="fill:none;stroke:#b0b0b0;stroke-linecap:square;stroke-width:0.8;"/>
     </g>
     <g id="line2d_22">
      <g>
       <use style="stroke:#000000;stroke-width:0.8;" x="60.4067" xlink:href="#mc9e00c9b7b" y="15.664588"/>
      </g>
     </g>
     <g id="text_12">
      <!-- $\mathdefault{40}$ -->
      <g transform="translate(33.30289 23.472741)scale(0.22 -0.22)">
       <use transform="scale(0.996264)" xlink:href="#CMR17-34"/>
       <use transform="translate(45.690477 0)scale(0.996264)" xlink:href="#CMR17-30"/>
      </g>
     </g>
    </g>
    <g id="text_13">
     <!-- $\chi^2$ -->
     <g transform="translate(24.634529 126.398072)rotate(-90)scale(0.22 -0.22)">
      <defs>
       <path d="M 2112 1035 
C 1939 1562 1978 1511 1818 1956 
C 1619 2503 1568 2547 1478 2636 
C 1363 2739 1146 2816 922 2816 
C 563 2816 390 2484 390 2401 
C 390 2363 422 2344 461 2344 
C 512 2344 525 2376 531 2401 
C 627 2649 826 2687 883 2687 
C 1069 2687 1248 2230 1363 1925 
C 1517 1537 1594 1270 1766 653 
L 256 -1050 
C 198 -1120 198 -1146 198 -1152 
C 198 -1204 230 -1216 256 -1216 
C 282 -1216 301 -1204 320 -1184 
C 499 -1006 896 -535 1062 -345 
L 1805 494 
C 2118 -479 2118 -491 2214 -727 
C 2317 -968 2451 -1280 2995 -1280 
C 3360 -1280 3526 -955 3526 -866 
C 3526 -822 3488 -809 3456 -809 
C 3405 -809 3398 -835 3379 -886 
C 3309 -1064 3142 -1152 3040 -1152 
C 2957 -1152 2854 -1152 2573 -447 
C 2406 -21 2259 487 2150 882 
L 3667 2598 
C 3718 2655 3725 2662 3725 2687 
C 3725 2732 3693 2752 3661 2752 
C 3642 2752 3622 2752 3558 2681 
L 2112 1035 
z
" id="CMMI12-1f" transform="scale(0.015625)"/>
      </defs>
      <use transform="scale(0.996264)" xlink:href="#CMMI12-1f"/>
      <use transform="translate(61.112959 36.153639)scale(0.697382)" xlink:href="#CMR17-32"/>
     </g>
    </g>
   </g>
   <g id="LineCollection_1">
    <path clip-path="url(#p11dfe61731)" d="M 75.624882 156.826754 
L 75.624882 90.87551 
" style="fill:none;stroke:#1f77b4;stroke-width:1.5;"/>
    <path clip-path="url(#p11dfe61731)" d="M 126.352154 133.098661 
L 126.352154 113.260862 
" style="fill:none;stroke:#1f77b4;stroke-width:1.5;"/>
    <path clip-path="url(#p11dfe61731)" d="M 177.079427 187.823371 
L 177.079427 97.885241 
" style="fill:none;stroke:#1f77b4;stroke-width:1.5;"/>
    <path clip-path="url(#p11dfe61731)" d="M 227.8067 214.756364 
L 227.8067 34.133356 
" style="fill:none;stroke:#1f77b4;stroke-width:1.5;"/>
    <path clip-path="url(#p11dfe61731)" d="M 278.533973 176.221969 
L 278.533973 26.378728 
" style="fill:none;stroke:#1f77b4;stroke-width:1.5;"/>
    <path clip-path="url(#p11dfe61731)" d="M 329.261245 171.661499 
L 329.261245 94.556195 
" style="fill:none;stroke:#1f77b4;stroke-width:1.5;"/>
    <path clip-path="url(#p11dfe61731)" d="M 379.988518 169.234507 
L 379.988518 17.083636 
" style="fill:none;stroke:#1f77b4;stroke-width:1.5;"/>
   </g>
   <g id="LineCollection_2">
    <path clip-path="url(#p11dfe61731)" d="M 75.624882 21.929445 
L 379.988518 21.929445 
" style="fill:none;stroke:#000000;stroke-width:1.5;"/>
   </g>
   <g id="line2d_23">
    <defs>
     <path d="M 5 0 
L -5 -0 
" id="m7320a81049" style="stroke:#1f77b4;"/>
    </defs>
    <g clip-path="url(#p11dfe61731)">
     <use style="fill:#1f77b4;stroke:#1f77b4;" x="75.624882" xlink:href="#m7320a81049" y="156.826754"/>
     <use style="fill:#1f77b4;stroke:#1f77b4;" x="126.352154" xlink:href="#m7320a81049" y="133.098661"/>
     <use style="fill:#1f77b4;stroke:#1f77b4;" x="177.079427" xlink:href="#m7320a81049" y="187.823371"/>
     <use style="fill:#1f77b4;stroke:#1f77b4;" x="227.8067" xlink:href="#m7320a81049" y="214.756364"/>
     <use style="fill:#1f77b4;stroke:#1f77b4;" x="278.533973" xlink:href="#m7320a81049" y="176.221969"/>
     <use style="fill:#1f77b4;stroke:#1f77b4;" x="329.261245" xlink:href="#m7320a81049" y="171.661499"/>
     <use style="fill:#1f77b4;stroke:#1f77b4;" x="379.988518" xlink:href="#m7320a81049" y="169.234507"/>
    </g>
   </g>
   <g id="line2d_24">
    <g clip-path="url(#p11dfe61731)">
     <use style="fill:#1f77b4;stroke:#1f77b4;" x="75.624882" xlink:href="#m7320a81049" y="90.87551"/>
     <use style="fill:#1f77b4;stroke:#1f77b4;" x="126.352154" xlink:href="#m7320a81049" y="113.260862"/>
     <use style="fill:#1f77b4;stroke:#1f77b4;" x="177.079427" xlink:href="#m7320a81049" y="97.885241"/>
     <use style="fill:#1f77b4;stroke:#1f77b4;" x="227.8067" xlink:href="#m7320a81049" y="34.133356"/>
     <use style="fill:#1f77b4;stroke:#1f77b4;" x="278.533973" xlink:href="#m7320a81049" y="26.378728"/>
     <use style="fill:#1f77b4;stroke:#1f77b4;" x="329.261245" xlink:href="#m7320a81049" y="94.556195"/>
     <use style="fill:#1f77b4;stroke:#1f77b4;" x="379.988518" xlink:href="#m7320a81049" y="17.083636"/>
    </g>
   </g>
   <g id="line2d_25">
    <path clip-path="url(#p11dfe61731)" d="M 75.624882 123.851132 
L 126.352154 123.179761 
L 177.079427 142.854306 
L 227.8067 124.44486 
L 278.533973 101.300348 
L 329.261245 133.108847 
L 379.988518 93.159072 
" style="fill:none;stroke:#1f77b4;stroke-linecap:square;stroke-width:1.5;"/>
    <defs>
     <path d="M 0 3 
C 0.795609 3 1.55874 2.683901 2.12132 2.12132 
C 2.683901 1.55874 3 0.795609 3 0 
C 3 -0.795609 2.683901 -1.55874 2.12132 -2.12132 
C 1.55874 -2.683901 0.795609 -3 0 -3 
C -0.795609 -3 -1.55874 -2.683901 -2.12132 -2.12132 
C -2.683901 -1.55874 -3 -0.795609 -3 0 
C -3 0.795609 -2.683901 1.55874 -2.12132 2.12132 
C -1.55874 2.683901 -0.795609 3 0 3 
z
" id="me092b95676" style="stroke:#1f77b4;"/>
    </defs>
    <g clip-path="url(#p11dfe61731)">
     <use style="fill:#1f77b4;stroke:#1f77b4;" x="75.624882" xlink:href="#me092b95676" y="123.851132"/>
     <use style="fill:#1f77b4;stroke:#1f77b4;" x="126.352154" xlink:href="#me092b95676" y="123.179761"/>
     <use style="fill:#1f77b4;stroke:#1f77b4;" x="177.079427" xlink:href="#me092b95676" y="142.854306"/>
     <use style="fill:#1f77b4;stroke:#1f77b4;" x="227.8067" xlink:href="#me092b95676" y="124.44486"/>
     <use style="fill:#1f77b4;stroke:#1f77b4;" x="278.533973" xlink:href="#me092b95676" y="101.300348"/>
     <use style="fill:#1f77b4;stroke:#1f77b4;" x="329.261245" xlink:href="#me092b95676" y="133.108847"/>
     <use style="fill:#1f77b4;stroke:#1f77b4;" x="379.988518" xlink:href="#me092b95676" y="93.159072"/>
    </g>
   </g>
   <g id="patch_3">
    <path d="M 60.4067 224.64 
L 60.4067 7.2 
" style="fill:none;stroke:#000000;stroke-linecap:square;stroke-linejoin:miter;stroke-width:0.8;"/>
   </g>
   <g id="patch_4">
    <path d="M 395.2067 224.64 
L 395.2067 7.2 
" style="fill:none;stroke:#000000;stroke-linecap:square;stroke-linejoin:miter;stroke-width:0.8;"/>
   </g>
   <g id="patch_5">
    <path d="M 60.4067 224.64 
L 395.2067 224.64 
" style="fill:none;stroke:#000000;stroke-linecap:square;stroke-linejoin:miter;stroke-width:0.8;"/>
   </g>
   <g id="patch_6">
    <path d="M 60.4067 7.2 
L 395.2067 7.2 
" style="fill:none;stroke:#000000;stroke-linecap:square;stroke-linejoin:miter;stroke-width:0.8;"/>
   </g>
  </g>
 </g>
 <defs>
  <clipPath id="p11dfe61731">
   <rect height="217.44" width="334.8" x="60.4067" y="7.2"/>
  </clipPath>
 </defs>
</svg>
