<?xml version="1.0" encoding="utf-8" standalone="no"?>
<!DOCTYPE svg PUBLIC "-//W3C//DTD SVG 1.1//EN"
  "http://www.w3.org/Graphics/SVG/1.1/DTD/svg11.dtd">
<svg height="276.928171pt" version="1.1" viewBox="0 0 588.657435 276.928171" width="588.657435pt" xmlns="http://www.w3.org/2000/svg" xmlns:xlink="http://www.w3.org/1999/xlink">
 <metadata>
  <rdf:RDF xmlns:cc="http://creativecommons.org/ns#" xmlns:dc="http://purl.org/dc/elements/1.1/" xmlns:rdf="http://www.w3.org/1999/02/22-rdf-syntax-ns#">
   <cc:Work>
    <dc:type rdf:resource="http://purl.org/dc/dcmitype/StillImage"/>
    <dc:date>2022-03-16T16:20:20.085194</dc:date>
    <dc:format>image/svg+xml</dc:format>
    <dc:creator>
     <cc:Agent>
      <dc:title>Matplotlib v3.4.2, https://matplotlib.org/</dc:title>
     </cc:Agent>
    </dc:creator>
   </cc:Work>
  </rdf:RDF>
 </metadata>
 <defs>
  <style type="text/css">*{stroke-linecap:butt;stroke-linejoin:round;}</style>
 </defs>
 <g id="figure_1">
  <g id="patch_1">
   <path d="M 0 276.928171 
L 588.657435 276.928171 
L 588.657435 0 
L 0 0 
z
" style="fill:none;"/>
  </g>
  <g id="patch_2">
   <path d="M 7.2 260.836364 
L 260.836364 260.836364 
L 260.836364 7.2 
L 7.2 7.2 
z
" style="fill:#ffffff;"/>
  </g>
  <g id="pane3d_1">
   <g id="patch_3">
    <path d="M 26.351295 198.297765 
L 110.110305 128.089301 
L 108.945975 26.836146 
L 21.178664 90.884732 
" style="fill:#f2f2f2;opacity:0.5;stroke:#f2f2f2;stroke-linejoin:miter;"/>
   </g>
  </g>
  <g id="pane3d_2">
   <g id="patch_4">
    <path d="M 110.110305 128.089301 
L 244.513632 167.155042 
L 249.310013 62.414338 
L 108.945975 26.836146 
" style="fill:#e6e6e6;opacity:0.5;stroke:#e6e6e6;stroke-linejoin:miter;"/>
   </g>
  </g>
  <g id="pane3d_3">
   <g id="patch_5">
    <path d="M 26.351295 198.297765 
L 168.825385 244.829803 
L 244.513632 167.155042 
L 110.110305 128.089301 
" style="fill:#ececec;opacity:0.5;stroke:#ececec;stroke-linejoin:miter;"/>
   </g>
  </g>
  <g id="axis3d_1">
   <g id="line2d_1">
    <path d="M 26.351295 198.297765 
L 168.825385 244.829803 
" style="fill:none;stroke:#000000;stroke-linecap:square;stroke-width:0.8;"/>
   </g>
   <g id="Line3DCollection_1">
    <path d="M 47.537457 205.217165 
L 130.171564 133.920317 
L 129.85934 32.137074 
" style="fill:none;stroke:#b0b0b0;stroke-width:0.8;"/>
    <path d="M 79.459419 215.642878 
L 160.34882 142.691654 
L 161.343199 40.117315 
" style="fill:none;stroke:#b0b0b0;stroke-width:0.8;"/>
    <path d="M 112.159199 226.322626 
L 191.199507 151.658731 
L 193.560505 48.283463 
" style="fill:none;stroke:#b0b0b0;stroke-width:0.8;"/>
    <path d="M 145.665574 237.265808 
L 222.746419 160.828173 
L 226.53719 56.642091 
" style="fill:none;stroke:#b0b0b0;stroke-width:0.8;"/>
   </g>
   <g id="xtick_1">
    <g id="line2d_2">
     <path d="M 48.257308 204.596076 
L 46.094651 206.462021 
" style="fill:none;stroke:#000000;stroke-linecap:square;stroke-width:0.8;"/>
    </g>
    <g id="text_1">
     <!-- $|00\rangle$ -->
     <g transform="translate(26.90287 232.97704)scale(0.16 -0.16)">
      <defs>
       <path d="M 1018 4569 
C 1018 4684 1018 4800 890 4800 
C 762 4800 762 4684 762 4569 
L 762 -1370 
C 762 -1485 762 -1600 890 -1600 
C 1018 -1600 1018 -1485 1018 -1370 
L 1018 4569 
z
" id="CMSY10-6a" transform="scale(0.015625)"/>
       <path d="M 2688 2038 
C 2688 2430 2682 3099 2413 3613 
C 2176 4063 1798 4224 1466 4224 
C 1158 4224 768 4082 525 3620 
C 269 3137 243 2539 243 2038 
C 243 1671 250 1112 448 623 
C 723 -39 1216 -128 1466 -128 
C 1760 -128 2208 -7 2470 604 
C 2662 1048 2688 1568 2688 2038 
z
M 1466 -26 
C 1056 -26 813 328 723 816 
C 653 1196 653 1749 653 2109 
C 653 2604 653 3015 736 3407 
C 858 3954 1216 4121 1466 4121 
C 1728 4121 2067 3947 2189 3420 
C 2272 3054 2278 2623 2278 2109 
C 2278 1691 2278 1176 2202 797 
C 2067 96 1690 -26 1466 -26 
z
" id="CMR17-30" transform="scale(0.015625)"/>
       <path d="M 1747 1491 
C 1779 1568 1779 1580 1779 1600 
C 1779 1619 1779 1632 1747 1709 
L 627 4653 
C 589 4761 550 4800 480 4800 
C 410 4800 352 4742 352 4672 
C 352 4653 352 4640 384 4569 
L 1517 1600 
L 384 -1357 
C 352 -1428 352 -1440 352 -1472 
C 352 -1543 410 -1600 480 -1600 
C 563 -1600 589 -1536 614 -1472 
L 1747 1491 
z
" id="CMSY10-69" transform="scale(0.015625)"/>
      </defs>
      <use transform="scale(0.996264)" xlink:href="#CMSY10-6a"/>
      <use transform="translate(27.674085 0)scale(0.996264)" xlink:href="#CMR17-30"/>
      <use transform="translate(73.364562 0)scale(0.996264)" xlink:href="#CMR17-30"/>
      <use transform="translate(119.055039 0)scale(0.996264)" xlink:href="#CMSY10-69"/>
     </g>
    </g>
   </g>
   <g id="xtick_2">
    <g id="line2d_3">
     <path d="M 80.164764 215.006753 
L 78.045652 216.917904 
" style="fill:none;stroke:#000000;stroke-linecap:square;stroke-width:0.8;"/>
    </g>
    <g id="text_2">
     <!-- $|01\rangle$ -->
     <g transform="translate(58.860622 243.635097)scale(0.16 -0.16)">
      <defs>
       <path d="M 1702 4083 
C 1702 4217 1696 4224 1606 4224 
C 1357 3927 979 3833 621 3820 
C 602 3820 570 3820 563 3808 
C 557 3795 557 3782 557 3648 
C 755 3648 1088 3686 1344 3839 
L 1344 467 
C 1344 243 1331 166 781 166 
L 589 166 
L 589 0 
C 896 6 1216 12 1523 12 
C 1830 12 2150 6 2458 0 
L 2458 166 
L 2266 166 
C 1715 166 1702 236 1702 467 
L 1702 4083 
z
" id="CMR17-31" transform="scale(0.015625)"/>
      </defs>
      <use transform="scale(0.996264)" xlink:href="#CMSY10-6a"/>
      <use transform="translate(27.674085 0)scale(0.996264)" xlink:href="#CMR17-30"/>
      <use transform="translate(73.364562 0)scale(0.996264)" xlink:href="#CMR17-31"/>
      <use transform="translate(119.055039 0)scale(0.996264)" xlink:href="#CMSY10-69"/>
     </g>
    </g>
   </g>
   <g id="xtick_3">
    <g id="line2d_4">
     <path d="M 112.849112 225.670913 
L 110.776325 227.628931 
" style="fill:none;stroke:#000000;stroke-linecap:square;stroke-width:0.8;"/>
    </g>
    <g id="text_3">
     <!-- $|10\rangle$ -->
     <g transform="translate(91.600189 254.553893)scale(0.16 -0.16)">
      <use transform="scale(0.996264)" xlink:href="#CMSY10-6a"/>
      <use transform="translate(27.674085 0)scale(0.996264)" xlink:href="#CMR17-31"/>
      <use transform="translate(73.364562 0)scale(0.996264)" xlink:href="#CMR17-30"/>
      <use transform="translate(119.055039 0)scale(0.996264)" xlink:href="#CMSY10-69"/>
     </g>
    </g>
   </g>
   <g id="xtick_4">
    <g id="line2d_5">
     <path d="M 146.339076 236.597926 
L 144.315558 238.604559 
" style="fill:none;stroke:#000000;stroke-linecap:square;stroke-width:0.8;"/>
    </g>
    <g id="text_4">
     <!-- $|11\rangle$ -->
     <g transform="translate(125.150617 265.743115)scale(0.16 -0.16)">
      <use transform="scale(0.996264)" xlink:href="#CMSY10-6a"/>
      <use transform="translate(27.674085 0)scale(0.996264)" xlink:href="#CMR17-31"/>
      <use transform="translate(73.364562 0)scale(0.996264)" xlink:href="#CMR17-31"/>
      <use transform="translate(119.055039 0)scale(0.996264)" xlink:href="#CMSY10-69"/>
     </g>
    </g>
   </g>
  </g>
  <g id="axis3d_2">
   <g id="line2d_6">
    <path d="M 244.513632 167.155042 
L 168.825385 244.829803 
" style="fill:none;stroke:#000000;stroke-linecap:square;stroke-width:0.8;"/>
   </g>
   <g id="Line3DCollection_2">
    <path d="M 27.247991 86.455614 
L 32.122998 193.459808 
L 174.062426 239.45531 
" style="fill:none;stroke:#b0b0b0;stroke-width:0.8;"/>
    <path d="M 54.106724 66.855333 
L 57.701022 172.019802 
L 197.232652 215.676959 
" style="fill:none;stroke:#b0b0b0;stroke-width:0.8;"/>
    <path d="M 79.592766 48.256781 
L 82.026808 151.629446 
L 219.210597 193.122181 
" style="fill:none;stroke:#b0b0b0;stroke-width:0.8;"/>
    <path d="M 103.808727 30.585075 
L 105.190118 132.2135 
L 240.085979 171.698903 
" style="fill:none;stroke:#b0b0b0;stroke-width:0.8;"/>
   </g>
   <g id="xtick_5">
    <g id="line2d_7">
     <path d="M 172.866299 239.067705 
L 176.457775 240.231524 
" style="fill:none;stroke:#000000;stroke-linecap:square;stroke-width:0.8;"/>
    </g>
    <g id="text_5">
     <!-- $\langle 00|$ -->
     <g transform="translate(173.826027 264.834166)scale(0.16 -0.16)">
      <defs>
       <path d="M 2099 4557 
C 2131 4627 2131 4640 2131 4672 
C 2131 4742 2074 4800 2003 4800 
C 1946 4800 1901 4768 1856 4653 
L 736 1715 
C 723 1677 704 1638 704 1600 
C 704 1580 704 1568 736 1491 
L 1856 -1447 
C 1882 -1517 1914 -1600 2003 -1600 
C 2074 -1600 2131 -1543 2131 -1472 
C 2131 -1453 2131 -1440 2099 -1370 
L 966 1600 
L 2099 4557 
z
" id="CMSY10-68" transform="scale(0.015625)"/>
      </defs>
      <use transform="scale(0.996264)" xlink:href="#CMSY10-68"/>
      <use transform="translate(38.743734 0)scale(0.996264)" xlink:href="#CMR17-30"/>
      <use transform="translate(84.434211 0)scale(0.996264)" xlink:href="#CMR17-30"/>
      <use transform="translate(130.124688 0)scale(0.996264)" xlink:href="#CMSY10-6a"/>
     </g>
    </g>
   </g>
   <g id="xtick_6">
    <g id="line2d_8">
     <path d="M 196.058388 215.309551 
L 199.584137 216.4127 
" style="fill:none;stroke:#000000;stroke-linecap:square;stroke-width:0.8;"/>
    </g>
    <g id="text_6">
     <!-- $\langle 01|$ -->
     <g transform="translate(196.670052 240.686559)scale(0.16 -0.16)">
      <use transform="scale(0.996264)" xlink:href="#CMSY10-68"/>
      <use transform="translate(38.743734 0)scale(0.996264)" xlink:href="#CMR17-30"/>
      <use transform="translate(84.434211 0)scale(0.996264)" xlink:href="#CMR17-31"/>
      <use transform="translate(130.124688 0)scale(0.996264)" xlink:href="#CMSY10-6a"/>
     </g>
    </g>
   </g>
   <g id="xtick_7">
    <g id="line2d_9">
     <path d="M 218.057558 192.773432 
L 221.519502 193.820535 
" style="fill:none;stroke:#000000;stroke-linecap:square;stroke-width:0.8;"/>
    </g>
    <g id="text_7">
     <!-- $\langle 10|$ -->
     <g transform="translate(218.337881 217.782267)scale(0.16 -0.16)">
      <use transform="scale(0.996264)" xlink:href="#CMSY10-68"/>
      <use transform="translate(38.743734 0)scale(0.996264)" xlink:href="#CMR17-31"/>
      <use transform="translate(84.434211 0)scale(0.996264)" xlink:href="#CMR17-30"/>
      <use transform="translate(130.124688 0)scale(0.996264)" xlink:href="#CMSY10-6a"/>
     </g>
    </g>
   </g>
   <g id="xtick_8">
    <g id="line2d_10">
     <path d="M 238.953541 171.367426 
L 242.353564 172.362648 
" style="fill:none;stroke:#000000;stroke-linecap:square;stroke-width:0.8;"/>
    </g>
    <g id="text_8">
     <!-- $\langle 11|$ -->
     <g transform="translate(238.918075 196.027676)scale(0.16 -0.16)">
      <use transform="scale(0.996264)" xlink:href="#CMSY10-68"/>
      <use transform="translate(38.743734 0)scale(0.996264)" xlink:href="#CMR17-31"/>
      <use transform="translate(84.434211 0)scale(0.996264)" xlink:href="#CMR17-31"/>
      <use transform="translate(130.124688 0)scale(0.996264)" xlink:href="#CMSY10-6a"/>
     </g>
    </g>
   </g>
  </g>
  <g id="axis3d_3">
   <g id="line2d_11">
    <path d="M 244.513632 167.155042 
L 249.310013 62.414338 
" style="fill:none;stroke:#000000;stroke-linecap:square;stroke-width:0.8;"/>
   </g>
   <g id="Line3DCollection_3">
    <path d="M 244.605525 165.148326 
L 110.087952 126.145382 
L 26.252356 196.24325 
" style="fill:none;stroke:#b0b0b0;stroke-width:0.8;"/>
    <path d="M 245.495794 145.707134 
L 109.871483 107.320715 
L 25.293507 176.332117 
" style="fill:none;stroke:#b0b0b0;stroke-width:0.8;"/>
    <path d="M 246.400979 125.940206 
L 109.651562 88.19577 
L 24.317977 156.074599 
" style="fill:none;stroke:#b0b0b0;stroke-width:0.8;"/>
    <path d="M 247.321458 105.839288 
L 109.428104 68.763307 
L 23.325327 135.461578 
" style="fill:none;stroke:#b0b0b0;stroke-width:0.8;"/>
    <path d="M 248.257623 85.395841 
L 109.201024 49.015847 
L 22.315102 114.483613 
" style="fill:none;stroke:#b0b0b0;stroke-width:0.8;"/>
    <path d="M 249.209878 64.601035 
L 108.970233 28.945668 
L 21.286832 93.130925 
" style="fill:none;stroke:#b0b0b0;stroke-width:0.8;"/>
   </g>
   <g id="xtick_9">
    <g id="line2d_12">
     <path d="M 243.476507 164.820971 
L 246.866249 165.803816 
" style="fill:none;stroke:#000000;stroke-linecap:square;stroke-width:0.8;"/>
    </g>
    <g id="text_9">
     <!-- $\mathdefault{0.00}$ -->
     <g transform="translate(254.011088 169.646122)scale(0.1 -0.1)">
      <defs>
       <path d="M 1178 307 
C 1178 492 1024 620 870 620 
C 685 620 557 467 557 313 
C 557 128 710 0 864 0 
C 1050 0 1178 153 1178 307 
z
" id="CMMI12-3a" transform="scale(0.015625)"/>
      </defs>
      <use transform="scale(0.996264)" xlink:href="#CMR17-30"/>
      <use transform="translate(45.690477 0)scale(0.996264)" xlink:href="#CMMI12-3a"/>
      <use transform="translate(72.787654 0)scale(0.996264)" xlink:href="#CMR17-30"/>
      <use transform="translate(118.478131 0)scale(0.996264)" xlink:href="#CMR17-30"/>
     </g>
    </g>
   </g>
   <g id="xtick_10">
    <g id="line2d_13">
     <path d="M 244.357044 145.384828 
L 247.776027 146.35252 
" style="fill:none;stroke:#000000;stroke-linecap:square;stroke-width:0.8;"/>
    </g>
    <g id="text_10">
     <!-- $\mathdefault{0.02}$ -->
     <g transform="translate(255.049762 150.245099)scale(0.1 -0.1)">
      <defs>
       <path d="M 2669 990 
L 2554 990 
C 2490 537 2438 460 2413 422 
C 2381 371 1920 371 1830 371 
L 602 371 
C 832 620 1280 1073 1824 1596 
C 2214 1966 2669 2400 2669 3033 
C 2669 3788 2067 4224 1395 4224 
C 691 4224 262 3603 262 3027 
C 262 2777 448 2745 525 2745 
C 589 2745 781 2783 781 3007 
C 781 3206 614 3264 525 3264 
C 486 3264 448 3257 422 3244 
C 544 3788 915 4057 1306 4057 
C 1862 4057 2227 3616 2227 3033 
C 2227 2477 1901 1998 1536 1583 
L 262 147 
L 262 0 
L 2515 0 
L 2669 990 
z
" id="CMR17-32" transform="scale(0.015625)"/>
      </defs>
      <use transform="scale(0.996264)" xlink:href="#CMR17-30"/>
      <use transform="translate(45.690477 0)scale(0.996264)" xlink:href="#CMMI12-3a"/>
      <use transform="translate(72.787654 0)scale(0.996264)" xlink:href="#CMR17-30"/>
      <use transform="translate(118.478131 0)scale(0.996264)" xlink:href="#CMR17-32"/>
     </g>
    </g>
   </g>
   <g id="xtick_11">
    <g id="line2d_14">
     <path d="M 245.252328 125.623165 
L 248.70106 126.575056 
" style="fill:none;stroke:#000000;stroke-linecap:square;stroke-width:0.8;"/>
    </g>
    <g id="text_11">
     <!-- $\mathdefault{0.04}$ -->
     <g transform="translate(256.105782 130.520055)scale(0.1 -0.1)">
      <defs>
       <path d="M 2150 4147 
C 2150 4281 2144 4288 2029 4288 
L 128 1254 
L 128 1088 
L 1779 1088 
L 1779 460 
C 1779 230 1766 166 1318 166 
L 1197 166 
L 1197 0 
C 1402 12 1747 12 1965 12 
C 2182 12 2528 12 2733 0 
L 2733 166 
L 2611 166 
C 2163 166 2150 230 2150 460 
L 2150 1088 
L 2803 1088 
L 2803 1254 
L 2150 1254 
L 2150 4147 
z
M 1798 3723 
L 1798 1254 
L 256 1254 
L 1798 3723 
z
" id="CMR17-34" transform="scale(0.015625)"/>
      </defs>
      <use transform="scale(0.996264)" xlink:href="#CMR17-30"/>
      <use transform="translate(45.690477 0)scale(0.996264)" xlink:href="#CMMI12-3a"/>
      <use transform="translate(72.787654 0)scale(0.996264)" xlink:href="#CMR17-30"/>
      <use transform="translate(118.478131 0)scale(0.996264)" xlink:href="#CMR17-34"/>
     </g>
    </g>
   </g>
   <g id="xtick_12">
    <g id="line2d_15">
     <path d="M 246.162734 105.527736 
L 249.641736 106.463151 
" style="fill:none;stroke:#000000;stroke-linecap:square;stroke-width:0.8;"/>
    </g>
    <g id="text_12">
     <!-- $\mathdefault{0.06}$ -->
     <g transform="translate(257.179588 110.462803)scale(0.1 -0.1)">
      <defs>
       <path d="M 678 2198 
C 678 3712 1395 4076 1811 4076 
C 1946 4076 2272 4049 2400 3782 
C 2298 3782 2106 3782 2106 3558 
C 2106 3385 2246 3328 2336 3328 
C 2394 3328 2566 3353 2566 3571 
C 2566 3987 2246 4224 1805 4224 
C 1043 4224 243 3411 243 2011 
C 243 257 966 -128 1478 -128 
C 2099 -128 2688 431 2688 1295 
C 2688 2101 2170 2688 1517 2688 
C 1126 2688 838 2430 678 1979 
L 678 2198 
z
M 1478 25 
C 691 25 691 1212 691 1450 
C 691 1914 909 2585 1504 2585 
C 1613 2585 1926 2585 2138 2140 
C 2253 1889 2253 1624 2253 1302 
C 2253 954 2253 696 2118 438 
C 1978 173 1773 25 1478 25 
z
" id="CMR17-36" transform="scale(0.015625)"/>
      </defs>
      <use transform="scale(0.996264)" xlink:href="#CMR17-30"/>
      <use transform="translate(45.690477 0)scale(0.996264)" xlink:href="#CMMI12-3a"/>
      <use transform="translate(72.787654 0)scale(0.996264)" xlink:href="#CMR17-30"/>
      <use transform="translate(118.478131 0)scale(0.996264)" xlink:href="#CMR17-36"/>
     </g>
    </g>
   </g>
   <g id="xtick_13">
    <g id="line2d_16">
     <path d="M 247.088646 85.090013 
L 250.598455 86.008249 
" style="fill:none;stroke:#000000;stroke-linecap:square;stroke-width:0.8;"/>
    </g>
    <g id="text_13">
     <!-- $\mathdefault{0.08}$ -->
     <g transform="translate(258.271633 90.06488)scale(0.1 -0.1)">
      <defs>
       <path d="M 1741 2289 
C 2144 2494 2554 2803 2554 3298 
C 2554 3884 1990 4224 1472 4224 
C 890 4224 378 3800 378 3215 
C 378 3054 416 2777 666 2533 
C 730 2469 998 2276 1171 2154 
C 883 2006 211 1652 211 945 
C 211 282 838 -128 1459 -128 
C 2144 -128 2720 366 2720 1022 
C 2720 1607 2330 1877 2074 2051 
L 1741 2289 
z
M 902 2855 
C 851 2887 595 3086 595 3388 
C 595 3781 998 4076 1459 4076 
C 1965 4076 2336 3716 2336 3298 
C 2336 2700 1670 2359 1638 2359 
C 1632 2359 1626 2359 1574 2398 
L 902 2855 
z
M 2080 1536 
C 2176 1466 2483 1253 2483 861 
C 2483 385 2010 25 1472 25 
C 890 25 448 443 448 951 
C 448 1459 838 1884 1280 2083 
L 2080 1536 
z
" id="CMR17-38" transform="scale(0.015625)"/>
      </defs>
      <use transform="scale(0.996264)" xlink:href="#CMR17-30"/>
      <use transform="translate(45.690477 0)scale(0.996264)" xlink:href="#CMMI12-3a"/>
      <use transform="translate(72.787654 0)scale(0.996264)" xlink:href="#CMR17-30"/>
      <use transform="translate(118.478131 0)scale(0.996264)" xlink:href="#CMR17-38"/>
     </g>
    </g>
   </g>
   <g id="xtick_14">
    <g id="line2d_17">
     <path d="M 248.030466 64.301175 
L 251.57163 65.201501 
" style="fill:none;stroke:#000000;stroke-linecap:square;stroke-width:0.8;"/>
    </g>
    <g id="text_14">
     <!-- $\mathdefault{0.10}$ -->
     <g transform="translate(259.382385 69.31753)scale(0.1 -0.1)">
      <use transform="scale(0.996264)" xlink:href="#CMR17-30"/>
      <use transform="translate(45.690477 0)scale(0.996264)" xlink:href="#CMMI12-3a"/>
      <use transform="translate(72.787654 0)scale(0.996264)" xlink:href="#CMR17-31"/>
      <use transform="translate(118.478131 0)scale(0.996264)" xlink:href="#CMR17-30"/>
     </g>
    </g>
   </g>
  </g>
  <g id="axes_1">
   <g id="line2d_18">
    <path clip-path="url(#p25f2649868)" style="fill:none;stroke:#ff0000;stroke-linecap:square;stroke-width:1.5;"/>
    <defs>
     <path d="M 3 0 
L -3 -0 
" id="maf65b9bb3f" style="stroke:#ff0000;"/>
    </defs>
    <g clip-path="url(#p25f2649868)"/>
   </g>
   <g id="line2d_19">
    <path clip-path="url(#p25f2649868)" d="M 84.799457 199.990364 
L 85.05056 210.985558 
" style="fill:none;stroke:#ff0000;stroke-linecap:square;stroke-width:1.5;"/>
    <g clip-path="url(#p25f2649868)">
     <use style="fill:#ff0000;stroke:#ff0000;" x="84.799457" xlink:href="#maf65b9bb3f" y="199.990364"/>
     <use style="fill:#ff0000;stroke:#ff0000;" x="85.05056" xlink:href="#maf65b9bb3f" y="210.985558"/>
    </g>
   </g>
   <g id="line2d_20">
    <path clip-path="url(#p25f2649868)" d="M 117.526398 210.467284 
L 117.622556 221.545056 
" style="fill:none;stroke:#ff0000;stroke-linecap:square;stroke-width:1.5;"/>
    <g clip-path="url(#p25f2649868)">
     <use style="fill:#ff0000;stroke:#ff0000;" x="117.526398" xlink:href="#maf65b9bb3f" y="210.467284"/>
     <use style="fill:#ff0000;stroke:#ff0000;" x="117.622556" xlink:href="#maf65b9bb3f" y="221.545056"/>
    </g>
   </g>
   <g id="line2d_21">
    <path clip-path="url(#p25f2649868)" d="M 151.096087 215.090798 
L 151.066661 220.027702 
" style="fill:none;stroke:#ff0000;stroke-linecap:square;stroke-width:1.5;"/>
    <g clip-path="url(#p25f2649868)">
     <use style="fill:#ff0000;stroke:#ff0000;" x="151.096087" xlink:href="#maf65b9bb3f" y="215.090798"/>
     <use style="fill:#ff0000;stroke:#ff0000;" x="151.066661" xlink:href="#maf65b9bb3f" y="220.027702"/>
    </g>
   </g>
   <g id="line2d_22">
    <path clip-path="url(#p25f2649868)" d="M 78.1376 165.054558 
L 78.501404 179.409602 
" style="fill:none;stroke:#0000ff;stroke-linecap:square;stroke-width:1.5;"/>
    <defs>
     <path d="M 3 0 
L -3 -0 
" id="mbe466e1aa1" style="stroke:#0000ff;"/>
    </defs>
    <g clip-path="url(#p25f2649868)">
     <use style="fill:#0000ff;stroke:#0000ff;" x="78.1376" xlink:href="#mbe466e1aa1" y="165.054558"/>
     <use style="fill:#0000ff;stroke:#0000ff;" x="78.501404" xlink:href="#mbe466e1aa1" y="179.409602"/>
    </g>
   </g>
   <g id="line2d_23">
    <path clip-path="url(#p25f2649868)" d="M 109.662185 179.593312 
L 109.800527 191.17341 
" style="fill:none;stroke:#0000ff;stroke-linecap:square;stroke-width:1.5;"/>
    <g clip-path="url(#p25f2649868)">
     <use style="fill:#0000ff;stroke:#0000ff;" x="109.662185" xlink:href="#mbe466e1aa1" y="179.593312"/>
     <use style="fill:#0000ff;stroke:#0000ff;" x="109.800527" xlink:href="#mbe466e1aa1" y="191.17341"/>
    </g>
   </g>
   <g id="line2d_24">
    <path clip-path="url(#p25f2649868)" d="M 141.809907 188.862405 
L 141.788329 200.315418 
" style="fill:none;stroke:#0000ff;stroke-linecap:square;stroke-width:1.5;"/>
    <g clip-path="url(#p25f2649868)">
     <use style="fill:#0000ff;stroke:#0000ff;" x="141.809907" xlink:href="#mbe466e1aa1" y="188.862405"/>
     <use style="fill:#0000ff;stroke:#0000ff;" x="141.788329" xlink:href="#mbe466e1aa1" y="200.315418"/>
    </g>
   </g>
   <g id="line2d_25">
    <path clip-path="url(#p25f2649868)" d="M 174.653442 204.206877 
L 174.592846 207.954311 
" style="fill:none;stroke:#0000ff;stroke-linecap:square;stroke-width:1.5;"/>
    <g clip-path="url(#p25f2649868)">
     <use style="fill:#0000ff;stroke:#0000ff;" x="174.653442" xlink:href="#mbe466e1aa1" y="204.206877"/>
     <use style="fill:#0000ff;stroke:#0000ff;" x="174.592846" xlink:href="#mbe466e1aa1" y="207.954311"/>
    </g>
   </g>
   <g id="line2d_26">
    <path clip-path="url(#p25f2649868)" d="M 102.279982 144.565796 
L 102.490375 158.689486 
" style="fill:none;stroke:#008000;stroke-linecap:square;stroke-width:1.5;"/>
    <defs>
     <path d="M 3 0 
L -3 -0 
" id="mb19b492d19" style="stroke:#008000;"/>
    </defs>
    <g clip-path="url(#p25f2649868)">
     <use style="fill:#008000;stroke:#008000;" x="102.279982" xlink:href="#mb19b492d19" y="144.565796"/>
     <use style="fill:#008000;stroke:#008000;" x="102.490375" xlink:href="#mb19b492d19" y="158.689486"/>
    </g>
   </g>
   <g id="line2d_27">
    <path clip-path="url(#p25f2649868)" d="M 133.24061 157.87832 
L 133.260647 169.06339 
" style="fill:none;stroke:#008000;stroke-linecap:square;stroke-width:1.5;"/>
    <g clip-path="url(#p25f2649868)">
     <use style="fill:#008000;stroke:#008000;" x="133.24061" xlink:href="#mb19b492d19" y="157.87832"/>
     <use style="fill:#008000;stroke:#008000;" x="133.260647" xlink:href="#mb19b492d19" y="169.06339"/>
    </g>
   </g>
   <g id="line2d_28">
    <path clip-path="url(#p25f2649868)" d="M 164.846292 168.008469 
L 164.711728 179.486643 
" style="fill:none;stroke:#008000;stroke-linecap:square;stroke-width:1.5;"/>
    <g clip-path="url(#p25f2649868)">
     <use style="fill:#008000;stroke:#008000;" x="164.846292" xlink:href="#mb19b492d19" y="168.008469"/>
     <use style="fill:#008000;stroke:#008000;" x="164.711728" xlink:href="#mb19b492d19" y="179.486643"/>
    </g>
   </g>
   <g id="line2d_29">
    <path clip-path="url(#p25f2649868)" d="M 197.07623 182.081495 
L 196.981597 185.768359 
" style="fill:none;stroke:#008000;stroke-linecap:square;stroke-width:1.5;"/>
    <g clip-path="url(#p25f2649868)">
     <use style="fill:#008000;stroke:#008000;" x="197.07623" xlink:href="#mb19b492d19" y="182.081495"/>
     <use style="fill:#008000;stroke:#008000;" x="196.981597" xlink:href="#mb19b492d19" y="185.768359"/>
    </g>
   </g>
   <g id="line2d_30">
    <path clip-path="url(#p25f2649868)" d="M 125.168864 108.510656 
L 125.179139 110.516462 
" style="fill:none;stroke:#bfbf00;stroke-linecap:square;stroke-width:1.5;"/>
    <defs>
     <path d="M 3 0 
L -3 -0 
" id="m757968bf90" style="stroke:#bfbf00;"/>
    </defs>
    <g clip-path="url(#p25f2649868)">
     <use style="fill:#bfbf00;stroke:#bfbf00;" x="125.168864" xlink:href="#m757968bf90" y="108.510656"/>
     <use style="fill:#bfbf00;stroke:#bfbf00;" x="125.179139" xlink:href="#m757968bf90" y="110.516462"/>
    </g>
   </g>
   <g id="line2d_31">
    <path clip-path="url(#p25f2649868)" d="M 155.628092 143.914948 
L 155.613122 145.859125 
" style="fill:none;stroke:#bfbf00;stroke-linecap:square;stroke-width:1.5;"/>
    <g clip-path="url(#p25f2649868)">
     <use style="fill:#bfbf00;stroke:#bfbf00;" x="155.628092" xlink:href="#m757968bf90" y="143.914948"/>
     <use style="fill:#bfbf00;stroke:#bfbf00;" x="155.613122" xlink:href="#m757968bf90" y="145.859125"/>
    </g>
   </g>
   <g id="line2d_32">
    <path clip-path="url(#p25f2649868)" d="M 186.632481 152.955853 
L 186.591529 154.914323 
" style="fill:none;stroke:#bfbf00;stroke-linecap:square;stroke-width:1.5;"/>
    <g clip-path="url(#p25f2649868)">
     <use style="fill:#bfbf00;stroke:#bfbf00;" x="186.632481" xlink:href="#m757968bf90" y="152.955853"/>
     <use style="fill:#bfbf00;stroke:#bfbf00;" x="186.591529" xlink:href="#m757968bf90" y="154.914323"/>
    </g>
   </g>
   <g id="line2d_33">
    <path clip-path="url(#p25f2649868)" d="M 218.432403 159.563683 
L 218.388416 160.837738 
" style="fill:none;stroke:#bfbf00;stroke-linecap:square;stroke-width:1.5;"/>
    <g clip-path="url(#p25f2649868)">
     <use style="fill:#bfbf00;stroke:#bfbf00;" x="218.432403" xlink:href="#m757968bf90" y="159.563683"/>
     <use style="fill:#bfbf00;stroke:#bfbf00;" x="218.388416" xlink:href="#m757968bf90" y="160.837738"/>
    </g>
   </g>
   <g id="patch_6">
    <path clip-path="url(#p25f2649868)" d="M 143.415622 141.432133 
L 167.932803 148.590984 
L 167.934207 148.482441 
L 143.415895 141.324224 
L 143.415622 141.432133 
" style="fill:#bfbf00;opacity:0.5;"/>
   </g>
   <g id="text_15">
    <!-- 0.977 -->
    <g transform="translate(48.990893 84.131255)scale(0.1 -0.1)">
     <defs>
      <path d="M 1760 4544 
C 1338 4544 954 4358 717 4044 
C 422 3649 275 3043 275 2207 
C 275 683 787 -128 1760 -128 
C 2720 -128 3245 683 3245 2169 
C 3245 3049 3104 3636 2803 4044 
C 2566 4364 2189 4544 1760 4544 
z
M 1760 4044 
C 2368 4044 2669 3432 2669 2220 
C 2669 938 2374 339 1747 339 
C 1152 339 851 964 851 2201 
C 851 3438 1152 4044 1760 4044 
z
" id="NimbusSanL-Regu-30" transform="scale(0.015625)"/>
      <path d="M 1222 665 
L 557 665 
L 557 0 
L 1222 0 
L 1222 665 
z
" id="NimbusSanL-Regu-2e" transform="scale(0.015625)"/>
      <path d="M 339 1063 
C 448 313 934 -128 1626 -128 
C 2125 -128 2579 115 2842 519 
C 3130 966 3258 1528 3258 2351 
C 3258 3103 3142 3583 2874 3981 
C 2624 4345 2227 4544 1728 4544 
C 864 4544 243 3906 243 3027 
C 243 2193 819 1600 1638 1600 
C 2067 1600 2381 1753 2675 2105 
C 2669 992 2310 371 1664 371 
C 1267 371 992 623 902 1063 
L 339 1063 
z
M 1722 4051 
C 2246 4051 2643 3621 2643 3040 
C 2643 2490 2253 2099 1702 2099 
C 1158 2099 819 2471 819 3072 
C 819 3640 1203 4051 1722 4051 
z
" id="NimbusSanL-Regu-39" transform="scale(0.015625)"/>
      <path d="M 3328 4544 
L 294 4544 
L 294 3987 
L 2746 3987 
C 1664 2442 1222 1493 883 0 
L 1485 0 
C 1734 1454 2304 2704 3328 4070 
L 3328 4544 
z
" id="NimbusSanL-Regu-37" transform="scale(0.015625)"/>
     </defs>
     <use transform="scale(0.996264)" xlink:href="#NimbusSanL-Regu-30"/>
     <use transform="translate(55.391677 0)scale(0.996264)" xlink:href="#NimbusSanL-Regu-2e"/>
     <use transform="translate(83.086847 0)scale(0.996264)" xlink:href="#NimbusSanL-Regu-39"/>
     <use transform="translate(138.478524 0)scale(0.996264)" xlink:href="#NimbusSanL-Regu-37"/>
     <use transform="translate(193.8702 0)scale(0.996264)" xlink:href="#NimbusSanL-Regu-37"/>
    </g>
   </g>
   <g id="text_16">
    <!-- $|\Upsilon_g|$ -->
    <g transform="translate(250.074214 30.665074)scale(0.21 -0.21)">
     <defs>
      <path d="M 2515 2262 
C 2515 2544 2554 3089 2726 3506 
C 2906 3922 3187 4115 3533 4115 
C 3738 4115 4115 3999 4173 3531 
C 4179 3480 4179 3461 4237 3461 
C 4301 3461 4307 3480 4307 3544 
C 4307 3884 4083 4480 3526 4480 
C 2554 4480 2355 3236 2310 2909 
L 2304 2909 
C 2253 3243 2048 4480 1075 4480 
C 512 4480 294 3877 294 3544 
C 294 3480 301 3461 365 3461 
C 422 3461 422 3480 429 3531 
C 486 4006 864 4115 1069 4115 
C 2029 4115 2093 2647 2093 2262 
L 2093 461 
C 2093 230 2080 166 1594 166 
L 1453 166 
L 1453 0 
C 1722 12 2035 12 2304 12 
C 2573 12 2886 12 3155 0 
L 3155 166 
L 3014 166 
C 2528 166 2515 230 2515 461 
L 2515 2262 
z
" id="CMR17-7" transform="scale(0.015625)"/>
      <path d="M 2163 811 
C 2138 708 2125 683 2042 587 
C 1779 249 1510 128 1312 128 
C 1101 128 902 293 902 734 
C 902 1072 1094 1787 1235 2075 
C 1421 2432 1709 2687 1978 2687 
C 2400 2687 2483 2164 2483 2126 
L 2464 2036 
L 2163 811 
z
M 2560 2394 
C 2477 2579 2298 2816 1978 2816 
C 1280 2816 486 1941 486 989 
C 486 325 890 0 1299 0 
C 1638 0 1939 268 2054 396 
L 1914 -176 
C 1824 -520 1786 -677 1555 -896 
C 1293 -1152 1050 -1152 909 -1152 
C 717 -1152 557 -1140 397 -1090 
C 602 -1034 653 -858 653 -789 
C 653 -689 576 -589 435 -589 
C 282 -589 115 -714 115 -921 
C 115 -1178 378 -1280 922 -1280 
C 1747 -1280 2176 -758 2259 -420 
L 2970 2426 
C 2989 2502 2989 2515 2989 2528 
C 2989 2617 2918 2688 2822 2688 
C 2669 2688 2579 2560 2560 2388 
L 2560 2394 
z
" id="CMMI12-67" transform="scale(0.015625)"/>
     </defs>
     <use transform="scale(0.996264)" xlink:href="#CMSY10-6a"/>
     <use transform="translate(27.674085 0)scale(0.996264)" xlink:href="#CMR17-7"/>
     <use transform="translate(99.388873 -14.943915)scale(0.697382)" xlink:href="#CMMI12-67"/>
     <use transform="translate(135.086687 0)scale(0.996264)" xlink:href="#CMSY10-6a"/>
    </g>
   </g>
   <g id="patch_7">
    <path clip-path="url(#p25f2649868)" d="M 113.372244 132.65967 
L 137.353929 139.66216 
L 137.352893 112.951492 
L 113.102826 106.106868 
L 113.372244 132.65967 
" style="fill:#bfbf00;opacity:0.5;"/>
   </g>
   <g id="patch_8">
    <path clip-path="url(#p25f2649868)" d="M 174.130606 150.400701 
L 199.20142 157.721209 
L 199.204297 157.611867 
L 174.1323 150.291999 
L 174.130606 150.400701 
" style="fill:#bfbf00;opacity:0.5;"/>
   </g>
   <g id="patch_9">
    <path clip-path="url(#p25f2649868)" d="M 90.318552 152.163245 
L 114.686469 159.515737 
L 114.645851 155.329307 
L 90.235199 148.001392 
L 90.318552 152.163245 
" style="fill:#008000;opacity:0.5;"/>
   </g>
   <g id="patch_10">
    <path clip-path="url(#p25f2649868)" d="M 205.539972 159.572023 
L 231.183386 167.059727 
L 231.307951 163.952584 
L 205.629641 156.483155 
L 205.539972 159.572023 
" style="fill:#bfbf00;opacity:0.5;"/>
   </g>
   <g id="patch_11">
    <path clip-path="url(#p25f2649868)" d="M 120.847461 161.374683 
L 145.77316 168.895474 
L 145.779 167.256897 
L 120.835926 159.74574 
L 120.847461 161.374683 
" style="fill:#008000;opacity:0.5;"/>
   </g>
   <g id="patch_12">
    <path clip-path="url(#p25f2649868)" d="M 152.075986 170.797215 
L 177.57884 178.49215 
L 177.593809 177.624303 
L 152.081393 169.934483 
L 152.075986 170.797215 
" style="fill:#008000;opacity:0.5;"/>
   </g>
   <g id="patch_13">
    <path clip-path="url(#p25f2649868)" d="M 66.103203 172.649591 
L 90.866222 180.378997 
L 90.780974 176.124101 
L 65.973836 168.41984 
L 66.103203 172.649591 
" style="fill:#0000ff;opacity:0.5;"/>
   </g>
   <g id="patch_14">
    <path clip-path="url(#p25f2649868)" d="M 184.028455 180.438182 
L 210.128745 188.31338 
L 210.142307 187.881052 
L 184.037066 180.008408 
L 184.028455 180.438182 
" style="fill:#008000;opacity:0.5;"/>
   </g>
   <g id="patch_15">
    <path clip-path="url(#p25f2649868)" d="M 97.128897 182.333797 
L 122.473342 190.244687 
L 122.467679 189.36913 
L 97.11379 181.463416 
L 97.128897 182.333797 
" style="fill:#0000ff;opacity:0.5;"/>
   </g>
   <g id="patch_16">
    <path clip-path="url(#p25f2649868)" d="M 128.883926 192.245655 
L 154.830517 200.344495 
L 154.843172 198.666668 
L 128.877752 190.577776 
L 128.883926 192.245655 
" style="fill:#0000ff;opacity:0.5;"/>
   </g>
   <g id="patch_17">
    <path clip-path="url(#p25f2649868)" d="M 161.394313 202.393286 
L 187.964767 210.686856 
L 187.974442 210.247421 
L 161.398856 201.95646 
L 161.394313 202.393286 
" style="fill:#0000ff;opacity:0.5;"/>
   </g>
   <g id="patch_18">
    <path clip-path="url(#p25f2649868)" d="M 72.169666 204.389236 
L 97.943026 212.721382 
L 97.890587 209.678067 
L 72.08384 201.364027 
L 72.169666 204.389236 
" style="fill:#ff0000;opacity:0.5;"/>
   </g>
   <g id="patch_19">
    <path clip-path="url(#p25f2649868)" d="M 104.464104 214.82955 
L 130.866186 223.364953 
L 130.857345 220.298814 
L 104.420215 211.781687 
L 104.464104 214.82955 
" style="fill:#ff0000;opacity:0.5;"/>
   </g>
   <g id="patch_20">
    <path clip-path="url(#p25f2649868)" d="M 137.547313 225.524862 
L 164.601406 234.271051 
L 164.749105 221.919298 
L 137.54786 213.24733 
L 137.547313 225.524862 
" style="fill:#ff0000;opacity:0.5;"/>
   </g>
   <g id="patch_21">
    <path clip-path="url(#p25f2649868)" d="M 40.636123 194.194908 
L 65.802955 202.330972 
L 13.830718 -1468.286155 
L -28.458779 -1455.247129 
L 40.636123 194.194908 
" style="fill:#ff0000;opacity:0.5;"/>
   </g>
  </g>
  <g id="patch_22">
   <path d="M 311.563636 260.836364 
L 565.2 260.836364 
L 565.2 7.2 
L 311.563636 7.2 
z
" style="fill:#ffffff;"/>
  </g>
  <g id="pane3d_4">
   <g id="patch_23">
    <path d="M 330.714931 198.297765 
L 414.473942 128.089301 
L 413.309611 26.836146 
L 325.5423 90.884732 
" style="fill:#f2f2f2;opacity:0.5;stroke:#f2f2f2;stroke-linejoin:miter;"/>
   </g>
  </g>
  <g id="pane3d_5">
   <g id="patch_24">
    <path d="M 414.473942 128.089301 
L 548.877268 167.155042 
L 553.673649 62.414338 
L 413.309611 26.836146 
" style="fill:#e6e6e6;opacity:0.5;stroke:#e6e6e6;stroke-linejoin:miter;"/>
   </g>
  </g>
  <g id="pane3d_6">
   <g id="patch_25">
    <path d="M 330.714931 198.297765 
L 473.189022 244.829803 
L 548.877268 167.155042 
L 414.473942 128.089301 
" style="fill:#ececec;opacity:0.5;stroke:#ececec;stroke-linejoin:miter;"/>
   </g>
  </g>
  <g id="axis3d_4">
   <g id="line2d_34">
    <path d="M 330.714931 198.297765 
L 473.189022 244.829803 
" style="fill:none;stroke:#000000;stroke-linecap:square;stroke-width:0.8;"/>
   </g>
   <g id="Line3DCollection_4">
    <path d="M 351.901093 205.217165 
L 434.5352 133.920317 
L 434.222976 32.137074 
" style="fill:none;stroke:#b0b0b0;stroke-width:0.8;"/>
    <path d="M 383.823056 215.642878 
L 464.712457 142.691654 
L 465.706835 40.117315 
" style="fill:none;stroke:#b0b0b0;stroke-width:0.8;"/>
    <path d="M 416.522835 226.322626 
L 495.563143 151.658731 
L 497.924142 48.283463 
" style="fill:none;stroke:#b0b0b0;stroke-width:0.8;"/>
    <path d="M 450.029211 237.265808 
L 527.110056 160.828173 
L 530.900827 56.642091 
" style="fill:none;stroke:#b0b0b0;stroke-width:0.8;"/>
   </g>
   <g id="xtick_15">
    <g id="line2d_35">
     <path d="M 352.620944 204.596076 
L 350.458287 206.462021 
" style="fill:none;stroke:#000000;stroke-linecap:square;stroke-width:0.8;"/>
    </g>
    <g id="text_17">
     <!-- $|00\rangle$ -->
     <g transform="translate(331.266506 232.97704)scale(0.16 -0.16)">
      <use transform="scale(0.996264)" xlink:href="#CMSY10-6a"/>
      <use transform="translate(27.674085 0)scale(0.996264)" xlink:href="#CMR17-30"/>
      <use transform="translate(73.364562 0)scale(0.996264)" xlink:href="#CMR17-30"/>
      <use transform="translate(119.055039 0)scale(0.996264)" xlink:href="#CMSY10-69"/>
     </g>
    </g>
   </g>
   <g id="xtick_16">
    <g id="line2d_36">
     <path d="M 384.5284 215.006753 
L 382.409289 216.917904 
" style="fill:none;stroke:#000000;stroke-linecap:square;stroke-width:0.8;"/>
    </g>
    <g id="text_18">
     <!-- $|01\rangle$ -->
     <g transform="translate(363.224258 243.635097)scale(0.16 -0.16)">
      <use transform="scale(0.996264)" xlink:href="#CMSY10-6a"/>
      <use transform="translate(27.674085 0)scale(0.996264)" xlink:href="#CMR17-30"/>
      <use transform="translate(73.364562 0)scale(0.996264)" xlink:href="#CMR17-31"/>
      <use transform="translate(119.055039 0)scale(0.996264)" xlink:href="#CMSY10-69"/>
     </g>
    </g>
   </g>
   <g id="xtick_17">
    <g id="line2d_37">
     <path d="M 417.212749 225.670913 
L 415.139961 227.628931 
" style="fill:none;stroke:#000000;stroke-linecap:square;stroke-width:0.8;"/>
    </g>
    <g id="text_19">
     <!-- $|10\rangle$ -->
     <g transform="translate(395.963825 254.553893)scale(0.16 -0.16)">
      <use transform="scale(0.996264)" xlink:href="#CMSY10-6a"/>
      <use transform="translate(27.674085 0)scale(0.996264)" xlink:href="#CMR17-31"/>
      <use transform="translate(73.364562 0)scale(0.996264)" xlink:href="#CMR17-30"/>
      <use transform="translate(119.055039 0)scale(0.996264)" xlink:href="#CMSY10-69"/>
     </g>
    </g>
   </g>
   <g id="xtick_18">
    <g id="line2d_38">
     <path d="M 450.702713 236.597926 
L 448.679195 238.604559 
" style="fill:none;stroke:#000000;stroke-linecap:square;stroke-width:0.8;"/>
    </g>
    <g id="text_20">
     <!-- $|11\rangle$ -->
     <g transform="translate(429.514253 265.743115)scale(0.16 -0.16)">
      <use transform="scale(0.996264)" xlink:href="#CMSY10-6a"/>
      <use transform="translate(27.674085 0)scale(0.996264)" xlink:href="#CMR17-31"/>
      <use transform="translate(73.364562 0)scale(0.996264)" xlink:href="#CMR17-31"/>
      <use transform="translate(119.055039 0)scale(0.996264)" xlink:href="#CMSY10-69"/>
     </g>
    </g>
   </g>
  </g>
  <g id="axis3d_5">
   <g id="line2d_39">
    <path d="M 548.877268 167.155042 
L 473.189022 244.829803 
" style="fill:none;stroke:#000000;stroke-linecap:square;stroke-width:0.8;"/>
   </g>
   <g id="Line3DCollection_5">
    <path d="M 331.611627 86.455614 
L 336.486635 193.459808 
L 478.426063 239.45531 
" style="fill:none;stroke:#b0b0b0;stroke-width:0.8;"/>
    <path d="M 358.47036 66.855333 
L 362.064658 172.019802 
L 501.596288 215.676959 
" style="fill:none;stroke:#b0b0b0;stroke-width:0.8;"/>
    <path d="M 383.956402 48.256781 
L 386.390444 151.629446 
L 523.574233 193.122181 
" style="fill:none;stroke:#b0b0b0;stroke-width:0.8;"/>
    <path d="M 408.172363 30.585075 
L 409.553754 132.2135 
L 544.449616 171.698903 
" style="fill:none;stroke:#b0b0b0;stroke-width:0.8;"/>
   </g>
   <g id="xtick_19">
    <g id="line2d_40">
     <path d="M 477.229935 239.067705 
L 480.821412 240.231524 
" style="fill:none;stroke:#000000;stroke-linecap:square;stroke-width:0.8;"/>
    </g>
    <g id="text_21">
     <!-- $\langle 00|$ -->
     <g transform="translate(478.189663 264.834166)scale(0.16 -0.16)">
      <use transform="scale(0.996264)" xlink:href="#CMSY10-68"/>
      <use transform="translate(38.743734 0)scale(0.996264)" xlink:href="#CMR17-30"/>
      <use transform="translate(84.434211 0)scale(0.996264)" xlink:href="#CMR17-30"/>
      <use transform="translate(130.124688 0)scale(0.996264)" xlink:href="#CMSY10-6a"/>
     </g>
    </g>
   </g>
   <g id="xtick_20">
    <g id="line2d_41">
     <path d="M 500.422024 215.309551 
L 503.947774 216.4127 
" style="fill:none;stroke:#000000;stroke-linecap:square;stroke-width:0.8;"/>
    </g>
    <g id="text_22">
     <!-- $\langle 01|$ -->
     <g transform="translate(501.033689 240.686559)scale(0.16 -0.16)">
      <use transform="scale(0.996264)" xlink:href="#CMSY10-68"/>
      <use transform="translate(38.743734 0)scale(0.996264)" xlink:href="#CMR17-30"/>
      <use transform="translate(84.434211 0)scale(0.996264)" xlink:href="#CMR17-31"/>
      <use transform="translate(130.124688 0)scale(0.996264)" xlink:href="#CMSY10-6a"/>
     </g>
    </g>
   </g>
   <g id="xtick_21">
    <g id="line2d_42">
     <path d="M 522.421194 192.773432 
L 525.883139 193.820535 
" style="fill:none;stroke:#000000;stroke-linecap:square;stroke-width:0.8;"/>
    </g>
    <g id="text_23">
     <!-- $\langle 10|$ -->
     <g transform="translate(522.701518 217.782267)scale(0.16 -0.16)">
      <use transform="scale(0.996264)" xlink:href="#CMSY10-68"/>
      <use transform="translate(38.743734 0)scale(0.996264)" xlink:href="#CMR17-31"/>
      <use transform="translate(84.434211 0)scale(0.996264)" xlink:href="#CMR17-30"/>
      <use transform="translate(130.124688 0)scale(0.996264)" xlink:href="#CMSY10-6a"/>
     </g>
    </g>
   </g>
   <g id="xtick_22">
    <g id="line2d_43">
     <path d="M 543.317177 171.367426 
L 546.717201 172.362648 
" style="fill:none;stroke:#000000;stroke-linecap:square;stroke-width:0.8;"/>
    </g>
    <g id="text_24">
     <!-- $\langle 11|$ -->
     <g transform="translate(543.281711 196.027676)scale(0.16 -0.16)">
      <use transform="scale(0.996264)" xlink:href="#CMSY10-68"/>
      <use transform="translate(38.743734 0)scale(0.996264)" xlink:href="#CMR17-31"/>
      <use transform="translate(84.434211 0)scale(0.996264)" xlink:href="#CMR17-31"/>
      <use transform="translate(130.124688 0)scale(0.996264)" xlink:href="#CMSY10-6a"/>
     </g>
    </g>
   </g>
  </g>
  <g id="axis3d_6">
   <g id="line2d_44">
    <path d="M 548.877268 167.155042 
L 553.673649 62.414338 
" style="fill:none;stroke:#000000;stroke-linecap:square;stroke-width:0.8;"/>
   </g>
   <g id="Line3DCollection_6">
    <path d="M 548.969162 165.148326 
L 414.451588 126.145382 
L 330.615993 196.24325 
" style="fill:none;stroke:#b0b0b0;stroke-width:0.8;"/>
    <path d="M 549.85943 145.707134 
L 414.235119 107.320715 
L 329.657143 176.332117 
" style="fill:none;stroke:#b0b0b0;stroke-width:0.8;"/>
    <path d="M 550.764615 125.940206 
L 414.015198 88.19577 
L 328.681613 156.074599 
" style="fill:none;stroke:#b0b0b0;stroke-width:0.8;"/>
    <path d="M 551.685095 105.839288 
L 413.79174 68.763307 
L 327.688963 135.461578 
" style="fill:none;stroke:#b0b0b0;stroke-width:0.8;"/>
    <path d="M 552.62126 85.395841 
L 413.56466 49.015847 
L 326.678738 114.483613 
" style="fill:none;stroke:#b0b0b0;stroke-width:0.8;"/>
    <path d="M 553.573514 64.601035 
L 413.333869 28.945668 
L 325.650469 93.130925 
" style="fill:none;stroke:#b0b0b0;stroke-width:0.8;"/>
   </g>
   <g id="xtick_23">
    <g id="line2d_45">
     <path d="M 547.840143 164.820971 
L 551.229886 165.803816 
" style="fill:none;stroke:#000000;stroke-linecap:square;stroke-width:0.8;"/>
    </g>
    <g id="text_25">
     <!-- $\mathdefault{0.00}$ -->
     <g transform="translate(558.374724 169.646122)scale(0.1 -0.1)">
      <use transform="scale(0.996264)" xlink:href="#CMR17-30"/>
      <use transform="translate(45.690477 0)scale(0.996264)" xlink:href="#CMMI12-3a"/>
      <use transform="translate(72.787654 0)scale(0.996264)" xlink:href="#CMR17-30"/>
      <use transform="translate(118.478131 0)scale(0.996264)" xlink:href="#CMR17-30"/>
     </g>
    </g>
   </g>
   <g id="xtick_24">
    <g id="line2d_46">
     <path d="M 548.72068 145.384828 
L 552.139664 146.35252 
" style="fill:none;stroke:#000000;stroke-linecap:square;stroke-width:0.8;"/>
    </g>
    <g id="text_26">
     <!-- $\mathdefault{0.02}$ -->
     <g transform="translate(559.413398 150.245099)scale(0.1 -0.1)">
      <use transform="scale(0.996264)" xlink:href="#CMR17-30"/>
      <use transform="translate(45.690477 0)scale(0.996264)" xlink:href="#CMMI12-3a"/>
      <use transform="translate(72.787654 0)scale(0.996264)" xlink:href="#CMR17-30"/>
      <use transform="translate(118.478131 0)scale(0.996264)" xlink:href="#CMR17-32"/>
     </g>
    </g>
   </g>
   <g id="xtick_25">
    <g id="line2d_47">
     <path d="M 549.615965 125.623165 
L 553.064697 126.575056 
" style="fill:none;stroke:#000000;stroke-linecap:square;stroke-width:0.8;"/>
    </g>
    <g id="text_27">
     <!-- $\mathdefault{0.04}$ -->
     <g transform="translate(560.469419 130.520055)scale(0.1 -0.1)">
      <use transform="scale(0.996264)" xlink:href="#CMR17-30"/>
      <use transform="translate(45.690477 0)scale(0.996264)" xlink:href="#CMMI12-3a"/>
      <use transform="translate(72.787654 0)scale(0.996264)" xlink:href="#CMR17-30"/>
      <use transform="translate(118.478131 0)scale(0.996264)" xlink:href="#CMR17-34"/>
     </g>
    </g>
   </g>
   <g id="xtick_26">
    <g id="line2d_48">
     <path d="M 550.52637 105.527736 
L 554.005373 106.463151 
" style="fill:none;stroke:#000000;stroke-linecap:square;stroke-width:0.8;"/>
    </g>
    <g id="text_28">
     <!-- $\mathdefault{0.06}$ -->
     <g transform="translate(561.543225 110.462803)scale(0.1 -0.1)">
      <use transform="scale(0.996264)" xlink:href="#CMR17-30"/>
      <use transform="translate(45.690477 0)scale(0.996264)" xlink:href="#CMMI12-3a"/>
      <use transform="translate(72.787654 0)scale(0.996264)" xlink:href="#CMR17-30"/>
      <use transform="translate(118.478131 0)scale(0.996264)" xlink:href="#CMR17-36"/>
     </g>
    </g>
   </g>
   <g id="xtick_27">
    <g id="line2d_49">
     <path d="M 551.452283 85.090013 
L 554.962091 86.008249 
" style="fill:none;stroke:#000000;stroke-linecap:square;stroke-width:0.8;"/>
    </g>
    <g id="text_29">
     <!-- $\mathdefault{0.08}$ -->
     <g transform="translate(562.635269 90.06488)scale(0.1 -0.1)">
      <use transform="scale(0.996264)" xlink:href="#CMR17-30"/>
      <use transform="translate(45.690477 0)scale(0.996264)" xlink:href="#CMMI12-3a"/>
      <use transform="translate(72.787654 0)scale(0.996264)" xlink:href="#CMR17-30"/>
      <use transform="translate(118.478131 0)scale(0.996264)" xlink:href="#CMR17-38"/>
     </g>
    </g>
   </g>
   <g id="xtick_28">
    <g id="line2d_50">
     <path d="M 552.394102 64.301175 
L 555.935266 65.201501 
" style="fill:none;stroke:#000000;stroke-linecap:square;stroke-width:0.8;"/>
    </g>
    <g id="text_30">
     <!-- $\mathdefault{0.10}$ -->
     <g transform="translate(563.746021 69.31753)scale(0.1 -0.1)">
      <use transform="scale(0.996264)" xlink:href="#CMR17-30"/>
      <use transform="translate(45.690477 0)scale(0.996264)" xlink:href="#CMMI12-3a"/>
      <use transform="translate(72.787654 0)scale(0.996264)" xlink:href="#CMR17-31"/>
      <use transform="translate(118.478131 0)scale(0.996264)" xlink:href="#CMR17-30"/>
     </g>
    </g>
   </g>
  </g>
  <g id="axes_2">
   <g id="line2d_51">
    <path clip-path="url(#pf6ca97048f)" d="M 357.353216 193.580111 
L 357.405053 194.998949 
" style="fill:none;stroke:#ff0000;stroke-linecap:square;stroke-width:1.5;"/>
    <g clip-path="url(#pf6ca97048f)">
     <use style="fill:#ff0000;stroke:#ff0000;" x="357.353216" xlink:href="#maf65b9bb3f" y="193.580111"/>
     <use style="fill:#ff0000;stroke:#ff0000;" x="357.405053" xlink:href="#maf65b9bb3f" y="194.998949"/>
    </g>
   </g>
   <g id="line2d_52">
    <path clip-path="url(#pf6ca97048f)" d="M 389.266099 204.500753 
L 389.387945 209.836091 
" style="fill:none;stroke:#ff0000;stroke-linecap:square;stroke-width:1.5;"/>
    <g clip-path="url(#pf6ca97048f)">
     <use style="fill:#ff0000;stroke:#ff0000;" x="389.266099" xlink:href="#maf65b9bb3f" y="204.500753"/>
     <use style="fill:#ff0000;stroke:#ff0000;" x="389.387945" xlink:href="#maf65b9bb3f" y="209.836091"/>
    </g>
   </g>
   <g id="line2d_53">
    <path clip-path="url(#pf6ca97048f)" d="M 421.929481 215.011703 
L 421.97614 220.387017 
" style="fill:none;stroke:#ff0000;stroke-linecap:square;stroke-width:1.5;"/>
    <g clip-path="url(#pf6ca97048f)">
     <use style="fill:#ff0000;stroke:#ff0000;" x="421.929481" xlink:href="#maf65b9bb3f" y="215.011703"/>
     <use style="fill:#ff0000;stroke:#ff0000;" x="421.97614" xlink:href="#maf65b9bb3f" y="220.387017"/>
    </g>
   </g>
   <g id="line2d_54">
    <path clip-path="url(#pf6ca97048f)" d="M 455.444216 217.692443 
L 455.387285 227.243888 
" style="fill:none;stroke:#ff0000;stroke-linecap:square;stroke-width:1.5;"/>
    <g clip-path="url(#pf6ca97048f)">
     <use style="fill:#ff0000;stroke:#ff0000;" x="455.444216" xlink:href="#maf65b9bb3f" y="217.692443"/>
     <use style="fill:#ff0000;stroke:#ff0000;" x="455.387285" xlink:href="#maf65b9bb3f" y="227.243888"/>
    </g>
   </g>
   <g id="line2d_55">
    <path clip-path="url(#pf6ca97048f)" d="M 382.741271 174.52587 
L 382.811574 177.299918 
" style="fill:none;stroke:#0000ff;stroke-linecap:square;stroke-width:1.5;"/>
    <g clip-path="url(#pf6ca97048f)">
     <use style="fill:#0000ff;stroke:#0000ff;" x="382.741271" xlink:href="#mbe466e1aa1" y="174.52587"/>
     <use style="fill:#0000ff;stroke:#0000ff;" x="382.811574" xlink:href="#mbe466e1aa1" y="177.299918"/>
    </g>
   </g>
   <g id="line2d_56">
    <path clip-path="url(#pf6ca97048f)" d="M 414.022605 179.324041 
L 414.138426 189.019015 
" style="fill:none;stroke:#0000ff;stroke-linecap:square;stroke-width:1.5;"/>
    <g clip-path="url(#pf6ca97048f)">
     <use style="fill:#0000ff;stroke:#0000ff;" x="414.022605" xlink:href="#mbe466e1aa1" y="179.324041"/>
     <use style="fill:#0000ff;stroke:#0000ff;" x="414.138426" xlink:href="#mbe466e1aa1" y="189.019015"/>
    </g>
   </g>
   <g id="line2d_57">
    <path clip-path="url(#pf6ca97048f)" d="M 446.181297 184.747082 
L 446.149666 201.535607 
" style="fill:none;stroke:#0000ff;stroke-linecap:square;stroke-width:1.5;"/>
    <g clip-path="url(#pf6ca97048f)">
     <use style="fill:#0000ff;stroke:#0000ff;" x="446.181297" xlink:href="#mbe466e1aa1" y="184.747082"/>
     <use style="fill:#0000ff;stroke:#0000ff;" x="446.149666" xlink:href="#mbe466e1aa1" y="201.535607"/>
    </g>
   </g>
   <g id="line2d_58">
    <path clip-path="url(#pf6ca97048f)" d="M 479.188295 193.618339 
L 478.920563 210.175694 
" style="fill:none;stroke:#0000ff;stroke-linecap:square;stroke-width:1.5;"/>
    <g clip-path="url(#pf6ca97048f)">
     <use style="fill:#0000ff;stroke:#0000ff;" x="479.188295" xlink:href="#mbe466e1aa1" y="193.618339"/>
     <use style="fill:#0000ff;stroke:#0000ff;" x="478.920563" xlink:href="#mbe466e1aa1" y="210.175694"/>
    </g>
   </g>
   <g id="line2d_59">
    <path clip-path="url(#pf6ca97048f)" d="M 406.782426 153.88398 
L 406.823087 156.613533 
" style="fill:none;stroke:#008000;stroke-linecap:square;stroke-width:1.5;"/>
    <g clip-path="url(#pf6ca97048f)">
     <use style="fill:#008000;stroke:#008000;" x="406.782426" xlink:href="#mb19b492d19" y="153.88398"/>
     <use style="fill:#008000;stroke:#008000;" x="406.823087" xlink:href="#mb19b492d19" y="156.613533"/>
    </g>
   </g>
   <g id="line2d_60">
    <path clip-path="url(#pf6ca97048f)" d="M 437.597049 153.860259 
L 437.626419 170.25527 
" style="fill:none;stroke:#008000;stroke-linecap:square;stroke-width:1.5;"/>
    <g clip-path="url(#pf6ca97048f)">
     <use style="fill:#008000;stroke:#008000;" x="437.597049" xlink:href="#mb19b492d19" y="153.860259"/>
     <use style="fill:#008000;stroke:#008000;" x="437.626419" xlink:href="#mb19b492d19" y="170.25527"/>
    </g>
   </g>
   <g id="line2d_61">
    <path clip-path="url(#pf6ca97048f)" d="M 469.213057 167.741587 
L 469.1004 177.35109 
" style="fill:none;stroke:#008000;stroke-linecap:square;stroke-width:1.5;"/>
    <g clip-path="url(#pf6ca97048f)">
     <use style="fill:#008000;stroke:#008000;" x="469.213057" xlink:href="#mb19b492d19" y="167.741587"/>
     <use style="fill:#008000;stroke:#008000;" x="469.1004" xlink:href="#mb19b492d19" y="177.35109"/>
    </g>
   </g>
   <g id="line2d_62">
    <path clip-path="url(#pf6ca97048f)" d="M 501.707216 171.665761 
L 501.289133 187.953983 
" style="fill:none;stroke:#008000;stroke-linecap:square;stroke-width:1.5;"/>
    <g clip-path="url(#pf6ca97048f)">
     <use style="fill:#008000;stroke:#008000;" x="501.707216" xlink:href="#mb19b492d19" y="171.665761"/>
     <use style="fill:#008000;stroke:#008000;" x="501.289133" xlink:href="#mb19b492d19" y="187.953983"/>
    </g>
   </g>
   <g id="line2d_63">
    <path clip-path="url(#pf6ca97048f)" d="M 429.226564 48.784423 
L 429.236551 50.734107 
" style="fill:none;stroke:#bfbf00;stroke-linecap:square;stroke-width:1.5;"/>
    <g clip-path="url(#pf6ca97048f)">
     <use style="fill:#bfbf00;stroke:#bfbf00;" x="429.226564" xlink:href="#m757968bf90" y="48.784423"/>
     <use style="fill:#bfbf00;stroke:#bfbf00;" x="429.236551" xlink:href="#m757968bf90" y="50.734107"/>
    </g>
   </g>
   <g id="line2d_64">
    <path clip-path="url(#pf6ca97048f)" d="M 460.070385 133.699927 
L 459.987085 144.518028 
" style="fill:none;stroke:#bfbf00;stroke-linecap:square;stroke-width:1.5;"/>
    <g clip-path="url(#pf6ca97048f)">
     <use style="fill:#bfbf00;stroke:#bfbf00;" x="460.070385" xlink:href="#m757968bf90" y="133.699927"/>
     <use style="fill:#bfbf00;stroke:#bfbf00;" x="459.987085" xlink:href="#m757968bf90" y="144.518028"/>
    </g>
   </g>
   <g id="line2d_65">
    <path clip-path="url(#pf6ca97048f)" d="M 491.211298 142.66514 
L 490.983414 153.563371 
" style="fill:none;stroke:#bfbf00;stroke-linecap:square;stroke-width:1.5;"/>
    <g clip-path="url(#pf6ca97048f)">
     <use style="fill:#bfbf00;stroke:#bfbf00;" x="491.211298" xlink:href="#m757968bf90" y="142.66514"/>
     <use style="fill:#bfbf00;stroke:#bfbf00;" x="490.983414" xlink:href="#m757968bf90" y="153.563371"/>
    </g>
   </g>
   <g id="line2d_66">
    <path clip-path="url(#pf6ca97048f)" style="fill:none;stroke:#bfbf00;stroke-linecap:square;stroke-width:1.5;"/>
    <g clip-path="url(#pf6ca97048f)"/>
   </g>
   <g id="patch_26">
    <path clip-path="url(#pf6ca97048f)" d="M 447.779259 141.432133 
L 472.296439 148.590984 
L 472.372656 142.699383 
L 447.794051 135.575022 
L 447.779259 141.432133 
" style="fill:#bfbf00;opacity:0.5;"/>
   </g>
   <g id="text_31">
    <!-- 0.88 -->
    <g transform="translate(526.49622 52.392447)scale(0.1 -0.1)">
     <defs>
      <path d="M 2502 2399 
C 2970 2681 3123 2910 3123 3337 
C 3123 4044 2566 4544 1760 4544 
C 960 4544 397 4044 397 3337 
C 397 2917 550 2687 1011 2399 
C 493 2150 237 1774 237 1276 
C 237 447 864 -128 1760 -128 
C 2656 -128 3283 447 3283 1270 
C 3283 1774 3027 2150 2502 2399 
z
M 1760 4044 
C 2240 4044 2547 3764 2547 3324 
C 2547 2904 2234 2624 1760 2624 
C 1286 2624 973 2904 973 3331 
C 973 3764 1286 4044 1760 4044 
z
M 1760 2150 
C 2323 2150 2707 1793 2707 1264 
C 2707 728 2323 371 1747 371 
C 1197 371 813 734 813 1264 
C 813 1793 1197 2150 1760 2150 
z
" id="NimbusSanL-Regu-38" transform="scale(0.015625)"/>
     </defs>
     <use transform="scale(0.996264)" xlink:href="#NimbusSanL-Regu-30"/>
     <use transform="translate(55.391677 0)scale(0.996264)" xlink:href="#NimbusSanL-Regu-2e"/>
     <use transform="translate(83.086847 0)scale(0.996264)" xlink:href="#NimbusSanL-Regu-38"/>
     <use transform="translate(138.478524 0)scale(0.996264)" xlink:href="#NimbusSanL-Regu-38"/>
    </g>
   </g>
   <g id="text_32">
    <!-- $|\Upsilon_e|$ -->
    <g transform="translate(554.43785 30.665074)scale(0.21 -0.21)">
     <defs>
      <path d="M 1146 1472 
C 1318 1472 1754 1484 2061 1600 
C 2547 1786 2592 2160 2592 2275 
C 2592 2559 2349 2816 1926 2816 
C 1254 2816 288 2205 288 1066 
C 288 400 672 -64 1254 -64 
C 2125 -64 2675 609 2675 691 
C 2675 729 2637 761 2611 761 
C 2592 761 2586 755 2528 698 
C 2118 159 1510 64 1267 64 
C 902 64 710 349 710 818 
C 710 907 710 1066 806 1472 
L 1146 1472 
z
M 838 1600 
C 1114 2591 1722 2687 1926 2687 
C 2208 2687 2400 2520 2400 2275 
C 2400 1600 1376 1600 1107 1600 
L 838 1600 
z
" id="CMMI12-65" transform="scale(0.015625)"/>
     </defs>
     <use transform="scale(0.996264)" xlink:href="#CMSY10-6a"/>
     <use transform="translate(27.674085 0)scale(0.996264)" xlink:href="#CMR17-7"/>
     <use transform="translate(99.388873 -14.943915)scale(0.697382)" xlink:href="#CMMI12-65"/>
     <use transform="translate(131.535261 0)scale(0.996264)" xlink:href="#CMSY10-6a"/>
    </g>
   </g>
   <g id="patch_27">
    <path clip-path="url(#pf6ca97048f)" d="M 394.682189 152.163245 
L 419.050105 159.515737 
L 419.044526 158.940654 
L 394.670739 151.59153 
L 394.682189 152.163245 
" style="fill:#008000;opacity:0.5;"/>
   </g>
   <g id="patch_28">
    <path clip-path="url(#pf6ca97048f)" d="M 478.494243 150.400701 
L 503.565057 157.721209 
L 503.721191 151.786077 
L 478.58616 144.50043 
L 478.494243 150.400701 
" style="fill:#bfbf00;opacity:0.5;"/>
   </g>
   <g id="patch_29">
    <path clip-path="url(#pf6ca97048f)" d="M 417.735881 132.65967 
L 441.717566 139.66216 
L 441.714204 53.010019 
L 416.862054 46.538746 
L 417.735881 132.65967 
" style="fill:#bfbf00;opacity:0.5;"/>
   </g>
   <g id="patch_30">
    <path clip-path="url(#pf6ca97048f)" d="M 425.211097 161.374683 
L 450.136796 168.895474 
L 450.147633 165.854991 
L 425.189693 158.352093 
L 425.211097 161.374683 
" style="fill:#008000;opacity:0.5;"/>
   </g>
   <g id="patch_31">
    <path clip-path="url(#pf6ca97048f)" d="M 456.439622 170.797215 
L 481.942476 178.49215 
L 481.978299 176.415281 
L 456.452561 168.732595 
L 456.439622 170.797215 
" style="fill:#008000;opacity:0.5;"/>
   </g>
   <g id="patch_32">
    <path clip-path="url(#pf6ca97048f)" d="M 370.466839 172.649591 
L 395.229859 180.378997 
L 395.218149 179.794531 
L 370.449068 172.068571 
L 370.466839 172.649591 
" style="fill:#0000ff;opacity:0.5;"/>
   </g>
   <g id="patch_33">
    <path clip-path="url(#pf6ca97048f)" d="M 488.392091 180.438182 
L 514.492381 188.31338 
L 514.634567 183.780884 
L 488.482372 175.932533 
L 488.392091 180.438182 
" style="fill:#008000;opacity:0.5;"/>
   </g>
   <g id="patch_34">
    <path clip-path="url(#pf6ca97048f)" d="M 401.492533 182.333797 
L 426.836978 190.244687 
L 426.823426 188.149352 
L 401.456381 180.250859 
L 401.492533 182.333797 
" style="fill:#0000ff;opacity:0.5;"/>
   </g>
   <g id="patch_35">
    <path clip-path="url(#pf6ca97048f)" d="M 433.247562 192.245655 
L 459.194153 200.344495 
L 459.217636 197.231112 
L 433.236106 189.150749 
L 433.247562 192.245655 
" style="fill:#0000ff;opacity:0.5;"/>
   </g>
   <g id="patch_36">
    <path clip-path="url(#pf6ca97048f)" d="M 344.99976 194.194908 
L 370.166591 202.330972 
L 370.043219 198.365237 
L 344.834622 190.252733 
L 344.99976 194.194908 
" style="fill:#ff0000;opacity:0.5;"/>
   </g>
   <g id="patch_37">
    <path clip-path="url(#pf6ca97048f)" d="M 465.75795 202.393286 
L 492.328403 210.686856 
L 492.42984 206.079638 
L 465.805577 197.813498 
L 465.75795 202.393286 
" style="fill:#0000ff;opacity:0.5;"/>
   </g>
   <g id="patch_38">
    <path clip-path="url(#pf6ca97048f)" d="M 376.533303 204.389236 
L 402.306663 212.721382 
L 402.283092 211.35348 
L 376.494726 203.029463 
L 376.533303 204.389236 
" style="fill:#ff0000;opacity:0.5;"/>
   </g>
   <g id="patch_39">
    <path clip-path="url(#pf6ca97048f)" d="M 408.827741 214.82955 
L 435.229822 223.364953 
L 435.225849 221.986805 
L 408.808014 213.459607 
L 408.827741 214.82955 
" style="fill:#ff0000;opacity:0.5;"/>
   </g>
   <g id="patch_40">
    <path clip-path="url(#pf6ca97048f)" d="M 441.910949 225.524862 
L 468.965043 234.271051 
L 469.053776 226.850461 
L 441.911278 218.148706 
L 441.910949 225.524862 
" style="fill:#ff0000;opacity:0.5;"/>
   </g>
   <g id="patch_41">
    <path clip-path="url(#pf6ca97048f)" d="M 509.903608 159.572023 
L 535.547022 167.059727 
L 589.080761 -1168.281589 
L 548.242687 -1161.110958 
L 509.903608 159.572023 
" style="fill:#bfbf00;opacity:0.5;"/>
   </g>
  </g>
 </g>
 <defs>
  <clipPath id="p25f2649868">
   <rect height="253.636364" width="253.636364" x="7.2" y="7.2"/>
  </clipPath>
  <clipPath id="pf6ca97048f">
   <rect height="253.636364" width="253.636364" x="311.563636" y="7.2"/>
  </clipPath>
 </defs>
</svg>
