<?xml version="1.0" encoding="utf-8" standalone="no"?>
<!DOCTYPE svg PUBLIC "-//W3C//DTD SVG 1.1//EN"
  "http://www.w3.org/Graphics/SVG/1.1/DTD/svg11.dtd">
<svg height="261.280613pt" version="1.1" viewBox="0 0 373.911414 261.280613" width="373.911414pt" xmlns="http://www.w3.org/2000/svg" xmlns:xlink="http://www.w3.org/1999/xlink">
 <metadata>
  <rdf:RDF xmlns:cc="http://creativecommons.org/ns#" xmlns:dc="http://purl.org/dc/elements/1.1/" xmlns:rdf="http://www.w3.org/1999/02/22-rdf-syntax-ns#">
   <cc:Work>
    <dc:type rdf:resource="http://purl.org/dc/dcmitype/StillImage"/>
    <dc:date>2022-03-16T16:20:01.940001</dc:date>
    <dc:format>image/svg+xml</dc:format>
    <dc:creator>
     <cc:Agent>
      <dc:title>Matplotlib v3.4.2, https://matplotlib.org/</dc:title>
     </cc:Agent>
    </dc:creator>
   </cc:Work>
  </rdf:RDF>
 </metadata>
 <defs>
  <style type="text/css">*{stroke-linecap:butt;stroke-linejoin:round;}</style>
 </defs>
 <g id="figure_1">
  <g id="patch_1">
   <path d="M 0 261.280613 
L 373.911414 261.280613 
L 373.911414 0 
L 0 0 
z
" style="fill:none;"/>
  </g>
  <g id="axes_1">
   <g id="patch_2">
    <path d="M 31.911414 224.64 
L 366.711414 224.64 
L 366.711414 7.2 
L 31.911414 7.2 
z
" style="fill:#ffffff;"/>
   </g>
   <g id="matplotlib.axis_1">
    <g id="xtick_1">
     <g id="line2d_1">
      <defs>
       <path d="M 0 0 
L 0 3.5 
" id="m41c6752c18" style="stroke:#000000;stroke-width:0.8;"/>
      </defs>
      <g>
       <use style="stroke:#000000;stroke-width:0.8;" x="47.129596" xlink:href="#m41c6752c18" y="224.64"/>
      </g>
     </g>
     <g id="text_1">
      <!-- $\mathdefault{0}$ -->
      <g transform="translate(44.638928 238.73832)scale(0.1 -0.1)">
       <defs>
        <path d="M 2688 2038 
C 2688 2430 2682 3099 2413 3613 
C 2176 4063 1798 4224 1466 4224 
C 1158 4224 768 4082 525 3620 
C 269 3137 243 2539 243 2038 
C 243 1671 250 1112 448 623 
C 723 -39 1216 -128 1466 -128 
C 1760 -128 2208 -7 2470 604 
C 2662 1048 2688 1568 2688 2038 
z
M 1466 -26 
C 1056 -26 813 328 723 816 
C 653 1196 653 1749 653 2109 
C 653 2604 653 3015 736 3407 
C 858 3954 1216 4121 1466 4121 
C 1728 4121 2067 3947 2189 3420 
C 2272 3054 2278 2623 2278 2109 
C 2278 1691 2278 1176 2202 797 
C 2067 96 1690 -26 1466 -26 
z
" id="CMR17-30" transform="scale(0.015625)"/>
       </defs>
       <use transform="scale(0.996264)" xlink:href="#CMR17-30"/>
      </g>
     </g>
    </g>
    <g id="xtick_2">
     <g id="line2d_2">
      <g>
       <use style="stroke:#000000;stroke-width:0.8;" x="97.856869" xlink:href="#m41c6752c18" y="224.64"/>
      </g>
     </g>
     <g id="text_2">
      <!-- $\mathdefault{1}$ -->
      <g transform="translate(95.366201 238.73832)scale(0.1 -0.1)">
       <defs>
        <path d="M 1702 4083 
C 1702 4217 1696 4224 1606 4224 
C 1357 3927 979 3833 621 3820 
C 602 3820 570 3820 563 3808 
C 557 3795 557 3782 557 3648 
C 755 3648 1088 3686 1344 3839 
L 1344 467 
C 1344 243 1331 166 781 166 
L 589 166 
L 589 0 
C 896 6 1216 12 1523 12 
C 1830 12 2150 6 2458 0 
L 2458 166 
L 2266 166 
C 1715 166 1702 236 1702 467 
L 1702 4083 
z
" id="CMR17-31" transform="scale(0.015625)"/>
       </defs>
       <use transform="scale(0.996264)" xlink:href="#CMR17-31"/>
      </g>
     </g>
    </g>
    <g id="xtick_3">
     <g id="line2d_3">
      <g>
       <use style="stroke:#000000;stroke-width:0.8;" x="148.584142" xlink:href="#m41c6752c18" y="224.64"/>
      </g>
     </g>
     <g id="text_3">
      <!-- $\mathdefault{2}$ -->
      <g transform="translate(146.093474 238.73832)scale(0.1 -0.1)">
       <defs>
        <path d="M 2669 990 
L 2554 990 
C 2490 537 2438 460 2413 422 
C 2381 371 1920 371 1830 371 
L 602 371 
C 832 620 1280 1073 1824 1596 
C 2214 1966 2669 2400 2669 3033 
C 2669 3788 2067 4224 1395 4224 
C 691 4224 262 3603 262 3027 
C 262 2777 448 2745 525 2745 
C 589 2745 781 2783 781 3007 
C 781 3206 614 3264 525 3264 
C 486 3264 448 3257 422 3244 
C 544 3788 915 4057 1306 4057 
C 1862 4057 2227 3616 2227 3033 
C 2227 2477 1901 1998 1536 1583 
L 262 147 
L 262 0 
L 2515 0 
L 2669 990 
z
" id="CMR17-32" transform="scale(0.015625)"/>
       </defs>
       <use transform="scale(0.996264)" xlink:href="#CMR17-32"/>
      </g>
     </g>
    </g>
    <g id="xtick_4">
     <g id="line2d_4">
      <g>
       <use style="stroke:#000000;stroke-width:0.8;" x="199.311414" xlink:href="#m41c6752c18" y="224.64"/>
      </g>
     </g>
     <g id="text_4">
      <!-- $\mathdefault{3}$ -->
      <g transform="translate(196.820747 238.73832)scale(0.1 -0.1)">
       <defs>
        <path d="M 1414 2176 
C 1984 2176 2234 1673 2234 1094 
C 2234 322 1824 25 1453 25 
C 1114 25 563 193 390 691 
C 422 678 454 678 486 678 
C 640 678 755 780 755 947 
C 755 1132 614 1216 486 1216 
C 378 1216 211 1164 211 927 
C 211 335 787 -128 1466 -128 
C 2176 -128 2720 432 2720 1087 
C 2720 1718 2208 2176 1600 2246 
C 2086 2347 2554 2776 2554 3353 
C 2554 3856 2048 4224 1472 4224 
C 890 4224 378 3862 378 3347 
C 378 3123 544 3084 627 3084 
C 762 3084 877 3167 877 3334 
C 877 3500 762 3584 627 3584 
C 602 3584 570 3584 544 3571 
C 730 3999 1235 4076 1459 4076 
C 1683 4076 2106 3966 2106 3347 
C 2106 3167 2080 2851 1862 2574 
C 1670 2329 1453 2316 1242 2297 
C 1210 2297 1062 2284 1037 2284 
C 992 2278 966 2272 966 2227 
C 966 2182 973 2176 1101 2176 
L 1414 2176 
z
" id="CMR17-33" transform="scale(0.015625)"/>
       </defs>
       <use transform="scale(0.996264)" xlink:href="#CMR17-33"/>
      </g>
     </g>
    </g>
    <g id="xtick_5">
     <g id="line2d_5">
      <g>
       <use style="stroke:#000000;stroke-width:0.8;" x="250.038687" xlink:href="#m41c6752c18" y="224.64"/>
      </g>
     </g>
     <g id="text_5">
      <!-- $\mathdefault{4}$ -->
      <g transform="translate(247.548019 238.73832)scale(0.1 -0.1)">
       <defs>
        <path d="M 2150 4147 
C 2150 4281 2144 4288 2029 4288 
L 128 1254 
L 128 1088 
L 1779 1088 
L 1779 460 
C 1779 230 1766 166 1318 166 
L 1197 166 
L 1197 0 
C 1402 12 1747 12 1965 12 
C 2182 12 2528 12 2733 0 
L 2733 166 
L 2611 166 
C 2163 166 2150 230 2150 460 
L 2150 1088 
L 2803 1088 
L 2803 1254 
L 2150 1254 
L 2150 4147 
z
M 1798 3723 
L 1798 1254 
L 256 1254 
L 1798 3723 
z
" id="CMR17-34" transform="scale(0.015625)"/>
       </defs>
       <use transform="scale(0.996264)" xlink:href="#CMR17-34"/>
      </g>
     </g>
    </g>
    <g id="xtick_6">
     <g id="line2d_6">
      <g>
       <use style="stroke:#000000;stroke-width:0.8;" x="300.76596" xlink:href="#m41c6752c18" y="224.64"/>
      </g>
     </g>
     <g id="text_6">
      <!-- $\mathdefault{5}$ -->
      <g transform="translate(298.275292 238.73832)scale(0.1 -0.1)">
       <defs>
        <path d="M 730 3750 
C 794 3724 1056 3641 1325 3641 
C 1920 3641 2246 3961 2432 4140 
C 2432 4191 2432 4224 2394 4224 
C 2387 4224 2374 4224 2323 4198 
C 2099 4102 1837 4032 1517 4032 
C 1325 4032 1037 4055 723 4191 
C 653 4224 640 4224 634 4224 
C 602 4224 595 4217 595 4090 
L 595 2231 
C 595 2113 595 2080 659 2080 
C 691 2080 704 2093 736 2139 
C 941 2435 1222 2560 1542 2560 
C 1766 2560 2246 2415 2246 1293 
C 2246 1087 2246 716 2054 422 
C 1894 159 1645 25 1370 25 
C 947 25 518 319 403 812 
C 429 806 480 793 506 793 
C 589 793 749 838 749 1036 
C 749 1209 627 1280 506 1280 
C 358 1280 262 1190 262 1011 
C 262 454 704 -128 1382 -128 
C 2042 -128 2669 441 2669 1267 
C 2669 2054 2170 2662 1549 2662 
C 1222 2662 947 2540 730 2304 
L 730 3750 
z
" id="CMR17-35" transform="scale(0.015625)"/>
       </defs>
       <use transform="scale(0.996264)" xlink:href="#CMR17-35"/>
      </g>
     </g>
    </g>
    <g id="xtick_7">
     <g id="line2d_7">
      <g>
       <use style="stroke:#000000;stroke-width:0.8;" x="351.493232" xlink:href="#m41c6752c18" y="224.64"/>
      </g>
     </g>
     <g id="text_7">
      <!-- $\mathdefault{6}$ -->
      <g transform="translate(349.002565 238.73832)scale(0.1 -0.1)">
       <defs>
        <path d="M 678 2198 
C 678 3712 1395 4076 1811 4076 
C 1946 4076 2272 4049 2400 3782 
C 2298 3782 2106 3782 2106 3558 
C 2106 3385 2246 3328 2336 3328 
C 2394 3328 2566 3353 2566 3571 
C 2566 3987 2246 4224 1805 4224 
C 1043 4224 243 3411 243 2011 
C 243 257 966 -128 1478 -128 
C 2099 -128 2688 431 2688 1295 
C 2688 2101 2170 2688 1517 2688 
C 1126 2688 838 2430 678 1979 
L 678 2198 
z
M 1478 25 
C 691 25 691 1212 691 1450 
C 691 1914 909 2585 1504 2585 
C 1613 2585 1926 2585 2138 2140 
C 2253 1889 2253 1624 2253 1302 
C 2253 954 2253 696 2118 438 
C 1978 173 1773 25 1478 25 
z
" id="CMR17-36" transform="scale(0.015625)"/>
       </defs>
       <use transform="scale(0.996264)" xlink:href="#CMR17-36"/>
      </g>
     </g>
    </g>
    <g id="text_8">
     <!-- Qubit -->
     <g transform="translate(187.406245 251.958627)scale(0.1 -0.1)">
      <defs>
       <path d="M 4691 12 
L 4090 504 
C 4531 988 4749 1585 4749 2316 
C 4749 3753 3840 4736 2496 4736 
C 1152 4736 243 3753 243 2304 
C 243 854 1152 -128 2496 -128 
C 2957 -128 3341 -26 3718 198 
L 4390 -359 
L 4691 12 
z
M 3078 1325 
L 2784 969 
L 3258 574 
C 2982 447 2771 396 2490 396 
C 1498 396 838 1159 838 2304 
C 838 3448 1504 4211 2496 4211 
C 3488 4211 4154 3448 4154 2310 
C 4154 1712 3994 1248 3648 860 
L 3078 1325 
z
" id="NimbusSanL-Regu-51" transform="scale(0.015625)"/>
       <path d="M 3085 19 
L 3085 3328 
L 2554 3328 
L 2554 1454 
C 2554 780 2195 339 1638 339 
C 1216 339 947 591 947 988 
L 947 3328 
L 416 3328 
L 416 780 
C 416 230 832 -128 1485 -128 
C 1978 -128 2291 44 2605 484 
L 2605 19 
L 3085 19 
z
" id="NimbusSanL-Regu-75" transform="scale(0.015625)"/>
       <path d="M 346 4672 
L 346 19 
L 826 19 
L 826 447 
C 1082 57 1421 -128 1888 -128 
C 2771 -128 3347 594 3347 1702 
C 3347 2784 2797 3456 1914 3456 
C 1453 3456 1126 3283 877 2905 
L 877 4672 
L 346 4672 
z
M 1811 2956 
C 2406 2956 2790 2440 2790 1644 
C 2790 887 2394 371 1811 371 
C 1248 371 877 880 877 1663 
C 877 2447 1248 2956 1811 2956 
z
" id="NimbusSanL-Regu-62" transform="scale(0.015625)"/>
       <path d="M 960 3358 
L 429 3358 
L 429 0 
L 960 0 
L 960 3358 
z
M 960 4672 
L 422 4672 
L 422 3999 
L 960 3999 
L 960 4672 
z
" id="NimbusSanL-Regu-69" transform="scale(0.015625)"/>
       <path d="M 1626 3328 
L 1075 3328 
L 1075 4249 
L 544 4249 
L 544 3328 
L 90 3328 
L 90 2892 
L 544 2892 
L 544 402 
C 544 64 774 -128 1190 -128 
C 1318 -128 1446 -116 1626 -84 
L 1626 364 
C 1555 345 1472 339 1370 339 
C 1139 339 1075 402 1075 634 
L 1075 2892 
L 1626 2892 
L 1626 3328 
z
" id="NimbusSanL-Regu-74" transform="scale(0.015625)"/>
      </defs>
      <use transform="scale(0.996264)" xlink:href="#NimbusSanL-Regu-51"/>
      <use transform="translate(77.50837 0)scale(0.996264)" xlink:href="#NimbusSanL-Regu-75"/>
      <use transform="translate(132.900047 0)scale(0.996264)" xlink:href="#NimbusSanL-Regu-62"/>
      <use transform="translate(188.291724 0)scale(0.996264)" xlink:href="#NimbusSanL-Regu-69"/>
      <use transform="translate(210.408508 0)scale(0.996264)" xlink:href="#NimbusSanL-Regu-74"/>
     </g>
    </g>
   </g>
   <g id="matplotlib.axis_2">
    <g id="ytick_1">
     <g id="line2d_8">
      <defs>
       <path d="M 0 0 
L -3.5 0 
" id="m8f45b0a193" style="stroke:#000000;stroke-width:0.8;"/>
      </defs>
      <g>
       <use style="stroke:#000000;stroke-width:0.8;" x="31.911414" xlink:href="#m8f45b0a193" y="181.299469"/>
      </g>
     </g>
     <g id="text_9">
      <!-- $\mathdefault{0.92}$ -->
      <g transform="translate(7.2 184.84863)scale(0.1 -0.1)">
       <defs>
        <path d="M 1178 307 
C 1178 492 1024 620 870 620 
C 685 620 557 467 557 313 
C 557 128 710 0 864 0 
C 1050 0 1178 153 1178 307 
z
" id="CMMI12-3a" transform="scale(0.015625)"/>
        <path d="M 2253 1871 
C 2253 448 1670 25 1190 25 
C 1043 25 685 43 538 281 
C 704 256 826 345 826 505 
C 826 678 685 736 595 736 
C 538 736 365 710 365 492 
C 365 68 742 -128 1203 -128 
C 1939 -128 2688 665 2688 2090 
C 2688 3857 1971 4224 1485 4224 
C 851 4224 243 3664 243 2800 
C 243 2000 762 1408 1414 1408 
C 1952 1408 2189 1910 2253 2122 
L 2253 1871 
z
M 1427 1510 
C 1254 1510 1011 1542 813 1929 
C 678 2181 678 2477 678 2793 
C 678 3174 678 3438 858 3722 
C 947 3857 1114 4076 1485 4076 
C 2240 4076 2240 2909 2240 2651 
C 2240 2193 2035 1510 1427 1510 
z
" id="CMR17-39" transform="scale(0.015625)"/>
       </defs>
       <use transform="scale(0.996264)" xlink:href="#CMR17-30"/>
       <use transform="translate(45.690477 0)scale(0.996264)" xlink:href="#CMMI12-3a"/>
       <use transform="translate(72.787654 0)scale(0.996264)" xlink:href="#CMR17-39"/>
       <use transform="translate(118.478131 0)scale(0.996264)" xlink:href="#CMR17-32"/>
      </g>
     </g>
    </g>
    <g id="ytick_2">
     <g id="line2d_9">
      <g>
       <use style="stroke:#000000;stroke-width:0.8;" x="31.911414" xlink:href="#m8f45b0a193" y="136.221276"/>
      </g>
     </g>
     <g id="text_10">
      <!-- $\mathdefault{0.94}$ -->
      <g transform="translate(7.2 139.770436)scale(0.1 -0.1)">
       <use transform="scale(0.996264)" xlink:href="#CMR17-30"/>
       <use transform="translate(45.690477 0)scale(0.996264)" xlink:href="#CMMI12-3a"/>
       <use transform="translate(72.787654 0)scale(0.996264)" xlink:href="#CMR17-39"/>
       <use transform="translate(118.478131 0)scale(0.996264)" xlink:href="#CMR17-34"/>
      </g>
     </g>
    </g>
    <g id="ytick_3">
     <g id="line2d_10">
      <g>
       <use style="stroke:#000000;stroke-width:0.8;" x="31.911414" xlink:href="#m8f45b0a193" y="91.143082"/>
      </g>
     </g>
     <g id="text_11">
      <!-- $\mathdefault{0.96}$ -->
      <g transform="translate(7.2 94.692242)scale(0.1 -0.1)">
       <use transform="scale(0.996264)" xlink:href="#CMR17-30"/>
       <use transform="translate(45.690477 0)scale(0.996264)" xlink:href="#CMMI12-3a"/>
       <use transform="translate(72.787654 0)scale(0.996264)" xlink:href="#CMR17-39"/>
       <use transform="translate(118.478131 0)scale(0.996264)" xlink:href="#CMR17-36"/>
      </g>
     </g>
    </g>
    <g id="ytick_4">
     <g id="line2d_11">
      <g>
       <use style="stroke:#000000;stroke-width:0.8;" x="31.911414" xlink:href="#m8f45b0a193" y="46.064888"/>
      </g>
     </g>
     <g id="text_12">
      <!-- $\mathdefault{0.98}$ -->
      <g transform="translate(7.2 49.614049)scale(0.1 -0.1)">
       <defs>
        <path d="M 1741 2289 
C 2144 2494 2554 2803 2554 3298 
C 2554 3884 1990 4224 1472 4224 
C 890 4224 378 3800 378 3215 
C 378 3054 416 2777 666 2533 
C 730 2469 998 2276 1171 2154 
C 883 2006 211 1652 211 945 
C 211 282 838 -128 1459 -128 
C 2144 -128 2720 366 2720 1022 
C 2720 1607 2330 1877 2074 2051 
L 1741 2289 
z
M 902 2855 
C 851 2887 595 3086 595 3388 
C 595 3781 998 4076 1459 4076 
C 1965 4076 2336 3716 2336 3298 
C 2336 2700 1670 2359 1638 2359 
C 1632 2359 1626 2359 1574 2398 
L 902 2855 
z
M 2080 1536 
C 2176 1466 2483 1253 2483 861 
C 2483 385 2010 25 1472 25 
C 890 25 448 443 448 951 
C 448 1459 838 1884 1280 2083 
L 2080 1536 
z
" id="CMR17-38" transform="scale(0.015625)"/>
       </defs>
       <use transform="scale(0.996264)" xlink:href="#CMR17-30"/>
       <use transform="translate(45.690477 0)scale(0.996264)" xlink:href="#CMMI12-3a"/>
       <use transform="translate(72.787654 0)scale(0.996264)" xlink:href="#CMR17-39"/>
       <use transform="translate(118.478131 0)scale(0.996264)" xlink:href="#CMR17-38"/>
      </g>
     </g>
    </g>
   </g>
   <g id="LineCollection_1">
    <path clip-path="url(#pd856909c59)" d="M 47.129596 54.181539 
L 47.129596 47.959412 
" style="fill:none;stroke:#2ca02c;stroke-width:1.5;"/>
    <path clip-path="url(#pd856909c59)" d="M 97.856869 65.953884 
L 97.856869 56.806121 
" style="fill:none;stroke:#2ca02c;stroke-width:1.5;"/>
    <path clip-path="url(#pd856909c59)" d="M 148.584142 20.395769 
L 148.584142 17.083636 
" style="fill:none;stroke:#2ca02c;stroke-width:1.5;"/>
    <path clip-path="url(#pd856909c59)" d="M 199.311414 39.905535 
L 199.311414 34.217102 
" style="fill:none;stroke:#2ca02c;stroke-width:1.5;"/>
    <path clip-path="url(#pd856909c59)" d="M 250.038687 74.875431 
L 250.038687 69.836208 
" style="fill:none;stroke:#2ca02c;stroke-width:1.5;"/>
    <path clip-path="url(#pd856909c59)" d="M 300.76596 47.524094 
L 300.76596 41.853829 
" style="fill:none;stroke:#2ca02c;stroke-width:1.5;"/>
    <path clip-path="url(#pd856909c59)" d="M 351.493232 59.472815 
L 351.493232 53.177195 
" style="fill:none;stroke:#2ca02c;stroke-width:1.5;"/>
   </g>
   <g id="LineCollection_2">
    <path clip-path="url(#pd856909c59)" d="M 47.129596 173.011906 
L 47.129596 165.20199 
" style="fill:none;stroke:#ff7f0e;stroke-width:1.5;"/>
    <path clip-path="url(#pd856909c59)" d="M 97.856869 171.962351 
L 97.856869 155.106321 
" style="fill:none;stroke:#ff7f0e;stroke-width:1.5;"/>
    <path clip-path="url(#pd856909c59)" d="M 148.584142 112.040204 
L 148.584142 106.524487 
" style="fill:none;stroke:#ff7f0e;stroke-width:1.5;"/>
    <path clip-path="url(#pd856909c59)" d="M 199.311414 137.795722 
L 199.311414 128.630775 
" style="fill:none;stroke:#ff7f0e;stroke-width:1.5;"/>
    <path clip-path="url(#pd856909c59)" d="M 250.038687 184.193317 
L 250.038687 177.035102 
" style="fill:none;stroke:#ff7f0e;stroke-width:1.5;"/>
    <path clip-path="url(#pd856909c59)" d="M 300.76596 214.756364 
L 300.76596 205.495974 
" style="fill:none;stroke:#ff7f0e;stroke-width:1.5;"/>
    <path clip-path="url(#pd856909c59)" d="M 351.493232 173.40686 
L 351.493232 166.202812 
" style="fill:none;stroke:#ff7f0e;stroke-width:1.5;"/>
   </g>
   <g id="LineCollection_3">
    <path clip-path="url(#pd856909c59)" d="M 47.129596 112.232924 
L 47.129596 104.579282 
" style="fill:none;stroke:#1f77b4;stroke-width:1.5;"/>
    <path clip-path="url(#pd856909c59)" d="M 97.856869 147.090819 
L 97.856869 128.284847 
" style="fill:none;stroke:#1f77b4;stroke-width:1.5;"/>
    <path clip-path="url(#pd856909c59)" d="M 148.584142 105.402455 
L 148.584142 100.103017 
" style="fill:none;stroke:#1f77b4;stroke-width:1.5;"/>
    <path clip-path="url(#pd856909c59)" d="M 199.311414 121.150687 
L 199.311414 111.669624 
" style="fill:none;stroke:#1f77b4;stroke-width:1.5;"/>
    <path clip-path="url(#pd856909c59)" d="M 250.038687 155.293047 
L 250.038687 148.056118 
" style="fill:none;stroke:#1f77b4;stroke-width:1.5;"/>
    <path clip-path="url(#pd856909c59)" d="M 300.76596 199.985912 
L 300.76596 190.320866 
" style="fill:none;stroke:#1f77b4;stroke-width:1.5;"/>
    <path clip-path="url(#pd856909c59)" d="M 351.493232 141.930648 
L 351.493232 135.310334 
" style="fill:none;stroke:#1f77b4;stroke-width:1.5;"/>
   </g>
   <g id="line2d_12">
    <defs>
     <path d="M 5 0 
L -5 -0 
" id="m910959443a" style="stroke:#2ca02c;"/>
    </defs>
    <g clip-path="url(#pd856909c59)">
     <use style="fill:#2ca02c;stroke:#2ca02c;" x="47.129596" xlink:href="#m910959443a" y="54.181539"/>
     <use style="fill:#2ca02c;stroke:#2ca02c;" x="97.856869" xlink:href="#m910959443a" y="65.953884"/>
     <use style="fill:#2ca02c;stroke:#2ca02c;" x="148.584142" xlink:href="#m910959443a" y="20.395769"/>
     <use style="fill:#2ca02c;stroke:#2ca02c;" x="199.311414" xlink:href="#m910959443a" y="39.905535"/>
     <use style="fill:#2ca02c;stroke:#2ca02c;" x="250.038687" xlink:href="#m910959443a" y="74.875431"/>
     <use style="fill:#2ca02c;stroke:#2ca02c;" x="300.76596" xlink:href="#m910959443a" y="47.524094"/>
     <use style="fill:#2ca02c;stroke:#2ca02c;" x="351.493232" xlink:href="#m910959443a" y="59.472815"/>
    </g>
   </g>
   <g id="line2d_13">
    <g clip-path="url(#pd856909c59)">
     <use style="fill:#2ca02c;stroke:#2ca02c;" x="47.129596" xlink:href="#m910959443a" y="47.959412"/>
     <use style="fill:#2ca02c;stroke:#2ca02c;" x="97.856869" xlink:href="#m910959443a" y="56.806121"/>
     <use style="fill:#2ca02c;stroke:#2ca02c;" x="148.584142" xlink:href="#m910959443a" y="17.083636"/>
     <use style="fill:#2ca02c;stroke:#2ca02c;" x="199.311414" xlink:href="#m910959443a" y="34.217102"/>
     <use style="fill:#2ca02c;stroke:#2ca02c;" x="250.038687" xlink:href="#m910959443a" y="69.836208"/>
     <use style="fill:#2ca02c;stroke:#2ca02c;" x="300.76596" xlink:href="#m910959443a" y="41.853829"/>
     <use style="fill:#2ca02c;stroke:#2ca02c;" x="351.493232" xlink:href="#m910959443a" y="53.177195"/>
    </g>
   </g>
   <g id="line2d_14">
    <defs>
     <path d="M 5 0 
L -5 -0 
" id="me40a1b6481" style="stroke:#ff7f0e;"/>
    </defs>
    <g clip-path="url(#pd856909c59)">
     <use style="fill:#ff7f0e;stroke:#ff7f0e;" x="47.129596" xlink:href="#me40a1b6481" y="173.011906"/>
     <use style="fill:#ff7f0e;stroke:#ff7f0e;" x="97.856869" xlink:href="#me40a1b6481" y="171.962351"/>
     <use style="fill:#ff7f0e;stroke:#ff7f0e;" x="148.584142" xlink:href="#me40a1b6481" y="112.040204"/>
     <use style="fill:#ff7f0e;stroke:#ff7f0e;" x="199.311414" xlink:href="#me40a1b6481" y="137.795722"/>
     <use style="fill:#ff7f0e;stroke:#ff7f0e;" x="250.038687" xlink:href="#me40a1b6481" y="184.193317"/>
     <use style="fill:#ff7f0e;stroke:#ff7f0e;" x="300.76596" xlink:href="#me40a1b6481" y="214.756364"/>
     <use style="fill:#ff7f0e;stroke:#ff7f0e;" x="351.493232" xlink:href="#me40a1b6481" y="173.40686"/>
    </g>
   </g>
   <g id="line2d_15">
    <g clip-path="url(#pd856909c59)">
     <use style="fill:#ff7f0e;stroke:#ff7f0e;" x="47.129596" xlink:href="#me40a1b6481" y="165.20199"/>
     <use style="fill:#ff7f0e;stroke:#ff7f0e;" x="97.856869" xlink:href="#me40a1b6481" y="155.106321"/>
     <use style="fill:#ff7f0e;stroke:#ff7f0e;" x="148.584142" xlink:href="#me40a1b6481" y="106.524487"/>
     <use style="fill:#ff7f0e;stroke:#ff7f0e;" x="199.311414" xlink:href="#me40a1b6481" y="128.630775"/>
     <use style="fill:#ff7f0e;stroke:#ff7f0e;" x="250.038687" xlink:href="#me40a1b6481" y="177.035102"/>
     <use style="fill:#ff7f0e;stroke:#ff7f0e;" x="300.76596" xlink:href="#me40a1b6481" y="205.495974"/>
     <use style="fill:#ff7f0e;stroke:#ff7f0e;" x="351.493232" xlink:href="#me40a1b6481" y="166.202812"/>
    </g>
   </g>
   <g id="line2d_16">
    <defs>
     <path d="M 5 0 
L -5 -0 
" id="m1927281269" style="stroke:#1f77b4;"/>
    </defs>
    <g clip-path="url(#pd856909c59)">
     <use style="fill:#1f77b4;stroke:#1f77b4;" x="47.129596" xlink:href="#m1927281269" y="112.232924"/>
     <use style="fill:#1f77b4;stroke:#1f77b4;" x="97.856869" xlink:href="#m1927281269" y="147.090819"/>
     <use style="fill:#1f77b4;stroke:#1f77b4;" x="148.584142" xlink:href="#m1927281269" y="105.402455"/>
     <use style="fill:#1f77b4;stroke:#1f77b4;" x="199.311414" xlink:href="#m1927281269" y="121.150687"/>
     <use style="fill:#1f77b4;stroke:#1f77b4;" x="250.038687" xlink:href="#m1927281269" y="155.293047"/>
     <use style="fill:#1f77b4;stroke:#1f77b4;" x="300.76596" xlink:href="#m1927281269" y="199.985912"/>
     <use style="fill:#1f77b4;stroke:#1f77b4;" x="351.493232" xlink:href="#m1927281269" y="141.930648"/>
    </g>
   </g>
   <g id="line2d_17">
    <g clip-path="url(#pd856909c59)">
     <use style="fill:#1f77b4;stroke:#1f77b4;" x="47.129596" xlink:href="#m1927281269" y="104.579282"/>
     <use style="fill:#1f77b4;stroke:#1f77b4;" x="97.856869" xlink:href="#m1927281269" y="128.284847"/>
     <use style="fill:#1f77b4;stroke:#1f77b4;" x="148.584142" xlink:href="#m1927281269" y="100.103017"/>
     <use style="fill:#1f77b4;stroke:#1f77b4;" x="199.311414" xlink:href="#m1927281269" y="111.669624"/>
     <use style="fill:#1f77b4;stroke:#1f77b4;" x="250.038687" xlink:href="#m1927281269" y="148.056118"/>
     <use style="fill:#1f77b4;stroke:#1f77b4;" x="300.76596" xlink:href="#m1927281269" y="190.320866"/>
     <use style="fill:#1f77b4;stroke:#1f77b4;" x="351.493232" xlink:href="#m1927281269" y="135.310334"/>
    </g>
   </g>
   <g id="line2d_18">
    <path clip-path="url(#pd856909c59)" d="M 47.129596 51.070476 
L 97.856869 61.380003 
L 148.584142 18.739703 
L 199.311414 37.061318 
L 250.038687 72.35582 
L 300.76596 44.688961 
L 351.493232 56.325005 
" style="fill:none;stroke:#2ca02c;stroke-dasharray:5.55,2.4;stroke-dashoffset:0;stroke-width:1.5;"/>
    <defs>
     <path d="M 0 3 
C 0.795609 3 1.55874 2.683901 2.12132 2.12132 
C 2.683901 1.55874 3 0.795609 3 0 
C 3 -0.795609 2.683901 -1.55874 2.12132 -2.12132 
C 1.55874 -2.683901 0.795609 -3 0 -3 
C -0.795609 -3 -1.55874 -2.683901 -2.12132 -2.12132 
C -2.683901 -1.55874 -3 -0.795609 -3 0 
C -3 0.795609 -2.683901 1.55874 -2.12132 2.12132 
C -1.55874 2.683901 -0.795609 3 0 3 
z
" id="mcd91bf18ab" style="stroke:#2ca02c;"/>
    </defs>
    <g clip-path="url(#pd856909c59)">
     <use style="fill:#2ca02c;stroke:#2ca02c;" x="47.129596" xlink:href="#mcd91bf18ab" y="51.070476"/>
     <use style="fill:#2ca02c;stroke:#2ca02c;" x="97.856869" xlink:href="#mcd91bf18ab" y="61.380003"/>
     <use style="fill:#2ca02c;stroke:#2ca02c;" x="148.584142" xlink:href="#mcd91bf18ab" y="18.739703"/>
     <use style="fill:#2ca02c;stroke:#2ca02c;" x="199.311414" xlink:href="#mcd91bf18ab" y="37.061318"/>
     <use style="fill:#2ca02c;stroke:#2ca02c;" x="250.038687" xlink:href="#mcd91bf18ab" y="72.35582"/>
     <use style="fill:#2ca02c;stroke:#2ca02c;" x="300.76596" xlink:href="#mcd91bf18ab" y="44.688961"/>
     <use style="fill:#2ca02c;stroke:#2ca02c;" x="351.493232" xlink:href="#mcd91bf18ab" y="56.325005"/>
    </g>
   </g>
   <g id="line2d_19">
    <path clip-path="url(#pd856909c59)" d="M 47.129596 169.106948 
L 97.856869 163.534336 
L 148.584142 109.282345 
L 199.311414 133.213248 
L 250.038687 180.61421 
L 300.76596 210.126169 
L 351.493232 169.804836 
" style="fill:none;stroke:#ff7f0e;stroke-dasharray:5.55,2.4;stroke-dashoffset:0;stroke-width:1.5;"/>
    <defs>
     <path d="M 0 3 
C 0.795609 3 1.55874 2.683901 2.12132 2.12132 
C 2.683901 1.55874 3 0.795609 3 0 
C 3 -0.795609 2.683901 -1.55874 2.12132 -2.12132 
C 1.55874 -2.683901 0.795609 -3 0 -3 
C -0.795609 -3 -1.55874 -2.683901 -2.12132 -2.12132 
C -2.683901 -1.55874 -3 -0.795609 -3 0 
C -3 0.795609 -2.683901 1.55874 -2.12132 2.12132 
C -1.55874 2.683901 -0.795609 3 0 3 
z
" id="mcd920fd7f4" style="stroke:#ff7f0e;"/>
    </defs>
    <g clip-path="url(#pd856909c59)">
     <use style="fill:#ff7f0e;stroke:#ff7f0e;" x="47.129596" xlink:href="#mcd920fd7f4" y="169.106948"/>
     <use style="fill:#ff7f0e;stroke:#ff7f0e;" x="97.856869" xlink:href="#mcd920fd7f4" y="163.534336"/>
     <use style="fill:#ff7f0e;stroke:#ff7f0e;" x="148.584142" xlink:href="#mcd920fd7f4" y="109.282345"/>
     <use style="fill:#ff7f0e;stroke:#ff7f0e;" x="199.311414" xlink:href="#mcd920fd7f4" y="133.213248"/>
     <use style="fill:#ff7f0e;stroke:#ff7f0e;" x="250.038687" xlink:href="#mcd920fd7f4" y="180.61421"/>
     <use style="fill:#ff7f0e;stroke:#ff7f0e;" x="300.76596" xlink:href="#mcd920fd7f4" y="210.126169"/>
     <use style="fill:#ff7f0e;stroke:#ff7f0e;" x="351.493232" xlink:href="#mcd920fd7f4" y="169.804836"/>
    </g>
   </g>
   <g id="line2d_20">
    <path clip-path="url(#pd856909c59)" d="M 47.129596 108.406103 
L 97.856869 137.687833 
L 148.584142 102.752736 
L 199.311414 116.410156 
L 250.038687 151.674582 
L 300.76596 195.153389 
L 351.493232 138.620491 
" style="fill:none;stroke:#1f77b4;stroke-dasharray:5.55,2.4;stroke-dashoffset:0;stroke-width:1.5;"/>
    <defs>
     <path d="M 0 3 
C 0.795609 3 1.55874 2.683901 2.12132 2.12132 
C 2.683901 1.55874 3 0.795609 3 0 
C 3 -0.795609 2.683901 -1.55874 2.12132 -2.12132 
C 1.55874 -2.683901 0.795609 -3 0 -3 
C -0.795609 -3 -1.55874 -2.683901 -2.12132 -2.12132 
C -2.683901 -1.55874 -3 -0.795609 -3 0 
C -3 0.795609 -2.683901 1.55874 -2.12132 2.12132 
C -1.55874 2.683901 -0.795609 3 0 3 
z
" id="mc10a05d36b" style="stroke:#1f77b4;"/>
    </defs>
    <g clip-path="url(#pd856909c59)">
     <use style="fill:#1f77b4;stroke:#1f77b4;" x="47.129596" xlink:href="#mc10a05d36b" y="108.406103"/>
     <use style="fill:#1f77b4;stroke:#1f77b4;" x="97.856869" xlink:href="#mc10a05d36b" y="137.687833"/>
     <use style="fill:#1f77b4;stroke:#1f77b4;" x="148.584142" xlink:href="#mc10a05d36b" y="102.752736"/>
     <use style="fill:#1f77b4;stroke:#1f77b4;" x="199.311414" xlink:href="#mc10a05d36b" y="116.410156"/>
     <use style="fill:#1f77b4;stroke:#1f77b4;" x="250.038687" xlink:href="#mc10a05d36b" y="151.674582"/>
     <use style="fill:#1f77b4;stroke:#1f77b4;" x="300.76596" xlink:href="#mc10a05d36b" y="195.153389"/>
     <use style="fill:#1f77b4;stroke:#1f77b4;" x="351.493232" xlink:href="#mc10a05d36b" y="138.620491"/>
    </g>
   </g>
   <g id="patch_3">
    <path d="M 31.911414 224.64 
L 31.911414 7.2 
" style="fill:none;stroke:#000000;stroke-linecap:square;stroke-linejoin:miter;stroke-width:0.8;"/>
   </g>
   <g id="patch_4">
    <path d="M 366.711414 224.64 
L 366.711414 7.2 
" style="fill:none;stroke:#000000;stroke-linecap:square;stroke-linejoin:miter;stroke-width:0.8;"/>
   </g>
   <g id="patch_5">
    <path d="M 31.911414 224.64 
L 366.711414 224.64 
" style="fill:none;stroke:#000000;stroke-linecap:square;stroke-linejoin:miter;stroke-width:0.8;"/>
   </g>
   <g id="patch_6">
    <path d="M 31.911414 7.2 
L 366.711414 7.2 
" style="fill:none;stroke:#000000;stroke-linecap:square;stroke-linejoin:miter;stroke-width:0.8;"/>
   </g>
   <g id="legend_1">
    <g id="patch_7">
     <path d="M 38.911414 219.64 
L 96.317454 219.64 
Q 98.317454 219.64 98.317454 217.64 
L 98.317454 175.97908 
Q 98.317454 173.97908 96.317454 173.97908 
L 38.911414 173.97908 
Q 36.911414 173.97908 36.911414 175.97908 
L 36.911414 217.64 
Q 36.911414 219.64 38.911414 219.64 
z
" style="fill:#ffffff;opacity:0.8;stroke:#cccccc;stroke-linejoin:miter;"/>
    </g>
    <g id="LineCollection_4">
     <path d="M 50.911414 186.5774 
L 50.911414 176.5774 
" style="fill:none;stroke:#2ca02c;stroke-width:1.5;"/>
    </g>
    <g id="line2d_21">
     <g>
      <use style="fill:#2ca02c;stroke:#2ca02c;" x="50.911414" xlink:href="#m910959443a" y="186.5774"/>
     </g>
    </g>
    <g id="line2d_22">
     <g>
      <use style="fill:#2ca02c;stroke:#2ca02c;" x="50.911414" xlink:href="#m910959443a" y="176.5774"/>
     </g>
    </g>
    <g id="line2d_23">
     <path d="M 40.911414 181.5774 
L 60.911414 181.5774 
" style="fill:none;stroke:#2ca02c;stroke-dasharray:5.55,2.4;stroke-dashoffset:0;stroke-width:1.5;"/>
    </g>
    <g id="line2d_24">
     <g>
      <use style="fill:#2ca02c;stroke:#2ca02c;" x="50.911414" xlink:href="#mcd91bf18ab" y="181.5774"/>
     </g>
    </g>
    <g id="text_13">
     <!-- $F$ -->
     <g transform="translate(68.911414 185.0774)scale(0.1 -0.1)">
      <defs>
       <path d="M 1901 2054 
L 2515 2054 
C 3002 2054 3040 1947 3040 1764 
C 3040 1683 3027 1595 2995 1456 
C 2982 1431 2976 1399 2976 1387 
C 2976 1343 3002 1318 3046 1318 
C 3098 1318 3104 1343 3130 1444 
L 3501 2929 
C 3501 2955 3482 2993 3437 2993 
C 3379 2993 3373 2968 3347 2858 
C 3213 2375 3085 2240 2528 2240 
L 1946 2240 
L 2362 3908 
C 2419 4134 2432 4153 2694 4153 
L 3552 4153 
C 4352 4153 4467 3915 4467 3457 
C 4467 3419 4467 3277 4448 3109 
C 4442 3084 4429 3000 4429 2974 
C 4429 2922 4461 2903 4499 2903 
C 4544 2903 4570 2929 4582 3045 
L 4717 4172 
C 4717 4191 4730 4255 4730 4268 
C 4730 4339 4672 4339 4557 4339 
L 1523 4339 
C 1402 4339 1338 4339 1338 4223 
C 1338 4153 1382 4153 1491 4153 
C 1888 4153 1888 4108 1888 4037 
C 1888 4005 1882 3979 1862 3908 
L 998 468 
C 941 248 928 185 480 185 
C 358 185 294 185 294 70 
C 294 0 352 0 390 0 
C 512 0 640 12 762 12 
L 1594 12 
C 1734 12 1888 0 2029 0 
C 2086 0 2163 0 2163 115 
C 2163 185 2125 185 1984 185 
C 1478 185 1466 229 1466 324 
C 1466 355 1478 405 1491 449 
L 1901 2054 
z
" id="CMMI12-46" transform="scale(0.015625)"/>
      </defs>
      <use transform="scale(0.996264)" xlink:href="#CMMI12-46"/>
     </g>
    </g>
    <g id="LineCollection_5">
     <path d="M 50.911414 200.797707 
L 50.911414 190.797707 
" style="fill:none;stroke:#ff7f0e;stroke-width:1.5;"/>
    </g>
    <g id="line2d_25">
     <g>
      <use style="fill:#ff7f0e;stroke:#ff7f0e;" x="50.911414" xlink:href="#me40a1b6481" y="200.797707"/>
     </g>
    </g>
    <g id="line2d_26">
     <g>
      <use style="fill:#ff7f0e;stroke:#ff7f0e;" x="50.911414" xlink:href="#me40a1b6481" y="190.797707"/>
     </g>
    </g>
    <g id="line2d_27">
     <path d="M 40.911414 195.797707 
L 60.911414 195.797707 
" style="fill:none;stroke:#ff7f0e;stroke-dasharray:5.55,2.4;stroke-dashoffset:0;stroke-width:1.5;"/>
    </g>
    <g id="line2d_28">
     <g>
      <use style="fill:#ff7f0e;stroke:#ff7f0e;" x="50.911414" xlink:href="#mcd920fd7f4" y="195.797707"/>
     </g>
    </g>
    <g id="text_14">
     <!-- $Q$ -->
     <g transform="translate(68.911414 199.297707)scale(0.1 -0.1)">
      <defs>
       <path d="M 2726 45 
C 3827 493 4646 1654 4646 2798 
C 4646 3840 3955 4480 3059 4480 
C 1690 4480 307 3025 307 1566 
C 307 565 973 -128 1901 -128 
C 2118 -128 2330 -96 2534 -32 
C 2496 -406 2496 -437 2496 -554 
C 2496 -736 2496 -1216 3008 -1216 
C 3770 -1216 4051 -39 4051 0 
C 4051 38 4026 64 3994 64 
C 3955 64 3942 32 3923 -39 
C 3782 -431 3450 -653 3168 -653 
C 2842 -653 2758 -437 2726 45 
z
M 1574 77 
C 1069 253 826 792 826 1376 
C 826 1819 992 2659 1414 3297 
C 1888 4017 2522 4339 3021 4339 
C 3686 4339 4134 3808 4134 2987 
C 4134 2520 3910 953 2707 240 
C 2675 571 2586 960 2163 960 
C 1818 960 1523 610 1523 292 
C 1523 220 1549 123 1574 77 
z
M 2547 155 
C 2317 51 2118 12 1939 12 
C 1875 12 1651 12 1651 298 
C 1651 532 1875 831 2163 831 
C 2483 831 2554 610 2554 285 
C 2554 246 2554 194 2547 155 
z
" id="CMMI12-51" transform="scale(0.015625)"/>
      </defs>
      <use transform="scale(0.996264)" xlink:href="#CMMI12-51"/>
     </g>
    </g>
    <g id="LineCollection_6">
     <path d="M 50.911414 215.018014 
L 50.911414 205.018014 
" style="fill:none;stroke:#1f77b4;stroke-width:1.5;"/>
    </g>
    <g id="line2d_29">
     <g>
      <use style="fill:#1f77b4;stroke:#1f77b4;" x="50.911414" xlink:href="#m1927281269" y="215.018014"/>
     </g>
    </g>
    <g id="line2d_30">
     <g>
      <use style="fill:#1f77b4;stroke:#1f77b4;" x="50.911414" xlink:href="#m1927281269" y="205.018014"/>
     </g>
    </g>
    <g id="line2d_31">
     <path d="M 40.911414 210.018014 
L 60.911414 210.018014 
" style="fill:none;stroke:#1f77b4;stroke-dasharray:5.55,2.4;stroke-dashoffset:0;stroke-width:1.5;"/>
    </g>
    <g id="line2d_32">
     <g>
      <use style="fill:#1f77b4;stroke:#1f77b4;" x="50.911414" xlink:href="#mc10a05d36b" y="210.018014"/>
     </g>
    </g>
    <g id="text_15">
     <!-- $1-D$ -->
     <g transform="translate(68.911414 213.518014)scale(0.1 -0.1)">
      <defs>
       <path d="M 4218 1472 
C 4326 1472 4442 1472 4442 1600 
C 4442 1728 4326 1728 4218 1728 
L 755 1728 
C 646 1728 531 1728 531 1600 
C 531 1472 646 1472 755 1472 
L 4218 1472 
z
" id="CMSY10-0" transform="scale(0.015625)"/>
       <path d="M 1005 472 
C 947 249 934 185 486 185 
C 365 185 301 185 301 70 
C 301 0 339 0 467 0 
L 2496 0 
C 3789 0 5050 1332 5050 2752 
C 5050 3669 4499 4352 3584 4352 
L 1530 4352 
C 1408 4352 1350 4352 1350 4230 
C 1350 4166 1408 4166 1504 4166 
C 1894 4166 1894 4115 1894 4045 
C 1894 4032 1894 3994 1869 3898 
L 1005 472 
z
M 2355 3917 
C 2413 4153 2438 4166 2688 4166 
L 3392 4166 
C 3994 4166 4544 3841 4544 2962 
C 4544 2644 4416 1535 3795 835 
C 3616 625 3130 185 2394 185 
L 1664 185 
C 1574 185 1562 185 1523 191 
C 1453 198 1446 211 1446 262 
C 1446 306 1459 344 1472 402 
L 2355 3917 
z
" id="CMMI12-44" transform="scale(0.015625)"/>
      </defs>
      <use transform="scale(0.996264)" xlink:href="#CMR17-31"/>
      <use transform="translate(67.829684 0)scale(0.996264)" xlink:href="#CMSY10-0"/>
      <use transform="translate(167.456359 0)scale(0.996264)" xlink:href="#CMMI12-44"/>
     </g>
    </g>
   </g>
  </g>
 </g>
 <defs>
  <clipPath id="pd856909c59">
   <rect height="217.44" width="334.8" x="31.911414" y="7.2"/>
  </clipPath>
 </defs>
</svg>
